<svg xmlns="http://www.w3.org/2000/svg" xmlns:xlink="http://www.w3.org/1999/xlink" width="131" height="77.309" viewBox="0 0 131 77.309"><defs><style>.a{fill:#FF9C05;}.b{fill:#231815;}.c{fill:#fff;font-size:22px;}.c,.f{font-family:SFProDisplay-Semibold, SF Pro Display;font-weight:600;}.d{opacity:0.245;mix-blend-mode:multiply;isolation:isolate;fill:url(#a);}.e{fill:#f7f7f7;}.f,.g{fill:#3c3c46;}.f{font-size:14px;}.g{font-size:12px;font-family:SFProDisplay-Regular, SF Pro Display;opacity:0.8;}</style><linearGradient id="a" y1="-15.538" x2="1" y2="-15.538" gradientUnits="objectBoundingBox"><stop offset="0" stop-color="#656464"/><stop offset="1" stop-color="#fff"/></linearGradient></defs><g transform="translate(-1043 -301.691)"><rect class="a" width="125.536" height="40.135" transform="translate(1045.272 316.616)"/><g transform="translate(1044.569 315.913)"><path class="b" d="M2228.364,512.756h-1.406v.7h1.406v-.7Zm-2.812,0h-1.406v.7h1.406v-.7Zm-2.812,0h-1.406v.7h1.406v-.7Zm-2.812,0h-1.406v.7h1.406v-.7Zm-2.812,0h-1.406v.7h1.406v-.7Zm-2.812,0H2212.9v.7h1.406v-.7Zm-2.812,0h-1.406v.7h1.406v-.7Zm-2.812,0h-1.406v.7h1.406v-.7Zm-2.812,0h-1.406v.7h1.406v-.7Zm-2.812,0h-1.406v.7h1.406v-.7Zm-2.812,0h-1.406v.7h1.406v-.7Zm-2.812,0h-1.406v.7h1.406v-.7Zm-2.812,0h-1.406v.7h1.406v-.7Zm-2.812,0H2190.4v.7h1.406v-.7Zm-2.812,0h-1.406v.7H2189v-.7Zm-2.812,0h-1.406v.7h1.406v-.7Zm-2.812,0h-1.406v.7h1.406v-.7Zm-2.812,0h-1.406v.7h1.406v-.7Zm-2.812,0h-1.406v.7h1.406v-.7Zm-2.812,0h-1.406v.7h1.406v-.7Zm-2.812,0h-1.406v.7h1.406v-.7Zm-2.812,0h-1.406v.7h1.406v-.7Zm-2.812,0H2165.1v.7h1.406v-.7Zm-2.812,0h-1.406v.7h1.406v-.7Zm-2.812,0h-1.406v.7h1.406v-.7Zm-2.812,0h-1.406v.7h1.406v-.7Zm-2.812,0h-1.406v.7h1.406v-.7Zm-2.812,0h-1.406v.7h1.406v-.7Zm-2.812,0h-1.406v.7h1.406v-.7Zm-2.812,0h-1.406v.7h1.406v-.7Zm-2.812,0H2142.6v.7h1.406v-.7Zm-2.812,0h-1.406v.7h1.406v-.7Zm-2.812,0h-1.406v.7h1.406v-.7Zm-2.812,0h-1.406v.7h1.406v-.7Zm-2.812,0h-1.406v.7h1.406v-.7Zm-2.812,0h-1.406v.7h1.406v-.7Zm-2.812,0h-1.406v.7h1.406v-.7Zm-2.812,0h-1.406v.7h1.406v-.7Zm-2.812,0H2120.1v.7h1.406v-.7Zm-2.812,0h-1.406v.7h1.406v-.7Zm-2.812,0h-1.406v.7h1.406v-.7Zm-2.812,0h-1.406v.7h1.406v-.7Zm-2.812,0h-1.406v.7h1.406v-.7Zm-2.812,0h-1.406v.7h1.406v-.7Zm-2.812,0h-1.406v.7h1.406v-.7Zm-1.811,1.7h-.7v1.406h.7V514.46Zm0,2.812h-.7v1.406h.7v-1.406Zm0,2.812h-.7v1.406h.7v-1.406Zm0,2.812h-.7V524.3h.7V522.9Zm0,2.812h-.7v1.406h.7v-1.406Zm0,2.812h-.7v1.406h.7v-1.406Zm0,2.812h-.7v1.406h.7v-1.406Zm0,2.812h-.7v1.406h.7v-1.406Zm0,2.812h-.7v1.406h.7v-1.406Zm0,2.812h-.7v1.406h.7v-1.406Zm0,2.812h-.7v1.406h.7v-1.406Zm0,2.812h-.7V546.8h.7v-1.406Zm0,2.812h-.7v1.406h.7V548.2Zm0,2.812h-.7v1.406h.7v-1.406Zm1.639,2.579h-1.406v.7h1.406v-.7Zm2.812,0h-1.406v.7h1.406v-.7Zm2.812,0h-1.406v.7h1.406v-.7Zm2.812,0H2111.5v.7h1.406v-.7Zm2.812,0h-1.406v.7h1.406v-.7Zm2.812,0h-1.406v.7h1.406v-.7Zm2.812,0h-1.406v.7h1.406v-.7Zm2.812,0h-1.406v.7h1.406v-.7Zm2.812,0h-1.406v.7h1.406v-.7Zm2.812,0h-1.406v.7h1.406v-.7Zm2.812,0h-1.406v.7h1.406v-.7Zm2.812,0h-1.406v.7h1.406v-.7Zm2.812,0H2136.8v.7h1.406v-.7Zm2.812,0h-1.406v.7h1.406v-.7Zm2.812,0h-1.406v.7h1.406v-.7Zm2.812,0h-1.406v.7h1.406v-.7Zm2.812,0h-1.406v.7h1.406v-.7Zm2.812,0h-1.406v.7h1.406v-.7Zm2.812,0h-1.406v.7h1.406v-.7Zm2.812,0h-1.406v.7h1.406v-.7Zm2.812,0H2159.3v.7h1.406v-.7Zm2.812,0h-1.406v.7h1.406v-.7Zm2.812,0h-1.406v.7h1.406v-.7Zm2.812,0h-1.406v.7h1.406v-.7Zm2.812,0h-1.406v.7h1.406v-.7Zm2.812,0h-1.406v.7h1.406v-.7Zm2.812,0h-1.406v.7h1.406v-.7Zm2.812,0h-1.406v.7h1.406v-.7Zm2.812,0h-1.406v.7h1.406v-.7Zm2.812,0h-1.406v.7h1.406v-.7Zm2.812,0h-1.406v.7h1.406v-.7Zm2.812,0h-1.406v.7h1.406v-.7Zm2.812,0h-1.406v.7h1.406v-.7Zm2.812,0h-1.406v.7h1.406v-.7Zm2.812,0h-1.406v.7h1.406v-.7Zm2.812,0h-1.406v.7h1.406v-.7Zm2.812,0h-1.406v.7h1.406v-.7Zm2.812,0H2207.1v.7h1.406v-.7Zm2.812,0h-1.406v.7h1.406v-.7Zm2.812,0h-1.406v.7h1.406v-.7Zm2.812,0h-1.406v.7h1.406v-.7Zm2.812,0h-1.406v.7h1.406v-.7Zm2.812,0h-1.406v.7h1.406v-.7Zm2.812,0h-1.406v.7h1.406v-.7Zm2.812,0h-1.406v.7h1.406v-.7Zm.875-2.639h-.7v1.406h.7v-1.406Zm0-2.812h-.7v1.406h.7v-1.406Zm0-2.812h-.7v1.406h.7v-1.406Zm0-2.812h-.7v1.406h.7v-1.406Zm0-2.812h-.7v1.406h.7v-1.406Zm0-2.812h-.7V538.3h.7v-1.406Zm0-2.812h-.7v1.406h.7v-1.406Zm0-2.812h-.7v1.406h.7v-1.406Zm0-2.812h-.7v1.406h.7v-1.406Zm0-2.812h-.7v1.406h.7v-1.406Zm0-2.812h-.7v1.406h.7v-1.406Zm0-2.812h-.7v1.406h.7v-1.406Zm0-2.812h-.7v1.406h.7v-1.406Zm0-2.812h-.7v1.406h.7V514.4Z" transform="translate(-2102.125 -512.756)"/></g><text class="c" transform="translate(1121 350)"><tspan x="-47.749" y="0">SC451SD</tspan></text><path class="d" d="M2105.5,556.271A629.2,629.2,0,0,1,2233.436,571.2V531.061A629.2,629.2,0,0,0,2105.5,516.136Z" transform="translate(-1060.23 -199.52)"/><path class="e" d="M2105.5,459.288a517.012,517.012,0,0,0,115.679-14.925V484.5A517.026,517.026,0,0,1,2105.5,499.423Z" transform="translate(-1060.23 -142.672)"/><text class="f" transform="translate(1109 337)"><tspan x="-18.013" y="0">Apply</tspan></text><text class="g" transform="translate(1043 365)"><tspan x="-61.875" y="11">Shared by Astrology LLC</tspan></text></g></svg>