<svg xmlns="http://www.w3.org/2000/svg" width="52.21" height="57.465" viewBox="0 0 52.21 57.465"><defs><style>.a{fill:#333;}.b{fill:none;}.c{fill:#fff;}.d{fill:#FF9C05;}</style></defs><g transform="translate(-90.895 -477.268)"><path class="a" d="M393.322,1067.972a7.417,7.417,0,0,1-.756-.143A7.417,7.417,0,0,0,393.322,1067.972Z" transform="translate(-289.232 -542.595)"/><path class="a" d="M395.878,1068.114q-.176.012-.351.017C395.644,1068.127,395.761,1068.123,395.878,1068.114Z" transform="translate(-290.167 -542.685)"/><path class="a" d="M400.081,1064.617c.09-.059.182-.116.27-.18C400.263,1064.5,400.171,1064.558,400.081,1064.617Z" transform="translate(-291.604 -541.524)"/><path class="a" d="M399.412,1065.016c.1-.055.209-.111.309-.172C399.621,1064.9,399.516,1064.96,399.412,1065.016Z" transform="translate(-291.393 -541.653)"/><path class="a" d="M400.714,1064.162c.078-.061.158-.12.233-.186C400.872,1064.042,400.792,1064.1,400.714,1064.162Z" transform="translate(-291.805 -541.379)"/><path class="a" d="M392.062,1067.679a7.4,7.4,0,0,1-.811-.263A7.4,7.4,0,0,0,392.062,1067.679Z" transform="translate(-288.817 -542.464)"/><path class="a" d="M390.638,1067.142a7.375,7.375,0,0,1-.793-.377A7.375,7.375,0,0,0,390.638,1067.142Z" transform="translate(-288.374 -542.259)"/><path class="a" d="M398.686,1065.364c.125-.052.249-.106.37-.167C398.935,1065.258,398.811,1065.312,398.686,1065.364Z" transform="translate(-291.164 -541.764)"/><path class="a" d="M397.936,1065.649c.146-.047.29-.1.432-.155C398.226,1065.552,398.082,1065.6,397.936,1065.649Z" transform="translate(-290.928 -541.857)"/><path class="a" d="M401.5,1063.469c-.065.066-.133.127-.2.189.066-.062.134-.121.2-.185Z" transform="translate(-291.989 -541.218)"/><path class="a" d="M402.269,1065.331c.173-.146.342-.3.5-.463.016-.014.031-.028.045-.043l0-.005-.029.027,0,0c-.013.013-.025.027-.038.038C402.6,1065.042,402.436,1065.189,402.269,1065.331Z" transform="translate(-292.295 -541.645)"/><path class="a" d="M400.9,1066.515l-.125.075Z" transform="translate(-291.824 -542.18)"/><path class="a" d="M395.657,1065.511a6.164,6.164,0,0,1-4.839-.492A6.158,6.158,0,0,0,395.657,1065.511Z" transform="translate(-288.681 -541.708)"/><path class="a" d="M400.094,1066.992l-.035.016Z" transform="translate(-291.597 -542.33)"/><path class="a" d="M397.713,1067.836c-.052.012-.1.027-.156.039Z" transform="translate(-290.808 -542.597)"/><path class="a" d="M396.838,1068c-.09.015-.181.029-.272.04C396.657,1068.03,396.747,1068.016,396.838,1068Z" transform="translate(-290.495 -542.649)"/><path class="a" d="M401.731,1065.92c-.064.05-.129.1-.2.146C401.6,1066.019,401.666,1065.969,401.731,1065.92Z" transform="translate(-292.063 -541.992)"/><path class="a" d="M391.436,1060.443a.685.685,0,0,0,.265.931l.667-1.195A.686.686,0,0,0,391.436,1060.443Z" transform="translate(-288.849 -540.153)"/><path class="a" d="M394.734,1068.125a7.656,7.656,0,0,1-.8-.05A7.622,7.622,0,0,0,394.734,1068.125Z" transform="translate(-289.664 -542.672)"/><path class="b" d="M395.657,1065.511a6.164,6.164,0,0,1-4.839-.492A6.158,6.158,0,0,0,395.657,1065.511Z" transform="translate(-288.681 -541.708)"/><path class="b" d="M401.5,1063.469c-.065.066-.133.127-.2.189.066-.062.134-.121.2-.185Z" transform="translate(-291.989 -541.218)"/><path class="b" d="M391.436,1060.443a.685.685,0,0,0,.265.931l.667-1.195A.686.686,0,0,0,391.436,1060.443Z" transform="translate(-288.849 -540.153)"/><path class="b" d="M402.792,1064.844c-.013.013-.025.027-.038.038-.155.159-.318.306-.485.448.173-.146.342-.3.5-.463.016-.014.031-.028.045-.043l0-.005-.029.027Z" transform="translate(-292.295 -541.645)"/><path class="b" d="M403.156,1047.1a9.2,9.2,0,0,1,2.281,6.293,20.36,20.36,0,0,0,1.326-6.293Z" transform="translate(-292.574 -536.051)"/><path class="c" d="M408.277,1040.891h0v0Z" transform="translate(-294.19 -534.092)"/><path class="d" d="M434.526,1007.486a.64.64,0,0,1-.009-.073c.049-.624-.88-2.49-3.094-4.694-2.256-2.161-4.147-3.064-4.77-2.982a14.862,14.862,0,0,0-8.581,2.791,1.8,1.8,0,0,0,1.907.4l.771-.333h0a.667.667,0,0,1,.228-.051c.011,0,.022,0,.033,0a.677.677,0,0,1,.186.03.623.623,0,0,1,.074.021c.017.008.036.007.052.016a.586.586,0,0,1,.077.06.738.738,0,0,1,.093.073.64.64,0,0,1,.074.094.812.812,0,0,1,.06.076c.008.017.008.035.015.052a.592.592,0,0,1,.021.073.659.659,0,0,1,.03.19c0,.008,0,.016,0,.025a.688.688,0,0,1-.051.233v0l-.333.771a1.766,1.766,0,0,0,.507,2.011.684.684,0,0,1-.42,1.224.69.69,0,0,1-.215-.034l-.7-.233a1.674,1.674,0,0,1-1-.9,1.541,1.541,0,0,1-.016-1.24l.237-.55-.549.238a1.516,1.516,0,0,1-.6.122,1.565,1.565,0,0,1-.641-.138,1.671,1.671,0,0,1-.9-1l-.1-.292c-.257.229-.516.456-.759.706a14.939,14.939,0,0,0-3.484,5.748,8.748,8.748,0,0,1-1.351,2.582,22.765,22.765,0,0,1-7.5,6.2,35.238,35.238,0,0,1,6.808,5.241h0l.048.046a40.018,40.018,0,0,1,5.383,6.78,22.137,22.137,0,0,1,6.071-7.717,8.75,8.75,0,0,1,2.547-1.414,14.942,14.942,0,0,0,5.664-3.622c.153-.157.288-.327.434-.49a1.673,1.673,0,0,1-.99-.892,1.542,1.542,0,0,1-.016-1.241l.237-.55-.55.237a1.513,1.513,0,0,1-.6.122,1.57,1.57,0,0,1-.642-.138,1.675,1.675,0,0,1-.9-1l-.233-.706a.684.684,0,0,1,1.19-.635,1.767,1.767,0,0,0,2.011.508l.772-.333h0a.665.665,0,0,1,.233-.052l.028,0a1,1,0,0,1,.261.052c.017.007.036.007.053.015a.719.719,0,0,1,.076.06.644.644,0,0,1,.093.073.7.7,0,0,1,.075.094.692.692,0,0,1,.059.076.46.46,0,0,1,.015.052.614.614,0,0,1,.021.072.69.69,0,0,1,.031.19c0,.008,0,.016,0,.025a.677.677,0,0,1-.052.234v0l-.333.771a1.9,1.9,0,0,0,.189,1.676,14.454,14.454,0,0,0,2.712-8.689h0A.6.6,0,0,1,434.526,1007.486Zm-7.442,4.727a.683.683,0,0,1-.6.362.691.691,0,0,1-.215-.035l-.7-.233a1.673,1.673,0,0,1-1-.9,1.545,1.545,0,0,1-.016-1.241l.237-.55-.55.237a1.514,1.514,0,0,1-.6.122,1.574,1.574,0,0,1-.643-.138,1.673,1.673,0,0,1-.9-1l-.233-.7a.685.685,0,0,1,1.19-.636,1.744,1.744,0,0,0,1.974.524l.809-.349.008,0a.688.688,0,0,1,.217-.048c.015,0,.029,0,.043,0a.706.706,0,0,1,.179.029c.026.008.053.012.079.023s.035.007.051.015a.677.677,0,0,1,.075.059.726.726,0,0,1,.094.075.74.74,0,0,1,.074.094.6.6,0,0,1,.059.076c.009.016.008.035.016.052a.691.691,0,0,1,.021.073.672.672,0,0,1,.03.188c0,.01,0,.02,0,.03a.689.689,0,0,1-.05.228v.005l-.333.771a1.765,1.765,0,0,0,.508,2.011A.683.683,0,0,1,427.084,1012.213Z" transform="translate(-292.784 -521.104)"/><path class="d" d="M404.369,1039.288c.3,8.466-1.278,14.68-4.709,18.479a13.226,13.226,0,0,1-9.8,4.265c-.118,0-.235.006-.35.006a10.751,10.751,0,0,1-6.686-2.331.684.684,0,0,1,.9-1.029,9.718,9.718,0,0,0,6.09,1.987,11.914,11.914,0,0,0,8.825-3.815c3.427-3.794,4.859-10.316,4.263-19.378-.582-.682-1.2-1.357-1.827-1.987h0c-1.01-.967-1.944-1.789-2.792-2.482a21.288,21.288,0,0,1,1.252,4.958l0,.008v.007l0,.018c.235,1.845,1.1,11.313-4.891,16.784l0,.005c-.014.015-.029.029-.045.043-.162.164-.331.317-.5.463-.1.085-.2.163-.307.242-.065.049-.129.1-.2.146-.129.092-.26.178-.394.261l-.125.075c-.15.089-.3.174-.457.251l-.035.016a7.449,7.449,0,0,1-1.556.562l-.156.039c-.135.029-.27.053-.406.074-.09.015-.181.029-.272.04-.12.016-.24.028-.36.038s-.234.013-.351.017c-.074,0-.148.01-.222.01-.023,0-.046,0-.069,0a7.59,7.59,0,0,1-.8-.05c-.06-.007-.12-.016-.181-.025a7.342,7.342,0,0,1-.756-.143c-.029-.007-.06-.012-.089-.02a7.376,7.376,0,0,1-.811-.263l-.169-.068a7.321,7.321,0,0,1-.793-.377,6.155,6.155,0,0,1-2.379-8.365,5.064,5.064,0,0,1,6.88-1.958,4.183,4.183,0,0,1,1.617,5.69,3.481,3.481,0,0,1-4.737,1.348.684.684,0,1,1,.667-1.195,2.114,2.114,0,0,0,2.875-.82,2.812,2.812,0,0,0-1.087-3.826,3.693,3.693,0,0,0-5.018,1.427,4.787,4.787,0,0,0,1.849,6.5,6.164,6.164,0,0,0,4.839.492l.033-.012c.146-.047.29-.1.433-.155.027-.011.053-.025.081-.036.125-.052.249-.106.37-.167.043-.022.084-.047.127-.07.1-.055.209-.111.309-.172.051-.031.1-.066.148-.1.09-.059.182-.116.27-.18.056-.04.109-.087.164-.129.078-.061.158-.12.233-.186.058-.05.113-.106.169-.159s.136-.123.2-.189l.224-.3c.3-.4.506-.67.665-.853.034-.053.066-.106.1-.161a7.854,7.854,0,0,0-3.035-10.692A10,10,0,0,0,378,1045.716a12.659,12.659,0,0,0,4.9,17.22,15.995,15.995,0,0,0,21.758-6.188,20.172,20.172,0,0,0,2.168-13.713A26.55,26.55,0,0,0,404.369,1039.288Z" transform="translate(-284.129 -531.604)"/><path class="d" d="M405.682,1034.609a19.966,19.966,0,0,0-1.777-4.7,8.155,8.155,0,0,0-2.5-1.3C401.535,1029.342,402.814,1031.528,405.682,1034.609Z" transform="translate(-292.021 -530.218)"/><path class="a" d="M441.448,1019.034a.676.676,0,0,1,.324-.267h0l-.772.333a1.767,1.767,0,0,1-2.011-.508.684.684,0,0,0-1.19.635l.233.706a1.675,1.675,0,0,0,.9,1,1.57,1.57,0,0,0,.642.138,1.513,1.513,0,0,0,.6-.122l.55-.237.318-.736A4.312,4.312,0,0,1,441.448,1019.034Z" transform="translate(-303.496 -526.973)"/><path class="a" d="M444.876,1019.4a.709.709,0,0,0-.059-.076.723.723,0,0,1,.074.128A.472.472,0,0,0,444.876,1019.4Z" transform="translate(-305.723 -527.286)"/><path class="a" d="M443.526,1020.608l.333-.771v0a.676.676,0,0,0,.052-.234c0-.009,0-.017,0-.025a.69.69,0,0,0-.031-.19.615.615,0,0,0-.021-.072.718.718,0,0,0-.074-.128.708.708,0,0,0-.075-.094.646.646,0,0,0-.093-.073.7.7,0,0,0-.076-.06c-.017-.008-.036-.008-.053-.015a.717.717,0,0,0-.073-.022.688.688,0,0,0-.189-.03l-.028,0a.668.668,0,0,0-.233.052.677.677,0,0,0-.324.268,4.31,4.31,0,0,0-.413.942l-.318.736-.237.55a1.542,1.542,0,0,0,.016,1.241,1.673,1.673,0,0,0,.99.892,14.974,14.974,0,0,0,1.031-1.288A1.9,1.9,0,0,1,443.526,1020.608Z" transform="translate(-304.692 -527.15)"/><path class="a" d="M433.816,1011.4a.672.672,0,0,1,.329-.27l-.008,0-.809.349a1.744,1.744,0,0,1-1.974-.524.685.685,0,0,0-1.19.636l.233.7a1.674,1.674,0,0,0,.9,1,1.574,1.574,0,0,0,.643.138,1.516,1.516,0,0,0,.6-.122l.55-.237.317-.736A4.3,4.3,0,0,1,433.816,1011.4Z" transform="translate(-301.088 -524.563)"/><path class="a" d="M437.244,1011.764a.609.609,0,0,0-.059-.076.69.69,0,0,1,.075.128C437.252,1011.8,437.253,1011.78,437.244,1011.764Z" transform="translate(-303.313 -524.877)"/><path class="a" d="M435.895,1012.977l.333-.771v-.005a.69.69,0,0,0,.05-.228c0-.01,0-.021,0-.03a.673.673,0,0,0-.03-.188.7.7,0,0,0-.021-.073.682.682,0,0,0-.075-.128.742.742,0,0,0-.074-.094.729.729,0,0,0-.094-.075.7.7,0,0,0-.075-.059c-.016-.008-.034-.008-.051-.015s-.053-.015-.079-.023a.7.7,0,0,0-.179-.029c-.014,0-.028,0-.043,0a.692.692,0,0,0-.217.048.672.672,0,0,0-.329.27,4.3,4.3,0,0,0-.413.941l-.317.736-.238.55a1.545,1.545,0,0,0,.016,1.241,1.673,1.673,0,0,0,1,.9l.7.233a.691.691,0,0,0,.215.035.685.685,0,0,0,.421-1.224A1.765,1.765,0,0,1,435.895,1012.977Z" transform="translate(-302.284 -524.741)"/><path class="a" d="M423.05,1005.046a1.67,1.67,0,0,0,.9,1,1.567,1.567,0,0,0,.641.138,1.516,1.516,0,0,0,.6-.122l.549-.238.318-.735a4.294,4.294,0,0,1,.413-.942.67.67,0,0,1,.326-.268h0l-.771.333a1.8,1.8,0,0,1-1.907-.4,14.844,14.844,0,0,0-1.158.936Z" transform="translate(-298.823 -522.393)"/><path class="a" d="M429.817,1004.336a.8.8,0,0,0-.06-.076.684.684,0,0,1,.075.128C429.824,1004.371,429.825,1004.352,429.817,1004.336Z" transform="translate(-300.97 -522.533)"/><path class="a" d="M427.585,1004.152a4.292,4.292,0,0,0-.413.942l-.318.735-.237.55a1.54,1.54,0,0,0,.016,1.24,1.675,1.675,0,0,0,1,.9l.7.233a.686.686,0,0,0,.819-.328.683.683,0,0,0-.183-.862,1.766,1.766,0,0,1-.507-2.012l.333-.771v0a.688.688,0,0,0,.052-.235c0-.009,0-.017,0-.025a.662.662,0,0,0-.03-.19.59.59,0,0,0-.021-.072.678.678,0,0,0-.075-.128.637.637,0,0,0-.074-.094.739.739,0,0,0-.093-.073.6.6,0,0,0-.077-.06c-.016-.009-.035-.008-.052-.016a.579.579,0,0,0-.074-.021.677.677,0,0,0-.186-.03c-.011,0-.022,0-.033,0a.707.707,0,0,0-.554.319Z" transform="translate(-299.94 -522.397)"/><path class="a" d="M413.356,1035.1h0l.057.054-.946.989c.63.63,1.245,1.3,1.827,1.987,0-.075-.008-.147-.012-.223a.684.684,0,1,1,1.365-.1c.051.729.083,1.437.108,2.135a26.543,26.543,0,0,1,2.455,3.748c-.005-.029-.01-.057-.015-.085a.5.5,0,0,1,0-.055.617.617,0,0,1,0-.138.668.668,0,0,1,.023-.134c.005-.018,0-.036.009-.055.129-.334.315-.781.562-1.3a40.025,40.025,0,0,0-5.383-6.78C413.4,1035.142,413.365,1035.112,413.356,1035.1Z" transform="translate(-295.513 -532.267)"/><path class="a" d="M408.228,1040.846l.007.006-.007-.007Z" transform="translate(-294.175 -534.079)"/><path class="a" d="M410.22,1040.256l0-.007,0,.014Z" transform="translate(-294.803 -533.89)"/><path class="a" d="M408.277,1040.892l0,0v0Z" transform="translate(-294.19 -534.094)"/><path class="a" d="M445.521,1002.637l-.006,0,.029.027Z" transform="translate(-305.943 -522.02)"/><path class="a" d="M447.9,1007.74a.656.656,0,0,1,.711.624c.049-1.574-1.825-4.02-3.487-5.677l-.948.986-.024-.022c2.214,2.2,3.143,4.069,3.094,4.694a.635.635,0,0,0,.009.073c0-.018.01-.036.012-.054a.725.725,0,0,1,.038-.166A.676.676,0,0,1,447.9,1007.74Z" transform="translate(-305.513 -522.036)"/><path class="a" d="M450.065,1010.693a.656.656,0,0,0-.711-.624.677.677,0,0,0-.595.458.683.683,0,0,1,.613-.413.7.7,0,0,1,.7.672l0-.088Z" transform="translate(-306.967 -524.365)"/><path class="a" d="M448.673,1011.1h0a.66.66,0,0,1,.021-.115c0,.018-.011.036-.012.054S448.672,1011.075,448.673,1011.1Z" transform="translate(-306.939 -524.654)"/><path class="a" d="M428.366,1027.4a7.358,7.358,0,0,1,2.15-1.191,16.324,16.324,0,0,0,6.185-3.956,15.881,15.881,0,0,0,4.566-11.445h0v0h0a.7.7,0,0,0-.7-.672.683.683,0,0,0-.613.413.728.728,0,0,0-.038.166.649.649,0,0,0-.021.115h0a14.454,14.454,0,0,1-2.712,8.689,14.968,14.968,0,0,1-1.031,1.288c-.146.163-.281.333-.434.49a14.943,14.943,0,0,1-5.664,3.622,8.754,8.754,0,0,0-2.547,1.414,22.138,22.138,0,0,0-6.071,7.717c-.246.521-.433.968-.562,1.3-.007.019,0,.037-.009.055a.678.678,0,0,1,.513-.48.686.686,0,0,1,.806.535c.014.069.023.139.037.207.029-.071.062-.153.1-.238A21.041,21.041,0,0,1,428.366,1027.4Z" transform="translate(-298.164 -524.387)"/><path class="a" d="M405.458,1036.168a20.206,20.206,0,0,0-.4-2.172c-2.868-3.081-4.147-5.267-4.278-6a8.154,8.154,0,0,1,2.5,1.3c-.027-.051-.051-.1-.078-.153l1.2-.651a21.372,21.372,0,0,1,1.154,2.512c.847.693,1.781,1.515,2.792,2.482h0l.946-.989-.057-.054a35.238,35.238,0,0,0-6.808-5.241c-.691.359-1.245.6-1.581.743l-.521-1.266.016-.007a1.075,1.075,0,0,0-.613.306c-1.733,1.775,4.384,8.065,5.717,9.394l.008.008.026.026h0l0,0C405.476,1036.315,405.467,1036.234,405.458,1036.168Z" transform="translate(-291.397 -529.605)"/><path class="a" d="M436.979,997.749Z" transform="translate(-303.249 -520.478)"/><path class="a" d="M437.152,999.11c.622-.082,2.513.821,4.77,2.982l.024.022.948-.986h0l-.011-.01-.029-.027c-1.7-1.621-4.183-3.41-5.753-3.344l-.017.611Z" transform="translate(-303.282 -520.477)"/><path class="a" d="M437.076,997.747v0H437v0l.055.61Z" transform="translate(-303.258 -520.477)"/><path class="a" d="M401.268,1018.816c.336-.138.89-.383,1.581-.743a22.768,22.768,0,0,0,7.5-6.2,8.751,8.751,0,0,0,1.351-2.582,14.939,14.939,0,0,1,3.484-5.748c.243-.25.5-.476.759-.706a14.589,14.589,0,0,1,9.739-3.727l-.068-.753-.055-.61h-.017a15.926,15.926,0,0,0-11.338,4.839,16.313,16.313,0,0,0-3.806,6.278,7.366,7.366,0,0,1-1.139,2.178,21.565,21.565,0,0,1-8.5,6.5l-.016.007Z" transform="translate(-291.813 -520.478)"/><path class="a" d="M406.713,1045.017a.678.678,0,0,0-.513.48.669.669,0,0,0-.023.134.617.617,0,0,0,0,.138.5.5,0,0,0,0,.055c.005.028.01.056.015.085a20.172,20.172,0,0,1-2.168,13.713,15.995,15.995,0,0,1-21.758,6.188,12.659,12.659,0,0,1-4.9-17.22,10,10,0,0,1,13.592-3.865,7.854,7.854,0,0,1,3.035,10.692c-.029.055-.062.108-.1.161l.021-.025.016-.02h0c.01-.011.019-.023.029-.032.173-.188.29-.247.426-.25a13.694,13.694,0,0,0,1.966-3.435,9.276,9.276,0,0,0-4.734-8.288,11.408,11.408,0,0,0-15.454,4.4,14.029,14.029,0,0,0,5.429,19.083,17.266,17.266,0,0,0,8.425,2.2,17.452,17.452,0,0,0,4.776-.671,17.249,17.249,0,0,0,10.419-8.25,21.541,21.541,0,0,0,2.336-14.528c-.014-.068-.023-.138-.037-.207A.686.686,0,0,0,406.713,1045.017Z" transform="translate(-283.496 -534.477)"/><path class="a" d="M404.188,1051.8a.75.75,0,0,1-.085.459l-.018.033c-.033.055-.064.105-.1.153l-.063.1a.919.919,0,0,1-.075.11.958.958,0,0,1-.06.083l-.041-.025c-.122.16-.264.351-.383.509-.146.193-.262.346-.284.372s-.033.033-.05.05l0,0,.029-.027c5.988-5.471,5.125-14.939,4.891-16.784l0-.018,0-.014a21.55,21.55,0,0,0-2.406-7.471l-1.2.651c.027.051.051.1.078.153a19.963,19.963,0,0,1,1.777,4.7,20.187,20.187,0,0,1,.4,2.172c.008.066.018.147.028.234v.005a25.485,25.485,0,0,1,.1,4.243,20.358,20.358,0,0,1-1.326,6.293,13.7,13.7,0,0,1-1.966,3.435.864.864,0,0,1,.258.038A.687.687,0,0,1,404.188,1051.8Z" transform="translate(-292.536 -530.445)"/><path class="a" d="M396.432,1059.455l0,0c-.064.064-.132.123-.2.185s-.111.109-.169.159c-.075.065-.155.125-.233.186-.055.042-.107.089-.164.129-.088.064-.179.121-.27.18-.049.032-.1.068-.149.1-.1.061-.205.116-.309.172-.042.023-.084.048-.127.07-.121.061-.246.115-.37.167-.027.012-.053.025-.081.036-.142.057-.287.109-.433.155l-.033.012a6.158,6.158,0,0,1-4.839-.492,4.787,4.787,0,0,1-1.849-6.5,3.693,3.693,0,0,1,5.018-1.427,2.812,2.812,0,0,1,1.088,3.826,2.114,2.114,0,0,1-2.875.82l-.667,1.195a3.481,3.481,0,0,0,4.737-1.348,4.183,4.183,0,0,0-1.617-5.69,5.064,5.064,0,0,0-6.88,1.958,6.156,6.156,0,0,0,2.379,8.365,7.35,7.35,0,0,0,.793.377l.169.068a7.43,7.43,0,0,0,.811.263c.029.008.06.013.089.02a7.314,7.314,0,0,0,.756.143c.06.009.12.018.181.025a7.59,7.59,0,0,0,.8.05c.023,0,.046,0,.069,0,.074,0,.148-.009.222-.01.117,0,.234-.008.351-.017s.24-.022.36-.038c.091-.011.181-.025.272-.04.136-.021.272-.045.406-.074l.156-.039a7.442,7.442,0,0,0,1.556-.562l.035-.016c.155-.077.307-.162.457-.251l.125-.075c.133-.083.265-.168.394-.261.066-.047.131-.1.2-.146.1-.079.207-.157.307-.242.167-.142.33-.289.485-.448.013-.011.025-.025.038-.038a.7.7,0,0,0,.05-.05c.022-.027.138-.179.284-.372.119-.158.261-.348.383-.509l.041.025a.988.988,0,0,0,.06-.083.94.94,0,0,0,.075-.11l.063-.1c.032-.048.063-.1.1-.153l.018-.033a.749.749,0,0,0,.085-.459.687.687,0,0,0-.5-.549.871.871,0,0,0-.258-.038c-.136,0-.253.062-.426.25-.01.01-.02.021-.029.032h0l-.016.02-.021.025c-.159.184-.364.455-.665.854Z" transform="translate(-286.919 -537.205)"/><path class="a" d="M401.5,1058.469a11.914,11.914,0,0,1-8.825,3.815,9.719,9.719,0,0,1-6.09-1.987.684.684,0,0,0-.9,1.029,10.75,10.75,0,0,0,6.686,2.331c.116,0,.233,0,.35-.006a13.226,13.226,0,0,0,9.8-4.265c3.432-3.8,5.01-10.012,4.709-18.478-.025-.7-.057-1.406-.108-2.135a.684.684,0,0,0-1.365.1c0,.075.008.147.012.222C406.364,1048.153,404.932,1054.675,401.5,1058.469Z" transform="translate(-286.988 -533.224)"/></g></svg>