<svg xmlns="http://www.w3.org/2000/svg" width="67.813" height="58.893" viewBox="0 0 67.813 58.893"><defs><style>.a{fill:#FF9C05;}.b{fill:#fff;}.c{fill:#333;}</style></defs><g transform="translate(-96.135 -238.723)"><g transform="translate(14194.778 5223.151)"><path class="a" d="M3673.819,351.454a2.822,2.822,0,0,0-.992,1.416,1.283,1.283,0,0,0,.153,1.122,1.821,1.821,0,0,0,2.311,0l.083-.524a1.344,1.344,0,0,1-1.695-.585c-.195-.578.307-1.272,1.119-1.546a1.994,1.994,0,0,1,.924-.091l.064-.4A2.569,2.569,0,0,0,3673.819,351.454Z" transform="translate(-17729.195 -5309.263)"/><path class="b" d="M3596.129,315.127a10.619,10.619,0,0,0-2.372.468A4.788,4.788,0,0,0,3596.129,315.127Z" transform="translate(-17675.605 -5285.054)"/><path class="a" d="M3614.3,354a1.284,1.284,0,0,0,.152-1.122,2.826,2.826,0,0,0-.99-1.415,2.646,2.646,0,0,0-1.848-.624l.064.407a2.034,2.034,0,0,1,.78.1c.812.274,1.314.968,1.119,1.546a1.29,1.29,0,0,1-1.541.625l.088.563A1.754,1.754,0,0,0,3614.3,354Z" transform="translate(-17687.723 -5309.267)"/><path class="a" d="M3576.781,319.715c-.268-.045-.54-.085-.812-.124a10.432,10.432,0,0,0-4.872,7.627,8.738,8.738,0,0,0,10.848-2.506l.022-.031-.835-5.307a6.3,6.3,0,0,1-2.595.5A10.437,10.437,0,0,1,3576.781,319.715Z" transform="translate(-17660.234 -5287.935)"/><path class="a" d="M3692.378,319.838a6.27,6.27,0,0,1-2.632-.515l-.83,5.278.056.078a8.735,8.735,0,0,0,10.846,2.5,10.431,10.431,0,0,0-4.87-7.628c-.272.039-.545.079-.814.124A10.5,10.5,0,0,1,3692.378,319.838Z" transform="translate(-17740.152 -5287.9)"/><path class="b" d="M3695.149,315.594a10.645,10.645,0,0,0-2.37-.467A4.791,4.791,0,0,0,3695.149,315.594Z" transform="translate(-17742.773 -5285.054)"/><path class="a" d="M3634.259,421.135c2.96,0,4.726-.944,5.91-2.658a5.925,5.925,0,0,0,.081-.939,5.992,5.992,0,1,0-11.9.947C3629.529,420.214,3631.285,421.135,3634.259,421.135Zm-4.6-6.03,1-.507a2.19,2.19,0,0,1,1.758-.1,1.968,1.968,0,0,1,1.152,1.113l.691,1.724.692-1.724a1.97,1.97,0,0,1,1.152-1.113,2.189,2.189,0,0,1,1.757.1l1,.507a.7.7,0,0,1-.4,1.31,2.964,2.964,0,0,0-3.031,1.743l-.5,1.244a.7.7,0,0,1-.646.437c-.008,0-.015,0-.022,0s-.015,0-.022,0a.7.7,0,0,1-.645-.437l-.483-1.2a3,3,0,0,0-3.047-1.784.7.7,0,0,1-.4-1.31Z" transform="translate(-17699.012 -5350.456)"/><path class="a" d="M3637.665,443.757a9.585,9.585,0,0,1-4.376-.909,5.963,5.963,0,0,0,8.728.028A9.759,9.759,0,0,1,3637.665,443.757Z" transform="translate(-17702.422 -5371.687)"/><path class="a" d="M3614.188,287.212c-.5,1.832-2.278,5.985-8.313,8.524l1.632,10.385a3.979,3.979,0,0,1,2.926.9,4.178,4.178,0,0,1,1.47,2.142,2.631,2.631,0,0,1-.4,2.347,2.591,2.591,0,0,1-2.085.936,3.644,3.644,0,0,1-.934-.126l2.206,14.038a44.641,44.641,0,0,0,1.215,4.907,7.373,7.373,0,0,1,14.34.022,41.78,41.78,0,0,0,1.214-4.958l2.208-14.048a3.709,3.709,0,0,1-1.063.165,2.589,2.589,0,0,1-2.084-.936,2.632,2.632,0,0,1-.4-2.348,4.177,4.177,0,0,1,1.472-2.143,3.947,3.947,0,0,1,3.044-.89l1.637-10.414c-6-2.538-7.772-6.673-8.275-8.5a41.572,41.572,0,0,0-9.8,0Zm10.571,6.812a.7.7,0,1,1,1.1.853c-1.1,1.413-3.753,2.325-6.768,2.325s-5.67-.912-6.768-2.325a.7.7,0,1,1,1.1-.853c.669.86,2.728,1.786,5.669,1.786S3624.091,294.884,3624.76,294.023Z" transform="translate(-17683.824 -5265.924)"/><path class="a" d="M3552.524,297.927c0-.142,0-.282.01-.422a11.8,11.8,0,0,1,5.65-9.628,12,12,0,0,1,6.183-1.792c6.127-2.467,7.549-6.654,7.854-8-1.427-.848-6.584-3.674-11.956-3.674a12.6,12.6,0,0,0-4.674.843c-4.263,1.689-7.237,5.921-8.84,12.576-1.577,6.549-1.02,12.052,1.655,16.359,3.149,5.071,8.513,7.433,12.233,8.506-3.325-2.6-7.711-7.293-8.1-14.1C3552.531,298.372,3552.524,298.148,3552.524,297.927Z" transform="translate(-17643.129 -5257.438)"/><path class="a" d="M3682.77,275.255c-6.716-2.661-14.786,1.736-16.629,2.831.3,1.34,1.723,5.529,7.854,8a12,12,0,0,1,6.184,1.793,11.805,11.805,0,0,1,5.65,9.634c.006.132.009.273.009.416,0,.222-.008.447-.019.67-.386,6.806-4.772,11.5-8.1,14.1,3.721-1.072,9.083-3.435,12.232-8.505,2.675-4.307,3.231-9.81,1.655-16.358C3690.006,281.177,3687.033,276.945,3682.77,275.255Z" transform="translate(-17724.703 -5257.438)"/><path class="c" d="M3626.706,308.424a.7.7,0,1,0-1.1.853c1.1,1.413,3.753,2.325,6.768,2.325s5.671-.912,6.768-2.325a.7.7,0,1,0-1.1-.853c-.668.86-2.729,1.786-5.67,1.786S3627.375,309.284,3626.706,308.424Z" transform="translate(-17697.111 -5280.325)"/><path class="c" d="M3631.906,283.371a6.208,6.208,0,0,1-.188.909,41.572,41.572,0,0,1,9.8,0,6.309,6.309,0,0,1-.19-.914l-.045-.422.117-.077a42.883,42.883,0,0,0-9.577,0l.123.081Z" transform="translate(-17701.354 -5262.991)"/><path class="c" d="M3674.215,321.717l1.141-.8c.059.085.119.167.178.249l.829-5.278a4.388,4.388,0,0,1-.927-.565l.656-.816c-.056,0-.111-.006-.167-.006h-.132l-.123-.048c-.157-.062-.307-.127-.459-.192l-1.636,10.414a2.884,2.884,0,0,1,.461.115l-.462,1.312a1.477,1.477,0,0,0-.214-.054l-.063.4a1.057,1.057,0,0,1,.9.641c.2.578-.307,1.271-1.119,1.546-.045.015-.089.023-.133.034l-.083.524a3.1,3.1,0,0,0,.286-.186l.836,1.112a4.426,4.426,0,0,1-1.376.7l-2.208,14.048a41.589,41.589,0,0,1-1.214,4.958,7.225,7.225,0,0,1,.056,3.213c1.364-2.12,1.937-4.979,2.527-7.927l3.478-22.131a9.842,9.842,0,0,1-.773-.913C3674.386,321.959,3674.3,321.839,3674.215,321.717Z" transform="translate(-17726.77 -5284.469)"/><path class="c" d="M3638.783,436.256a5.968,5.968,0,0,0,1.559-3.167c-1.184,1.714-2.95,2.658-5.91,2.658s-4.73-.921-5.91-2.65a5.966,5.966,0,0,0,1.533,3.131,9.584,9.584,0,0,0,4.376.908A9.758,9.758,0,0,0,3638.783,436.256Z" transform="translate(-17699.188 -5365.067)"/><path class="c" d="M3609.475,349.848a44.53,44.53,0,0,1-1.215-4.907l-2.206-14.038a4.394,4.394,0,0,1-1.506-.741l.836-1.112a3.261,3.261,0,0,0,.42.264l-.088-.563a2.16,2.16,0,0,1-.287-.074c-.812-.275-1.314-.968-1.119-1.546a1.108,1.108,0,0,1,1.048-.654l-.064-.407a1.481,1.481,0,0,0-.334.07l-.461-1.312a2.855,2.855,0,0,1,.58-.129l-1.632-10.385c-.139.059-.277.118-.42.176l-.123.048h-.132c-.056,0-.111.005-.167.006l.655.816a4.389,4.389,0,0,1-.964.582l.834,5.307c.071-.1.142-.194.212-.295l1.141.8c-.085.123-.171.243-.259.361a9.837,9.837,0,0,1-.809.948l3.478,22.13c.6,2.892,1.18,5.7,2.506,7.809a7.423,7.423,0,0,1-.139-1.413A7.335,7.335,0,0,1,3609.475,349.848Z" transform="translate(-17681.396 -5284.502)"/><path class="c" d="M3638.5,412.891a7.244,7.244,0,1,0,.209,1.715A7.39,7.39,0,0,0,3638.5,412.891Zm-7.173,7.707a6,6,0,1,1,4.351-1.885A5.969,5.969,0,0,1,3631.327,420.6Z" transform="translate(-17696.08 -5347.522)"/><path class="c" d="M3647.544,424.9a.7.7,0,0,1-.46.831.684.684,0,0,1-.192.03c.008,0,.015,0,.022,0a.7.7,0,0,0,.646-.437l.5-1.244a2.963,2.963,0,0,1,3.03-1.743.7.7,0,0,0,.4-1.31l-1-.507a2.189,2.189,0,0,0-1.757-.1,1.968,1.968,0,0,0-1.152,1.113l-.692,1.724.1.25A6.14,6.14,0,0,1,3647.544,424.9Z" transform="translate(-17711.646 -5356.38)"/><path class="c" d="M3632.19,422.339a3,3,0,0,1,3.047,1.784l.483,1.2a.7.7,0,0,0,.646.436c.007,0,.015,0,.022,0a.681.681,0,0,0,.192-.03.7.7,0,0,0,.46-.831,6.139,6.139,0,0,0-.552-1.392l-.1-.25-.692-1.724a1.968,1.968,0,0,0-1.152-1.113,2.189,2.189,0,0,0-1.757.1l-1,.507a.7.7,0,0,0,.4,1.31Z" transform="translate(-17701.145 -5356.379)"/><path class="c" d="M3613.719,351.933a2.633,2.633,0,0,0,.4-2.347,4.18,4.18,0,0,0-1.471-2.142,3.979,3.979,0,0,0-2.925-.9,2.852,2.852,0,0,0-.58.129l.461,1.312a1.49,1.49,0,0,1,.334-.07,2.647,2.647,0,0,1,1.848.624,2.83,2.83,0,0,1,.99,1.415,1.283,1.283,0,0,1-.152,1.122,1.754,1.754,0,0,1-2.177.084,3.244,3.244,0,0,1-.42-.264l-.835,1.112a4.391,4.391,0,0,0,1.505.741,3.647,3.647,0,0,0,.934.126A2.591,2.591,0,0,0,3613.719,351.933Z" transform="translate(-17686.045 -5306.343)"/><path class="c" d="M3670.026,347.434a4.175,4.175,0,0,0-1.472,2.143,2.631,2.631,0,0,0,.4,2.348,2.589,2.589,0,0,0,2.084.936,3.7,3.7,0,0,0,1.063-.165,4.428,4.428,0,0,0,1.377-.7l-.836-1.112a3.134,3.134,0,0,1-.285.186,1.821,1.821,0,0,1-2.311,0,1.285,1.285,0,0,1-.152-1.122,2.828,2.828,0,0,1,.992-1.416,2.572,2.572,0,0,1,1.967-.608,1.473,1.473,0,0,1,.214.054l.462-1.312a2.862,2.862,0,0,0-.46-.115A3.948,3.948,0,0,0,3670.026,347.434Z" transform="translate(-17726.266 -5306.334)"/><path class="c" d="M3591.03,315.061a4.787,4.787,0,0,1-2.372.468,10.585,10.585,0,0,0-2.365,1.08c-.018.011-.035.023-.053.035.273.039.544.079.812.124a10.439,10.439,0,0,0,1.758.158,6.306,6.306,0,0,0,2.595-.5,4.378,4.378,0,0,0,.964-.582l-.655-.816C3591.486,315.033,3591.258,315.042,3591.03,315.061Z" transform="translate(-17670.508 -5284.987)"/><path class="c" d="M3582.9,336.111c.088-.118.174-.238.259-.361l-1.141-.8q-.1.151-.212.295l-.022.031a8.738,8.738,0,0,1-10.849,2.506c-.032.277-.058.556-.067.837v.012c-.007.118-.008.236-.008.356,0,.1.005.2.008.3a10.244,10.244,0,0,0,3.98.809,10.068,10.068,0,0,0,7.242-3.038A9.771,9.771,0,0,0,3582.9,336.111Z" transform="translate(-17660.076 -5298.502)"/><path class="c" d="M3550.989,294.612V294.6c.009-.281.035-.56.067-.837a10.432,10.432,0,0,1,4.872-7.627c.018-.011.034-.024.053-.035a10.764,10.764,0,0,1,4.738-1.548c.227-.018.455-.028.684-.031.055,0,.111-.006.167-.006h.132l.123-.048c.144-.057.281-.117.421-.176,6.035-2.539,7.812-6.692,8.313-8.524a6.192,6.192,0,0,0,.188-.909l.045-.422-.123-.081-.232-.152c-.4-.266-10.016-6.474-18.286-3.2-4.711,1.865-7.969,6.422-9.684,13.545-1.667,6.923-1.053,12.784,1.825,17.418,3.9,6.284,10.883,8.673,14.7,9.537a1.1,1.1,0,0,0,.247.028,1.072,1.072,0,0,0,.6-1.954c-3.125-2.152-8.43-6.835-8.837-14.011,0-.1-.005-.2-.008-.3s-.008-.2-.008-.3C3550.981,294.848,3550.982,294.73,3550.989,294.612Zm6.717,15.126c-3.72-1.073-9.083-3.435-12.233-8.506-2.674-4.307-3.231-9.81-1.655-16.359,1.6-6.655,4.576-10.886,8.84-12.576a12.606,12.606,0,0,1,4.674-.843c5.371,0,10.529,2.825,11.956,3.674-.3,1.343-1.726,5.531-7.854,8a12,12,0,0,0-6.183,1.792,11.8,11.8,0,0,0-5.651,9.628c-.007.141-.01.281-.01.422,0,.221.007.445.018.673C3550,302.445,3554.381,307.133,3557.706,309.738Z" transform="translate(-17640.195 -5254.479)"/><path class="c" d="M3689.541,316.41a6.267,6.267,0,0,0,2.632.515,10.488,10.488,0,0,0,1.757-.158c.269-.045.541-.085.814-.124l-.052-.034h0a10.576,10.576,0,0,0-2.367-1.081,4.792,4.792,0,0,1-2.37-.467c-.227-.018-.455-.028-.684-.032l-.656.816A4.383,4.383,0,0,0,3689.541,316.41Z" transform="translate(-17739.949 -5284.987)"/><path class="c" d="M3697.106,338.633c-.01-.285-.036-.566-.069-.847a8.736,8.736,0,0,1-10.847-2.5l-.056-.078c-.06-.082-.119-.165-.178-.249l-1.141.8c.086.123.171.243.26.362a9.77,9.77,0,0,0,.773.913,10.066,10.066,0,0,0,7.277,3.071,10.246,10.246,0,0,0,3.98-.809c0-.1.009-.2.009-.3C3697.114,338.871,3697.112,338.752,3697.106,338.633Z" transform="translate(-17737.371 -5298.502)"/><path class="c" d="M3680.1,271c-8.27-3.272-17.881,2.935-18.286,3.2l-.237.156-.117.077.045.422a6.306,6.306,0,0,0,.189.914c.5,1.83,2.275,5.965,8.275,8.5.151.064.3.13.458.192l.123.048h.132c.056,0,.112.005.167.006.229,0,.457.013.684.032a10.76,10.76,0,0,1,4.737,1.548h0l.052.034a10.433,10.433,0,0,1,4.87,7.628c.033.28.059.562.069.847.006.119.008.238.008.358,0,.1-.005.2-.008.3s0,.2-.008.3c-.407,7.18-5.711,11.863-8.835,14.014a1.072,1.072,0,0,0,.6,1.955,1.1,1.1,0,0,0,.246-.028c3.814-.865,10.794-3.254,14.7-9.537,2.878-4.635,3.493-10.495,1.825-17.418C3688.074,277.426,3684.816,272.868,3680.1,271Zm6.678,30.23c-3.15,5.07-8.512,7.433-12.232,8.505,3.324-2.6,7.71-7.293,8.1-14.1.011-.224.019-.448.019-.67,0-.143,0-.285-.009-.416a11.8,11.8,0,0,0-5.65-9.634,12,12,0,0,0-6.184-1.793c-6.13-2.468-7.55-6.657-7.853-8,1.843-1.1,9.914-5.492,16.629-2.831,4.263,1.69,7.237,5.922,8.839,12.577C3690.014,291.423,3689.457,296.926,3686.783,301.233Z" transform="translate(-17721.533 -5254.48)"/><path class="c" d="M3679.725,355.247c-.106.036-.172.126-.146.2a.181.181,0,0,0,.239.072c.105-.036.171-.126.146-.2A.181.181,0,0,0,3679.725,355.247Z" transform="translate(-17733.814 -5312.257)"/><path class="c" d="M3676.638,352.213c-.812.274-1.314.968-1.119,1.546a1.343,1.343,0,0,0,1.695.585c.044-.012.089-.02.133-.034.812-.275,1.314-.968,1.119-1.546a1.056,1.056,0,0,0-.9-.641A1.994,1.994,0,0,0,3676.638,352.213Zm.4,1.185a.181.181,0,0,1-.238-.072c-.025-.075.04-.166.146-.2a.182.182,0,0,1,.238.072C3677.209,353.272,3677.144,353.362,3677.038,353.4Z" transform="translate(-17731.035 -5310.134)"/><path class="c" d="M3612.914,355.449c.025-.075-.041-.166-.146-.2a.182.182,0,0,0-.239.072c-.025.076.04.166.146.2A.182.182,0,0,0,3612.914,355.449Z" transform="translate(-17688.334 -5312.257)"/><path class="c" d="M3611.416,353.764c.2-.578-.307-1.272-1.119-1.546a2.034,2.034,0,0,0-.78-.1,1.109,1.109,0,0,0-1.048.654c-.2.578.307,1.271,1.119,1.546a2.184,2.184,0,0,0,.287.074A1.289,1.289,0,0,0,3611.416,353.764Zm-1.519-.361c-.106-.036-.171-.126-.146-.2a.182.182,0,0,1,.239-.072c.106.036.172.126.146.2A.181.181,0,0,1,3609.9,353.4Z" transform="translate(-17685.555 -5310.14)"/></g></g></svg>