<svg xmlns="http://www.w3.org/2000/svg" width="17.163" height="15.969" viewBox="0 0 17.163 15.969"><defs><style>.a{fill:#515866;opacity:0.6;}</style></defs><path class="a" d="M78.925,72.418a4.239,4.239,0,0,0-3.318-1.294,4.743,4.743,0,0,0-2.987,1.385l-8.4,8.461a3.382,3.382,0,0,0-.091,5.05,3.2,3.2,0,0,0,2.208,1.062,3.473,3.473,0,0,0,2.427-1.214l6.186-6.185a2.9,2.9,0,0,0,.946-1.77,2.511,2.511,0,0,0-2.523-2.523,2.908,2.908,0,0,0-1.777.952l-5.417,5.594a.592.592,0,1,0,.851.823l5.41-5.587a1.817,1.817,0,0,1,1.033-.6,1.358,1.358,0,0,1,1.244,1.244,1.816,1.816,0,0,1-.6,1.033l-6.185,6.185c-1.106,1.105-1.963,1.15-2.961.151a2.218,2.218,0,0,1,.092-3.377l8.4-8.461a3.542,3.542,0,0,1,2.227-1.04,3.071,3.071,0,0,1,2.4.95,2.9,2.9,0,0,1,.921,2.333,3.548,3.548,0,0,1-1.074,2.182L70.36,85.463a.592.592,0,1,0,.844.83l7.572-7.69a4.728,4.728,0,0,0,1.413-2.916A4.05,4.05,0,0,0,78.925,72.418Z" transform="translate(-63.041 -71.114)"/></svg>