<svg xmlns="http://www.w3.org/2000/svg" width="9.566" height="11.665" viewBox="0 0 9.566 11.665"><defs><style>.a{fill:#222;}</style></defs><path class="a" d="M12.035,10.972V7.252a4.252,4.252,0,0,0-8.5,0v3.72a.531.531,0,1,0,0,1.063h8.5a.531.531,0,1,0,0-1.063Z" transform="translate(-3 -1.937)"/><path class="a" d="M9.19,21a1.594,1.594,0,0,0,2.987,0Z" transform="translate(-5.9 -10.371)"/><path class="a" d="M11.061,1.531a4.829,4.829,0,0,1,1.063.117.716.716,0,0,0,0-.117A.532.532,0,0,0,11.592,1H10.529A.532.532,0,0,0,10,1.531a.716.716,0,0,0,0,.117A4.829,4.829,0,0,1,11.061,1.531Z" transform="translate(-6.278 -1)"/></svg>