<svg xmlns="http://www.w3.org/2000/svg" xmlns:xlink="http://www.w3.org/1999/xlink" width="12.603" height="19.587" viewBox="0 0 12.603 19.587"><defs><style>.a,.e{fill:#3c3c46;}.b{fill:#fff;}.b,.c,.d{stroke:#fff;stroke-miterlimit:10;}.b,.c,.d,.e{stroke-linecap:round;}.c{fill:url(#a);}.d{fill:url(#b);}.e{stroke:#3c3c46;stroke-linejoin:round;}</style><linearGradient id="a" x1="-331.709" y1="0.5" x2="-330.709" y2="0.5" gradientUnits="objectBoundingBox"><stop offset="0" stop-color="#fff"/><stop offset="1"/></linearGradient><linearGradient id="b" x1="-1252.974" y1="0.5" x2="-1251.974" y2="0.5" xlink:href="#a"/></defs><g transform="translate(-1151.701 -392.501)"><path class="a" d="M7462.986,700.844h-6.773a1.392,1.392,0,0,1-1.388-1.281l-1.04-12.855h11.627l-1.038,12.855A1.393,1.393,0,0,1,7462.986,700.844Z" transform="translate(-6301.596 -288.756)"/><line class="b" y2="9.572" transform="translate(1158.002 400.232)"/><line class="c" x2="0.423" y2="9.568" transform="translate(1155.032 400.236)"/><line class="d" x1="0.423" y2="9.568" transform="translate(1160.549 400.236)"/><path class="a" d="M7446.666,640.51c0-1.326,2.821-2.4,6.3-2.4s6.3,1.075,6.3,2.4Z" transform="translate(-6294.965 -243.486)"/><path class="e" d="M7501.506,616.785V614.4h5.094v2.381" transform="translate(-6346.051 -221.402)"/></g></svg>