<svg xmlns="http://www.w3.org/2000/svg" width="21.541" height="25.537" viewBox="0 0 21.541 25.537"><defs><style>.a{fill:#FF9C05;}</style></defs><path class="a" d="M305.851,153a17.155,17.155,0,0,0,6.17,8.746c1.013.754.647.717,1.65,0,.437-.314.849-.665,1.295-.966a1.783,1.783,0,0,1,2.585.364c1.065,1.355,2.1,2.737,3.106,4.133a1.741,1.741,0,0,1-.237,2.4,5.843,5.843,0,0,1-5.752,1.617,15.638,15.638,0,0,1-6.817-3.915A30.132,30.132,0,0,1,300.26,154.5a9.723,9.723,0,0,1-.321-6.7,6.13,6.13,0,0,1,2.866-3.526,1.747,1.747,0,0,1,2.424.416q1.589,2.038,3.1,4.138a1.8,1.8,0,0,1-.366,2.588c-.327.28-.679.53-1.023.789S306.245,152.716,305.851,153Z" transform="translate(-299.489 -143.966)"/></svg>