<svg xmlns="http://www.w3.org/2000/svg" width="54.723" height="66.9" viewBox="0 0 54.723 66.9"><defs><style>.a{fill:#FF9C05;}.b{fill:#333;}</style></defs><path class="a" d="M715.495,529.692l.051-.08c.009-1.139-.3-5.336-4.719-11.225l-.089-.119-.04-.144c-.4-1.41-2.734-3.713-6.92-5.432a22.278,22.278,0,0,0-4.045-1.24l1.724,2.947a.993.993,0,0,1,.049.918,1.053,1.053,0,0,1-.78.592l-4.142.749a21.114,21.114,0,0,0,3.628,1.9,19.014,19.014,0,0,0,7.462,1.563l.417-.015.25.333c4.247,5.667,4.09,7.991,4.015,9.108l-.01.171a1.217,1.217,0,0,1-.351.79,30.992,30.992,0,0,1-4.558,4.833c.26.451.515.916.759,1.4C711.538,534.055,714.506,531.233,715.495,529.692Z" transform="translate(-662.419 -509.667)"/><path class="a" d="M702.184,548.109a56.319,56.319,0,0,0,5.833-4.007q-.335-.69-.7-1.336c-1.671,1.437-3.488,2.866-5.218,4.075Q702.168,547.469,702.184,548.109Z" transform="translate(-663.536 -516.003)"/><path class="a" d="M659.307,530.514a1.2,1.2,0,0,1-.351-.774l-.011-.187c-.076-1.117-.233-3.442,4.015-9.108l.25-.333.418.015a18.924,18.924,0,0,0,7.464-1.565,21.188,21.188,0,0,0,3.625-1.9l-4.147-.751a1.049,1.049,0,0,1-.775-.591.993.993,0,0,1,.053-.925l1.72-2.939a22.237,22.237,0,0,0-4.045,1.24c-4.185,1.719-6.522,4.022-6.921,5.433l-.04.143-.089.119c-4.436,5.909-4.73,10.11-4.719,11.225l.051.08c.936,1.457,3.829,4.3,7.145,7.03.258-.509.526-1,.8-1.471A30.182,30.182,0,0,1,659.307,530.514Z" transform="translate(-654.157 -509.667)"/><path class="a" d="M672.281,546.687c-1.728-1.217-3.514-2.627-5.149-4.037-.257.457-.506.929-.746,1.421a52.264,52.264,0,0,0,5.805,4.037C672.2,547.63,672.229,547.154,672.281,546.687Z" transform="translate(-656.309 -515.979)"/><path class="a" d="M680.959,588.827a.886.886,0,0,0,.565.434c.586.109,1.394-.556,2.028-1.634a.761.761,0,0,1,.065-.072.739.739,0,0,1,.116-.129.753.753,0,0,1,.13-.082.7.7,0,0,1,.093-.058c.014-.006.029,0,.044-.007a.772.772,0,0,1,.167-.026.72.72,0,0,1,.136-.009.81.81,0,0,1,.154.036.8.8,0,0,1,.143.049c.014.007.03.007.044.015a.741.741,0,0,1,.084.075.757.757,0,0,1,.113.1.746.746,0,0,1,.093.15.578.578,0,0,1,.05.08c.368.971.936,1.6,1.446,1.6s1.082-.626,1.448-1.594a.841.841,0,0,1,.051-.081.73.73,0,0,1,.093-.148.761.761,0,0,1,.116-.1.751.751,0,0,1,.08-.072.421.421,0,0,1,.042-.014,1.545,1.545,0,0,1,.3-.087.841.841,0,0,1,.148.009.774.774,0,0,1,.16.028c.014,0,.029,0,.042.006a.684.684,0,0,1,.087.055.757.757,0,0,1,.139.087.782.782,0,0,1,.112.125.817.817,0,0,1,.067.074c.63,1.072,1.439,1.717,2.017,1.628a.888.888,0,0,0,.567-.436,5.385,5.385,0,0,0,.254-3.869,7.248,7.248,0,0,0-1.312-2.82,5.761,5.761,0,0,1-1.945,1.078,7.319,7.319,0,0,1-1.264.3,8.135,8.135,0,0,1-2.393,0,7.152,7.152,0,0,1-1.266-.3,5.712,5.712,0,0,1-1.939-1.068,7.279,7.279,0,0,0-1.315,2.809A5.394,5.394,0,0,0,680.959,588.827Z" transform="translate(-659.163 -523.97)"/><path class="a" d="M675.65,546.041c0,.155.02.306.025.46h0v.037a14.209,14.209,0,0,0,1.333,5.655h0l.047.1a34.629,34.629,0,0,1,4.3,16.872h0a1.5,1.5,0,0,0,.325.9,3.64,3.64,0,0,0,1.8,1.172,5.709,5.709,0,0,0,1,.234,6.584,6.584,0,0,0,1.931,0,5.816,5.816,0,0,0,1-.232,3.629,3.629,0,0,0,1.8-1.178,1.334,1.334,0,0,0,.279-.863c0-.023,0-.05,0-.081l-.135-.135.142-.347a34.493,34.493,0,0,1,4.32-16.3l.03-.053a13.4,13.4,0,0,0,.587-1.406,14.776,14.776,0,0,0,.106-9.338,12.709,12.709,0,0,0-.747-1.831,10.986,10.986,0,0,0-3.964-4.493l-.608-.377.3-.631v0l.006-.013a4,4,0,0,0,.395-1.743,4.05,4.05,0,0,0-.473-1.9l-3.865,2.208-4.084-2.332a4.053,4.053,0,0,0-.171,3.711.788.788,0,0,1,.072.159l.258.542-.605.376-.026.017c-.017.009-.03.025-.047.032C677.7,537.345,675.65,541.466,675.65,546.041Zm4.634,8.812a.806.806,0,0,1,.862-.56,2.994,2.994,0,0,0,3.055-1.772l.494-1.244a.776.776,0,0,1,.387-.448.49.49,0,0,1,.049-.027.663.663,0,0,1,.064-.034.639.639,0,0,1,.124-.014.668.668,0,0,1,.126-.015.727.727,0,0,1,.132.015.761.761,0,0,1,.12.014.577.577,0,0,1,.063.034c.017.008.034.018.051.028a.776.776,0,0,1,.386.448l.476,1.2a3.035,3.035,0,0,0,3.073,1.818.8.8,0,0,1,.458,1.5l-1.039.523a2.376,2.376,0,0,1-1.066.254,2.292,2.292,0,0,1-.819-.151,2.111,2.111,0,0,1-1.234-1.2l-.6-1.515-.6,1.515a2.113,2.113,0,0,1-1.233,1.2,2.31,2.31,0,0,1-.819.15,2.368,2.368,0,0,1-1.064-.254l-1.039-.523A.8.8,0,0,1,680.284,554.853Z" transform="translate(-658.183 -513.504)"/><path class="b" d="M711.369,530.061a1.217,1.217,0,0,0,.351-.79l.01-.172c.076-1.117.233-3.442-4.015-9.108l-.25-.333-.417.015a19.014,19.014,0,0,1-7.462-1.563,21.11,21.11,0,0,1-3.628-1.9l4.142-.749a1.053,1.053,0,0,0,.78-.592.993.993,0,0,0-.049-.918L699.109,511a22.285,22.285,0,0,1,4.045,1.24c4.185,1.719,6.521,4.022,6.92,5.432l.04.144.089.119c4.422,5.89,4.728,10.086,4.719,11.225l-.051.08c-.988,1.541-3.956,4.363-7.3,7.054q.364.722.7,1.488c3.543-2.828,6.73-5.855,7.885-7.588a1.192,1.192,0,0,0,.36-.806c.053-1.26-.147-5.852-4.949-12.3-.723-2.2-3.759-4.663-7.8-6.325a23.163,23.163,0,0,0-5.571-1.538,1.061,1.061,0,0,0-1.044.453,1,1,0,0,0-.037,1.061l1.924,3.288-4.669.845a1.051,1.051,0,0,0-.836.767.99.99,0,0,0,.353,1.022,22.705,22.705,0,0,0,12.784,4.614h.018c3.645,4.949,3.514,6.88,3.457,7.716l-.053.116a27.992,27.992,0,0,1-4.121,4.4c.288.444.57.908.846,1.387A30.994,30.994,0,0,0,711.369,530.061Z" transform="translate(-661.795 -509.214)"/><path class="b" d="M702.209,548.878c0,.476-.021.95-.061,1.419a51.865,51.865,0,0,0,6.547-4.355c-.212-.515-.434-1.018-.669-1.5a56.31,56.31,0,0,1-5.833,4.007C702.2,548.591,702.209,548.734,702.209,548.878Z" transform="translate(-663.545 -516.342)"/><path class="b" d="M702.033,546.489c1.73-1.209,3.547-2.638,5.218-4.075-.27-.483-.547-.944-.83-1.39-1.448,1.259-3.052,2.545-4.665,3.707A15.89,15.89,0,0,1,702.033,546.489Z" transform="translate(-663.466 -515.65)"/><path class="b" d="M672.011,548.877c0-.137.008-.272.011-.408a52.254,52.254,0,0,1-5.805-4.037c-.234.482-.456.984-.668,1.5a49.266,49.266,0,0,0,6.532,4.393C672.038,549.844,672.011,549.362,672.011,548.877Z" transform="translate(-656.139 -516.34)"/><path class="b" d="M672.76,544.584c-1.615-1.171-3.191-2.441-4.606-3.673-.284.444-.563.905-.834,1.387,1.634,1.41,3.421,2.82,5.149,4.037A16.148,16.148,0,0,1,672.76,544.584Z" transform="translate(-656.498 -515.627)"/><path class="b" d="M675.681,550.581l0,.038v-.037Z" transform="translate(-658.19 -517.584)"/><path class="b" d="M654.117,530.193c1.172,1.762,4.282,4.765,7.728,7.563q.334-.768.7-1.488c-3.316-2.731-6.209-5.572-7.145-7.03l-.051-.08c-.011-1.115.283-5.316,4.719-11.225l.089-.119.04-.143c.4-1.411,2.735-3.714,6.92-5.433a22.239,22.239,0,0,1,4.045-1.24l-1.72,2.939a.993.993,0,0,0-.053.925,1.049,1.049,0,0,0,.775.591l4.147.751a21.194,21.194,0,0,1-3.625,1.9,18.922,18.922,0,0,1-7.464,1.565l-.418-.015-.25.333c-4.247,5.667-4.09,7.991-4.015,9.108l.011.187a1.2,1.2,0,0,0,.351.774,30.188,30.188,0,0,0,4.444,4.737c.278-.478.56-.943.85-1.384a27.4,27.4,0,0,1-4.011-4.307l-.051-.08,0-.036c-.056-.835-.187-2.766,3.457-7.716h.019a22.719,22.719,0,0,0,12.778-4.609.994.994,0,0,0,.358-1.027,1.053,1.053,0,0,0-.838-.768l-4.666-.844,1.93-3.3a.99.99,0,0,0-.043-1.051,1.071,1.071,0,0,0-1.043-.454,23.179,23.179,0,0,0-5.572,1.539c-4.044,1.661-7.079,4.128-7.8,6.325-4.8,6.449-5,11.04-4.949,12.287A1.205,1.205,0,0,0,654.117,530.193Z" transform="translate(-653.753 -509.214)"/><path class="b" d="M674.041,543.48a16.158,16.158,0,0,0-.29,1.751c-.052.467-.077.943-.089,1.421,0,.136-.011.27-.011.408,0,.485.027.967.069,1.446a16.034,16.034,0,0,0,.7,3.487c.313-.042.617-.09.892-.151a.8.8,0,0,1,.342,1.558c-.207.045-.428.084-.653.12.05.114.1.23.151.342v.15l.14.139c.016.032.034.061.05.093l.007,0-.087-.154,1.369-.819.024.042-.047-.1h0a14.209,14.209,0,0,1-1.333-5.655c0-.013,0-.025,0-.038,0-.154-.025-.305-.025-.46,0-4.575,2.045-8.7,5.341-10.785a.8.8,0,0,1-.866-.14l-.742-.68A13.716,13.716,0,0,0,674.041,543.48Z" transform="translate(-657.779 -514.523)"/><path class="b" d="M693.281,536.166a10.985,10.985,0,0,1,3.964,4.493,12.693,12.693,0,0,1,.747,1.831,14.775,14.775,0,0,1-.106,9.338,13.388,13.388,0,0,1-.587,1.406l-.029.053.037-.063,1.366.825h0l.113-.177v-.051c.043-.09.083-.187.124-.278-.225-.036-.445-.075-.651-.12a.8.8,0,1,1,.343-1.559c.274.061.578.108.894.148a15.978,15.978,0,0,0,.735-3.593c.04-.469.061-.943.061-1.419,0-.144-.013-.287-.017-.431q-.017-.639-.08-1.267a15.885,15.885,0,0,0-.278-1.757A15.637,15.637,0,0,0,699.51,542a14.4,14.4,0,0,0-.838-2.055,12.845,12.845,0,0,0-3.707-4.532l-.723.664a.8.8,0,0,1-1.265-.917l-.3.631Z" transform="translate(-661.628 -514.463)"/><path class="b" d="M683.036,535.813l-.258-.542a.79.79,0,0,1-.16.781.8.8,0,0,1-.214.155l.026-.017Z" transform="translate(-659.55 -514.486)"/><path class="b" d="M700.16,558.856c-.009.014-.048.082-.1.182l0,0C700.092,558.977,700.129,558.919,700.16,558.856Z" transform="translate(-663.122 -519.258)"/><path class="b" d="M682.288,533.682a4.052,4.052,0,0,1,.171-3.711l4.084,2.331,3.865-2.208a4.051,4.051,0,0,1,.473,1.9,4,4,0,0,1-.395,1.743l-.006.013a.8.8,0,0,1,.186-.255l1.8-1.652a5.63,5.63,0,0,0-1-3.069,1.07,1.07,0,0,0-1.418-.313l-3.507,2-3.712-2.12a1.092,1.092,0,0,0-1.4.281,5.637,5.637,0,0,0-1.1,3.2l1.815,1.667A.777.777,0,0,1,682.288,533.682Z" transform="translate(-659.132 -513.057)"/><path class="b" d="M683.211,587.233a.78.78,0,0,0-.065.072c-.633,1.078-1.442,1.744-2.028,1.634a.886.886,0,0,1-.565-.434,5.394,5.394,0,0,1-.242-3.871,7.28,7.28,0,0,1,1.314-2.809,4.119,4.119,0,0,1-.645-.666,3.357,3.357,0,0,1-.356-.614,8.532,8.532,0,0,0-1.863,3.713,6.774,6.774,0,0,0,.459,5.12,2.439,2.439,0,0,0,1.624,1.133,2.256,2.256,0,0,0,.395.034,3.446,3.446,0,0,0,2.485-1.33,5.647,5.647,0,0,1-.637-1.223A.785.785,0,0,1,683.211,587.233Z" transform="translate(-658.757 -523.647)"/><path class="b" d="M692.7,581.812a7.246,7.246,0,0,1,1.312,2.82,5.385,5.385,0,0,1-.254,3.869.888.888,0,0,1-.567.436c-.578.089-1.387-.556-2.017-1.628a.827.827,0,0,0-.067-.074.8.8,0,0,0-.112-.125.76.76,0,0,0-.139-.087.738.738,0,0,0-.129-.061.779.779,0,0,0-.16-.028.847.847,0,0,0-.148-.009.771.771,0,0,0-.138.033.751.751,0,0,0-.157.054.412.412,0,0,0-.042.014.757.757,0,0,0-.08.072.785.785,0,0,0-.116.1.737.737,0,0,0-.093.148.786.786,0,0,0,.006.768,6.95,6.95,0,0,0,.8,1.1,3.439,3.439,0,0,0,2.479,1.326,2.374,2.374,0,0,0,.39-.034,2.446,2.446,0,0,0,1.628-1.132,6.781,6.781,0,0,0,.473-5.118,8.518,8.518,0,0,0-1.873-3.738,2.985,2.985,0,0,1-.349.624A4.067,4.067,0,0,1,692.7,581.812Z" transform="translate(-661.025 -523.642)"/><path class="b" d="M677.061,557.828l-.024-.042-1.369.819.087.154.78-.351a.8.8,0,0,1,.653,1.455l-.707.317c.062.132.122.255.189.4.135-.128.264-.255.38-.376a.8.8,0,0,1,1.153,1.1c-.25.261-.546.539-.87.825a32.568,32.568,0,0,1,2.435,12.551l.8.016h.8A34.63,34.63,0,0,0,677.061,557.828Z" transform="translate(-658.187 -519.042)"/><path class="b" d="M693.626,560.5a.8.8,0,0,1,1.128.025c.115.12.244.246.382.375.105-.234.2-.45.3-.65l-.085-.04-.629-.338a.8.8,0,0,1,.356-1.511h.2l.8.43.083.04c.056-.1.095-.167.1-.182l.006-.011h0l-1.366-.825-.038.063a34.494,34.494,0,0,0-4.32,16.3l-.142.347.135.135c0,.03,0,.057,0,.081a1.333,1.333,0,0,1-.279.863,3.628,3.628,0,0,1-1.8,1.178,5.823,5.823,0,0,1-1,.232,6.584,6.584,0,0,1-1.931,0,5.708,5.708,0,0,1-1-.234,3.64,3.64,0,0,1-1.8-1.172,1.5,1.5,0,0,1-.325-.9h-1.6a2.986,2.986,0,0,0,.285,1.24,3.366,3.366,0,0,0,.356.614,4.122,4.122,0,0,0,.645.666,5.712,5.712,0,0,0,1.939,1.068,7.146,7.146,0,0,0,1.266.3,8.132,8.132,0,0,0,2.393,0,7.318,7.318,0,0,0,1.264-.3,5.76,5.76,0,0,0,1.945-1.078,4.067,4.067,0,0,0,.642-.667,3.125,3.125,0,0,0,.591-1.811c0-.06,0-.155,0-.235l.006-.014,0-.144.011-.329-.011-.012a32.552,32.552,0,0,1,2.338-11.555c-.333-.287-.633-.565-.881-.826A.8.8,0,0,1,693.626,560.5Z" transform="translate(-659.228 -519.046)"/><path class="b" d="M716.2,555.2a.8.8,0,1,0-.731-1.417c-.294.151-.6.29-.912.424.067.542.12,1.094.154,1.657C715.22,555.659,715.722,555.442,716.2,555.2Z" transform="translate(-666.056 -518.213)"/><path class="b" d="M700.754,556.041c-.316-.04-.62-.087-.894-.148a.8.8,0,1,0-.343,1.559c.206.045.426.084.651.12a17.136,17.136,0,0,0,2.638.189,25.349,25.349,0,0,0,7.141-1.067c-.025-.553-.07-1.093-.128-1.625A22.636,22.636,0,0,1,700.754,556.041Z" transform="translate(-662.886 -518.492)"/><path class="b" d="M717.18,563.33a.8.8,0,1,0-.353-1.556,14.4,14.4,0,0,1-2.26.317q-.08.8-.209,1.616A16.481,16.481,0,0,0,717.18,563.33Z" transform="translate(-666.016 -519.845)"/><path class="b" d="M699.579,558.965l-.083-.04-.8-.43h-.2a.8.8,0,0,0-.356,1.511l.629.338.085.04a27.006,27.006,0,0,0,10.5,2.66q.131-.8.215-1.58a25.956,25.956,0,0,1-9.981-2.5Z" transform="translate(-662.645 -519.185)"/><path class="b" d="M714.632,570.181l.056,0a.8.8,0,0,0,.055-1.594c-.471-.033-.935-.088-1.4-.155-.136.51-.282,1.024-.447,1.545C713.47,570.067,714.046,570.14,714.632,570.181Z" transform="translate(-665.721 -521.196)"/><path class="b" d="M698.325,561.52c-.138-.129-.267-.254-.382-.375a.8.8,0,0,0-1.153,1.1c.249.26.548.538.881.826A25.151,25.151,0,0,0,708,568.154c.166-.519.313-1.031.45-1.539A23.437,23.437,0,0,1,698.325,561.52Z" transform="translate(-662.416 -519.672)"/><path class="b" d="M659.682,553.78a.8.8,0,1,0-.731,1.417,16.153,16.153,0,0,0,1.663.724c.033-.561.084-1.109.149-1.649C660.391,554.119,660.027,553.957,659.682,553.78Z" transform="translate(-654.717 -518.213)"/><path class="b" d="M672.872,557.5c.225-.036.446-.074.652-.12a.8.8,0,1,0-.342-1.558c-.275.061-.578.108-.892.151a23.025,23.025,0,0,1-9.021-.853c-.057.531-.1,1.071-.123,1.624a25.612,25.612,0,0,0,6.877.966A18.042,18.042,0,0,0,672.872,557.5Z" transform="translate(-655.653 -518.502)"/><path class="b" d="M673.984,560.32l.707-.317a.8.8,0,0,0-.653-1.455l-.78.351-.007,0-.023.01a26.077,26.077,0,0,1-9.9,2.54q.083.779.214,1.581a27.052,27.052,0,0,0,10.4-2.692Z" transform="translate(-655.689 -519.182)"/><path class="b" d="M657.974,561.774a.8.8,0,0,0-.353,1.556,16.432,16.432,0,0,0,3,.38c-.085-.546-.156-1.083-.209-1.613A14.616,14.616,0,0,1,657.974,561.774Z" transform="translate(-654.41 -519.845)"/><path class="b" d="M660.276,568.58a.8.8,0,0,0,.055,1.594l.056,0a18.965,18.965,0,0,0,1.9-.239c-.164-.521-.308-1.033-.443-1.543C661.324,568.474,660.8,568.543,660.276,568.58Z" transform="translate(-654.922 -521.188)"/><path class="b" d="M675.9,560.732a.8.8,0,0,0-1.128.025c-.116.122-.246.248-.38.377a23.646,23.646,0,0,1-9.983,5.347c.135.5.28,1.014.444,1.531a25.776,25.776,0,0,0,10.2-5.326c.325-.286.621-.564.87-.825A.8.8,0,0,0,675.9,560.732Z" transform="translate(-655.909 -519.593)"/><path class="b" d="M693.035,534.193h0a.8.8,0,0,0,1.265.918l.723-.664,2.4-2.2a1.153,1.153,0,0,1,1.44-.02,29.612,29.612,0,0,1,5.781,6.646c.283.445.561.906.83,1.389q.359.646.7,1.336c.235.483.457.986.669,1.5a25.412,25.412,0,0,1,1.784,6.975c.057.532.1,1.072.128,1.625a27.232,27.232,0,0,1-.142,4.078q-.084.779-.215,1.58a31.261,31.261,0,0,1-.667,3.085c-.136.507-.284,1.019-.45,1.539a42.829,42.829,0,0,1-4.267,9.183.8.8,0,0,0,1.362.829,44.58,44.58,0,0,0,4.5-9.711c.165-.521.311-1.035.447-1.545a32.693,32.693,0,0,0,.716-3.376q.128-.821.209-1.616a28.181,28.181,0,0,0,.1-4.6c-.034-.563-.087-1.114-.154-1.657a26.9,26.9,0,0,0-2.026-7.424q-.334-.768-.7-1.488c-.244-.483-.5-.948-.759-1.4-.276-.479-.558-.944-.846-1.387a31.434,31.434,0,0,0-5.97-6.785,2.759,2.759,0,0,0-3.546.065l-1.322,1.213-1.8,1.652A.8.8,0,0,0,693.035,534.193Z" transform="translate(-661.686 -513.499)"/><path class="b" d="M664.029,540.555q-.365.72-.7,1.488a26.94,26.94,0,0,0-2.046,7.516c-.065.54-.116,1.089-.149,1.649a28.258,28.258,0,0,0,.106,4.544c.053.53.124,1.067.209,1.613a32.7,32.7,0,0,0,.707,3.337c.135.51.279,1.022.443,1.543a44.582,44.582,0,0,0,4.509,9.747.8.8,0,0,0,1.363-.829,42.748,42.748,0,0,1-4.29-9.247c-.164-.517-.31-1.027-.444-1.531a31.02,31.02,0,0,1-.652-3.035q-.13-.8-.214-1.581a27.019,27.019,0,0,1-.142-4.03c.023-.553.066-1.093.123-1.624a25.421,25.421,0,0,1,1.793-7.027c.212-.514.434-1.016.668-1.5s.489-.964.746-1.421c.27-.482.55-.944.834-1.387a29.619,29.619,0,0,1,5.724-6.556,1.155,1.155,0,0,1,1.441.02l2.379,2.184.742.68a.8.8,0,0,0,.866.14c.017-.007.03-.023.047-.032a.8.8,0,0,0,.214-.155.805.805,0,0,0,.088-.94.779.779,0,0,0-.136-.187l-1.815-1.667-1.3-1.2a2.76,2.76,0,0,0-3.547-.065,31.4,31.4,0,0,0-5.91,6.692c-.29.441-.573.906-.85,1.384S664.287,540.046,664.029,540.555Z" transform="translate(-655.237 -513.499)"/><path class="b" d="M687.475,556c.018-.009.032-.02.05-.027A.531.531,0,0,0,687.475,556Z" transform="translate(-660.576 -518.675)"/><path class="b" d="M681.855,561.088l1.039.522a2.368,2.368,0,0,0,1.064.254,2.309,2.309,0,0,0,.819-.15,2.113,2.113,0,0,0,1.233-1.2l.6-1.515-.211-.532a6.441,6.441,0,0,1-.571-1.457.78.78,0,0,1,.031-.441l-.495,1.244a2.993,2.993,0,0,1-3.055,1.772.8.8,0,0,0-.457,1.5Z" transform="translate(-659.35 -518.796)"/><path class="b" d="M687.772,555.907a.674.674,0,0,1,.126-.015A.663.663,0,0,0,687.772,555.907Z" transform="translate(-660.636 -518.659)"/><path class="b" d="M688.758,556.41l.018.045a.776.776,0,0,0-.386-.448A.791.791,0,0,1,688.758,556.41Z" transform="translate(-660.761 -518.682)"/><path class="b" d="M688.216,555.925a.776.776,0,0,0-.12-.014.8.8,0,0,1,.183.048A.575.575,0,0,0,688.216,555.925Z" transform="translate(-660.702 -518.663)"/><path class="b" d="M686.946,556.872a6.444,6.444,0,0,0,.571,1.457l.211.532.6,1.515a2.11,2.11,0,0,0,1.234,1.2,2.291,2.291,0,0,0,.819.151,2.376,2.376,0,0,0,1.066-.254l1.039-.522a.8.8,0,0,0-.458-1.5,3.035,3.035,0,0,1-3.073-1.818l-.476-1.2-.018-.045a.791.791,0,0,0-.368-.4c-.018-.01-.034-.02-.051-.028a.791.791,0,0,0-.183-.048.721.721,0,0,0-.132-.015.672.672,0,0,0-.126.015.643.643,0,0,0-.124.014.686.686,0,0,0-.064.034c-.018.007-.032.018-.049.027a.821.821,0,0,0-.418.889Z" transform="translate(-660.465 -518.659)"/></svg>