<svg xmlns="http://www.w3.org/2000/svg" width="55.141" height="56.141" viewBox="0 0 55.141 56.141"><defs><style>.a{fill:#FF9C05;}.b{fill:#333;}</style></defs><g transform="translate(-575.429 -354)"><path class="a" d="M550.108,1116.21c.012-.492.648-.88,1.419-.864a1.912,1.912,0,0,1,.864.216l.008-.09a.619.619,0,0,1-.1-.057,2.694,2.694,0,0,0-1.509-.525,1.181,1.181,0,0,0-.983.42c-.458.615-.061,1.719.867,2.413a2.949,2.949,0,0,0,.866.45.483.483,0,0,0,.418-.06.551.551,0,0,0,.245-.411l.061-.71a1.983,1.983,0,0,1-.784.137C550.713,1117.114,550.1,1116.7,550.108,1116.21Z" transform="translate(59.54 -729.67)"/><path class="a" d="M529.136,1116.21c.012.492-.605.9-1.376.918a1.912,1.912,0,0,1-.88-.185l.061.7a.529.529,0,0,0,.256.413.509.509,0,0,0,.47.038,2.982,2.982,0,0,0,.654-.372c.929-.693,1.327-1.8.87-2.412-.441-.588-1.529-.553-2.445.073l.02.227a1.864,1.864,0,0,1,.952-.264C528.488,1115.331,529.124,1115.719,529.136,1116.21Z" transform="translate(67.3 -729.67)"/><path class="a" d="M568.688,1090.426c.082-1.127-.086-2.874-.712-3.312-.083-.058-.334-.233-1,.065a8.017,8.017,0,0,0-2.483,1.82,18.352,18.352,0,0,0-3.907,11.946,10.255,10.255,0,0,1,.365,1.614C564.87,1100.958,568.551,1094.651,568.688,1090.426Z" transform="translate(55.82 -720.212)"/><path class="a" d="M529.416,1090.076h-5.185a.657.657,0,0,1-.592-.379l-.029,0c-.5-3.13-6.774-20.059-22.6-20.059h-.178a.2.2,0,0,0-.171.1.455.455,0,0,0-.069.389.375.375,0,0,0,.124.186.406.406,0,0,0,.222.09c3.738.335,13.935,4.679,16.152,20.532h-.007l.132,1.524a.028.028,0,0,1,0,.008l.529,6.114a2.915,2.915,0,0,1,3.63.583c.917,1.232.416,3.1-1.139,4.261a4.323,4.323,0,0,1-.942.536,1.853,1.853,0,0,1-2.544-1.561l-.815-9.42a4.617,4.617,0,0,1-1.343-1.336,23.442,23.442,0,0,1,.276,3.1v.017a.657.657,0,0,1-.056.267,8.851,8.851,0,0,0-.566,2.555,13.037,13.037,0,0,0,.037,2.483,11.59,11.59,0,0,0,1.263,4.264,29.358,29.358,0,0,1,3.714,11.706l.015.174a7.535,7.535,0,0,0,7.542,6.92,7.724,7.724,0,0,0,7.567-7.094,29.308,29.308,0,0,1,3.715-11.706,11.589,11.589,0,0,0,1.262-4.265,11.183,11.183,0,0,0-.414-4.73.654.654,0,0,1-.036-.216v0a25.231,25.231,0,0,1,.273-3.731,5.17,5.17,0,0,1-1.472,1.552l-.822,9.521a1.866,1.866,0,0,1-.829,1.4,1.8,1.8,0,0,1-1.549.219,4.218,4.218,0,0,1-1.258-.652c-1.552-1.16-2.052-3.031-1.137-4.26a2.951,2.951,0,0,1,3.774-.513l.534-6.183c0-.01.007-.019.009-.029s0-.025,0-.037,0-.006,0-.009l.12-1.423a.311.311,0,0,1,.01-.033h-.005c2.216-15.853,12.414-20.2,16.156-20.534a.4.4,0,0,0,.215-.087.368.368,0,0,0,.126-.188.454.454,0,0,0-.068-.389.2.2,0,0,0-.17-.1h-.179c-15.829,0-22.1,16.929-22.6,20.06l-.029,0A.656.656,0,0,1,529.416,1090.076Zm.34,29.887a5.653,5.653,0,0,1-6.3,0,.661.661,0,1,1,.81-1.044,4.33,4.33,0,0,0,4.676,0,.661.661,0,1,1,.81,1.044Zm1.577-5.244a.657.657,0,0,1-.716.461,2.857,2.857,0,0,0-2.913,1.7l-.461,1.149a.659.659,0,0,1-.613.415c-.007,0-.015,0-.021,0s-.014,0-.022,0a.661.661,0,0,1-.613-.415l-.461-1.148a2.854,2.854,0,0,0-2.913-1.705.661.661,0,0,1-.384-1.244l.956-.485a2.088,2.088,0,0,1,1.676-.1,1.874,1.874,0,0,1,1.1,1.06l.664,1.655.663-1.654a1.875,1.875,0,0,1,1.1-1.061,2.089,2.089,0,0,1,1.676.1l.955.485A.66.66,0,0,1,531.333,1114.719Zm2.927-22a.661.661,0,1,1-.37,1.269,31.883,31.883,0,0,0-14.183,0,.642.642,0,0,1-.186.026.661.661,0,0,1-.184-1.3A33.547,33.547,0,0,1,534.26,1092.719Z" transform="translate(76.177 -714.322)"/><path class="a" d="M508.378,1087.114c-.689.483-.778,2.421-.714,3.284.147,4.494,4.125,10.561,7.761,12.139a9.623,9.623,0,0,1,.514-1.992A18.8,18.8,0,0,0,511.856,1089a7.992,7.992,0,0,0-2.479-1.815C508.71,1086.88,508.46,1087.056,508.378,1087.114Z" transform="translate(73.777 -720.213)"/><path class="b" d="M535.479,1099.508a.657.657,0,0,0,.592.379h5.185a.656.656,0,0,0,.59-.375l-1.276-.2c.031-.2.086-.449.161-.743h-4.137c.075.293.129.544.161.74Z" transform="translate(64.337 -724.132)"/><path class="b" d="M523.562,1102v0h0Z" transform="translate(68.379 -725.298)"/><path class="b" d="M525.047,1103.413v-.011l-.132-1.524-1.249.175c.529.672.827.761.848.767l-.141.539.017.109.657-.057Z" transform="translate(68.344 -725.256)"/><path class="b" d="M554.839,1103.339s0,.006,0,.009a.635.635,0,0,1,.055-.157c.005-.01.006-.023.012-.034a.65.65,0,0,1,.416-.345c.022-.006.32-.1.847-.76l-1.2-.168a.309.309,0,0,0-.01.033Z" transform="translate(57.77 -725.258)"/><path class="b" d="M525.515,1115.559a1.821,1.821,0,0,0,1.659.133,4.336,4.336,0,0,0,.942-.536c1.555-1.158,2.056-3.03,1.139-4.261a2.915,2.915,0,0,0-3.63-.583l-.529-6.11h0l-.657.057.1.644-.229.007-.082-.021a1.731,1.731,0,0,1-.416-.176l.815,9.419A1.84,1.84,0,0,0,525.515,1115.559Zm.256-3.575-.02-.227c.916-.626,2-.661,2.445-.073.457.616.06,1.72-.87,2.413a2.979,2.979,0,0,1-.654.372.51.51,0,0,1-.47-.037.529.529,0,0,1-.256-.413l-.061-.7a.835.835,0,0,1-.539-.679A.784.784,0,0,1,525.772,1111.984Z" transform="translate(68.294 -726.044)"/><path class="b" d="M551.844,1110.367a2.95,2.95,0,0,0-3.774.513c-.915,1.229-.416,3.1,1.137,4.26a4.213,4.213,0,0,0,1.258.652,1.8,1.8,0,0,0,1.549-.219,1.866,1.866,0,0,0,.829-1.4l.822-9.521a1.842,1.842,0,0,1-.457.205.662.662,0,0,1-.807-.471.649.649,0,0,1-.013-.233c0,.01-.008.018-.009.029Zm-.257,2.983-.061.71a.552.552,0,0,1-.245.412.484.484,0,0,1-.418.06,2.951,2.951,0,0,1-.866-.45c-.928-.693-1.325-1.8-.867-2.412a1.18,1.18,0,0,1,.983-.42,2.694,2.694,0,0,1,1.509.525.606.606,0,0,0,.1.057l-.008.09a.828.828,0,0,1,.511.7A.885.885,0,0,1,551.587,1113.35Z" transform="translate(60.222 -726.029)"/><path class="b" d="M554.934,1103.809c-.006.011-.007.024-.012.034C554.927,1103.832,554.929,1103.82,554.934,1103.809Z" transform="translate(57.741 -725.912)"/><path class="b" d="M556.165,1097.589c-.526.663-.825.754-.846.76a.65.65,0,0,0-.416.345c-.005.011-.007.023-.012.034a.633.633,0,0,0-.055.157c0,.013,0,.024,0,.037a.651.651,0,0,0,.013.233.662.662,0,0,0,.807.471,1.842,1.842,0,0,0,.457-.206,5.167,5.167,0,0,0,1.472-1.551,18.365,18.365,0,0,1,3.948-9.141,18.3,18.3,0,0,0-2.909,4.291c-.279.545-.543,1.1-.792,1.646a15.257,15.257,0,0,1-1.531,2.745c-.01.065-.021.127-.03.193Z" transform="translate(57.772 -720.796)"/><path class="b" d="M564.611,1087.37a.66.66,0,0,1,.087.931c-.005.006-.01.014-.016.021a8.021,8.021,0,0,1,2.483-1.82c.663-.3.915-.124,1-.065.626.439.794,2.185.712,3.313-.137,4.225-3.817,10.532-7.735,12.132a12.647,12.647,0,0,1,.131,1.352c4.6-1.6,8.769-8.661,8.923-13.414.026-.348.212-3.424-1.272-4.465a2.213,2.213,0,0,0-2.3-.059,9.325,9.325,0,0,0-2.912,2.127c-.009.01-.018.022-.027.031A.659.659,0,0,1,564.611,1087.37Z" transform="translate(55.632 -719.535)"/><path class="b" d="M558.584,1101.473a.661.661,0,0,1,1.3-.179c.011.034.017.072.028.106a18.351,18.351,0,0,1,3.907-11.946c.006-.007.011-.015.016-.021a.66.66,0,0,0-1.013-.846l0,0-.008.01a18.365,18.365,0,0,0-3.948,9.141A25.238,25.238,0,0,0,558.584,1101.473Z" transform="translate(56.5 -720.667)"/><path class="b" d="M514.746,1101.859c-3.636-1.578-7.614-7.645-7.761-12.138-.065-.863.024-2.8.714-3.284.083-.058.332-.234,1,.067a7.988,7.988,0,0,1,2.479,1.815l-.014-.017a.661.661,0,0,1,1.016-.845c-.009-.01-.019-.023-.028-.032a9.338,9.338,0,0,0-2.911-2.127,2.211,2.211,0,0,0-2.3.058c-1.484,1.041-1.3,4.117-1.273,4.437.154,4.757,4.339,11.788,8.961,13.427.008-.173,0-.35.018-.52C514.669,1102.413,514.7,1102.133,514.746,1101.859Z" transform="translate(74.457 -719.535)"/><path class="b" d="M521.009,1099.46a1.729,1.729,0,0,0,.416.176l.082.021.229-.007-.1-.644-.017-.109.141-.539c-.022-.006-.32-.095-.849-.767l-.053.007c0-.033-.011-.064-.016-.1h0a14.982,14.982,0,0,1-1.594-2.835c-.248-.55-.513-1.1-.792-1.646a18.3,18.3,0,0,0-2.914-4.3,19.241,19.241,0,0,1,4.124,9.4A4.616,4.616,0,0,0,521.009,1099.46Z" transform="translate(71.1 -720.793)"/><path class="b" d="M544.706,1101.4c-.011-.034-.017-.072-.028-.106a.661.661,0,0,0-1.3.179v0a.653.653,0,0,0,.036.216,11.183,11.183,0,0,1,.414,4.73,11.586,11.586,0,0,1-1.262,4.265,29.31,29.31,0,0,0-3.715,11.706,7.724,7.724,0,0,1-7.567,7.094,7.535,7.535,0,0,1-7.542-6.92l-.015-.174a29.361,29.361,0,0,0-3.714-11.706,11.588,11.588,0,0,1-1.263-4.264,13.047,13.047,0,0,1-.037-2.483,8.853,8.853,0,0,1,.566-2.555.654.654,0,0,0,.056-.267v-.017a23.431,23.431,0,0,0-.276-3.1,19.24,19.24,0,0,0-4.124-9.4l0-.005h0a.661.661,0,0,0-1.016.844l.014.017A18.8,18.8,0,0,1,518.015,1101a9.609,9.609,0,0,0-.514,1.991c-.042.274-.077.554-.1.839-.015.171-.01.348-.018.52a14.525,14.525,0,0,0,.058,2.216,12.928,12.928,0,0,0,1.421,4.763,28.049,28.049,0,0,1,3.554,11.179l.015.174a8.851,8.851,0,0,0,8.863,8.127,9.052,9.052,0,0,0,8.878-8.3,28.009,28.009,0,0,1,3.554-11.179,12.943,12.943,0,0,0,1.421-4.763,14.337,14.337,0,0,0,.056-2.2,12.647,12.647,0,0,0-.131-1.352A10.235,10.235,0,0,0,544.706,1101.4Z" transform="translate(71.702 -720.668)"/><path class="b" d="M567.279,1067.648h-.19c-15.748,0-22.551,15.8-23.744,20.43-.075.294-.13.546-.161.743l1.276.2.029,0c.5-3.131,6.772-20.059,22.6-20.059h.179a.2.2,0,0,1,.171.1.453.453,0,0,1,.068.389.368.368,0,0,1-.126.188.4.4,0,0,1-.215.087c-3.742.336-13.939,4.68-16.156,20.534h.005l1.2.168.1.015c.009-.066.021-.128.03-.193,2.151-14.84,11.5-18.9,14.938-19.208a1.71,1.71,0,0,0,.922-.375,1.676,1.676,0,0,0,.563-.837,1.772,1.772,0,0,0-.27-1.553A1.532,1.532,0,0,0,567.279,1067.648Z" transform="translate(61.724 -713.645)"/><path class="b" d="M515.1,1090.447l.053-.007,1.249-.175h.007c-2.216-15.853-12.414-20.2-16.152-20.532a.4.4,0,0,1-.222-.09.373.373,0,0,1-.124-.186.455.455,0,0,1,.069-.388.2.2,0,0,1,.17-.1h.178c15.827,0,22.1,16.929,22.6,20.059l.029,0,1.276-.2c-.031-.2-.085-.447-.161-.74-1.189-4.627-7.991-20.433-23.746-20.433h-.188a1.53,1.53,0,0,0-1.224.638,1.77,1.77,0,0,0-.271,1.551,1.681,1.681,0,0,0,.558.836,1.725,1.725,0,0,0,.931.379c3.443.309,12.824,4.382,14.949,19.3v0C515.091,1090.383,515.1,1090.414,515.1,1090.447Z" transform="translate(76.855 -713.643)"/><path class="b" d="M544.365,1136.308l-.956-.485a2.089,2.089,0,0,0-1.676-.1,1.875,1.875,0,0,0-1.1,1.06l-.663,1.654.093.232a5.865,5.865,0,0,1,.526,1.328.661.661,0,0,1-.437.789.65.65,0,0,1-.182.029c.007,0,.014,0,.021,0a.659.659,0,0,0,.613-.415l.461-1.149a2.858,2.858,0,0,1,2.913-1.7.661.661,0,0,0,.383-1.244Z" transform="translate(62.813 -736.694)"/><path class="b" d="M538.152,1140a5.87,5.87,0,0,0-.526-1.328l-.093-.232-.664-1.655a1.873,1.873,0,0,0-1.1-1.06,2.089,2.089,0,0,0-1.676.1l-.955.485a.661.661,0,0,0,.384,1.244,2.854,2.854,0,0,1,2.913,1.705l.461,1.149a.661.661,0,0,0,.613.415c.007,0,.014,0,.022,0a.65.65,0,0,0,.182-.029A.661.661,0,0,0,538.152,1140Z" transform="translate(65.253 -736.693)"/><path class="b" d="M540.563,1144.144a4.329,4.329,0,0,1-4.676,0,.661.661,0,1,0-.809,1.044,5.653,5.653,0,0,0,6.3,0,.661.661,0,1,0-.81-1.044Z" transform="translate(64.561 -739.547)"/><path class="b" d="M528.725,1104.134a.661.661,0,0,0,.184,1.3.638.638,0,0,0,.186-.027,31.886,31.886,0,0,1,14.182,0,.661.661,0,1,0,.37-1.269A33.545,33.545,0,0,0,528.725,1104.134Z" transform="translate(66.789 -725.736)"/><path class="b" d="M527.973,1116.873c0,.064.085.115.185.112s.181-.055.179-.12-.085-.114-.185-.112S527.971,1116.809,527.973,1116.873Z" transform="translate(66.883 -730.303)"/><path class="b" d="M526.673,1117.177a1.91,1.91,0,0,0,.88.185c.77-.014,1.388-.426,1.376-.918s-.648-.88-1.419-.864a1.867,1.867,0,0,0-.952.264.784.784,0,0,0-.424.654A.835.835,0,0,0,526.673,1117.177Zm1.04-.71c0,.064-.079.118-.179.12s-.184-.048-.185-.112.079-.118.179-.12S527.712,1116.4,527.713,1116.467Z" transform="translate(67.507 -729.904)"/><path class="b" d="M552.382,1116.753c-.1,0-.184.049-.185.112s.079.118.179.12.184-.048.185-.112S552.483,1116.755,552.382,1116.753Z" transform="translate(58.666 -730.303)"/><path class="b" d="M552.641,1115.8a1.913,1.913,0,0,0-.864-.216c-.77-.015-1.407.373-1.419.864s.605.9,1.376.918a1.983,1.983,0,0,0,.784-.137.885.885,0,0,0,.634-.727A.829.829,0,0,0,552.641,1115.8Zm-.889.791c-.1,0-.181-.056-.179-.12s.085-.114.185-.112.181.055.179.12S551.853,1116.589,551.752,1116.587Z" transform="translate(59.29 -729.904)"/></g></svg>