<svg xmlns="http://www.w3.org/2000/svg" xmlns:xlink="http://www.w3.org/1999/xlink" width="349.705" height="349.705" viewBox="0 0 349.705 349.705"><defs><style>.a{fill:none;}.b{fill:#FF9C05;}.c{fill:#414042;}.d{fill:#fff;}.e{clip-path:url(#a);}.f{fill:#e5ba76;}</style><clipPath id="a"><path class="a" d="M73.768,92.324s12.115,6.764,31.643,5.86S136.661,93,136.661,93s-6.884-5.635-11.394-5.635-8.41.9-11.244-2.706S111.639,67.3,111.639,67.3H96.867s0,11.949-1.874,16.456c-1.154,2.777-6.549,4.653-10.938,4.9A25.89,25.89,0,0,0,73.768,92.324Z" transform="translate(-73.768 -67.301)"/></clipPath></defs><g transform="translate(-568.295 -173.296)"><g transform="translate(655.725 225.439)"><ellipse class="b" cx="88.105" cy="84.771" rx="88.105" ry="84.771"/></g><g transform="translate(653.207 293.951)"><path class="c" d="M137.5,103.723c-24.785,0-48.091-2.071-65.625-5.834C63.321,96.056,56.6,93.916,51.9,91.53c-5-2.536-7.533-5.277-7.533-8.148S46.9,77.771,51.9,75.235c4.7-2.385,11.422-4.525,19.972-6.36C89.4,65.112,112.71,63.041,137.5,63.041s48.089,2.071,65.625,5.834c8.549,1.835,15.267,3.975,19.97,6.36,5,2.536,7.533,5.277,7.533,8.148s-2.534,5.612-7.533,8.148c-4.7,2.387-11.42,4.526-19.97,6.36C185.585,101.652,162.279,103.723,137.5,103.723Zm0-39.769c-24.722,0-47.961,2.065-65.433,5.814C55.042,73.42,45.279,78.383,45.279,83.382S55.042,93.344,72.062,97c17.472,3.749,40.711,5.814,65.433,5.814s47.959-2.065,65.433-5.814c17.019-3.652,26.781-8.615,26.781-13.614s-9.763-9.962-26.781-13.614C185.455,66.019,162.218,63.954,137.5,63.954Z" transform="translate(-44.366 -63.041)"/></g><g transform="translate(711.586 302.104)"><path class="d" d="M74.868,91.183s10.507,8.611,30.056,8.676C125.139,99.928,135.656,93,135.656,93s-6.884-5.635-11.394-5.635-8.41.9-11.244-2.706S110.633,67.3,110.633,67.3H95.862s0,11.949-1.874,16.456c-1.154,2.777-6.549,4.653-10.938,4.9A16.774,16.774,0,0,0,74.868,91.183Z" transform="translate(-74.868 -67.301)"/></g><g transform="translate(568.295 173.296)"><rect class="a" width="349.705" height="349.705"/></g><g transform="translate(568.295 173.296)"><rect class="a" width="349.705" height="349.705"/></g><g transform="translate(717.029 467.751)"><ellipse class="c" cx="28.305" cy="4.541" rx="28.305" ry="4.541"/></g><g transform="translate(723.926 269.12)"><path class="c" d="M84.76,59.218A19.3,19.3,0,0,1,103.5,50.23c8.664,1.194,15.03,5.355,22.682,9.593a14.473,14.473,0,0,0,5.062,1.891c6.3.812,11.334-3.707,17.147-6.262,2.538-1.114,10.259-2.352,15.874.415,7.16,3.527,7.638,9.334,6,10.255-1.437.81-4.09-1.074-5.707-1.4a20.1,20.1,0,0,0-18.954,6.611c-4.262,5.057-7.533,16.728-19.426,16.728-13.8,0-10.643,10.477-22.452,7.181-3.862-1.078-4.379-6.481-8.368-6.067S84.065,84.42,82.09,78.07C80.676,73.524,80.993,65.515,84.76,59.218Z" transform="translate(-81.315 -50.067)"/></g><g transform="translate(673.662 391.644)"><path class="c" d="M103.31,116.453a159.361,159.361,0,0,0-23.218,4.167C66.58,124,55.5,133.179,55.074,145.635s5.853,20.5,14.766,25.493c12.481,7,50.937,8.791,58.306-1.966.555-.808,7.74,6.729,23.821,7.792,10.909.72,21.231.72,37.031-9.759,9.74-6.46,14.561-16.106,9.145-27.3-7.072-14.617-19.893-19.275-34.495-21.223-4.62-.616-18.85-5.118-20.249-4.536C135.357,117.472,103.31,116.453,103.31,116.453Z" transform="translate(-55.053 -114.084)"/></g><g transform="translate(743.313 425.312)"><path class="d" d="M94.966,146.225s10.483-2.14,13.084-2.308a64.07,64.07,0,0,1,13.9.838c2.622.568,5.307,2.36,3.707-1.15s-8.44-6.406-11.248-5.458-7.564-2.79-9.1-4.6-3.857-2.58-5.3-1.089-5.24,8.44-8.561,9.654Z" transform="translate(-91.444 -131.675)"/></g><g transform="translate(717.609 424.569)"><path class="d" d="M109.17,145.2s-10.628-1.236-13.233-1.181a64.147,64.147,0,0,0-13.78,2.023c-2.563.792-5.085,2.806-3.793-.829s7.864-7.1,10.741-6.4,7.3-3.43,8.68-5.359,3.621-2.9,5.189-1.537,5.943,7.96,9.355,8.886Z" transform="translate(-78.015 -131.287)"/></g><g transform="translate(709.48 302.104)"><g class="e"><g transform="translate(18.686 -27.217)"><circle class="f" cx="19.898" cy="19.898" r="19.898"/></g></g></g><g transform="translate(730.75 290.635)"><path class="d" d="M85.1,74.554c-.362-.731-.574-6,1.969-7.778,3.6-2.517,5.8-1.636,7.751-5.468a6.192,6.192,0,0,0,2.951,3.476c2.05,1.156,3.612.911,4.789,3.125,1.931,3.631,1.556,6.4,1.378,6.848a8.995,8.995,0,0,1-3.252,3.929c-3.156,2.029-4.312,1.782-6.276,1.782A10.393,10.393,0,0,1,85.1,74.554Z" transform="translate(-84.881 -61.308)"/></g><g transform="translate(680.326 325.912)"><path class="c" d="M89.845,79.74s25.231,16.517,60.738,1.891c0,0,13.118,9.417,19.334,21.357s9.29,20.917,4.993,23.968c-3.612,2.567-25.2,10.768-35.18,2.609l.484,15.958s-20.749,7.384-40.087,2.318L99.441,120.1s-23,12.831-37.628,3.478c-6.458-4.13-2.044-16.048,1.879-21.6C68.987,94.491,89.845,79.74,89.845,79.74Z" transform="translate(-58.535 -79.74)"/></g><g transform="translate(737.971 347.512)"><circle class="b" cx="6.626" cy="6.626" r="6.626"/></g><g transform="translate(642.996 294.143)"><path class="c" d="M59.18,82.778a20.14,20.14,0,0,1,9.633-17.191,20.153,20.153,0,1,0,.884,34.895A20.149,20.149,0,0,1,59.18,82.778Z" transform="translate(-39.03 -63.141)"/></g><g transform="translate(820.475 299.114)"><circle class="b" cx="14.731" cy="14.731" r="14.731"/></g><g transform="translate(669.125 309.754)"><circle class="c" cx="4.539" cy="4.539" r="4.539"/></g><g transform="translate(794.164 292.952)"><circle class="c" cx="4.539" cy="4.539" r="4.539"/></g><g transform="translate(631.275 269.792)"><circle class="c" cx="4.539" cy="4.539" r="4.539"/></g><g transform="translate(635.814 307.112)"><circle class="b" cx="7.181" cy="7.181" r="7.181"/></g><g transform="translate(797.883 319.284)"><circle class="c" cx="8.885" cy="8.885" r="8.885"/></g><g transform="translate(820.475 299.115)"><path class="c" d="M139.532,80.469a14.736,14.736,0,0,1,10.846-14.211,14.731,14.731,0,1,0,0,28.424A14.736,14.736,0,0,1,139.532,80.469Z" transform="translate(-131.761 -65.739)"/></g><g transform="translate(725.645 361.459)"><path class="d" d="M123.6,108.88l-.094-2.863c-8-1.914-11.533-4.536-14.9-4.926-6.469-.75-13.229-3.307-13.74-2.679-.53.727.41,1.613,1.212,2.019l5.277,2.67a34.519,34.519,0,0,1-12.821.7c-2.111-.283-6.683-1-6.293.155.226.909,1.2,1.38,2.079,1.717a99.087,99.087,0,0,0,11.926,3.763,17.888,17.888,0,0,0,7,.691c1.319-.2,2.58-.678,3.881-.978,5.309-1.231,10.814.438,16.008,2.088A15.7,15.7,0,0,0,123.6,108.88Z" transform="translate(-82.213 -98.313)"/></g><g transform="translate(714.299 337.583)"><path class="d" d="M78.157,102.3c8.188-2.019,12.976-1.4,16.343-2.251,3.663-.926,3.947-3.168,5.531-5.175,2.549-4.794,6.634-5.527,11.028-6.081,2.19-.276,6.978-1.474,6.04-2.329a3.212,3.212,0,0,0-2.741-.567c-4.268.469-8.749-.057-12.907.934a18.2,18.2,0,0,0-6.66,2.641c-1.087.8-1.987,1.807-3.009,2.681-4.17,3.573-9.977,4.647-15.5,5.592A14.414,14.414,0,0,0,78.157,102.3Z" transform="translate(-76.285 -85.838)"/></g><g transform="translate(705.195 241.259)"><path class="c" d="M90.878,39.485l-3.136,5.8,5.532,3.583-6.488,1.162.648,6.559-4.954-4.348-4.724,4.6.31-6.584-6.539-.828,5.341-3.862-3.43-5.628,6.35,1.768,2.262-6.191,2.577,6.066Z" transform="translate(-71.528 -35.51)"/></g><g transform="translate(810.488 374.664)"><path class="c" d="M141.71,108.328l-2.458,4.544,4.336,2.808-5.085.911.508,5.141-3.883-3.408-3.7,3.6.243-5.161-5.125-.649,4.186-3.027-2.688-4.412,4.977,1.386,1.773-4.853,2.02,4.755Z" transform="translate(-126.543 -105.213)"/></g><g transform="translate(649.695 368.501)"><path class="b" d="M53.27,104.177l-1.744,3.2,3.065,1.971-3.6.646.354,3.617L48.6,111.218l-2.624,2.539.178-3.631-3.625-.451L45.5,107.54l-1.9-3.1,3.52.97,1.26-3.416,1.424,3.343Z" transform="translate(-42.531 -101.992)"/></g><g transform="translate(841.164 274.331)"><path class="b" d="M153.309,54.974l-1.744,3.2,3.065,1.971-3.6.646.354,3.617-2.744-2.394-2.624,2.539.178-3.631-3.625-.451,2.965-2.134-1.9-3.1,3.52.97,1.26-3.416,1.424,3.343Z" transform="translate(-142.571 -52.789)"/></g><g transform="translate(738.566 204.661)"><path class="b" d="M99.7,18.573l-1.744,3.2,3.065,1.971-3.6.646.354,3.617-2.744-2.394-2.624,2.539.178-3.631-3.625-.451,2.965-2.134-1.9-3.1,3.52.97,1.26-3.416,1.424,3.343Z" transform="translate(-88.965 -16.388)"/></g><g transform="translate(691.408 290.381)"><path class="c" d="M76.321,63.016l-1.638,3.721,4.009.672-3.646,1.8,2.64,3.092-3.949-.967.035,4.065-2.4-3.279-2.586,3.136.266-4.057-4,.74L67.863,69l-3.538-2,4.041-.442-1.423-3.808,3.38,2.259,1.358-3.832,1.137,3.9Z" transform="translate(-64.325 -61.175)"/></g><g transform="translate(823.219 228.758)"><path class="c" d="M153.788,32.674l-3.234,6,6.616,1.658-6.337,2.521,4,5.522-6.475-2.143-.484,6.8-3.583-5.8-4.743,4.9.986-6.749-6.784.705,5.093-4.536-5.65-3.82,6.817-.2-1.872-6.558,5.352,4.228,2.781-6.227,1.382,6.679Z" transform="translate(-133.195 -28.978)"/></g></g></svg>