<svg xmlns="http://www.w3.org/2000/svg" width="19.449" height="19.423" viewBox="0 0 19.449 19.423"><defs><style>.a{fill:#FF9C05;}.b{fill:#414853;}</style></defs><g transform="translate(-626.032 -11.72)"><path class="a" d="M797.764,172.784a4.934,4.934,0,0,1-.792-.232,4.211,4.211,0,0,1-.879-.547.8.8,0,0,0-.936-.138,7.184,7.184,0,0,1-9.065-2.716c-.043-.069-.083-.14-.14-.237a8.51,8.51,0,0,0,9.457-9.956c.064.028.113.045.158.07a6.957,6.957,0,0,1,3.683,5.222c.024.149.047.3.07.446v1.025a.574.574,0,0,0-.03.108,10.169,10.169,0,0,1-.544,2.43,5.771,5.771,0,0,0,.2,4.246c.019.043.03.09.048.146l-.545.13Z" transform="translate(-153.839 -141.641)"/><path class="b" d="M626.454,26.166c.149-.567.332-1.114.433-1.675a5.51,5.51,0,0,0-.32-2.962,6.869,6.869,0,0,1,.706-6.621,6.872,6.872,0,0,1,6.567-3.161,7.15,7.15,0,0,1,.65,14.162,7.024,7.024,0,0,1-4.24-.534.778.778,0,0,0-.95.144A2.961,2.961,0,0,1,626.454,26.166ZM638.079,18.9a1.038,1.038,0,1,0-1.041,1.034A1.041,1.041,0,0,0,638.079,18.9Zm-3.827,0a1.034,1.034,0,1,0-1.036,1.037A1.035,1.035,0,0,0,634.252,18.9Zm-5.89-.015a1.034,1.034,0,1,0,1.047-1.023A1.036,1.036,0,0,0,628.362,18.884Z"/></g></svg>