<svg xmlns="http://www.w3.org/2000/svg" width="28.275" height="24.768" viewBox="0 0 28.275 24.768"><defs><style>.a{fill:#FF9C05;fill-rule:evenodd;}</style></defs><path class="a" d="M36.992,80.007A2.406,2.406,0,0,0,39.4,82.413h3.61v3.712a1.2,1.2,0,0,0,2.063.842l4.554-4.554H62.861a2.406,2.406,0,0,0,2.406-2.406V64.967a2.406,2.406,0,0,0-2.406-2.406H39.4a2.406,2.406,0,0,0-2.406,2.406v15.04Zm7.219-6.918a1.5,1.5,0,1,1,1.5,1.5A1.5,1.5,0,0,1,44.211,73.089Zm5.414,0a1.5,1.5,0,1,1,1.5,1.5A1.5,1.5,0,0,1,49.625,73.089Zm5.414,0a1.5,1.5,0,1,1,1.5,1.5A1.5,1.5,0,0,1,55.04,73.089Z" transform="translate(-36.992 -62.561)"/></svg>