<svg id="Group_22394" data-name="Group 22394" xmlns="http://www.w3.org/2000/svg" xmlns:xlink="http://www.w3.org/1999/xlink" width="30.133" height="30.127" viewBox="0 0 30.133 30.127">
  <defs>
    <linearGradient id="linear-gradient" x1="0.5" x2="0.5" y2="1" gradientUnits="objectBoundingBox">
      <stop offset="0" stop-color="#fd0000"/>
      <stop offset="1" stop-color="#fe4e02"/>
    </linearGradient>
    <clipPath id="clip-path">
      <rect id="Rectangle_3376" data-name="Rectangle 3376" width="30.133" height="30.127" fill="url(#linear-gradient)"/>
    </clipPath>
  </defs>
  <g id="Group_22393" data-name="Group 22393" transform="translate(0 0)" clip-path="url(#clip-path)">
    <path id="Path_34935" data-name="Path 34935" d="M26.737,26.195c0,.066,0,.139,0,.211,0,.925,0,1.85,0,2.775a.91.91,0,0,1-.832.938.977.977,0,0,1-.734-.227Q23.98,29,22.789,28.1c-.813-.61-1.624-1.223-2.442-1.827a.567.567,0,0,0-.314-.105c-1.918-.007-3.835,0-5.753-.01a2.991,2.991,0,0,1-2.849-2.217,4.1,4.1,0,0,1-.131-.96c-.018-.8-.006-1.605-.006-2.408v-.234c-.1.074-.173.125-.245.178q-2.493,1.867-4.986,3.734a.92.92,0,0,1-1.434-.3,1.135,1.135,0,0,1-.1-.495c-.008-1.336,0-2.671,0-4.007v-.251c-.1,0-.2,0-.291,0A4.434,4.434,0,0,1,2.5,18.972,3.812,3.812,0,0,1,0,15.344c0-3.829-.012-7.658,0-11.488A3.678,3.678,0,0,1,2.246.334,3.7,3.7,0,0,1,3.871,0C9.452,0,15.033-.006,20.615.006a3.689,3.689,0,0,1,3.537,2.249,3.738,3.738,0,0,1,.33,1.643q0,3.575,0,7.15V11.3h.22c.772,0,1.544-.006,2.316,0a3.04,3.04,0,0,1,3.032,2.421,3.552,3.552,0,0,1,.079.783q.008,4.227,0,8.455A3.072,3.072,0,0,1,27.7,26.1a7.851,7.851,0,0,1-.958.095M6.4,21.648c.082-.059.133-.093.182-.129,1.719-1.29,3.442-2.576,5.154-3.875a1.566,1.566,0,0,1,1-.331q3.933.01,7.866,0a1.873,1.873,0,0,0,1.987-1.963q.007-5.753,0-11.505a1.916,1.916,0,0,0-.26-1.019A1.887,1.887,0,0,0,20.6,1.889q-8.353.006-16.706,0a1.182,1.182,0,0,0-.257.008,3.119,3.119,0,0,0-.669.18,1.852,1.852,0,0,0-1.08,1.813q0,5.707,0,11.413c0,.067,0,.135,0,.2a1.852,1.852,0,0,0,1.809,1.8c.55.025,1.1.007,1.654.011A.957.957,0,0,1,6.4,18.367q0,1.424,0,2.849ZM13.2,19.206c0,.069-.01.105-.01.142q0,1.847,0,3.694a1.333,1.333,0,0,0,.041.363,1.165,1.165,0,0,0,1.206.879q2.986,0,5.972,0a1.224,1.224,0,0,1,.767.255q1.562,1.178,3.13,2.348c.174.13.349.259.551.407v-.216c0-.6,0-1.2,0-1.8a.946.946,0,0,1,1-.992c.392,0,.785.012,1.176-.006a1.437,1.437,0,0,0,.548-.119,1.181,1.181,0,0,0,.669-1.169q0-4.254,0-8.508c0-.073,0-.147-.008-.22a1.161,1.161,0,0,0-1.115-1.071c-.863-.015-1.727,0-2.591,0-.01,0-.02.011-.046.026v.19c0,.649.009,1.3,0,1.948a3.8,3.8,0,0,1-3.89,3.855H13.2" transform="translate(0 0.001)" fill="url(#linear-gradient)"/>
    <path id="Path_34936" data-name="Path 34936" d="M71.618,64.021q3.207,0,6.414,0a1.022,1.022,0,0,1,.905.384.939.939,0,0,1-.57,1.479,1.674,1.674,0,0,1-.31.026H65.118a.959.959,0,0,1-1.024-.717.927.927,0,0,1,.8-1.158,2.869,2.869,0,0,1,.293-.014h6.432" transform="translate(-59.353 -59.313)" fill="url(#linear-gradient)"/>
    <path id="Path_34937" data-name="Path 34937" d="M71.614,117.166H65.092a.939.939,0,0,1-.164-1.87c.055-.005.11-.006.165-.006H78.119a.955.955,0,0,1,.819.371.879.879,0,0,1,.122.934.905.905,0,0,1-.777.566,2.472,2.472,0,0,1-.257.007H71.614" transform="translate(-59.365 -106.812)" fill="url(#linear-gradient)"/>
    <path id="Path_34938" data-name="Path 34938" d="M68.31,168.258c-1.066,0-2.131,0-3.2,0a.95.95,0,0,1-.968-.589.936.936,0,0,1,.76-1.285,1.292,1.292,0,0,1,.183-.014q3.225,0,6.449,0a.938.938,0,0,1,.966.671.928.928,0,0,1-.794,1.2,2.856,2.856,0,0,1-.293.014H68.31" transform="translate(-59.365 -154.136)" fill="url(#linear-gradient)"/>
  </g>
</svg>
