<svg xmlns="http://www.w3.org/2000/svg" xmlns:xlink="http://www.w3.org/1999/xlink" width="74" height="77" viewBox="0 0 74 77"><defs><style>.a{fill:#FF9C05;}.b{fill:url(#a);}.c{fill:#174ac0;}.d{fill:#fff;font-size:11px;font-family:SFProDisplay-Semibold, SF Pro Display;font-weight:600;}</style><linearGradient id="a" x1="0.959" y1="0.033" x2="0.199" y2="1.153" gradientUnits="objectBoundingBox"><stop offset="0.11" stop-color="#f1f1f1"/><stop offset="1" stop-color="#e5e5e5"/></linearGradient></defs><g transform="translate(-1034 -2276.761)"><circle class="a" cx="37" cy="37" r="37" transform="translate(1034 2279.761)"/><g transform="translate(1047.446 2291.528)"><path class="b" d="M971.414,533.944A23.342,23.342,0,0,1,988.209,573.5l1.333,3.967,1.862,5.544-4.929-3.148-3.547-2.265a23.347,23.347,0,1,1-11.514-43.657Z" transform="translate(-948.066 -533.944)"/><g transform="translate(8.723 19.936)"><circle class="c" cx="3.01" cy="3.01" r="3.01"/><circle class="c" cx="3.01" cy="3.01" r="3.01" transform="translate(11.615)"/><circle class="c" cx="3.01" cy="3.01" r="3.01" transform="translate(23.23)"/></g></g><ellipse class="c" cx="10" cy="10.5" rx="10" ry="10.5" transform="translate(1086 2276.761)"/><text class="d" transform="translate(1096 2290.762)"><tspan x="-3.478" y="0">4</tspan></text></g></svg>