<svg xmlns="http://www.w3.org/2000/svg" width="14.288" height="14.133" viewBox="0 0 14.288 14.133"><defs><style>.a{fill:#222;}</style></defs><path class="a" d="M142.873,76.929a7.893,7.893,0,0,1-.767,1.156q-2.1,2.161-4.266,4.267c-.385.373-.368.588.007.953,1.471,1.43,2.928,2.876,4.343,4.36a1.727,1.727,0,0,1,.491,1.187,1.55,1.55,0,0,1-.764.939,1.085,1.085,0,0,1-1.341-.346l-3.717-3.717c-.253-.253-.528-.489-.757-.763-.3-.363-.531-.356-.868-.011-1.433,1.467-2.891,2.91-4.344,4.357a2.377,2.377,0,0,1-.555.445,1.176,1.176,0,0,1-1.5-.345,1.19,1.19,0,0,1,.155-1.626c.975-1,1.971-1.973,2.957-2.958.493-.493.964-1.01,1.485-1.472.417-.37.46-.62.022-1.04-1.436-1.379-2.83-2.8-4.23-4.218a2.267,2.267,0,0,1-.513-.716,1.182,1.182,0,0,1,.476-1.413,1.262,1.262,0,0,1,1.539.216c1.235,1.215,2.449,2.452,3.685,3.667.4.4.836,1.024,1.28,1.046.389.019.825-.65,1.218-1.037,1.233-1.217,2.455-2.446,3.682-3.67a1.129,1.129,0,0,1,1.42-.259A1.571,1.571,0,0,1,142.873,76.929Z" transform="translate(-128.585 -75.778)"/></svg>