<svg xmlns="http://www.w3.org/2000/svg" width="16.907" height="18.995" viewBox="0 0 16.907 18.995"><defs><style>.a{fill:#FF9C05;}.b{fill:#414853;}</style></defs><g transform="translate(-25.274)"><g transform="translate(25.274)"><path class="a" d="M39.089,281.014a4.131,4.131,0,0,1-3.344,1.706H33.818a1.539,1.539,0,0,1-1.447-1.014,4.887,4.887,0,0,1-.778-.308,5.24,5.24,0,0,1-1.453-1.076,6.205,6.205,0,0,0-4.866,6.058v.388a.965.965,0,0,0,.965.965H41.215a.965.965,0,0,0,.965-.965v-.388A6.2,6.2,0,0,0,39.089,281.014Z" transform="translate(-25.274 -268.739)"/><path class="b" d="M92.707,9.595a1.1,1.1,0,0,0,.963-.569l.015.04,0,.012a4.29,4.29,0,0,0,2.419,2.547,1.537,1.537,0,0,1,1.3-.72h1.926a1.078,1.078,0,0,0,.528-.142,2.177,2.177,0,0,0,.622-.719,5.555,5.555,0,0,0,.482-1.018,1.1,1.1,0,0,0,.3.35v.472a1.938,1.938,0,0,1-1.936,1.936H97.411a.659.659,0,0,0,0,1.319h1.926a3.258,3.258,0,0,0,3.255-3.255V9.375a1.1,1.1,0,0,0,.44-.879V5.745a1.1,1.1,0,0,0-.456-.891,5.272,5.272,0,0,0-10.511,0,1.1,1.1,0,0,0-.456.891V8.5A1.1,1.1,0,0,0,92.707,9.595ZM97.32,1.319a3.959,3.959,0,0,1,3.934,3.562,1.1,1.1,0,0,0-.309.382A3.763,3.763,0,0,0,93.7,5.256l0,.007a1.1,1.1,0,0,0-.309-.382A3.959,3.959,0,0,1,97.32,1.319Z" transform="translate(-88.867)"/></g></g></svg>