<svg id="Group_22381" data-name="Group 22381" xmlns="http://www.w3.org/2000/svg" xmlns:xlink="http://www.w3.org/1999/xlink" width="42.446" height="58.657" viewBox="0 0 42.446 58.657">
  <defs>
    <linearGradient id="linear-gradient" x1="1" y1="0.347" x2="0.07" y2="0.72" gradientUnits="objectBoundingBox">
      <stop offset="0" stop-color="#FF9C05"/>
      <stop offset="1" stop-color="red"/>
    </linearGradient>
    <clipPath id="clip-path">
      <rect id="Rectangle_3366" data-name="Rectangle 3366" width="42.446" height="58.657" fill="url(#linear-gradient)"/>
    </clipPath>
  </defs>
  <g id="Group_22380" data-name="Group 22380" clip-path="url(#clip-path)">
    <path id="Path_34785" data-name="Path 34785" d="M37.842,0h-22.2a2.712,2.712,0,0,0-1.93.8L.8,13.707a2.712,2.712,0,0,0-.8,1.93V54.05a4.611,4.611,0,0,0,4.6,4.607H37.839a4.613,4.613,0,0,0,4.607-4.607V4.6a4.609,4.609,0,0,0-4.6-4.6M13.585,5.372v6.752a1.462,1.462,0,0,1-1.461,1.461H5.372ZM39.3,54.05a1.462,1.462,0,0,1-1.461,1.461H4.6A1.461,1.461,0,0,1,3.147,54.05V16.732h8.978a4.613,4.613,0,0,0,4.607-4.607V3.147h21.11A1.459,1.459,0,0,1,39.3,4.6Z" fill="url(#linear-gradient)"/>
    <rect id="Rectangle_3359" data-name="Rectangle 3359" width="30.512" height="3.147" transform="translate(5.967 48.88)" fill="url(#linear-gradient)"/>
    <rect id="Rectangle_3360" data-name="Rectangle 3360" width="30.512" height="3.147" transform="translate(5.967 42.159)" fill="url(#linear-gradient)"/>
    <rect id="Rectangle_3361" data-name="Rectangle 3361" width="30.512" height="3.147" transform="translate(5.967 35.439)" fill="url(#linear-gradient)"/>
    <rect id="Rectangle_3362" data-name="Rectangle 3362" width="30.512" height="3.147" transform="translate(5.967 28.718)" fill="url(#linear-gradient)"/>
    <rect id="Rectangle_3363" data-name="Rectangle 3363" width="30.512" height="3.147" transform="translate(5.967 21.997)" fill="url(#linear-gradient)"/>
    <rect id="Rectangle_3364" data-name="Rectangle 3364" width="17.003" height="3.147" transform="translate(19.476 8.556)" fill="url(#linear-gradient)"/>
    <rect id="Rectangle_3365" data-name="Rectangle 3365" width="17.003" height="3.147" transform="translate(19.476 15.277)" fill="url(#linear-gradient)"/>
  </g>
</svg>
