<svg xmlns="http://www.w3.org/2000/svg" xmlns:xlink="http://www.w3.org/1999/xlink" width="20.95" height="16.04" viewBox="0 0 20.95 16.04">
  <defs>
    <linearGradient id="linear-gradient" x1="0.5" x2="0.5" y2="1" gradientUnits="objectBoundingBox">
      <stop offset="0" stop-color="#FF9C05"/>
      <stop offset="1" stop-color="#fe5602"/>
    </linearGradient>
  </defs>
  <path id="Path_8316" data-name="Path 8316" d="M162.872,494.94q-4.083,0-8.166,0a2.105,2.105,0,0,1-2.3-2.306q0-5.737,0-11.474a2.091,2.091,0,0,1,2.263-2.255q8.232,0,16.464,0a2.1,2.1,0,0,1,2.217,2.218q.006,5.781,0,11.561a2.1,2.1,0,0,1-2.266,2.258Q166.977,494.948,162.872,494.94Zm-3.639-8.061c-.129.121-.22.212-.316.3q-2.038,1.816-4.078,3.628a.792.792,0,0,0-.334.875.718.718,0,0,0,1.236.239c1.123-.994,2.239-1.994,3.359-2.991.4-.356.8-.708,1.214-1.073.8.633,1.424,1.474,2.569,1.47s1.762-.852,2.544-1.463c.111.089.205.156.29.232q1.858,1.656,3.714,3.314c.239.213.468.44.725.629a.707.707,0,0,0,.954-1.029,2.016,2.016,0,0,0-.281-.272l-3.881-3.455c-.139-.123-.276-.248-.431-.387.135-.128.237-.23.345-.326l4.6-4.1a3.211,3.211,0,0,0,.347-.33.691.691,0,0,0-.029-.95.68.68,0,0,0-.914-.091,2.137,2.137,0,0,0-.265.226l-6.949,6.182c-.589.524-.961.521-1.56-.012l-4.825-4.3q-1.141-1.016-2.286-2.029a.606.606,0,0,0-.834-.086,1.128,1.128,0,0,0-.335.727c-.007.181.205.4.369.554.838.766,1.692,1.514,2.539,2.269S158.381,486.119,159.233,486.88Z" transform="translate(-152.4 -478.902)" fill="url(#linear-gradient)"/>
</svg>
