<svg xmlns="http://www.w3.org/2000/svg" width="18.787" height="12.916" viewBox="0 0 18.787 12.916"><defs><style>.a{opacity:0.9;}.b{fill:#f8f8f8;}</style></defs><g class="a"><g transform="translate(12.453 2.381)"><path class="b" d="M339.392,149.069l6.334,4V144.9Z" transform="translate(-339.392 -144.896)"/></g><g transform="translate(0 2.381)"><path class="b" d="M0,144.9v8.177l6.334-4Z" transform="translate(0 -144.896)"/></g><g transform="translate(0.035)"><path class="b" d="M18.537,80H2.1A1.16,1.16,0,0,0,.96,81l9.358,6.166L19.676,81A1.16,1.16,0,0,0,18.537,80Z" transform="translate(-0.96 -80)"/></g><g transform="translate(0.038 7.262)"><path class="b" d="M12.364,277.921,10.7,279.016a.589.589,0,0,1-.646,0L8.4,277.92l-7.372,4.663a1.158,1.158,0,0,0,1.137.991H18.6a1.158,1.158,0,0,0,1.137-.991Z" transform="translate(-1.024 -277.92)"/></g></g></svg>