<svg id="Group_22484" data-name="Group 22484" xmlns="http://www.w3.org/2000/svg" xmlns:xlink="http://www.w3.org/1999/xlink" width="53.321" height="53.321" viewBox="0 0 53.321 53.321">
  <defs>
    <linearGradient id="linear-gradient" x1="0.5" x2="0.5" y2="1" gradientUnits="objectBoundingBox">
      <stop offset="0" stop-color="#FF9C05"/>
      <stop offset="1" stop-color="#fe5602"/>
    </linearGradient>
    <clipPath id="clip-path">
      <path id="Clip_2" data-name="Clip 2" d="M0,0H44.992V44.992H0Z" fill="none"/>
    </clipPath>
    <clipPath id="clip-path-2">
      <path id="Clip_11" data-name="Clip 11" d="M0,0H1.355V2.806H0Z" fill="none"/>
    </clipPath>
    <clipPath id="clip-path-3">
      <path id="Clip_44" data-name="Clip 44" d="M0,0H3.052V2.372H0Z" fill="none"/>
    </clipPath>
    <clipPath id="clip-path-4">
      <path id="Clip_2-2" data-name="Clip 2" d="M0,0H2.422V2.313H0Z" fill="none"/>
    </clipPath>
    <clipPath id="clip-path-6">
      <path id="Clip_8" data-name="Clip 8" d="M0,0H5.534V10.982H0Z" fill="none"/>
    </clipPath>
    <clipPath id="clip-path-7">
      <path id="Clip_11-2" data-name="Clip 11" d="M0,0H3.58V7.736H0Z" fill="none"/>
    </clipPath>
  </defs>
  <path id="Fill_1" data-name="Fill 1" d="M34.834,0l-10.2.021L14.429,0l-7.2,7.229L0,14.429l.021,10.2L0,34.834l7.229,7.2,7.2,7.229,10.2-.021,10.2.021,7.2-7.229,7.23-7.2-.021-10.2.021-10.2-7.23-7.2Z" transform="translate(1.952 1.952)"/>
  <path id="Fill_1-2" data-name="Fill 1" d="M26.661,0,17.243,3.924,7.809,7.809,3.924,17.243,0,26.661l3.924,9.418,3.885,9.434L17.243,49.4l9.418,3.924L36.078,49.4l9.434-3.885L49.4,36.078l3.924-9.418L49.4,17.243,45.512,7.809,36.078,3.924Z" transform="translate(0 0)" fill="url(#linear-gradient)"/>
  <g id="Group_3" data-name="Group 3" transform="translate(4.133 4.133)">
    <path id="Clip_2-3" data-name="Clip 2" d="M0,0H44.992V44.992H0Z" fill="none"/>
    <g id="Group_3-2" data-name="Group 3" clip-path="url(#clip-path)">
      <path id="Fill_1-3" data-name="Fill 1" d="M22.5,44.992A22.5,22.5,0,0,1,13.74,1.768,22.5,22.5,0,0,1,31.252,43.224,22.355,22.355,0,0,1,22.5,44.992Zm0-39.552a17,17,0,1,0,6.639,1.34A16.949,16.949,0,0,0,22.5,5.44Z" transform="translate(0 0)"/>
    </g>
  </g>
  <g id="Group_47" data-name="Group 47" transform="translate(7.119 5.511)">
    <path id="Fill_1-4" data-name="Fill 1" d="M1.253,1.251l.3-.466L1.881,1l-.3.466.949.61L2.3,2.433,0,.955.614,0,.943.211.561.805Z" transform="translate(1.392 9.175)" fill="#fff"/>
    <g id="Group_46" data-name="Group 46">
      <path id="Fill_2" data-name="Fill 2" d="M1.987,2.593h0L0,.717.445.246A.644.644,0,0,1,.9,0a.65.65,0,0,1,.437.215l.156.147a.546.546,0,0,1,.21.585A.419.419,0,0,1,1.875.91a.676.676,0,0,1,.448.229l.306.29a.809.809,0,0,0,.274.194l-.3.318a.86.86,0,0,1-.271-.2l-.312-.3a.4.4,0,0,0-.254-.136.264.264,0,0,0-.191.1l-.1.108.809.764-.295.311ZM.868.447A.2.2,0,0,0,.721.523L.579.673l.609.576L1.3,1.127C1.427,1,1.416.878,1.271.742l-.2-.186A.322.322,0,0,0,.868.447Z" transform="translate(3.659 6.347)" fill="#fff"/>
      <path id="Fill_4" data-name="Fill 4" d="M1.022,1.368,1.5,1.023l.229.316-.478.345.469.649.6-.434.229.316L1.6,2.9,0,.686.949,0l.229.316-.6.434Z" transform="translate(6.629 3.626)" fill="#fff"/>
      <path id="Fill_6" data-name="Fill 6" d="M.879,1.358l.533-.251.166.353-.533.251.341.724.671-.316.166.353-1.059.5L0,.5,1.059,0l.166.353L.555.669Z" transform="translate(9.938 1.739)" fill="#fff"/>
      <path id="Fill_8" data-name="Fill 8" d="M.557.006c.415-.048.657.175.707.61L1.274.7l-.4.047L.858.636C.835.442.749.377.614.393s-.2.1-.182.292c.065.558.91.567,1,1.342a.6.6,0,0,1-.557.756A.6.6,0,0,1,.16,2.174L.14,2.007l.4-.047.022.194c.022.194.116.254.252.238s.213-.1.19-.289C.943,1.545.1,1.537.008.761A.594.594,0,0,1,.557.006" transform="translate(16.441 0.092)" fill="#fff"/>
      <g id="Group_12" data-name="Group 12" transform="translate(20.161)">
        <path id="Clip_11-3" data-name="Clip 11" d="M0,0H1.355V2.806H0Z" fill="none"/>
        <g id="Group_12-2" data-name="Group 12" clip-path="url(#clip-path-2)">
          <path id="Fill_10" data-name="Fill 10" d="M.536,1.178l.588.04L1.1,1.608.51,1.568l-.055.8.74.051-.027.389L0,2.726.186,0,1.355.08,1.328.469.588.419Z" transform="translate(0 0)" fill="#fff"/>
        </g>
      </g>
      <path id="Fill_13" data-name="Fill 13" d="M1.189.029a.6.6,0,0,1,.439.824L1.607.936l-.393-.1.028-.11C1.292.535,1.235.444,1.1.41S.876.427.827.616c-.142.544.644.858.448,1.613a.6.6,0,0,1-.793.5.6.6,0,0,1-.447-.826l.042-.162.393.1-.049.189c-.049.189.016.279.149.313s.233-.012.282-.2C.994,1.6.208,1.29.4.535A.6.6,0,0,1,1.189.029" transform="translate(23.597 0.609)" fill="#fff"/>
      <path id="Fill_15" data-name="Fill 15" d="M1.578.078a.6.6,0,0,1,.278.892l-.037.078L1.452.873,1.5.771c.083-.176.045-.277-.079-.335S1.2.411,1.112.587c-.24.508.473.962.139,1.668A.6.6,0,0,1,.379,2.6a.6.6,0,0,1-.285-.895l.072-.152.367.174-.083.176c-.083.176-.036.277.088.335s.231.032.315-.145C1.092,1.588.378,1.134.712.428A.6.6,0,0,1,1.578.078" transform="translate(26.912 1.905)" fill="#fff"/>
      <path id="Fill_17" data-name="Fill 17" d="M1.561,0l.352.245L.352,2.488,0,2.243Z" transform="translate(29.768 3.644)" fill="#fff"/>
      <path id="Fill_19" data-name="Fill 19" d="M.671,2.417A.645.645,0,0,1,.22,2.206.636.636,0,0,1,0,1.739a.715.715,0,0,1,.236-.48l1-1.014A.7.7,0,0,1,1.726,0a.645.645,0,0,1,.451.211A.636.636,0,0,1,2.4.678a.715.715,0,0,1-.236.48l-1,1.014A.7.7,0,0,1,.671,2.417Zm1.085-2a.294.294,0,0,0-.2.107L.523,1.579c-.127.13-.136.244-.03.349A.214.214,0,0,0,.642,2a.293.293,0,0,0,.2-.107L1.875.838a.3.3,0,0,0,.1-.2A.211.211,0,0,0,1.9.49.213.213,0,0,0,1.756.42Z" transform="translate(32.085 5.801)" fill="#fff"/>
      <path id="Fill_21" data-name="Fill 21" d="M1.851.745.219,1.864,0,1.545,2.254,0l.3.444-1.1,1.289L2.808.808l.216.316L.77,2.669.521,2.305Z" transform="translate(34.239 8.616)" fill="#fff"/>
      <path id="Fill_23" data-name="Fill 23" d="M1.556.907l.237.5-.353.167-.237-.5-1.02.482L0,1.169,2.47,0l.486,1.027L2.6,1.194,2.3.555Z" transform="translate(0 28.563)" fill="#fff"/>
      <path id="Fill_25" data-name="Fill 25" d="M.815,2.726h0L.548,2.379A.863.863,0,0,1,.79,2.144l.34-.262a.386.386,0,0,0,.175-.235.268.268,0,0,0-.071-.2l-.09-.118-.881.679L0,1.668,2.164,0l.4.513a.653.653,0,0,1,.173.48.642.642,0,0,1-.282.408l-.17.13a.672.672,0,0,1-.405.167.445.445,0,0,1-.2-.051c.054.2-.037.389-.287.581l-.334.258a.81.81,0,0,0-.234.239ZM2.118.578l-.665.513.1.133a.24.24,0,0,0,.188.113.337.337,0,0,0,.2-.085l.214-.165A.316.316,0,0,0,2.3.9.205.205,0,0,0,2.243.742Z" transform="translate(2.216 31.918)" fill="#fff"/>
      <path id="Fill_27" data-name="Fill 27" d="M1.345,1.159l.452.379-.251.3-.452-.379L.58,2.071l.569.476-.251.3L0,2.095,1.755,0l.9.752-.251.3L1.833.575Z" transform="translate(5.368 34.959)" fill="#fff"/>
      <path id="Fill_29" data-name="Fill 29" d="M1.117,1.219l.522.275-.182.345L.935,1.565l-.373.708.656.345-.182.345L0,2.418,1.273,0,2.31.546,2.128.891,1.471.546Z" transform="translate(9.061 37.257)" fill="#fff"/>
      <path id="Fill_31" data-name="Fill 31" d="M.875.006A.6.6,0,0,1,1.43.757L1.42.842,1.017.8,1.029.686C1.05.492.981.41.845.4S.623.446.6.64c-.061.559.762.754.678,1.531a.6.6,0,0,1-.711.614.6.6,0,0,1-.562-.752l.018-.167.4.044L.408,2.1c-.021.194.057.273.193.288s.229-.046.25-.24C.911,1.592.088,1.4.172.62.22.186.46-.039.875.006" transform="translate(16.551 39.494)" fill="#fff"/>
      <path id="Fill_33" data-name="Fill 33" d="M.546,1.222l.586-.061.04.388L.586,1.61l.083.8.738-.077.04.388L.282,2.839,0,.121,1.165,0l.04.388L.467.465Z" transform="translate(20.816 39.478)" fill="#fff"/>
      <path id="Fill_35" data-name="Fill 35" d="M.439.043A.6.6,0,0,1,1.255.5l.027.082L.9.706.861.6C.8.414.7.368.572.41S.391.548.453.733C.629,1.267,1.459,1.1,1.7,1.846a.6.6,0,0,1-.393.853.6.6,0,0,1-.823-.452L.435,2.088.82,1.96l.061.185c.061.185.165.225.295.182s.189-.136.128-.322C1.128,1.473.3,1.635.053.894A.6.6,0,0,1,.439.043" transform="translate(24.81 38.637)" fill="#fff"/>
      <path id="Fill_37" data-name="Fill 37" d="M.325.109A.6.6,0,0,1,1.22.377l.044.074L.914.658.857.561C.757.393.652.369.534.439S.388.612.487.78c.287.484,1.062.146,1.46.818a.6.6,0,0,1-.2.917.6.6,0,0,1-.9-.265L.76,2.106,1.11,1.9l.1.168c.1.168.209.185.327.115s.156-.174.056-.342C1.306,1.357.53,1.694.132,1.022A.594.594,0,0,1,.325.109" transform="translate(28.541 36.925)" fill="#fff"/>
      <path id="Fill_39" data-name="Fill 39" d="M0,.285.321,0,2.135,2.044l-.321.285Z" transform="translate(31.58 34.832)" fill="#fff"/>
      <path id="Fill_41" data-name="Fill 41" d="M1.891,2.253a.753.753,0,0,1-.452-.177L.309,1.214a.717.717,0,0,1-.3-.441A.635.635,0,0,1,.158.279.614.614,0,0,1,.648,0,.753.753,0,0,1,1.1.177l1.13.862a.714.714,0,0,1,.3.441.636.636,0,0,1-.151.494A.613.613,0,0,1,1.891,2.253ZM.63.423A.2.2,0,0,0,.468.516.208.208,0,0,0,.419.682.305.305,0,0,0,.547.856l1.173.895a.325.325,0,0,0,.188.079.2.2,0,0,0,.161-.093.212.212,0,0,0,.051-.158.3.3,0,0,0-.13-.183L.818.5A.323.323,0,0,0,.63.423Z" transform="translate(34.004 32.043)" fill="#fff"/>
      <g id="Group_45" data-name="Group 45" transform="translate(36.039 28.156)">
        <path id="Clip_44-2" data-name="Clip 44" d="M0,0H3.052V2.372H0Z" fill="none"/>
        <g id="Group_45-2" data-name="Group 45" clip-path="url(#clip-path-3)">
          <path id="Fill_43" data-name="Fill 43" d="M.846,1.2l1.8.82-.16.352L0,1.24.223.75l1.671.276L.406.348.564,0,3.052,1.132l-.183.4Z" fill="#fff"/>
        </g>
      </g>
    </g>
  </g>
  <g id="Group_7" data-name="Group 7" transform="translate(5.741 25.49)">
    <g id="Group_3-3" data-name="Group 3" transform="translate(39.273)">
      <path id="Clip_2-4" data-name="Clip 2" d="M0,0H2.422V2.313H0Z" fill="none"/>
      <g id="Group_3-4" data-name="Group 3" clip-path="url(#clip-path-4)">
        <path id="Fill_1-5" data-name="Fill 1" d="M2.325.809H1.614A.1.1,0,0,1,1.522.743L1.3.067a.1.1,0,0,0-.184,0L.9.743A.1.1,0,0,1,.807.809H.1A.1.1,0,0,0,.04.984L.615,1.4A.1.1,0,0,1,.65,1.51l-.22.676a.1.1,0,0,0,.149.108l.575-.417a.1.1,0,0,1,.114,0l.575.417a.1.1,0,0,0,.149-.108l-.22-.676A.1.1,0,0,1,1.807,1.4L2.382.984A.1.1,0,0,0,2.325.809" transform="translate(0 0)" fill="#fff"/>
      </g>
    </g>
    <g id="Group_6" data-name="Group 6">
      <path id="Clip_5-2" data-name="Clip 5" d="M0,0H2.422V2.313H0Z" fill="none"/>
      <g id="Group_6-2" data-name="Group 6" clip-path="url(#clip-path-4)">
        <path id="Fill_4-2" data-name="Fill 4" d="M2.325.809H1.614A.1.1,0,0,1,1.522.743L1.3.067a.1.1,0,0,0-.184,0L.9.743A.1.1,0,0,1,.807.809H.1A.1.1,0,0,0,.04.984L.615,1.4A.1.1,0,0,1,.65,1.51l-.22.676a.1.1,0,0,0,.149.108l.575-.417a.1.1,0,0,1,.114,0l.575.417a.1.1,0,0,0,.149-.108l-.22-.676A.1.1,0,0,1,1.807,1.4L2.382.984A.1.1,0,0,0,2.325.809" transform="translate(0 0)" fill="#fff"/>
      </g>
    </g>
  </g>
  <g id="Group_25" data-name="Group 25" transform="translate(13.331 16.647)">
    <g id="Group_38" data-name="Group 38" transform="translate(0 0)">
      <g id="Group_35" data-name="Group 35">
        <path id="Fill_1-6" data-name="Fill 1" d="M5.548,1.592a.2.2,0,0,1-.222.22H1.886V4.572H4.494a.2.2,0,0,1,.222.22V6.164a.2.2,0,0,1-.222.22H1.886v4.379a.2.2,0,0,1-.222.22H.222A.2.2,0,0,1,0,10.763V.22A.2.2,0,0,1,.222,0h5.1a.2.2,0,0,1,.222.22Z" transform="translate(0 0)" fill="#fff"/>
        <path id="Fill_3" data-name="Fill 3" d="M5.452,10.982H4.009a.217.217,0,0,1-.236-.192L2.843,7.3H1.887v3.459a.2.2,0,0,1-.222.22H.222A.2.2,0,0,1,0,10.762V.22A.2.2,0,0,1,.222,0H3.7a1.777,1.777,0,0,1,2,1.976v3.35A1.774,1.774,0,0,1,4.689,7.138l.957,3.6a.2.2,0,0,1-.021.181A.209.209,0,0,1,5.452,10.982ZM1.887,1.812V5.492H3.259a.5.5,0,0,0,.555-.549V2.361a.493.493,0,0,0-.555-.549Z" transform="translate(6.811 0)" fill="#fff"/>
        <path id="Fill_5" data-name="Fill 5" d="M5.534,1.592c0,.137-.056.233-.222.233H1.845V4.572H4.494a.207.207,0,0,1,.222.233V6.164a.207.207,0,0,1-.222.233H1.845V9.17H5.312c.166,0,.222.069.222.22v1.373c0,.137-.056.22-.222.22H.208A.2.2,0,0,1,0,10.763V.22A.2.2,0,0,1,.208,0h5.1c.166,0,.222.082.222.22Z" transform="translate(14.052 0)" fill="#fff"/>
        <g id="Group_9" data-name="Group 9" transform="translate(21.126 0)">
          <path id="Clip_8-2" data-name="Clip 8" d="M0,0H5.534V10.982H0Z" fill="none"/>
          <g id="Group_9-2" data-name="Group 9" clip-path="url(#clip-path-6)">
            <path id="Fill_7" data-name="Fill 7" d="M5.534,1.592c0,.137-.056.233-.222.233H1.845V4.572H4.494a.207.207,0,0,1,.222.233V6.164a.207.207,0,0,1-.222.233H1.845V9.17H5.312c.166,0,.222.069.222.22v1.373c0,.137-.056.22-.222.22H.208A.2.2,0,0,1,0,10.763V.22A.2.2,0,0,1,.208,0h5.1c.166,0,.222.082.222.22Z" transform="translate(0 0)" fill="#fff"/>
          </g>
        </g>
        <g id="Group_12-3" data-name="Group 12" transform="translate(0 12.29)">
          <path id="Clip_11-4" data-name="Clip 11" d="M0,0H3.58V7.736H0Z" fill="none"/>
          <g id="Group_12-4" data-name="Group 12" clip-path="url(#clip-path-7)">
            <path id="Fill_10-2" data-name="Fill 10" d="M1.8,0C2.969,0,3.57.691,3.57,1.9v.238H2.434V1.826c0-.54-.218-.745-.6-.745s-.6.205-.6.745c0,1.556,2.347,1.847,2.347,4.008a1.663,1.663,0,0,1-1.79,1.9A1.663,1.663,0,0,1,0,5.834V5.369H1.135v.54c0,.54.24.735.622.735s.622-.194.622-.735C2.38,4.354.033,4.062.033,1.9.033.691.633,0,1.8,0" transform="translate(0 0)" fill="#fff"/>
          </g>
        </g>
        <path id="Fill_13-2" data-name="Fill 13" d="M1.2,3.187H2.849v1.08H1.2V6.482H3.275v1.08H0V0H3.275V1.08H1.2Z" transform="translate(4.268 12.376)" fill="#fff"/>
        <path id="Fill_15-2" data-name="Fill 15" d="M1.8,0C2.969,0,3.57.691,3.57,1.9v.238H2.434V1.826c0-.54-.218-.745-.6-.745s-.6.205-.6.745c0,1.556,2.347,1.847,2.347,4.008a1.663,1.663,0,0,1-1.79,1.9A1.663,1.663,0,0,1,0,5.834V5.369H1.135v.54c0,.54.24.735.622.735s.622-.194.622-.735C2.38,4.354.033,4.062.033,1.9.033.691.633,0,1.8,0" transform="translate(8.1 12.29)" fill="#fff"/>
        <path id="Fill_17-2" data-name="Fill 17" d="M1.8,0C2.969,0,3.57.691,3.57,1.9v.238H2.434V1.826c0-.54-.218-.745-.6-.745s-.6.205-.6.745c0,1.556,2.347,1.847,2.347,4.008a1.663,1.663,0,0,1-1.79,1.9A1.663,1.663,0,0,1,0,5.834V5.369H1.135v.54c0,.54.24.735.622.735s.622-.194.622-.735C2.38,4.354.033,4.062.033,1.9.033.691.633,0,1.8,0" transform="translate(12.183 12.29)" fill="#fff"/>
        <path id="Fill_19-2" data-name="Fill 19" d="M0,7.563H1.2V0H0Z" transform="translate(16.451 12.376)" fill="#fff"/>
        <path id="Fill_21-2" data-name="Fill 21" d="M1.823,7.736A1.681,1.681,0,0,1,0,5.834V1.9A1.68,1.68,0,0,1,1.823,0,1.681,1.681,0,0,1,3.646,1.9V5.834A1.681,1.681,0,0,1,1.823,7.736Zm0-6.655c-.419,0-.622.244-.622.745V5.91c0,.5.2.745.622.745s.622-.244.622-.745V1.826C2.445,1.324,2.241,1.081,1.823,1.081Z" transform="translate(18.427 12.29)" fill="#fff"/>
        <path id="Fill_22" data-name="Fill 22" d="M1.081,2.085V7.563H0V0H1.506L2.74,4.527V0H3.81V7.563H2.576Z" transform="translate(22.837 12.377)" fill="#fff"/>
      </g>
    </g>
  </g>
  <g id="Group_13" data-name="Group 13" transform="translate(23.884 10.508)">
    <path id="Fill_1-7" data-name="Fill 1" d="M5.119,1.866H3.554a.214.214,0,0,1-.2-.154L2.869.154a.21.21,0,0,0-.405,0L1.98,1.712a.214.214,0,0,1-.2.154H.213a.225.225,0,0,0-.125.4l1.266.963a.229.229,0,0,1,.077.249L.948,5.039a.215.215,0,0,0,.328.249l1.266-.963a.205.205,0,0,1,.25,0l1.265.963a.215.215,0,0,0,.328-.249L3.9,3.481a.229.229,0,0,1,.077-.249l1.266-.963a.225.225,0,0,0-.125-.4" transform="translate(0)" fill="#fff"/>
    <path id="Fill_1_Copy_2" data-name="Fill 1 Copy 2" d="M5.119,1.866H3.554a.214.214,0,0,1-.2-.154L2.869.154a.21.21,0,0,0-.405,0L1.98,1.712a.214.214,0,0,1-.2.154H.213a.225.225,0,0,0-.125.4l1.266.963a.229.229,0,0,1,.077.249L.948,5.039a.215.215,0,0,0,.328.249l1.266-.963a.205.205,0,0,1,.25,0l1.265.963a.215.215,0,0,0,.328-.249L3.9,3.481a.229.229,0,0,1,.077-.249l1.266-.963a.225.225,0,0,0-.125-.4" transform="translate(0 26.661)" fill="#fff"/>
  </g>
</svg>
