<svg xmlns="http://www.w3.org/2000/svg" width="18.565" height="24.362" viewBox="0 0 18.565 24.362"><defs><style>.a{fill:#414853;}.b{fill:#FF9C05;}</style></defs><g transform="translate(-761.614 454.578)"><path class="a" d="M762.144-454.578h13.228a.845.845,0,0,1,.527.816q-.009,9.229,0,18.458a.725.725,0,0,1-.81.806H762.526c-.659,0-.906-.249-.906-.9q0-9.122-.007-18.244A.9.9,0,0,1,762.144-454.578Zm6.617,7.9q2.1,0,4.207,0a.722.722,0,0,0,.725-.436.711.711,0,0,0-.7-.991c-1.434,0-2.868,0-4.3,0q-2.08,0-4.159,0a.718.718,0,0,0-.7.4.71.71,0,0,0,.692,1.023C765.941-446.677,767.351-446.679,768.761-446.679Zm-.016,5.71q2.115,0,4.231,0a.717.717,0,0,0,.711-.421.71.71,0,0,0-.7-1.006q-2.888,0-5.776,0-1.343,0-2.686,0a.711.711,0,0,0-.7.431.71.71,0,0,0,.69,1C765.924-440.967,767.334-440.97,768.744-440.97Zm.013-2.855c1.419,0,2.839,0,4.258,0a.711.711,0,0,0,.737-.712.713.713,0,0,0-.737-.713q-4.258,0-8.517,0a.873.873,0,0,0-.422.128.672.672,0,0,0-.286.766.717.717,0,0,0,.732.527Q766.64-443.822,768.758-443.825Zm-2.143-5.71c.7,0,1.393,0,2.09,0a.719.719,0,0,0,.766-.705.717.717,0,0,0-.774-.72q-2.078,0-4.157,0a.72.72,0,0,0-.777.717.723.723,0,0,0,.786.709C765.237-449.533,765.926-449.534,766.615-449.534Zm5,9.992c-.451,0-.9,0-1.353,0a.723.723,0,0,0-.786.709.72.72,0,0,0,.777.718q1.365,0,2.73,0a.718.718,0,0,0,.774-.721.717.717,0,0,0-.765-.705C772.529-439.544,772.07-439.542,771.611-439.542Z" transform="translate(0)"/><path class="b" d="M862.994-363.783c.755,0,1.483-.014,2.21.006a.688.688,0,0,1,.643.726c.006.626,0,1.253,0,1.879q0,8.267,0,16.534c0,.626-.256.884-.875.884H852.46c-.634,0-.886-.256-.886-.9s0-1.283,0-1.959h.262q4.437,0,8.874,0a2.154,2.154,0,0,0,2.285-2.3q0-7.315,0-14.631Z" transform="translate(-85.671 -86.462)"/></g></svg>