<svg xmlns="http://www.w3.org/2000/svg" width="6.513" height="7.806" viewBox="0 0 6.513 7.806"><defs><style>.a{fill:#9a9a9a;}</style></defs><g transform="translate(-956.961 -387.323)"><path class="a" d="M88.911,3.76a1.819,1.819,0,0,0,1.329-.551,1.819,1.819,0,0,0,.551-1.329A1.819,1.819,0,0,0,90.241.551a1.88,1.88,0,0,0-2.659,0,1.819,1.819,0,0,0-.551,1.329,1.819,1.819,0,0,0,.551,1.329A1.82,1.82,0,0,0,88.911,3.76Zm0,0" transform="translate(871.257 387.323)"/><path class="a" d="M6.5,249.548a4.644,4.644,0,0,0-.063-.493,3.887,3.887,0,0,0-.121-.5,2.45,2.45,0,0,0-.2-.463,1.745,1.745,0,0,0-.307-.4,1.355,1.355,0,0,0-.442-.277,1.526,1.526,0,0,0-.564-.1.572.572,0,0,0-.306.13l-.318.205a1.824,1.824,0,0,1-.412.181,1.6,1.6,0,0,1-1.008,0,1.819,1.819,0,0,1-.412-.181l-.319-.205a.571.571,0,0,0-.305-.13,1.524,1.524,0,0,0-.564.1,1.354,1.354,0,0,0-.442.277,1.745,1.745,0,0,0-.307.4,2.454,2.454,0,0,0-.2.463,3.9,3.9,0,0,0-.121.5,4.628,4.628,0,0,0-.063.493c-.01.149-.016.3-.016.461a1.3,1.3,0,0,0,.385.981,1.386,1.386,0,0,0,.992.362H5.136a1.386,1.386,0,0,0,.992-.362,1.3,1.3,0,0,0,.385-.981C6.513,249.852,6.507,249.7,6.5,249.548Zm0,0" transform="translate(956.961 143.777)"/></g></svg>