<svg xmlns="http://www.w3.org/2000/svg" width="57" height="53.755" viewBox="0 0 57 53.755"><defs><style>.a{fill:#fff;}</style></defs><g transform="translate(-566 -1424)"><path class="a" d="M744.4,1159.365c.132-.3.28-.349.565-.125a1.867,1.867,0,0,0,2.687-.1,9.026,9.026,0,0,0,2.147-3.125c.652-1.443,1.227-2.924,1.779-4.409a4.491,4.491,0,0,1,3.229-3.253,3.37,3.37,0,0,1,4.284,2.881,25.081,25.081,0,0,1,.132,2.657c.01.237,0,.475,0,.754a4.063,4.063,0,0,0,.384-.158,7.768,7.768,0,0,1,6.234-.556c1.552.5,3.065,1.127,4.572,1.755a12.911,12.911,0,0,0,6.764.923,1.1,1.1,0,0,0,.939-.937c.089-.53-.062-.778-.578-1.053-.671-.359-1.332-.737-1.992-1.116a.705.705,0,0,1-.391-.84,1.075,1.075,0,0,1,.58-.522c.555-.229,1.141-.386,1.712-.58a.443.443,0,0,1,.606.252,8.669,8.669,0,0,0,2.312,2.7,4.63,4.63,0,0,0,5.2.238c-.079-.414-.368-.286-.6-.234a6.036,6.036,0,0,1-3.109.058,5.51,5.51,0,0,1-1.365-.646.788.788,0,0,1-.285-.632c.011-.12.348-.259.557-.3.986-.21,1.978-.39,3.01-.589-.258-.436-.277-.439-.644-.356-.85.192-1.694.43-2.554.548a3.685,3.685,0,0,1-1.4-.164,1.1,1.1,0,0,1-.585-.505c-.348-.624-.045-1.124.668-1.122.795,0,1.59.061,2.385.065a1.773,1.773,0,0,0,.859-.241.634.634,0,0,0-.189-.1,11,11,0,0,0-6.8,1.031,11.791,11.791,0,0,1-4,1.352,8.771,8.771,0,0,1-3.077-.1,1.925,1.925,0,0,1-1.441-2.665,2.9,2.9,0,0,1,1.313-1.692,2.826,2.826,0,0,0,1.062-1.051,3.677,3.677,0,0,1,2.453-1.677,3.284,3.284,0,0,0,1.5-.926,6.783,6.783,0,0,1,1.712-1.242,6.247,6.247,0,0,1,1.728-.268c-.014-.789-.257-1.022-1.018-.916a3.518,3.518,0,0,1-2.641-.721,1.728,1.728,0,0,1-.5-.774c-.1-.276.007-.5.346-.612.728-.237.87-.487.881-1.264.011-.842.02-1.686.079-2.526a3.38,3.38,0,0,1,2.442-3.146,6.986,6.986,0,0,1,4.218-.216,2.471,2.471,0,0,1,1.031.558,1.213,1.213,0,0,1,.279.84c-.012.349-.32.508-.664.58a17.617,17.617,0,0,0-2.173.508c-1.145.4-1.344.775-1.1,1.945a5.343,5.343,0,0,1-.61,4.087.533.533,0,0,0,.088.476,2.351,2.351,0,0,0,2.044.69,6.469,6.469,0,0,0,1.276-.155,3.327,3.327,0,0,1,2.606.442.838.838,0,0,0,1.216-.156c1.038-1.161,2.1-2.3,3.109-3.488,1.827-2.144,3.621-4.315,5.437-6.469a2,2,0,0,0,.618-1.395,1.043,1.043,0,0,1,.173-.558,2.591,2.591,0,0,1,.16.411,25.986,25.986,0,0,0,4.982,10.344,6.582,6.582,0,0,1,1.38,4.037,2.453,2.453,0,0,1-.884,2.115,2.374,2.374,0,0,1-.639.236,3.049,3.049,0,0,1-.157-.6,10.713,10.713,0,0,0-1.644-5.209,25.913,25.913,0,0,1-2.969-6.053c-.268-.87-.416-1.777-.642-2.774l-7.781,9.052c.48.253.914.505,1.367.715a1.987,1.987,0,0,1,1.279,1.483,3.744,3.744,0,0,0,.374.82.707.707,0,0,1-.1.88.423.423,0,0,0-.078.582,8.065,8.065,0,0,1,.854,3.148c0,.108,0,.216,0,.262-.461.062-.875.141-1.292.161-.138.006-.382-.111-.412-.218a12.574,12.574,0,0,0-1.887-3.669,3.746,3.746,0,0,1-.485-1.025.817.817,0,0,1,.72-1.145.609.609,0,0,0,.342-.163l-.864-.5c-.182.778-.836.874-1.4,1.13.368.477.723.92,1.06,1.377a6.815,6.815,0,0,1,1.274,3.045,1.589,1.589,0,0,1-1.2,1.974c-.359.117-.722.224-1.084.336q-.007.076-.013.152a1.519,1.519,0,0,0,.485.048c.415-.1.813-.274,1.23-.35a.769.769,0,0,1,.916.575,1.639,1.639,0,0,1-.776,2.065c.284.388.284.388,1.36.407a4,4,0,0,0,1.392,3.237c-.154-.584-.311-1.167-.462-1.752-.079-.307-.145-.618-.22-.926s.009-.461.35-.439c.429.027.861.017,1.286.066a.574.574,0,0,1,.392.255,4.1,4.1,0,0,1,.34,3.784,7.546,7.546,0,0,0-.325,1.073l.194.061.836-1.98a4.821,4.821,0,0,1,.484.517,4.54,4.54,0,0,1,.77,2.664,4.527,4.527,0,0,0,1.15,3.157c1.141,1.367,2.2,2.8,3.294,4.21a.975.975,0,0,0,.385.317q-.066-.624-.132-1.248a9.258,9.258,0,0,1,.728-4.464,43.078,43.078,0,0,0,1.512-4.15,5.566,5.566,0,0,0-.283-3.823,13.04,13.04,0,0,1-.591-1.946c-.092-.357.084-.543.469-.486.44.065.887.1,1.317.207.149.037.294.229.375.385a7.824,7.824,0,0,1,.74,4.12,20.387,20.387,0,0,1-1.7,6.114,33.488,33.488,0,0,0-1.206,4.045,5.623,5.623,0,0,0,.531,3.617c.179.4.17.652-.276.877l-6.327-8.336a3.756,3.756,0,0,0-.232.571,7.748,7.748,0,0,1-1.944,3.449c-.555.635-1.083,1.293-1.643,1.924a.616.616,0,0,0-.1.732,3.988,3.988,0,0,0,2.109,2.115c1.034.469,2.135.79,3.206,1.178a13.912,13.912,0,0,1,1.332.505,1.044,1.044,0,0,1,.612,1.488,3.181,3.181,0,0,1-.7,1.108q-2.9,2.835-5.86,5.61a1.453,1.453,0,0,1-.962.423,6.566,6.566,0,0,0-3.231.847c-.481.207-.949.447-1.437.635-.126.049-.306-.04-.461-.066.024-.14,0-.319.08-.416.7-.863,1.421-1.714,2.14-2.565a.872.872,0,0,1,.952-.264,9.551,9.551,0,0,0,1.205.252.539.539,0,0,0,.647-.479,1.277,1.277,0,0,1,.417-.59c1.279-1.146,2.588-2.257,3.849-3.421.578-.534.5-.8-.221-1.163a6.233,6.233,0,0,0-2.534-.577,19.847,19.847,0,0,1-2.6-.2,4.811,4.811,0,0,1-2.727-1.647c-.13-.147-.384-.184-.58-.271a1.732,1.732,0,0,0-.142.588,2.44,2.44,0,0,0,1.244,1.72c.544.354,1.147.618,1.7.959a3.357,3.357,0,0,1,.834.693.983.983,0,0,1-.159,1.541,4.651,4.651,0,0,1-.836.547c-2.6,1.343-5.2,2.672-7.792,4.017a.668.668,0,0,1-.742-.01,10.977,10.977,0,0,0-3.906-1.441,8.75,8.75,0,0,1-1.075-.346,3.735,3.735,0,0,1,.391-.4c.466-.332.96-.627,1.409-.98a1.574,1.574,0,0,1,1.987-.013c.456.288.87.644,1.331.924a.713.713,0,0,0,.589.044c1.911-.972,3.809-1.969,5.71-2.961a1.938,1.938,0,0,0,.183-.128,5.186,5.186,0,0,0-2.976-1.484c-.7-.139-1.415-.213-2.1-.392a3.392,3.392,0,0,1-2.348-1.8,1.681,1.681,0,0,0-1.439-.984,10.23,10.23,0,0,1-5.111-2.047,11.268,11.268,0,0,1-3.691-5.933c-.416-1.447-.767-2.913-1.143-4.371a7.759,7.759,0,0,0-2.581-3.7,3.348,3.348,0,0,0-3.042-.5,3.848,3.848,0,0,0-.936.328c-.148.07-.247.243-.368.37l.072.114c.42-.1.836-.227,1.261-.3a3.011,3.011,0,0,1,3.251,4.173,18.089,18.089,0,0,1-2.854,4.268,16.993,16.993,0,0,1-4,3.866,3.991,3.991,0,0,1-1.634.571c-.931.094-1.333-.554-1.056-1.457.487-1.59.962-3.184,1.4-4.787.158-.578.121-1.215.313-1.778a26.318,26.318,0,0,1,1.121-2.662.936.936,0,0,0,.063-.85,1.055,1.055,0,0,1-.055-.6.806.806,0,0,0-.259-.9.906.906,0,0,0-1.021-.141,1.941,1.941,0,0,0-.667.444c-.759.9-1.513,1.8-2.221,2.732-.909,1.2-1.709,2.494-2.673,3.649-.918,1.1-1.6,1.077-2.637.049a12.853,12.853,0,0,1-2.7-3.7Zm44.341-.564-.139.026c.007.124.017.248.021.373.032,1.048.075,2.1.082,3.145,0,.146-.167.407-.269.413a.764.764,0,0,1-.493-.249c-.1-.1-.109-.293-.176-.435a15.792,15.792,0,0,0-1.247-2.551,8.908,8.908,0,0,0-4.671-3.047,1.914,1.914,0,0,0-.285-.05l-.056.106a2.853,2.853,0,0,0,.378.29c.405.218.828.4,1.229.628,1.905,1.067,3.467,2.427,3.923,4.7a7.806,7.806,0,0,1,.2,1.315,19.6,19.6,0,0,1-.014,3.569,5.477,5.477,0,0,1-2.97,3.984,3.027,3.027,0,0,0-.641.4c-.115.11-.231.37-.177.472a.686.686,0,0,0,.48.276.916.916,0,0,0,.53-.158,12.218,12.218,0,0,0,1.3-.874,8.359,8.359,0,0,0,3.077-4.95c.363-1.784.781-3.557,1.167-5.337a2.158,2.158,0,0,0-.032-.486l-.692.859-.126-.072Zm-11.448-11.593a3.748,3.748,0,0,0-.342-.468,12.338,12.338,0,0,0-1.3-1.241.656.656,0,0,0-1.074.274c.822.114,1.063.288,1.059.824a3.452,3.452,0,0,1-.119.747.605.605,0,0,1-.862.514c-.765-.2-1.544-.357-2.318-.525-.235-.051-.463-.04-.491.276s.191.286.41.3a16.553,16.553,0,0,1,1.7.162,6.837,6.837,0,0,0,4.021-.277c1.261-.549,2.547-1.043,3.816-1.574a2.367,2.367,0,0,0,.452-.33c-1.539-.061-2.746.737-4.015,1.382a.636.636,0,0,1,.176-.847,5.168,5.168,0,0,1,2.719-1.38c.624-.14,1.251-.268,1.924-.412a.576.576,0,0,0-.718-.345c-.546.1-1.1.192-1.63.336a1.362,1.362,0,0,1-1.656-.411,3.131,3.131,0,0,0-.7-.527l-.141.149c.2.271.394.547.6.812.4.511.409.742-.049,1.193S777.811,1146.728,777.293,1147.208Zm5.42-.894a1.337,1.337,0,0,1,.789,1.109c.042.586.072,1.174.077,1.762,0,.473.057.977-.471,1.309.792.089,1.523-.534,1.393-1.222a19.441,19.441,0,0,0-.7-2.557,1.211,1.211,0,0,0-.862-.824Z" transform="translate(-178.4 292.983)"/><path class="a" d="M797.87,1546.912a2.549,2.549,0,0,1-.612-2.166,2.916,2.916,0,0,0,.09-.941.878.878,0,0,0-.42-.538c-.637-.347-.67-.37-.487-1.068.457-1.746,1-3.476,1.345-5.244a17.974,17.974,0,0,0,.176-3.463,1.381,1.381,0,0,1,.767-1.356c.384-.21.771-.415,1.226-.66-.06,1.69,1.07,1.131,2.022,1.094a5.616,5.616,0,0,1-.336.515,11.424,11.424,0,0,0-2.635,5.969,8.813,8.813,0,0,0,1.532,7c.24.3.316.567.006.855Z" transform="translate(-225.374 -69.157)"/><path class="a" d="M888.646,1441.106a2.634,2.634,0,0,1-2.482-.854c-.845-.743-1.7-1.472-2.481-2.145-.822.6-1.531,1.162-2.284,1.656a6.806,6.806,0,0,0-1.816,2.3,10.886,10.886,0,0,0-1.71,7.178,7.892,7.892,0,0,0,.67,2.266,16.279,16.279,0,0,0,1.158,1.957.426.426,0,0,1-.364.652,7.95,7.95,0,0,1-1.709-.034c-.664-.1-.789-.3-.894-.963a11.311,11.311,0,0,0-.228-1.166,1.364,1.364,0,0,0-.714-.989c-.452-.227-.429-.72-.321-1.187.313-1.343.679-2.679.887-4.039a15.952,15.952,0,0,0,.07-2.883,1.853,1.853,0,0,1,.381-1.31c.871-1.131,1.69-2.3,2.486-3.49a1.257,1.257,0,0,1,.935-.619c.353-.049.7-.15,1.048-.227l.023-.158c-.2-.069-.418-.219-.607-.191-.639.091-1.269.245-1.9.377-.291.061-.581.127-.871.19l-.059-.157c.762-.807,1.53-1.608,2.284-2.423a10.4,10.4,0,0,0,2.454-4.67,7.888,7.888,0,0,0,.093-1.179c.153.234.245.365.326.5a13.038,13.038,0,0,1,1.071,3.531,38.959,38.959,0,0,0,1.451,4.617A6.3,6.3,0,0,0,888.646,1441.106Z" transform="translate(-296.869 23.518)"/><path class="a" d="M1225.512,1336.6c-.666,0-.928-.3-.841-.945.1-.738.162-1.481.283-2.215a.678.678,0,0,1,.349-.476,10.236,10.236,0,0,1,2.075-.447,19.969,19.969,0,0,1,2.71.087.717.717,0,0,1,.465.382,5.476,5.476,0,0,1,.4,1.163.556.556,0,0,1-.182.474,16.743,16.743,0,0,1-5.16,1.977A.4.4,0,0,1,1225.512,1336.6Z" transform="translate(-612.7 110.785)"/><path class="a" d="M1105.427,1180.568a2.278,2.278,0,0,0-1.1,1.725.494.494,0,0,1-.357.3,12.4,12.4,0,0,1-2.181.1c-.39-.034-.742-.391-1.131-.556-.487-.207-.446-.635-.5-1.032-.066-.519-.157-1.037-.176-1.557a1.2,1.2,0,0,1,.215-.7,2.814,2.814,0,0,1,3.277-.72,1.006,1.006,0,0,1,.419.588,1.992,1.992,0,0,0,.907,1.279A5.548,5.548,0,0,1,1105.427,1180.568Zm-2.287-1.067a1.345,1.345,0,0,0-1.609-.142c-.232.223-.094.358.121.465A1.28,1.28,0,0,0,1103.14,1179.5Z" transform="translate(-499.956 250.612)"/><path class="a" d="M1291.808,1314.119a3.561,3.561,0,0,1,.892-2.193,1.123,1.123,0,0,1,1.168-.342,14.016,14.016,0,0,0,1.638.216.8.8,0,0,1,.781.964c-.084.692-.157,1.385-.214,2.079a1.113,1.113,0,0,1-1.338,1.012q-1.044-.192-2.083-.414A1.288,1.288,0,0,1,1291.808,1314.119Z" transform="translate(-673.428 129.728)"/><path class="a" d="M1098.491,1228.708c-.365-.069-.973-.165-1.571-.3-.486-.113-.486-.481-.365-.866.16-.511.6-.873.958-.747a6.667,6.667,0,0,0,4.333-.276,1.126,1.126,0,0,1,.839.051,1.409,1.409,0,0,1,.627.814c.029.177-.372.522-.645.636A13.1,13.1,0,0,1,1098.491,1228.708Z" transform="translate(-496.798 206.673)"/><path class="a" d="M1199.906,1342.526a9.288,9.288,0,0,1-.21.956.889.889,0,0,1-1.036.637,1,1,0,0,1-.992-.8c-.053-.645-.035-1.3-.036-1.943a.458.458,0,0,1,.1-.307c.45-.42.993-.22,1.5-.168a.662.662,0,0,1,.584.658C1199.84,1341.843,1199.866,1342.127,1199.906,1342.526Z" transform="translate(-588.26 103.267)"/><path class="a" d="M1213.2,1301.662a1.409,1.409,0,0,1-.319-.417c-.29-.85-.553-1.71-.8-2.573-.033-.114.067-.266.106-.4.2.063.477.067.569.2a11.056,11.056,0,0,1,.789,1.4,8.82,8.82,0,0,1,.383,1.02C1214.093,1301.379,1213.877,1301.668,1213.2,1301.662Z" transform="translate(-601.322 141.732)"/></g></svg>