<svg xmlns="http://www.w3.org/2000/svg" width="51.08" height="45.941" viewBox="0 0 51.08 45.941"><defs><style>.a{fill:#fff;}</style></defs><g transform="translate(-211.92 -1428)"><path class="a" d="M320.809,1033.052a10.171,10.171,0,0,0-4.8,4.273c-1.987,3.7-7.466,4.981-11.167,3.611-1.117-.414-1.565-1.091-1.226-1.935.364-.906,1.072-.989,1.97-.784a7.02,7.02,0,0,0,7.746-3.038c1.63-2.325,3.388-4.513,6.018-5.809a1.113,1.113,0,0,0,.5-.633,4.539,4.539,0,0,1,6.384-2.738,1.016,1.016,0,0,0,.713.085c2.71-.885,5.435-.573,8.15-.09a7,7,0,0,0,7.51-3.118c.1-.148.187-.309.288-.459a1.312,1.312,0,0,1,1.87-.525,1.3,1.3,0,0,1,.576,1.773,9.841,9.841,0,0,1-4.83,5.068,8.9,8.9,0,0,1-5.677.738,31.8,31.8,0,0,0-5.26-.044.867.867,0,0,0-.939.922,4.431,4.431,0,0,1-2.386,3.65,1.118,1.118,0,0,0-.506.75,54.133,54.133,0,0,0,.648,16.073c.39,1.75,1.109,3.424,1.551,5.164a4.119,4.119,0,0,1-.118,2.02,1.894,1.894,0,0,1-2.047,1.563c-.939-.043-1.881,0-2.821,0-1.71,0-2.631-.814-2.635-2.547a6.916,6.916,0,0,1,.471-2.857c2.054-4.416,1.968-9.133,2.083-13.819.042-1.694-.186-3.394-.192-5.091C322.683,1033.93,321.454,1033.8,320.809,1033.052Zm-1.215-2.718c-.27.139-.471.222-.651.337a18.141,18.141,0,0,0-4.838,5.042,7.839,7.839,0,0,1-8.44,3.488,6.355,6.355,0,0,0-1.174-.01l-.1.3a3.3,3.3,0,0,0,.7.514c2.9,1.121,7.963.431,9.92-2.939a12.427,12.427,0,0,1,4.587-4.494,5.651,5.651,0,0,0,.553-.415Zm8.945-1.677a12.618,12.618,0,0,1,6.662-.123c3.7,1.05,7.818-2.022,9.064-4.78a2.668,2.668,0,0,0-.006-1.051,3.1,3.1,0,0,0-.771.589c-2.17,3.207-5.149,4.294-8.914,3.588a16.493,16.493,0,0,0-7.025,0Zm-4.378-2.167a3.525,3.525,0,1,0,3.533,3.456A3.455,3.455,0,0,0,324.161,1026.49Z" transform="translate(-88.303 406.312)"/><path class="a" d="M461.089,1102.74c2.1,0,4.2-.012,6.293,0,1.164.009,1.416.387,1.017,1.488-.886,2.445-2.858,3.544-5.22,4.06a8.823,8.823,0,0,1-7.686-1.573,7.467,7.467,0,0,1-1.81-2.5c-.509-1.006-.123-1.483,1.006-1.488,2.134-.009,4.267,0,6.4,0Z" transform="translate(-205.576 342.936)"/><path class="a" d="M295.709,1165.354a40.578,40.578,0,0,1-4.462-1.492A5.457,5.457,0,0,1,289.2,1162a8.261,8.261,0,0,1-.748-2.265,10.645,10.645,0,0,1,2.094-.441c3.869-.041,7.74-.021,11.61-.011,1.263,0,1.573.439,1.093,1.612-1.065,2.6-3.264,3.625-5.839,4.079-.532.093-1.079.1-1.619.142Z" transform="translate(-76.534 298.716)"/><path class="a" d="M378.044,1207.325c-1.073-.12-2.15-.215-3.219-.365-1.259-.176-1.607-.918-.926-1.958.83-1.266,1.638-2.552,2.561-3.748a2.14,2.14,0,0,1,1.412-.738c3.012-.157,3.013-.125,4.687,2.335.507.746,1.032,1.479,1.519,2.237.578.9.3,1.682-.755,1.826-1.745.24-3.507.354-5.262.522Z" transform="translate(-143.087 266.504)"/><path class="a" d="M504.746,1068.809a2.518,2.518,0,0,1-.822.26.911.911,0,0,1-.683-.362c-.388-.769-.7-1.578-1.036-2.373-.522-1.225-1.08-2.436-1.538-3.684-.115-.313.094-.745.154-1.123.311.219.772.37.907.669.863,1.9,1.655,3.83,2.469,5.751.07.165.132.333.2.5Z" transform="translate(-242.465 375.156)"/><path class="a" d="M457.955,1069.273c-.159-.5-.442-.9-.342-1.155.841-2.105,1.739-4.189,2.664-6.259.1-.218.486-.3.739-.453.12.3.418.671.331.888-.861,2.136-1.781,4.248-2.7,6.359C458.569,1068.822,458.347,1068.927,457.955,1069.273Z" transform="translate(-208.806 375.251)"/><path class="a" d="M339.03,1126.308c-.237.09-.5.293-.7.245a1.269,1.269,0,0,1-.813-.506c-.743-1.635-1.422-3.3-2.12-4.955a7.743,7.743,0,0,1-.51-1.3.8.8,0,0,1,.268-.7.751.751,0,0,1,.715.19c.981,2.2,1.917,4.415,2.861,6.628a.347.347,0,0,1,.009.107Z" transform="translate(-112.836 330.164)"/><path class="a" d="M296.157,1119.569c-1.023,2.32-2.012,4.584-3.041,6.83a.686.686,0,0,1-.65.082.836.836,0,0,1-.268-.711q1.329-3.237,2.758-6.432a.856.856,0,0,1,.7-.3C295.818,1119.043,295.962,1119.347,296.157,1119.569Z" transform="translate(-79.449 330.185)"/><path class="a" d="M391.874,1051a2.358,2.358,0,0,1-2.513,2.387,2.447,2.447,0,0,1-2.4-2.434,2.527,2.527,0,0,1,2.5-2.486A2.452,2.452,0,0,1,391.874,1051Z" transform="translate(-153.571 385.367)"/></g></svg>