<svg xmlns="http://www.w3.org/2000/svg" width="36" height="38" viewBox="0 0 36 38"><defs><style>.a{fill:#FF9C05;}.b{fill:#fff;}</style></defs><g transform="translate(-644 -450)"><ellipse class="a" cx="18" cy="19" rx="18" ry="19" transform="translate(644 450)"/><path class="b" d="M303.65,149.877a11.22,11.22,0,0,0,4.035,5.72c.663.493.423.469,1.079,0,.286-.205.555-.435.847-.632a1.166,1.166,0,0,1,1.691.238c.7.886,1.371,1.79,2.031,2.7a1.139,1.139,0,0,1-.155,1.571,3.822,3.822,0,0,1-3.762,1.058,10.228,10.228,0,0,1-4.459-2.561,19.707,19.707,0,0,1-4.964-7.115,6.359,6.359,0,0,1-.21-4.384,4.009,4.009,0,0,1,1.874-2.306,1.143,1.143,0,0,1,1.585.272q1.039,1.333,2.027,2.707a1.177,1.177,0,0,1-.239,1.693c-.214.183-.444.347-.669.516S303.907,149.689,303.65,149.877Z" transform="translate(354.548 316.733)"/></g></svg>