<svg xmlns="http://www.w3.org/2000/svg" width="56.791" height="43.494" viewBox="0 0 56.791 43.494"><defs><style>.a{fill:#f8f8f8;}</style></defs><g transform="translate(-566.209 -1244.999)"><path class="a" d="M2744.166,1893.694c-1.445-.661-2.926-1.256-4.327-2-2.143-1.136-4.208-2.419-6.352-3.552a3.3,3.3,0,0,1-1.682-2.925,13.776,13.776,0,0,1,3.1-10.343c.4-.516,1.232-1.115.362-1.782-.833-.639-1.27.246-1.679.774-3.795,4.906-4.607,10.237-2.237,16.008.166.4.321.81.482,1.215l-.291.237q-2.292-2.464-4.582-4.929c-.177-.191-.3-.432-.471-.628-2.349-2.685-2.023-5.488-.2-8.221a37.109,37.109,0,0,1,3.465-4.249c1.257-1.384,2.617-2.678,3.963-3.978a16.042,16.042,0,0,0,4.347-8.2c.14-.6.218-1.3-.577-1.464-.813-.168-.932.521-1.065,1.124a15.1,15.1,0,0,1-4.634,8.139c-1.464,1.335-2.822,2.789-4.2,4.219-2.9,3.014-4.884,6.426-4.553,10.823l-.274.007a65.911,65.911,0,0,1-1.218-7.444,80.224,80.224,0,0,1,0-11.847,16.957,16.957,0,0,1,7-12.3c4.35-3.263,12.706-2.9,16.1,1.5,2.02,2.615,3.228,5.466,2.072,8.836a2.313,2.313,0,0,0,.667,2.679c1.507,1.49,1.381,1.83.3,3.6a10.3,10.3,0,0,0-.549,2.587,27.938,27.938,0,0,1-1.266,3.923c-.186.422-.927.684-1.467.852-2.378.742-4.452,1.921-4.8,4.585a7.128,7.128,0,0,0,.682,4.09,60.093,60.093,0,0,0,4.5,6.648c.555.755.762,1.321.058,2.018Z" transform="translate(-2155.114 -605.201)"/><path class="a" d="M2854.588,1893.633c-.666-.705-.487-1.272.074-2.031,1.592-2.151,3.161-4.334,4.533-6.627a5.649,5.649,0,0,0,.672-4.331c-.645-2.5-2.506-3.723-4.833-4.311a2.4,2.4,0,0,1-1.935-2.025c-.295-1.253-.858-2.456-1.043-3.719a7.467,7.467,0,0,0-1.015-2.756c-.48-.832.118-1.7.784-2.27a2.715,2.715,0,0,0,.827-3.235c-1.342-4.7,1.82-10.155,6.782-11.537,6.411-1.786,11.963.026,15.9,6.387a21.456,21.456,0,0,1,2.935,11.448,14.314,14.314,0,0,0,.149,1.429v.225c-.153,1.961-.227,3.932-.48,5.881-.333,2.57-.807,5.122-1.22,7.681l-.328.01c.378-4.922-2.181-8.456-5.4-11.675-.979-.978-1.915-2.006-2.948-2.923a15.861,15.861,0,0,1-5.08-8.637c-.091-.405-.68-1.008-1.007-.988-.7.042-.743.727-.606,1.314a16.28,16.28,0,0,0,4.278,8.228c1.468,1.442,2.935,2.887,4.366,4.366,1.773,1.834,3.5,3.732,4.222,6.253a5.274,5.274,0,0,1,.265,3.029c-1.341,3.463-3.979,5.962-6.747,8.408-.05-.186-.1-.266-.081-.321.1-.28.222-.552.334-.827a15.584,15.584,0,0,0,1.007-10.06,16.153,16.153,0,0,0-3.546-6.651,1.4,1.4,0,0,0-1.3-.295c-.585.321-.346.878.044,1.323.222.253.418.527.62.8a13.6,13.6,0,0,1,2.814,10.09,3.184,3.184,0,0,1-1.676,2.8c-1.291.669-2.461,1.569-3.756,2.228-2.282,1.162-4.617,2.218-6.93,3.319Z" transform="translate(-2255.419 -605.14)"/></g></svg>