<svg xmlns="http://www.w3.org/2000/svg" width="40.092" height="58.492" viewBox="0 0 40.092 58.492"><defs><style>.a{fill:#f8f8f8;}</style></defs><g transform="translate(-1107 -1238)"><path class="a" d="M1980.713,1744.4h-.114a3.674,3.674,0,0,1,.673-2.194,9.213,9.213,0,0,1,3.256-2.8,37.685,37.685,0,0,1,10.423-3.675,45.078,45.078,0,0,0,7.532-1.941,10.564,10.564,0,0,0,4.324-3.066,7.542,7.542,0,0,0,1.555-3.146c-1.16.756-2.269,1.557-3.448,2.234a20.625,20.625,0,0,1-8.412,2.807,27.018,27.018,0,0,0-7.709,1.621c-3.267,1.31-6.492,2.7-8.6,5.9a6.442,6.442,0,0,1,.008-1.011,5.947,5.947,0,0,1,1.923-3.16,21.62,21.62,0,0,1,6.96-4.469,17.776,17.776,0,0,1,5.976-1.532,17.032,17.032,0,0,0,5.026-.879,9.319,9.319,0,0,0,5.779-4.909,7.33,7.33,0,0,0,.63-3.363,16.721,16.721,0,0,1-4.452,4.568,8.919,8.919,0,0,1-4.58,1.7,16.408,16.408,0,0,0-3.587.535,40.136,40.136,0,0,0-12.765,6.51c-.442.333-.836.731-1.342,1.178a8.845,8.845,0,0,1,2.638-4.319,25.616,25.616,0,0,1,11.792-6.239c.861-.214,1.77-.229,2.637-.423a7.886,7.886,0,0,0,3.684-2.175,10.9,10.9,0,0,0,3.031-4.424,1.614,1.614,0,0,0-.711-2.2,9.642,9.642,0,0,1-1.623-1.587,30.126,30.126,0,0,1-4.414-8.32,81.162,81.162,0,0,0-4.227-10.012,8.287,8.287,0,0,0-2.182-2.889.626.626,0,0,1-.179-.434,5.419,5.419,0,0,1,3.722-5.138,7.491,7.491,0,0,1,5.292.4c2.289,1.05,4.483,2.307,6.718,3.474.175.091.351.179.527.269l.182-.1a3.556,3.556,0,0,0-2.9-2.9c-1.317-.535-2.661-1-3.986-1.517a6.546,6.546,0,0,1-.844-.476l.031-.216a2.932,2.932,0,0,1,.82-.18,50.788,50.788,0,0,1,5.265.48,14.755,14.755,0,0,1,9.67,6.015c2.682,3.723,3.875,8.037,4.789,12.445.2.978.244,1.99.359,2.986v2.171c-.034.2-.071.408-.1.613-.311,2.138-.5,4.3-.955,6.41a38.058,38.058,0,0,1-5.7,13.433,20.261,20.261,0,0,1-5.2,5.379,12.316,12.316,0,0,1-6.4,1.916,60.776,60.776,0,0,0-11.473,1.958,26.137,26.137,0,0,0-7.266,2.873A16.208,16.208,0,0,0,1980.713,1744.4Zm30.644-30.837a9.643,9.643,0,0,0,5.2-8.795,16.34,16.34,0,0,0-1.435-6.228c-.268-.627-.559-1.247-.876-1.851s-.681-1.182-1.024-1.771C2015.457,1701.389,2015.552,1707.616,2011.357,1713.568Zm-4.189-24.348a15.951,15.951,0,0,1,4.049,12.142,7.714,7.714,0,0,0,1.106-3.968C2012.291,1693.611,2010.018,1691.227,2007.168,1689.22Z" transform="translate(-872.769 -447.913)"/><path class="a" d="M2017.724,1753.766a8.646,8.646,0,0,1-3.724,3.42,18.628,18.628,0,0,1-8.363,2.128,6.132,6.132,0,0,1-3.211-.592,2,2,0,0,1-.575-2.907,4.606,4.606,0,0,0,.608-1.254c.121-.369-.1-.575-.5-.54a2.987,2.987,0,0,1-.792.05c-.275-.053-.683-.167-.751-.355-.083-.233.113-.574.216-.859.034-.094.153-.157.246-.245a6.5,6.5,0,0,1-.662-.554.8.8,0,0,1,.085-1.233,3.71,3.71,0,0,0,.925-2.535c.009-.087-.2-.261-.324-.287-.426-.086-.867-.095-1.291-.185-.687-.145-.933-.536-.719-1.207a5.5,5.5,0,0,1,.582-1.163c.238-.388.521-.749.795-1.114a5.466,5.466,0,0,0,1.007-2.733,28.69,28.69,0,0,1,2.328-8.708,5.1,5.1,0,0,1,.734-1.146q.959-1.127,1.6.194a13.081,13.081,0,0,1,.667,1.691,78.23,78.23,0,0,0,3.643,9.988,32.331,32.331,0,0,0,6.792,9.574C2017.259,1753.4,2017.5,1753.583,2017.724,1753.766Zm-12.92-11.64.035-.173a2.59,2.59,0,0,0-.527-.351c-.6-.216-1.217-.405-1.832-.587-.271-.08-.568-.174-.682.245s-.184.92.323,1.062A4.922,4.922,0,0,0,2004.8,1742.126Z" transform="translate(-888.274 -484.796)"/></g></svg>