<svg xmlns="http://www.w3.org/2000/svg" width="56.838" height="49.941" viewBox="0 0 56.838 49.941"><defs><style>.a{fill:#fff;}</style></defs><g transform="translate(-744 -1426)"><path class="a" d="M1285.044,1411c-.76-.189-1.535-.33-2.276-.574-4.439-1.46-6.749-5.711-5.734-10.51a11.16,11.16,0,0,1,4.6-7.347,38.64,38.64,0,0,1,3.986-2.779c4.936-2.5,7.732-6.76,9.857-11.595.369-.84,1.154-1.472,1.076-2.594-.036-.525.686-1.1,1.168-1.807l.5.113.307-1.625.838.409.246-1.338.894.308.138-1.729.323-.231.639,1.488.887-2.444.6,1.436.918-2.268.543,1.8.766-2.188.452,1.427.936-1.656.238.057v1.727l1.148-1.77a16.79,16.79,0,0,1,.955,1.44,1.88,1.88,0,0,1,.265,1.029c-.128,1.017-.352,2.022-.534,3.032a6.362,6.362,0,0,0,2.246,6.163,1.228,1.228,0,0,1,.49,1.393,10.311,10.311,0,0,0,.744,6.939,23.7,23.7,0,0,1,.972,3c-1.337-1.81-2.642-3.452-3.81-5.185a14.861,14.861,0,0,1-2.336-10.645c.075-.553.094-1.114.139-1.671l-.338-.116a2.882,2.882,0,0,0-.418.662,15.058,15.058,0,0,0,.176,9.332,7.847,7.847,0,0,0,1.342,2.062c1.2,1.567,2.573,3.022,3.637,4.675a7.357,7.357,0,0,1,.692,6.507,2.678,2.678,0,0,1-.565,1.03,3.343,3.343,0,0,1-.957.488,2.945,2.945,0,0,1-.129-.934,9.99,9.99,0,0,0-1.143-6.992,7.683,7.683,0,0,0-5.344-3.833c.95.813,2.128,1.73,3.2,2.756a8.82,8.82,0,0,1,2.53,7.489,9.28,9.28,0,0,0,.473,2.429c.789-.465,1.842-.751,2.308-1.436a23.31,23.31,0,0,0,1.751-3.965c.482-.044,1.256-.111,2.03-.183,2.086-.2,4.172-.382,6.256-.6,1.446-.149,2.143.444,1.733,1.708a17.852,17.852,0,0,0-.614,8.206,5.247,5.247,0,0,1-1.161,4.2c-.87,1.1-1.682,2.245-2.519,3.37l-.525-.121c-.02-1.494-.1-2.991-.01-4.479.016-.271.662-.594,1.072-.735,1.157-.4,1.282-.726.742-1.794a3.27,3.27,0,0,1-.167-1.333c-.043-1.573,0-3.153-.141-4.717a1.419,1.419,0,0,0-1.049-.92,7.164,7.164,0,0,0-2.827.607c-2.024,1.029-3.955,2.243-6.146,3.511,1.44,1.589,2.976,3.314,4.548,5a19.12,19.12,0,0,1,2.091,2.093,2.808,2.808,0,0,1,.317,2.053c-.068.263-1.142.372-1.759.371-3.047,0-6.095-.07-9.142-.112-2.077-.029-3.761-1.005-5.7-2.316,1.133-.465,2-.854,2.9-1.18a1.051,1.051,0,0,1,1.462.562,1.423,1.423,0,0,0,2.348.584,1.736,1.736,0,0,1,1.093-.191c1.707.175,3.408.4,5.112.607l.185-.414a27.683,27.683,0,0,0-2.178-1.857c-1.72-1.2-3.59-2.2-5.217-3.5-1.856-1.491-3.514-3.228-5.171-4.777-.107.3-.107.3,2.013,3.6a21.039,21.039,0,0,1-8.807.082,1.151,1.151,0,0,1-.684-.656c-1.819-4.558-6-6.083-10.492-5.244-3.038.568-4.708,3.44-4.134,6.967a4.361,4.361,0,0,0,2.848,3.742,5.149,5.149,0,0,0,5.653-.711,2.012,2.012,0,0,0,.205-3.205c-.1.224-.191.408-.257.6a3.508,3.508,0,0,1-4.139,2.538,4,4,0,0,1-3.426-3.828c.035-5.573,4.155-6.381,8.075-5.1a8.026,8.026,0,0,1,2.633,13.863c-1.128.941-2.849,1.171-4.3,1.728Z" transform="translate(-525.111 64.941)"/><path class="a" d="M1345.446,1348.443c-1.178,1.316-2.786,1.267-4.413,1.278-.075.658-.117,1.241-.211,1.815-.281,1.716-.08,3.447-.938,5.159-.559,1.115-.164,2.716-.169,4.1a3.608,3.608,0,0,1-1.285,3.165c-.942.707-1.549.593-2.035-.49a8.472,8.472,0,0,0-4.563-4.832c-2.41-1-3.766-5.4-2.687-7.791a1.1,1.1,0,0,1,.773-.521c.765-.071,1.541-.025,2.557-.025-1.189-.782-2.19-1.4-3.131-2.1-.16-.119-.056-.591-.081-1.013l3.337.333a3.151,3.151,0,0,0-3.4-2.141c-2.85.064-5.7.26-8.547.308-4.712.08-9.438.134-14-1.309a18.688,18.688,0,0,1-3.47-1.732c-.346-.2-.542-.659-.807-1l.182-.233a2,2,0,0,1,.706.171c3.424,2.478,7.4,2.917,11.417,2.869,3.913-.047,7.821-.458,11.734-.635,1.773-.08,3.557-.035,5.33.055a5.711,5.711,0,0,1,3.929,1.977,5.971,5.971,0,0,0,1.008.674c-.405-2.141-2.175-3.479-4.655-3.508-1.773-.021-3.548.234-5.324.33-4.838.261-9.655.252-14.33-1.293-.465-.154-1.192-.119-.937-.985h.476a19.5,19.5,0,0,0,9.624,1.31c3.819-.275,7.635-.621,11.457-.838a8.6,8.6,0,0,1,5.52,1.821,5.636,5.636,0,0,1,2.03,3.7l4.9.661Zm-9.868,4.793c.839.906,1.465,1.638,2.162,2.3a.846.846,0,0,0,.826.039.961.961,0,0,0,.149-.824C1338.489,1353.894,1336.94,1353.058,1335.578,1353.237Z" transform="translate(-544.609 84.929)"/><path class="a" d="M1244.475,1428.726a7.029,7.029,0,0,0,.549-.569c2.179-2.824,4.615-3.635,8.179-2.7.492.128.977.285,1.63.477.817-3.035,2.473-5.3,5.662-6.07l2.484-.6.113.327a1.659,1.659,0,0,1-.331.426c-3.135,2.023-3.876,5.007-3.461,8.482a1.155,1.155,0,0,1-.257.893c-1.333,1.114-2.712,2.173-4.1,3.273-.649-.716-1.222-1.41-1.86-2.04-2.492-2.459-4.935-2.816-8.138-1.236a1.44,1.44,0,0,1-.464.057Z" transform="translate(-500.475 25.336)"/><path class="a" d="M1433.74,1426.383c1.242,1.065,2.135,2.093,1.758,3.828a13.57,13.57,0,0,0-.036,2.867C1433.34,1432.554,1432.2,1428.665,1433.74,1426.383Z" transform="translate(-644.187 19.905)"/></g></svg>