<svg xmlns="http://www.w3.org/2000/svg" width="47.7" height="47.7" viewBox="0 0 47.7 47.7"><defs><style>.a{fill:#FF9C05;}</style></defs><g transform="translate(-276 -2983)"><path class="a" d="M-176.755,212.322c1.126,1.7,2.681,3.217,2.515,5.594h-5.606c-.209-2.333,1.37-3.867,2.5-5.594Z" transform="translate(476.904 2770.678)"/><path class="a" d="M-75.791,313.788c-1.714,1.14-3.247,2.693-5.6,2.535v-5.628c2.334-.179,3.877,1.366,5.6,2.5Z" transform="translate(399.491 2693.361)"/><path class="a" d="M-177.409,414.755c-1.13-1.7-2.64-3.24-2.522-5.594h5.613c.235,2.349-1.376,3.866-2.5,5.594Z" transform="translate(476.96 2615.944)"/><path class="a" d="M-278.21,313.165c1.705-1.136,3.253-2.626,5.592-2.512v5.62c-2.35.219-3.865-1.391-5.592-2.512Z" transform="translate(554.21 2693.388)"/><path class="a" d="M-234.818,270.894a15.286,15.286,0,0,1,15.249-15.18,15.285,15.285,0,0,1,15.205,15.334,15.291,15.291,0,0,1-15.3,15.124A15.288,15.288,0,0,1-234.818,270.894Z" transform="translate(519.438 2735.906)"/><path class="a" d="M-115.619,246.365a24.026,24.026,0,0,1,2.32-1.172,14.734,14.734,0,0,1,2.4-.616c.666-.137,1.388.067,1.236.826-.349,1.745-.333,3.666-1.849,4.99-.073.063-.161.109-.075.052Z" transform="translate(426.921 2744.862)"/><path class="a" d="M-239.986,246.427l-4.1,4.065a12.811,12.811,0,0,1-1.1-1.9,17.387,17.387,0,0,1-.668-2.586c-.256-1.116.22-1.609,1.318-1.36a17.551,17.551,0,0,1,2.586.671A14.1,14.1,0,0,1-239.986,246.427Z" transform="translate(528.335 2744.826)"/><path class="a" d="M-243.989,375.506l3.946,3.991a5.5,5.5,0,0,1-1.4,1.011,22.046,22.046,0,0,1-3.255.845c-.629.133-1.3-.123-1.157-.816C-245.469,378.712-245.531,376.667-243.989,375.506Z" transform="translate(528.302 2642.914)"/><path class="a" d="M-115.07,379.219l4.06-4a15.644,15.644,0,0,1,1.114,2.038,16.666,16.666,0,0,1,.664,2.588c.178.83-.183,1.414-.889,1.28a28.314,28.314,0,0,1-3.91-1.037C-114.512,379.924-114.868,379.4-115.07,379.219Z" transform="translate(426.481 2643.143)"/><path class="a" d="M-207.754,225.089l-5.177,2.157a6.526,6.526,0,0,1-.475-1.869,27.553,27.553,0,0,1,.486-3.522c.112-.651.675-.994,1.168-.674C-210.178,222.2-208.338,223-207.754,225.089Z" transform="translate(503.271 2763.677)"/><path class="a" d="M-91,282.723l-2.156-5.18a7.213,7.213,0,0,1,1.944-.46,26.616,26.616,0,0,1,3.425.486c.7.122,1.051.7.692,1.234-.957,1.431-1.69,3.107-3.469,3.8A4.176,4.176,0,0,1-91,282.723Z" transform="translate(408.924 2719.771)"/><path class="a" d="M-93.28,349.391l2.2-5.192a8.168,8.168,0,0,1,1.758,1.111,20.378,20.378,0,0,1,1.97,2.594c.392.573.365,1.311-.363,1.444a36.017,36.017,0,0,1-4.478.428A3.107,3.107,0,0,1-93.28,349.391Z" transform="translate(409.02 2667.01)"/><path class="a" d="M-146.224,399.325l5.269-2.2a18.331,18.331,0,0,1,.272,2.613,19.388,19.388,0,0,1-.423,2.834c-.12.647-.662,1-1.162.683-1.531-.981-3.3-1.755-3.933-3.7A.857.857,0,0,1-146.224,399.325Z" transform="translate(450.454 2625.587)"/><path class="a" d="M-141.4,227.443l-5.2-2.207a10.311,10.311,0,0,1,1.25-1.818,20.118,20.118,0,0,1,2.442-1.844c.552-.382,1.291-.477,1.479.257.411,1.608.9,3.25.364,4.94A4.56,4.56,0,0,1-141.4,227.443Z" transform="translate(450.763 2763.498)"/><path class="a" d="M-265.3,282.438a10.519,10.519,0,0,1-1.822-1.266,20.069,20.069,0,0,1-1.842-2.444c-.383-.556-.462-1.292.275-1.472,1.641-.4,3.313-.933,5.03-.312a4.509,4.509,0,0,1,.569.295Z" transform="translate(547.031 2720.106)"/><path class="a" d="M-265.025,344.094l2.115,5.123a3.794,3.794,0,0,1-1.355.461,32.32,32.32,0,0,1-4.186-.513c-.237-.045-.611-.879-.489-1.067C-267.9,346.507-267.115,344.627-265.025,344.094Z" transform="translate(546.8 2667.093)"/><path class="a" d="M-208.02,399.659a24.52,24.52,0,0,1-1.8,2.116,15.194,15.194,0,0,1-2.064,1.526c-.579.385-1.306.384-1.455-.341-.358-1.744-1.018-3.516-.156-5.307a1.655,1.655,0,0,1,.17-.238Z" transform="translate(503.677 2625.357)"/></g></svg>