<svg xmlns="http://www.w3.org/2000/svg" width="31.876" height="31.601" viewBox="0 0 31.876 31.601"><defs><style>.a{fill:#418f21;}.b{mix-blend-mode:multiply;isolation:isolate;}.c{fill:#fefefe;}.d{fill:#fafafa;}.e{fill:#f2f2f2;}.f{fill:#e9e9e9;}.g{fill:#e2e2e2;}.h{fill:#e4e4e4;}.i{fill:#dadada;}.j{fill:#dbdbdb;}.k{fill:#d5d5d5;}.l{fill:#d0d0d0;}.m{fill:#fff;}</style></defs><g transform="translate(-2326.598 -346.066)"><path class="a" d="M2358.472,360.734c.08,1.132-2.251,2.149-2.417,3.225-.171,1.111,1.739,2.784,1.333,3.8-.413,1.037-2.953.942-3.58,1.852s.366,3.253-.45,4.005-3.061-.433-4.028.121-1.068,3.087-2.143,3.413c-1.042.316-2.549-1.725-3.682-1.645s-2.335,2.314-3.411,2.149c-1.111-.171-1.585-2.67-2.6-3.076-1.037-.412-3.095,1.076-4.005.449s-.26-3.085-1.011-3.9-3.251-.359-3.805-1.327c-.545-.952,1.107-2.878.78-3.954-.315-1.042-2.767-1.719-2.848-2.851s2.251-2.149,2.416-3.225c.171-1.111-1.738-2.784-1.332-3.8.412-1.037,2.954-.942,3.579-1.852s-.365-3.253.451-4.005,3.059.433,4.028-.122c.952-.546,1.068-3.087,2.143-3.413,1.041-.316,2.549,1.725,3.68,1.645s2.336-2.314,3.412-2.148c1.111.171,1.584,2.67,2.6,3.076,1.038.412,3.095-1.076,4.006-.449s.259,3.085,1.011,3.9,3.252.359,3.806,1.327c.547.952-1.107,2.878-.782,3.954C2355.94,358.925,2358.391,359.6,2358.472,360.734Z" transform="translate(0 0)"/><g class="b" transform="translate(2334.872 355.305)"><path class="c" d="M2650.931,721.693q-3.968,0-7.933,0c-.077,0-.092-.015-.092-.092q0-6.3,0-12.606c0-.077.014-.092.092-.092q7.931,0,15.865,0c.076,0,.091.015.091.092q0,6.3,0,12.606c0,.077-.015.092-.091.092Q2654.9,721.692,2650.931,721.693Z" transform="translate(-2642.906 -708.905)"/><path class="d" d="M2657.947,730.793a.323.323,0,0,1-.251-.117l-2.176-2.177-2.756-2.757a.321.321,0,0,1,0-.524l1.628-1.628a.348.348,0,0,1,.584,0l2.772,2.772c.181.18.206.18.387,0l7.721-7.721.056-.056a.338.338,0,0,1,.552,0q.489.487.977.977l.659.659a.341.341,0,0,1,0,.56l-9.9,9.9A.311.311,0,0,1,2657.947,730.793Z" transform="translate(-2652.407 -718.23)"/><path class="e" d="M2672.347,724.2c.032.149-.105.2-.165.3a.359.359,0,0,1-.054.056q-4.811,4.81-9.621,9.619a2.158,2.158,0,0,1-.193.169.258.258,0,0,1-.332,0,1.678,1.678,0,0,1-.188-.16q-2.327-2.326-4.654-4.655a1.909,1.909,0,0,1-.161-.186.26.26,0,0,1,0-.332,1.518,1.518,0,0,1,.144-.17c.476-.477.951-.955,1.431-1.429.1-.1.2-.224.383-.191a.457.457,0,0,1,.238.171q1.33,1.316,2.648,2.643c.044.045.079.1.124.144a.238.238,0,0,0,.378,0c.061-.06.111-.131.172-.191l7.537-7.54c.06-.061.132-.108.19-.172a.3.3,0,0,1,.331.008c.3.3.607.6.908.9.28.28.557.564.835.845A.248.248,0,0,1,2672.347,724.2Z" transform="translate(-2656.603 -721.927)"/><path class="f" d="M2664.95,737.241c-.125.006-.193-.089-.267-.162-.408-.4-.812-.809-1.217-1.214q-1.752-1.752-3.5-3.5a.492.492,0,0,1-.168-.242c-.028-.137.071-.216.149-.295q.75-.759,1.508-1.511a.274.274,0,0,1,.459,0c.3.3.6.6.906.905.62.62,1.244,1.236,1.857,1.861.2.207.27.265.536,0q3.856-3.871,7.725-7.732c.192-.191.309-.194.493-.01l1.533,1.533c.175.176.175.3,0,.476q-4.864,4.866-9.732,9.73C2665.153,737.15,2665.082,737.25,2664.95,737.241Z" transform="translate(-2659.412 -724.834)"/><path class="g" d="M2677.148,795.529c.059.056.121.108.177.168a.22.22,0,0,1-.013.305c-.071.061-.128.134-.194.2l-9.5,9.5a2.139,2.139,0,0,1-.21.185.169.169,0,0,1-.226,0,2.432,2.432,0,0,1-.192-.17l-4.584-4.584a2.2,2.2,0,0,1-.177-.2.167.167,0,0,1,0-.217,1.916,1.916,0,0,1,.17-.194c.426-.43.857-.858,1.285-1.288.061-.06.126-.114.183-.178a.222.222,0,0,1,.344.026.492.492,0,0,0,.13.137.034.034,0,0,1,.005.044c-.075.013-.112-.046-.154-.088-.144-.143-.2-.143-.332.006-.471.433-.908.9-1.366,1.349-.055.055-.1.119-.162.17a.16.16,0,0,0,0,.248c.416.43.843.85,1.265,1.274q1.532,1.533,3.065,3.066c.17.169.339.338.512.5a.165.165,0,0,0,.249,0q3.593-3.569,7.166-7.159,1.173-1.17,2.343-2.342c.11-.108.208-.227.313-.338a.142.142,0,0,0-.007-.215c-.055-.061-.14-.106-.132-.208A.036.036,0,0,1,2677.148,795.529Z" transform="translate(-2661.754 -793.572)"/><path class="h" d="M2757.948,733.558v-.045c.033.03.068.058.1.089l2.661,2.66c.145.146.22.146.366,0q3.923-3.923,7.844-7.849a.28.28,0,0,1,.44,0c.432.447.876.881,1.316,1.321.028.029.054.061.082.092h-.046c-.059.013-.084-.038-.117-.069-.176-.174-.35-.351-.527-.525-.255-.258-.513-.514-.77-.77-.121-.121-.194-.121-.315,0s-.221.222-.333.333l-7.417,7.418a2.093,2.093,0,0,1-.2.178.212.212,0,0,1-.277,0,1.758,1.758,0,0,1-.172-.146q-1.272-1.276-2.547-2.55C2758,733.655,2757.937,733.627,2757.948,733.558Z" transform="translate(-2755.361 -727.871)"/><path class="i" d="M2678.877,735.672l.521.51c.034.034.071.065.108.1a.875.875,0,0,0,.147.182.163.163,0,0,1,0,.263c-3.19,3.242-6.428,6.437-9.637,9.661a1.818,1.818,0,0,0-.185.177.178.178,0,0,1-.268.006,2.615,2.615,0,0,0-.217-.208q-2.217-2.222-4.439-4.44a2.431,2.431,0,0,0-.209-.216.19.19,0,0,1,0-.271q.705-.706,1.412-1.411a1.263,1.263,0,0,1,.132-.1c.014-.016.025-.039.051-.02.021.07-.039.1-.076.138q-.686.689-1.374,1.375c-.141.141-.141.177,0,.32l4.688,4.687c.141.141.177.141.32,0l9.534-9.534.168-.165a.147.147,0,0,0,0-.249c-.479-.469-.949-.947-1.423-1.42-.038-.037-.1-.067-.076-.138.054-.019.071.031.1.057.21.207.417.417.627.625A.341.341,0,0,0,2678.877,735.672Z" transform="translate(-2664.156 -734.322)"/><path class="j" d="M2748.627,730.626c-.051.021-.061-.03-.083-.052-.243-.236-.485-.475-.726-.712-.006.005-.013.013-.019.011-.145-.061-.224.031-.315.122q-3.83,3.835-7.663,7.666c-.067.066-.142.122-.213.184a.26.26,0,0,1-.348,0c-.094-.081-.188-.16-.277-.247q-1.24-1.245-2.485-2.487c-.085-.085-.17-.169-.248-.26a.1.1,0,0,0-.151-.008c-.018.01-.036.023-.057.01l-.046.022a.186.186,0,0,1,.339-.046,1.569,1.569,0,0,0,.156.136c.03.033.058.068.089.1l2.51,2.51c.074.074.153.143.234.21a.168.168,0,0,0,.216,0,1.56,1.56,0,0,0,.194-.169l7.754-7.752c.163-.163.228-.163.389,0Z" transform="translate(-2733.906 -729.276)"/><path class="k" d="M2669.457,738.314l2.836,2.847a2.208,2.208,0,0,0,.186.162.244.244,0,0,0,.292,0,2.663,2.663,0,0,0,.217-.193l7.663-7.662a.2.2,0,0,0,.032-.032.222.222,0,0,1,.324-.088c0,.056.05.082.083.115.482.481.967.96,1.45,1.44a.172.172,0,0,1-.009.265c-.059.056-.12.112-.178.17q-4.774,4.774-9.546,9.55c-.125.124-.211.129-.343,0q-2.35-2.36-4.708-4.712c-.137-.137-.138-.188,0-.323l1.406-1.407c.03-.031.073-.055.075-.107l.044-.023A.135.135,0,0,1,2669.457,738.314Z" transform="translate(-2667.096 -732.762)"/><path class="i" d="M2740.179,953.815a.233.233,0,0,0-.179,0A.105.105,0,0,1,2740.179,953.815Z" transform="translate(-2737.818 -948.262)"/><path class="l" d="M2675.917,747.825a.071.071,0,0,1-.085-.024q-2.365-2.37-4.73-4.738c-.123-.123-.123-.152,0-.278q.709-.706,1.415-1.414c.119-.12.142-.12.262,0q1.386,1.386,2.773,2.771a1.437,1.437,0,0,0,.178.152c.141.1.277.077.461-.082.028-.024.053-.052.08-.079l7.729-7.728c.15-.152.155-.152.309,0l1.406,1.406c.126.126.126.143,0,.27q-4.819,4.818-9.638,9.633C2676.035,747.761,2676.016,747.857,2675.917,747.825Z" transform="translate(-2670.378 -735.677)"/></g><path class="m" d="M2662.067,728.573l-5.177-5.176,1.916-1.916,3.26,3.26,8.247-8.247,1.916,1.916Z" transform="translate(-321.713 -361.042)"/></g></svg>