<svg xmlns="http://www.w3.org/2000/svg" width="47.551" height="34.447" viewBox="0 0 47.551 34.447"><defs><style>.a{fill:#f8f8f8;}</style></defs><g transform="translate(-788 -2989)"><path class="a" d="M2,156.314a14.168,14.168,0,0,0,3.881-9.995A14.057,14.057,0,0,0-7.578,132.607,14.032,14.032,0,0,0-22.01,145.019,13.978,13.978,0,0,0-2.577,159.455a1.574,1.574,0,0,1,1.826.137,20.961,20.961,0,0,0,2.238,1.31,16.02,16.02,0,0,1-8.043,2.882,17.206,17.206,0,0,1-18.769-18.159,17.28,17.28,0,0,1,15.882-16.2c9.1-.491,16.923,5.6,18.3,14.25a17.36,17.36,0,0,1-2.883,12.917,1.356,1.356,0,0,1-1.953.61C3.384,156.9,2.731,156.632,2,156.314Z" transform="translate(813.343 2859.605)"/><path class="a" d="M66.089,141.38c5.546-2.047,12.712.524,16.238,5.788a14.623,14.623,0,1,1-26.657,9.75,14.455,14.455,0,0,1,4.381-12.125c.766-.771,1.369-.906,2.151-.136a13.519,13.519,0,0,0,1.074.853c-.348.3-.649.551-.947.809a11.934,11.934,0,1,0,6.482-2.9,1.435,1.435,0,0,1-.976-.286C67.238,142.623,66.718,142.023,66.089,141.38Z" transform="translate(750.732 2850.877)"/></g></svg>