<svg xmlns="http://www.w3.org/2000/svg" width="59.208" height="64.672" viewBox="0 0 59.208 64.672"><defs><style>.a{fill:#f8f8f8;}</style></defs><g transform="translate(-919.796 -1235)"><path class="a" d="M2349.545,1403.293c.212.085.425.168.636.254a2.758,2.758,0,0,1,1.689,1.672,1.406,1.406,0,0,0,1.415.986,17.42,17.42,0,0,0,1.854-.077,7.416,7.416,0,0,1,5.455,1.784,4.057,4.057,0,0,1,1.378,2.986,1.717,1.717,0,0,1-1.5,1.937,3.078,3.078,0,0,1-1.181.088,9.8,9.8,0,0,0-4.218.4c.742.531,1.417,1.009,2.086,1.5a4.515,4.515,0,0,1,1.644,2.03,1.776,1.776,0,0,1-1.737,2.529,10.761,10.761,0,0,1-3.7-.931c-.486-.211-.756-.117-.912.347a6.425,6.425,0,0,0-.327,3.581,2.047,2.047,0,0,0,1.817,1.76c1.138.125,2.282.2,3.425.28.392.028.789,0,1.217,0,.149.513-.112.756-.525.9-3.579,1.281-6.989.369-8.28-4.047-.271-.926-.349-1.907-.545-2.857-.037-.178-.2-.461-.316-.465-.225-.007-.594.09-.657.245a4.624,4.624,0,0,0-.309,1.376,1.342,1.342,0,0,0,.222.821c.654.921.219,1.51-.438,2.226a13.205,13.205,0,0,0-3.5,6.583c-.083.454-.137.912-.211,1.411a11.659,11.659,0,0,1-8.24-3.007c4.567.486,8.124-1,10.355-5.11a15.465,15.465,0,0,1-5.2,3.492,7.529,7.529,0,0,1-6.073-.261,22.167,22.167,0,0,0,2.656-.511,5.114,5.114,0,0,0,3.225-2.927c.678-1.5,1.51-2.935,2.244-4.339a3.63,3.63,0,0,0-1.675,1.462,30.639,30.639,0,0,1-1.992,2.966c-1.892,2.134-4.573,2.858-7.019.777a8.976,8.976,0,0,1-2.988-5.538c-.236-1.373-.294-2.777-.422-4.074a28.023,28.023,0,0,0,3.058,1.058,3.055,3.055,0,0,0,2.44-.593c1.042-.723,2.14-1.365,3.211-2.126-.708.183-1.42.356-2.125.553-.614.172-1.209.434-1.833.545a3,3,0,0,1-3.547-1.974,4.771,4.771,0,0,1-.31-2.989c.472-1.923.959-3.845,1.541-5.736a3.95,3.95,0,0,1,1.75-2.184c.225-.141.281-.638.315-.981a5.28,5.28,0,0,1,1.955-3.774,12.742,12.742,0,0,1,1.481-.89,1.812,1.812,0,0,0-2.2.488,9.693,9.693,0,0,0-1.288,1.679,39.811,39.811,0,0,0-5.027,12.184,41.13,41.13,0,0,0-.587,4.462,1.136,1.136,0,0,1-1,1.129.977.977,0,0,1-1.158-.769,9.329,9.329,0,0,1-.509-2.384,27.016,27.016,0,0,1,3.766-15.6,3.132,3.132,0,0,1,.636-.75.853.853,0,0,1,1.283-.03c.609.541,1.1.464,1.546-.231a10.53,10.53,0,0,0,.917-1.829,4.606,4.606,0,0,1,6.334-2.128,5.487,5.487,0,0,1,1.36,1.327,1.456,1.456,0,0,0,1.678.437,5.129,5.129,0,0,1,3.506-.028,8.46,8.46,0,0,1,1.336.808l-.106.237h-2.479a11.765,11.765,0,0,0-6.274,1.584,5.838,5.838,0,0,0-2.888,4.234c-.3,1.85.662,3.446,2.651,4.438a10.584,10.584,0,0,0,5.5.888c1.714-.1,3.423-.3,5.176-.575a9.243,9.243,0,0,0-1.605-.329c-1.48-.046-2.964.01-4.445-.027a11.476,11.476,0,0,1-2.3-.251,3.813,3.813,0,0,1-3.265-3.434,4.511,4.511,0,0,1,2.78-4.67,5.682,5.682,0,0,1,1.822-.346,21.3,21.3,0,0,0-1.694,1.343,2.79,2.79,0,0,0-.023,4.131,5.644,5.644,0,0,0,4.123,1.509c1.678.045,3.359-.01,5.039.02.543.01,1.083.151,1.694.166l-.483-.283c.113-.1.141-.15.167-.149a2.933,2.933,0,0,1,2.854,2.323,1.481,1.481,0,0,1,.014.719.707.707,0,0,1-.395.452.8.8,0,0,1-.634-.163,14.527,14.527,0,0,1-1.214-1.313A1.66,1.66,0,0,0,2349.545,1403.293Zm-13.34,14.682c.307-.108.681-.128.864-.325a1.669,1.669,0,0,0-.667-2.491,4,4,0,0,0-5.417,3.62,2.978,2.978,0,0,0,2.167,3.108,5.545,5.545,0,0,0,5.878-2.35c1.752-2.679,3.078-5.692,5.852-7.631a2.387,2.387,0,0,0-1.209.4,16.893,16.893,0,0,0-2.229,2.252c-1.048,1.364-1.962,2.83-2.95,4.241a3.744,3.744,0,0,1-3.827,1.574,1.885,1.885,0,0,1-1.767-1.184,2.217,2.217,0,0,1,.586-2.316,1.6,1.6,0,0,1,1.753-.641c.718.222.746.848.854,1.43C2336.1,1417.708,2336.121,1417.748,2336.2,1417.976Zm6.972-10.482a2.022,2.022,0,0,0-1.81-.436c-.6.128-1.176.362-1.763.547-1.322.416-2.635.867-3.972,1.225a3.607,3.607,0,0,1-1.5.011,2.087,2.087,0,0,1-1.745-2.345,2.3,2.3,0,0,1,2.533-1.643c.8.133,1.051.4,1.155,1.205a1.349,1.349,0,0,0,.085.452,2.617,2.617,0,0,0,.354.432c.131-.13.314-.236.383-.393a2.132,2.132,0,0,0-.754-2.34,4.226,4.226,0,0,0-3.955.364,3.391,3.391,0,0,0-.576,4.14,2.777,2.777,0,0,0,3.493,1.256c1.327-.452,2.593-1.092,3.874-1.676A6.151,6.151,0,0,1,2343.177,1407.493Zm6.55-1.752a1.742,1.742,0,0,0-1.733-.787c-1.576.183-2.192,1.683-1.3,3.2.128.217.473.306.718.454a2.132,2.132,0,0,0,.082-.8c-.405-1.3.153-2.062,1.514-2.023C2349.25,1405.793,2349.489,1405.757,2349.727,1405.741Zm3.363,4.936c.311,1.872.975,2.171,3.071,1.427Z" transform="translate(-1391.97 -140.284)"/><path class="a" d="M2306.011,1298.16c.082-.932.18-1.665.2-2.4a6.458,6.458,0,0,0-1.347-4.652,2.091,2.091,0,0,0-2.495-.689,7.761,7.761,0,0,0-1.794,1.067,4.887,4.887,0,0,0-.766.9l-.251-.17c.311-.778.571-1.582.943-2.329a10.834,10.834,0,0,1,4.5-4.651.819.819,0,0,0,.513-.964c-.508-4.244,2.627-5.755,5.469-5.862a12.7,12.7,0,0,1,6.515,1.717,98.307,98.307,0,0,1,11.045,7.437,17.193,17.193,0,0,0,5.946,2.968,1.354,1.354,0,0,0,1.493-.442c1.2-1.263,2.5-2.438,3.737-3.672a3.594,3.594,0,0,0,.907-3.008c-.063-.735-.286-1.457-.352-2.267.571.782,1.179,1.54,1.7,2.352a7.987,7.987,0,0,1,1.6,4.282,5.478,5.478,0,0,1-5.056,5.631,10.053,10.053,0,0,1-7.105-1.977c-2.608-1.817-5.083-3.829-7.58-5.8-2.375-1.876-4.618-3.931-7.354-5.3a10.086,10.086,0,0,0-5.071-1.3,6.624,6.624,0,0,0-3.741,1.349,2.6,2.6,0,0,0-1.136,2.208,1.488,1.488,0,0,0,1.274,1.608,6.023,6.023,0,0,0,1.641.079c3.532-.276,6.569.66,8.761,3.6a9.972,9.972,0,0,1,1.6,4.651c.052.349.1.7.125,1.052.033.487-.241.656-.667.511a2.363,2.363,0,0,1-.72-.436,5.376,5.376,0,0,0-3.836-1.524,3.947,3.947,0,0,0-3.53,2.505,2.21,2.21,0,0,1-1.248,1.191c-.47.192-.935.4-1.412.567a3.544,3.544,0,0,0-2.016,1.418C2306.448,1297.905,2306.305,1297.955,2306.011,1298.16Z" transform="translate(-1369.874 -43.403)"/><path class="a" d="M2496.3,1425.6c-.979.839-1.031,1.444-.006,2.15a15.325,15.325,0,0,0,2.779,1.353,4.824,4.824,0,0,1,2.188,1.755,2.347,2.347,0,0,1,.3,2.553,23.909,23.909,0,0,1-1.31,2.209.807.807,0,0,1-.689.244c-.835-.184-1.653-.442-2.5-.679,0-.631.006-1.226,0-1.82-.035-2.87-1.384-4.3-4.252-4.529-1.586-.124-3.18-.187-4.752-.41a2.9,2.9,0,0,1-1.539-.877,1.3,1.3,0,0,1-.012-1.195,1.218,1.218,0,0,1,1.023-.359,15.312,15.312,0,0,1,2.1.578l-.345-1.67C2490.038,1424.432,2494.083,1424.806,2496.3,1425.6Z" transform="translate(-1531.825 -170.233)"/><path class="a" d="M2262.97,1385.675A17.056,17.056,0,0,1,2264,1383c1.173-2,2.4-3.973,3.741-5.856a10.123,10.123,0,0,1,2.271-1.995,1.466,1.466,0,0,1,1.666-.273,1.7,1.7,0,0,1,.575,1.8,12.659,12.659,0,0,1-1.655,4.988,19.217,19.217,0,0,1-4.454,5.046,4.152,4.152,0,0,1-1.287.653c-1.01.353-1.632-.083-1.721-1.154-.013-.154,0-.31,0-.464Z" transform="translate(-1338.151 -126.895)"/><path class="a" d="M2449.219,1427.039a.618.618,0,0,1-.011.141c-.994,1.782-.639,2.56,1.323,3.3a18.558,18.558,0,0,0,3.62.659,36.293,36.293,0,0,1,3.647.583,3.325,3.325,0,0,1,2.477,3.793,2.4,2.4,0,0,1-.409,1.025,1.074,1.074,0,0,1-1.788-.078,3.663,3.663,0,0,1-.425-.963,2.764,2.764,0,0,0-1.724-1.872,7.794,7.794,0,0,0-3.238-.528c-1.631.024-3.27.106-4.891-.015a6.391,6.391,0,0,1-2.346-.817c-1.007-.522-.935-1.531-.8-2.461a2.966,2.966,0,0,1,2.4-2.517c.495-.106,1-.181,1.5-.25A5.172,5.172,0,0,1,2449.219,1427.039Z" transform="translate(-1495.594 -172.256)"/><path class="a" d="M2315.291,1575.3H2312.1c-.119-.607-.252-1.379-.423-2.142a22.551,22.551,0,0,1-.742-6.287,6.769,6.769,0,0,1,1.076-3.423c.233,2.121,1.472,2.9,3.455,2.677.3,1.29.671,2.52.847,3.777a4.217,4.217,0,0,1-.336,1.855A7.285,7.285,0,0,0,2315.291,1575.3Z" transform="translate(-1379.715 -290.527)"/><path class="a" d="M2248.827,1461.581a2.785,2.785,0,0,1-.163.763c-.892,1.418-.926,3.057-1.2,4.63-.116.67-.067,1.368-.164,2.042a.87.87,0,0,1-.448.585,4.719,4.719,0,0,1-1.632.44,1.886,1.886,0,0,1-1.193-.531,1.174,1.174,0,0,1-.175-.995c.259-.881.714-1.709.928-2.6a14.426,14.426,0,0,0-.033-5.917c-.015-.086-.091-.2-.061-.251.139-.245.306-.474.462-.709a2.974,2.974,0,0,1,.415.592c.219.563.356,1.16.595,1.713.292.677.845.74,1.489.523C2247.979,1461.757,2248.325,1461.7,2248.827,1461.581Z" transform="translate(-1321.544 -200.008)"/><path class="a" d="M2538.788,1671.1c-.924-.671-1.776-1.256-2.59-1.891a2.046,2.046,0,0,1-.66-2.549,3.476,3.476,0,0,1,2.979-2.471,1.3,1.3,0,0,1,1.591,1.106,5.585,5.585,0,0,0,1.312,2.765.49.49,0,0,1-.129.837A5.594,5.594,0,0,0,2538.788,1671.1Z" transform="translate(-1574.29 -377.855)"/><path class="a" d="M2627.267,1737.093a2.758,2.758,0,0,1-.19.672c-.314.6-.823.7-1.275.2-.417-.46-.7-.389-1.155-.022a3.3,3.3,0,0,1-2.911.436c-.236-.053-.4-.573-.53-.905-.192-.508-.3-1.049-.482-1.56a1,1,0,0,1,.826-1.313,4.021,4.021,0,0,1,1.321.322,1.257,1.257,0,0,0,1.41-.133,1.546,1.546,0,0,1,1.115-.159A2.572,2.572,0,0,1,2627.267,1737.093Z" transform="translate(-1648.264 -438.903)"/><path class="a" d="M2575.888,1710.686c-.658.065-1.315.154-1.975.184a1.937,1.937,0,0,1-.929-.145,2.891,2.891,0,0,0-3.5.312,1.365,1.365,0,0,1-1.176.282,1.524,1.524,0,0,1-.551-1.11c-.171-2.07,1.392-3.181,3.31-2.385a4.765,4.765,0,0,1,1.033.586,9.225,9.225,0,0,0,3.416,1.685c.2.048.357.294.534.448Z" transform="translate(-1602.376 -415.469)"/><path class="a" d="M2584.324,1737.17a3.171,3.171,0,0,1-2.239-.974,1.843,1.843,0,0,1,1.054-3.177,3.086,3.086,0,0,1,3.2,1.917A1.787,1.787,0,0,1,2584.324,1737.17Z" transform="translate(-1614.311 -437.5)"/><path class="a" d="M2314.488,1400.645c-.468,2.281-.912,4.46-1.363,6.637a11.23,11.23,0,0,1-.318,1.281.593.593,0,0,1-.376.36.58.58,0,0,1-.469-.239,2.149,2.149,0,0,0-1.634-1.2c-.437-.059-.462-.479-.039-.906a11.749,11.749,0,0,0,2.6-4.112c.238-.615.373-1.269.618-1.88.086-.214.362-.352.551-.525Z" transform="translate(-1378.91 -148.873)"/><path class="a" d="M2578.712,1571.107c.2-.329.388-.672.614-.984a5.867,5.867,0,0,0,.633-.76,2.283,2.283,0,0,0,.06-.822c-.229.094-.526.129-.675.3-.372.415-.644.344-.854-.1-.425-.9-.821-1.809-1.226-2.715-.187-.418.048-.592.387-.46,1.248.485,2.49.992,3.7,1.555a1.114,1.114,0,0,1,.511,1.532,5.525,5.525,0,0,1-2.025,2.565c-.228.173-.659.08-1,.108Z" transform="translate(-1610.573 -292.317)"/><path class="a" d="M2532.477,1612.438a4.148,4.148,0,0,1,.711-1.129,1,1,0,0,1,.948.092c.28.225.381.665.582,1,.135.224.3.586.47.595a1.134,1.134,0,0,0,.777-.369,2.383,2.383,0,0,1,3.365-.255c.142.12.3.368.268.515-.047.208-.249.51-.414.53a.768.768,0,0,1-.653-.312c-.22-.54-.614-.565-1.077-.528a.952.952,0,0,0-.854.8.513.513,0,0,0-.021.063c-.3,1.765-.679,1.655-2.239,1.522-1.158-.1-1.682-.9-1.695-2.289,0-.044,0-.088,0-.133Z" transform="translate(-1571.802 -331.945)"/><path class="a" d="M2311.39,1658.72a2.9,2.9,0,0,1,2.656,1.675c.121.26.2.775.075.865a2.093,2.093,0,0,1-1.082.3c-.241.012-.488-.187-.74-.26-.209-.061-.505-.185-.636-.1-.92.628-1.828-.061-2.736.022-.3.028-.542-.042-.41-.451A3.555,3.555,0,0,1,2311.39,1658.72Z" transform="translate(-1377.606 -373.121)"/><path class="a" d="M2481.6,1639.324c-.3.409-.594.817-.887,1.229a5.24,5.24,0,0,0-.745,4.957,1.05,1.05,0,0,1-1.05,1.457.7.7,0,0,1-.687-.665,7.14,7.14,0,0,1,1.622-5.8,10.733,10.733,0,0,1,1.088-1.158c.138-.127.385-.135.583-.2Z" transform="translate(-1524.687 -356.156)"/><path class="a" d="M2518.021,1662.309c-.923.815-.961,1.925-1.148,2.979-.134.751-.411,1.057-.989.945-.239-.046-.61-.273-.629-.449a7.955,7.955,0,0,1-.089-2.717C2515.556,1661.545,2516.666,1661.293,2518.021,1662.309Z" transform="translate(-1556.711 -375.704)"/><path class="a" d="M2297.275,1683.341a1.6,1.6,0,0,1-1.566,1.769,1.8,1.8,0,0,1-1.512-1.8,1.555,1.555,0,1,1,3.078.028Z" transform="translate(-1365.223 -392.915)"/><path class="a" d="M2251.539,1548.731a1.237,1.237,0,0,1-1.3,1.349,1.868,1.868,0,0,1-1.858-1.839,1.73,1.73,0,0,1,1.4-1.742C2250.632,1546.488,2251.54,1547.641,2251.539,1548.731Z" transform="translate(-1325.505 -275.83)"/><path class="a" d="M2497.785,1654.744a7.438,7.438,0,0,1,1.235-4.052c.25-.4.573-.541.918-.3.14.1.148.539.067.773a10.8,10.8,0,0,0-.927,4.026c.02.443-.048,1.1-.6,1.1-.607,0-.729-.6-.7-1.147C2497.791,1655.01,2497.785,1654.877,2497.785,1654.744Z" transform="translate(-1541.72 -365.8)"/><path class="a" d="M2326.742,1687.112a1.749,1.749,0,0,1-1.341,1.745c-.662.047-1.254-.581-1.286-1.478a3.82,3.82,0,0,1,.228-1.338c.16-.469.561-.849,1.06-.686a2.413,2.413,0,0,1,1.073.834A2.378,2.378,0,0,1,2326.742,1687.112Z" transform="translate(-1391.16 -396.18)"/><path class="a" d="M2228,1546.973c-.006.828-.413,1.126-1.5,1.1a1.226,1.226,0,0,1-1.291-1.146,2.032,2.032,0,0,1,1.726-1.817C2227.627,1545.136,2228.011,1545.807,2228,1546.973Z" transform="translate(-1305.414 -274.627)"/><path class="a" d="M2276.556,1547.974a1.107,1.107,0,0,1,1.4.161,4.124,4.124,0,0,1,.887,1.482c.241.78-.054,1.27-.618,1.353a1.2,1.2,0,0,1-1.447-1.168c-.022-.307.017-.62-.017-.926A8.121,8.121,0,0,0,2276.556,1547.974Z" transform="translate(-1349.929 -276.958)"/></g></svg>