<svg xmlns="http://www.w3.org/2000/svg" width="53.781" height="54.753" viewBox="0 0 53.781 54.753"><defs><style>.a{fill:#fff;}</style></defs><g transform="translate(-1100.219 -1423.001)"><path class="a" d="M1974.8,1404.405c-3.035-1.309-5.465-3.494-7.993-5.535-.315-.255-.277-.511-.005-.76a3.382,3.382,0,0,1,.429-.314q4.957-3.248,9.915-6.494c.177-.115.351-.234.537-.359-.8-3.2-1.586-6.364-2.4-9.526-.422-1.645-.01-1.817,1.383-1.693a23.753,23.753,0,0,0,5.806-.119,11.754,11.754,0,0,0,5.062-1.842,7.482,7.482,0,0,0,3.191-6.05,20.016,20.016,0,0,0-1.648-8.358c-.458-1.192-1.025-2.341-1.524-3.518a1.542,1.542,0,0,1-.019-.533,1.628,1.628,0,0,1,.546.021q1.746.718,3.476,1.478a3.2,3.2,0,0,0,3.368-.441c.93-.683,1.789-1.463,2.694-2.18a10.854,10.854,0,0,1,.98-.626l.184.144a6.835,6.835,0,0,1-.186.826c-.848,2.391-1.778,4.756-2.53,7.176a15.434,15.434,0,0,0-.426,3.365,6.191,6.191,0,0,0,.2,1.358c.18-.093.288-.142.39-.2a1.292,1.292,0,0,1,1.546-.046,1.59,1.59,0,0,1,.8,1.6,47.106,47.106,0,0,1-4.357,13.867,29.326,29.326,0,0,1-6.992,9.731,15,15,0,0,1-7.42,3.642,6.028,6.028,0,0,1-1.273.125.916.916,0,0,0-1,.76c-.209.7-.391,1.4-.591,2.1-.107.375-.224.747-.346,1.117a2.079,2.079,0,0,1-1.052,1.282Z" transform="translate(-844.786 73.349)"/><path class="a" d="M1860.07,1365.288c.094-.348.151-.634.247-.907.842-2.375,1.762-4.724,2.506-7.129a15.467,15.467,0,0,0,.425-3.366,6.115,6.115,0,0,0-.206-1.354c-.183.1-.292.15-.4.21a1.29,1.29,0,0,1-1.545.032,1.6,1.6,0,0,1-.793-1.6,47.59,47.59,0,0,1,4.336-13.82,32.108,32.108,0,0,1,4.978-7.742,16.369,16.369,0,0,1,8.325-5.412,14,14,0,0,1,2.418-.375.947.947,0,0,0,.972-.729c.218-.731.406-1.471.622-2.2a12.744,12.744,0,0,1,.441-1.31,1.349,1.349,0,0,1,2.058-.825,29.866,29.866,0,0,1,3.518,2.1c1.351.954,2.613,2.034,3.905,3.069.6.484.586.715-.083,1.154q-3.749,2.461-7.5,4.913c-1.025.671-2.049,1.344-3.082,2.021.8,3.182,1.585,6.332,2.378,9.48.407,1.615.2,1.875-1.472,1.732a21.675,21.675,0,0,0-7.317.456c-2.851.735-5.138,2.185-6.167,5.113a10.956,10.956,0,0,0-.319,5.379,32.038,32.038,0,0,0,2.974,8.857,1.979,1.979,0,0,1,.072.624,2.646,2.646,0,0,1-.641-.077c-1.407-.533-2.805-1.092-4.211-1.629a2.019,2.019,0,0,0-1.885.292c-1.084.736-2.109,1.561-3.147,2.364C1861.089,1364.9,1860.791,1365.34,1860.07,1365.288Z" transform="translate(-759.851 104.463)"/><path class="a" d="M1938.576,1467.845l-8.771,6.076c-.424.294-.852.583-1.27.886a.657.657,0,0,1-.952-.074,34.27,34.27,0,0,1-6.987-9.039,8.9,8.9,0,0,1-1.133-4.919,10.01,10.01,0,0,1,.5-1.835.728.728,0,0,1,.91-.545c1,.211,2.009.418,2.992.7.726.209,1.418.538,2.248.861-.565-.58-1.06-1.045-1.5-1.553a18.114,18.114,0,0,1-1.427-1.789c-.513-.762-.364-1.183.511-1.406a8.776,8.776,0,0,1,2.155-.3,42.59,42.59,0,0,1,9.221,1.3c.48.108.66.49.771.927q1.152,4.514,2.311,9.025C1938.293,1466.7,1938.428,1467.255,1938.576,1467.845Zm-10.561-2.667a1.568,1.568,0,1,0-1.6,1.57A1.547,1.547,0,0,0,1928.015,1465.178Z" transform="translate(-807.183 -4.276)"/><path class="a" d="M1984.673,1368.413c.8.833,1.533,1.555,2.21,2.329a7.467,7.467,0,0,1,.9,1.374.577.577,0,0,1-.384.921,9.719,9.719,0,0,1-2.662.405c-2.193-.161-4.376-.476-6.559-.766-.772-.1-1.527-.326-2.295-.468a1.067,1.067,0,0,1-.913-.85q-1.344-5.26-2.669-10.525a.589.589,0,0,1,.2-.5q4.876-3.411,9.773-6.794a.615.615,0,0,1,.867.046c3.062,3.031,5.926,6.212,7.559,10.287a7.128,7.128,0,0,1,.442,4.74c-.4,1.38-.776,1.629-2.158,1.248-1.262-.348-2.491-.815-3.735-1.232C1985.09,1368.578,1984.933,1368.513,1984.673,1368.413Zm-.329-3.649a1.571,1.571,0,0,0-.016-3.142,1.571,1.571,0,0,0,.016,3.142Z" transform="translate(-849.341 76.675)"/></g></svg>