<svg xmlns="http://www.w3.org/2000/svg" width="38" height="38" viewBox="0 0 38 38"><defs><style>.a{fill:#FF9C05;}.b{fill:#fff;}</style></defs><g transform="translate(-695 -450)"><circle class="a" cx="19" cy="19" r="19" transform="translate(695 450)"/><path class="b" d="M37.609,12.668H26.2a1.391,1.391,0,0,0-1.392,1.392V29.276A1.391,1.391,0,0,0,26.2,30.667H37.609A1.392,1.392,0,0,0,39,29.276V14.06A1.392,1.392,0,0,0,37.609,12.668ZM36.426,25.827H27.38V24.436h9.046v1.392Zm0-3.757H27.38V20.679h9.046V22.07Zm0-3.757H27.38V16.921h9.046v1.392Z" transform="translate(682.234 447.263)"/></g></svg>