<svg xmlns="http://www.w3.org/2000/svg" width="55" height="46.161" viewBox="0 0 55 46.161"><defs><style>.a{fill:#fff;}</style></defs><g transform="translate(-390 -1428)"><path class="a" d="M565.177,1138.3l1.62-4.954.2.025v1.564l.266.019c.223-1.5.378-3.021.694-4.5a6.54,6.54,0,0,1,.972-2.356c.931-1.324,2.128-1.354,4.142-.3.228,1.121.74,1.87,2.056,1.566l1.057-.137c-1.2,2.182-2.079,2.585-3.121,1.683-3.043,2.506-4.593,6.33-7.883,8.615Z" transform="translate(-175.177 324.584)"/><path class="a" d="M668.18,1182.49c-.169-.18-.482-.357-.486-.54-.056-2.462-.069-4.926-.093-7.389l-.048.049c.839-.258,1.257.117,1.337.926.182,1.848.411,3.7.466,5.55.014.459-.564.936-.87,1.4Z" transform="translate(-246.135 291.671)"/><path class="a" d="M628.734,1136.122c.983-.517,1.978-1.013,2.946-1.556a5.456,5.456,0,0,1,8,3.786c.072.393.089.8.132,1.2,1.656-.287,4.446,1.863,5.711,4.357l-1.766.955c-1.148-.215-1-2.812-2.975-1.67-.766-.913-.79-2.781-2.449-2.532s-1.719,1.716-1.27,3.575c-2.376-.995-4.417-3-6.707-.931-3.756-2.95-5.332-4.409-1.576-7.227Z" transform="translate(-217.77 319.847)"/><path class="a" d="M652.194,1119.53a52.32,52.32,0,0,1,5.1-1.962,54.025,54.025,0,0,1,7.4-1.536,3.46,3.46,0,0,1,2.428,1.15,1.332,1.332,0,0,1-.85,2.363c-1.812.119-2.63,1.309-3.55,2.528-.281.371-.75.953-1.043.9-1.893-.32-2.315,1.114-2.911,2.308-.364.73-.673,1.391-1.781.985-.418-3.147-2.656-4.585-5.516-5.408-.272-.078-.473-.4-.707-.612Z" transform="translate(-234.503 332.224)"/><path class="a" d="M603.415,1173.6a5.3,5.3,0,0,1-4.062,1.732c-2.336.048-4.671.22-7.006.213a15.988,15.988,0,0,1-2.863-.518l.037-.447,4.84-.843-5-1.583.087-.581c1.375-.078,2.766-.053,4.121-.259,1.736-.264,3.437-.752,5.167-1.07a14.228,14.228,0,0,1,3.436-.378c1.251.082,1.517,1.2,1.556,2.253a6.08,6.08,0,0,1-.314,1.482Z" transform="translate(-191.936 294.914)"/><path class="a" d="M605.526,1127.212c.706.489,1.45.933,2.106,1.482a5.514,5.514,0,0,0,1.494,1.2l-.972-1.267,1.518-1.218,1.932,3.851-1.486,3.813a14.172,14.172,0,0,1-6-5.45c-.191-.3.128-.925.21-1.4Z" transform="translate(-202.127 324.467)"/><path class="a" d="M635.15,1169.347c1.71-1.244.516-2.559.044-4.025,1.156-.752,2.222-1.8,3.833-1.576,1.277.18,2.431.729,2.672,2.106a2.413,2.413,0,0,1-1.684,2.768,31.71,31.71,0,0,1-4.858.724Z" transform="translate(-223.677 299.166)"/><path class="a" d="M685.189,1057.677c.259-.282.512-.569.778-.844a1.779,1.779,0,0,0,.376-2.534,3.122,3.122,0,0,1-.28-2.3,2.533,2.533,0,0,1,2.774-1.92,3.146,3.146,0,0,1,2.013,1.469c.625,1.143.074,2.248-.858,3.117-.774.722-1.493,1.516-2.331,2.156a17.156,17.156,0,0,1-2.233,1.251Z" transform="translate(-258.36 377.949)"/><path class="a" d="M641.283,1113.647l-1.424.72c-.208-.285-.613-.586-.592-.852.1-1.254.32-2.5.513-3.857l-4.752,1.461a18.115,18.115,0,0,1,.883-2.761,1.883,1.883,0,0,1,1.181-.6c1.116,1.463,2.24.271,3.273-.012,1.725-.472,2.216-.222,1.957,1.532C642.1,1110.752,641.638,1112.191,641.283,1113.647Z" transform="translate(-223.592 338.106)"/><path class="a" d="M709.857,1054.874a20.084,20.084,0,0,1-4.377-1.449c-.679-.4-.8-1.737-1.173-2.633a6.232,6.232,0,0,1,6.6,1.057,1.347,1.347,0,0,1-.086,2.208c-.33.3-.672.577-1.009.866Z" transform="translate(-271.611 377.79)"/><path class="a" d="M701.111,1111.406a3.534,3.534,0,0,0-2.75-3.525c1.3-1.394,2.553-2.808,4.495-2.494.731.119,1.858,1.3,1.828,1.954C704.592,1109.333,703.075,1110.463,701.111,1111.406Z" transform="translate(-267.49 339.625)"/><path class="a" d="M593.776,1122.434l-1.2,1.008-2.255,1.251c-1.315.3-1.827-.445-2.056-1.566l-1.162-1.33c1.239-1.832,4.921-2,6.734-.293l-.053-.053Z" transform="translate(-190.376 329.245)"/><path class="a" d="M720.539,1093.8l-2.931,3.818a18.42,18.42,0,0,1-2.147-2.051,1.692,1.692,0,0,1-.239-1.493,21.4,21.4,0,0,1,2.007-2.442Z" transform="translate(-279.111 349.126)"/><path class="a" d="M722.24,1062.226l2.586-1.408a5.769,5.769,0,0,1,1.994,3.883c.018.571-.273,1.557-.612,1.647-.641.171-1.778.08-2.07-.343a24.942,24.942,0,0,1-1.851-3.827Z" transform="translate(-284.04 370.486)"/><path class="a" d="M687.261,1145.434c-1.567-.825-3.175-1.584-4.68-2.512-.532-.328-.812-1.067-1.43-1.929h2.7l2.319.913,2.26,1.257-1.179,2.306Z" transform="translate(-255.562 314.915)"/><path class="a" d="M721.444,1136.218l1.211-.91c.543,1.548.762,3.334,1.711,4.551s2.619,1.841,4.085,2.8c-1.23.92-2.317.418-3.3-.112a6.722,6.722,0,0,1-3.765-6.21Z" transform="translate(-283.452 318.855)"/><path class="a" d="M708.41,1131.657l-.053.118c-2.446,1.074-5.478-.416-5.771-3a13.286,13.286,0,0,1,6.711,1.438Z" transform="translate(-270.418 323.416)"/><path class="a" d="M608.929,1118.854c.372-1.893,1.527-2.7,3.245-2.225a16.027,16.027,0,0,1,2.7.915c.306.148.386.761.569,1.162l-1.318.675c-1.089-.2-2.177-.4-3.268-.592a1.545,1.545,0,0,0-.137.312l1.655.67-1.325,1.36-1.436-2.043.308-.244-1.051-.046Z" transform="translate(-205.465 331.896)"/><path class="a" d="M728.083,1080.353c0,.74.061,1.665-.016,2.58-.088,1.035-.595,1.772-1.782,1.522-1.079-.227-1.915-.841-1.844-2.056a17.515,17.515,0,0,1,.514-2.57Z" transform="translate(-285.563 357.31)"/><path class="a" d="M701.033,1152.315l1.028-1.444,5,7.545c-1.161.548-2.132-.185-2.778-1.06-1.191-1.612-2.17-3.38-3.24-5.079C701.041,1152.281,701.033,1152.315,701.033,1152.315Z" transform="translate(-269.342 308.068)"/><path class="a" d="M685.109,1168.7a3.718,3.718,0,0,1,.449.608c.791,1.551,1.579,3.1,2.326,4.675.155.327.293.976.164,1.061a1.487,1.487,0,0,1-1.219.241,3.134,3.134,0,0,1-1.277-1.213,39.348,39.348,0,0,1-1.735-3.705C683.444,1169.483,684,1168.666,685.109,1168.7Z" transform="translate(-257.328 295.709)"/><path class="a" d="M657.733,1098.333a5.926,5.926,0,0,1-1.839.414c-.55-.052-1.036-.628-1.6-.747a12.942,12.942,0,0,0-2.375-.032,24.752,24.752,0,0,1,1.769-2.894c.912-1.108,1.719-.88,2.1.507.275,1,.307,2.168,1.889,2.11Z" transform="translate(-235.301 347.229)"/><path class="a" d="M663.407,1162.9c-1.122-.5-2.373-3.733-1.73-4.63a1,1,0,0,1,1.842.091,36.476,36.476,0,0,1,1.483,3.867l-1.644.72Z" transform="translate(-241.942 303.336)"/><path class="a" d="M637.034,1124.092a27.221,27.221,0,0,1-.988-3.58,1.809,1.809,0,0,1,.8-1.49c.748-.364,1.331.127,1.521.96a7.551,7.551,0,0,1,.492,2.488c-.092.665-.8,1.245-1.228,1.863Z" transform="translate(-224.293 330.229)"/><path class="a" d="M625.994,1124.378l1.318-.676c.343.185.852.286.995.571.31.618.377,1.352.643,2,.46,1.113.514,2.083-.654,2.8l.042-.047c-.334-.213-.848-.357-.968-.657C626.849,1127.059,626.442,1125.71,625.994,1124.378Z" transform="translate(-217.331 326.9)"/><path class="a" d="M692.27,1133.755l-2.319-.913a5.081,5.081,0,0,1,3.078-3.609C694.054,1131.029,693.948,1131.657,692.27,1133.755Z" transform="translate(-261.66 323.065)"/><path class="a" d="M678.03,1148.119l-2.074-1.866,1.232-2.161,1.755,1.654Z" transform="translate(-251.96 312.768)"/></g></svg>