<svg xmlns="http://www.w3.org/2000/svg" width="58.475" height="49.982" viewBox="0 0 58.475 49.982"><defs><style>.a{fill:#f8f8f8;}</style></defs><g transform="translate(-743.525 -1242)"><path class="a" d="M2214.167,2094.908a2.156,2.156,0,0,1-1.24-1.665,12.592,12.592,0,0,1,.761-7.909,4.05,4.05,0,0,1,.58-.908c.654-.806,1.118-.838,1.86-.122.437.422.821.9,1.253,1.327a.5.5,0,0,1,.066.7c-.744,1.41-1.456,2.836-2.207,4.243a8.025,8.025,0,0,0-.958,4.333Z" transform="translate(-1460.705 -802.926)"/><path class="a" d="M2537.393,2094.863a7.976,7.976,0,0,0-.939-4.279c-.746-1.407-1.455-2.834-2.207-4.239a.567.567,0,0,1,.094-.792c.5-.49.992-1,1.472-1.509a.741.741,0,0,1,1.185-.012,3.6,3.6,0,0,1,.809.938,12.178,12.178,0,0,1,.885,8.417,2.307,2.307,0,0,1-1.071,1.475Z" transform="translate(-1745.437 -802.882)"/><path class="a" d="M2139.348,2040.092c.307-1.067.571-2.149.933-3.2a7.418,7.418,0,0,1,1.743-2.9,2.107,2.107,0,0,1,1.772-.738,1.366,1.366,0,0,1,.829.307,25.665,25.665,0,0,1,1.617,2.193c.182.271.2.592-.291.632a6.253,6.253,0,0,0-3.755,1.964,11.128,11.128,0,0,0-2.579,3.674l-.27-.218Z" transform="translate(-1395.823 -758.156)"/><path class="a" d="M2276.473,1959.518a20.835,20.835,0,0,1-10.619-2.9,16.512,16.512,0,0,1-4.557-3.568c-1.3-1.527-1.256-2.432.263-3.772a24.874,24.874,0,0,1,7.856-4.406,17.434,17.434,0,0,1,6.474-1.384,16.049,16.049,0,0,1,4.792.914,29.018,29.018,0,0,1,8.743,4.434,8.534,8.534,0,0,1,1.041.971c.869.942.99,1.654.2,2.633a16,16,0,0,1-2.6,2.609,22.029,22.029,0,0,1-9.7,4.268C2277.708,1959.432,2277.039,1959.459,2276.473,1959.518Z" transform="translate(-1502.996 -678.672)"/><path class="a" d="M2187.285,1749.879c.558.511,1.03,1,1.557,1.416a11.987,11.987,0,0,0,4.808,2.365,2.583,2.583,0,0,0,3.186-2.2,11.584,11.584,0,0,0-.178-4.13c-.144-.858-.32-1.711-.489-2.606.076,0,.153-.023.206,0a24.932,24.932,0,0,1,3.462,1.8c2.286,1.659,2.931,4.151,2.064,7.021a19.781,19.781,0,0,1-3.357,6.038c-.38.51-.973.469-1.5.541-3.5.472-6.11-1.115-8.175-3.727A8.8,8.8,0,0,1,2187.285,1749.879Z" transform="translate(-1438.222 -502.64)"/><path class="a" d="M2486.374,1749.447c.55,5-2.346,8.66-6.822,10.039a8.827,8.827,0,0,1-3.831-.043.951.951,0,0,1-.558-.359,19.384,19.384,0,0,1-3.236-5.593c-1.309-3.984-.03-6.919,3.791-8.671.557-.255,1.135-.467,1.787-.733-.223,1.225-.458,2.315-.613,3.416a8.281,8.281,0,0,0,.068,3.893,2.416,2.416,0,0,0,3.032,1.715,11.49,11.49,0,0,0,5.909-3.34,2.933,2.933,0,0,0,.314-.464Z" transform="translate(-1689.911 -502.087)"/><path class="a" d="M2204.174,1941.073c-.571,0-1.141-.007-1.711,0a.967.967,0,0,1-1.043-.706,5.354,5.354,0,0,1,.376-4.606,1.73,1.73,0,0,1,1.915-.887,15.231,15.231,0,0,1,4.4,1.089,6.11,6.11,0,0,1,1.853,1.27,1.746,1.746,0,0,1-.7,3.078,21.273,21.273,0,0,1-3.6.745,9.1,9.1,0,0,1-1.481.013Z" transform="translate(-1450.487 -671.021)"/><path class="a" d="M2511.929,1941.1a12.848,12.848,0,0,1-4.873-.667c-1.7-.686-1.97-2.176-.629-3.435a7.868,7.868,0,0,1,3.8-1.7,23.462,23.462,0,0,1,2.639-.422,1.551,1.551,0,0,1,1.488.882,5.275,5.275,0,0,1,.564,4.115c-.225,1.039-.443,1.2-1.5,1.225C2512.917,1941.11,2512.423,1941.1,2511.929,1941.1Z" transform="translate(-1720.151 -671.038)"/><path class="a" d="M2530.225,2003.088a10.047,10.047,0,0,1-4.216-1.285c-.439-.249-.542-.526-.238-.956.482-.682.936-1.385,1.412-2.072a1.126,1.126,0,0,0,.188-1.121,2.118,2.118,0,0,1-.089-.561c-.058-.639.235-1,.845-.853a15.893,15.893,0,0,1,2.8.914,18.431,18.431,0,0,1,2.441,1.449,1.241,1.241,0,0,1,.509,1.489,5.577,5.577,0,0,1-1.549,2.544C2531.827,2003.157,2531.12,2003.123,2530.225,2003.088Z" transform="translate(-1737.881 -725.362)"/><path class="a" d="M2194.736,2002.974c-1.715.288-2.856-1.581-3.29-2.926a1.32,1.32,0,0,1,.509-1.646,12.257,12.257,0,0,1,5.2-2.329c.589-.1.893.207.865.8a.181.181,0,0,1-.01.056,2.4,2.4,0,0,0,.675,2.529c.326.417.58.89.883,1.326.241.347.181.636-.192.782-1.106.434-2.217.857-3.343,1.232A6.76,6.76,0,0,1,2194.736,2002.974Z" transform="translate(-1441.872 -725.228)"/><path class="a" d="M2246.529,2052.97c-.588,0-1.176,0-1.764,0-.125,0-.293,0-.366-.075-.623-.633-1.253-1.261-1.828-1.936a.768.768,0,0,1,.086-1.162c.751-.693,1.477-1.412,2.23-2.1a1.207,1.207,0,0,1,1.421-.169,12.34,12.34,0,0,1,3.636,2.4,4.063,4.063,0,0,1,.772,1.043.871.871,0,0,1-.508,1.374,29.793,29.793,0,0,1-3,.553,4.215,4.215,0,0,1-.683.005Z" transform="translate(-1487.036 -770.671)"/><path class="a" d="M2471.544,2051.484a10.3,10.3,0,0,1,1.033-1.483,11.623,11.623,0,0,1,3.827-2.517.991.991,0,0,1,1.12.111c.867.79,1.735,1.582,2.536,2.436a.949.949,0,0,1-.048.907c-.566.7-1.222,1.337-1.849,1.992a.291.291,0,0,1-.2.088c-1.642-.13-3.284-.256-4.923-.413a1.613,1.613,0,0,1-.786-.3A5.365,5.365,0,0,1,2471.544,2051.484Z" transform="translate(-1690.012 -770.666)"/><path class="a" d="M2596.139,2042.035c-.6-.924-1.093-1.778-1.686-2.552a8.1,8.1,0,0,0-3.783-2.91,4.217,4.217,0,0,0-.885-.187c-.528-.061-.662-.223-.391-.689a12.721,12.721,0,0,1,1.113-1.578,2.558,2.558,0,0,1,.865-.775,1.9,1.9,0,0,1,2.2.623,9.575,9.575,0,0,1,2.318,4.685,20.3,20.3,0,0,1,.358,2.584A3.537,3.537,0,0,1,2596.139,2042.035Z" transform="translate(-1794.257 -758.116)"/><path class="a" d="M2487.14,1887.721a8.34,8.34,0,0,1-.8,3.627c-.3.59-.521.691-1.145.444-.545-.216-1.057-.514-1.591-.76a7.116,7.116,0,0,0-1.1-.441.746.746,0,0,1-.619-.88,4.338,4.338,0,0,1,3.885-3.976c.821-.062,1.188.231,1.318,1.067A8.488,8.488,0,0,1,2487.14,1887.721Z" transform="translate(-1699.159 -627.523)"/><path class="a" d="M2261.892,1887.411c0-.029.017-.142.018-.256.021-1.9.853-1.936,2.278-1.527a4.383,4.383,0,0,1,2.969,3.748.779.779,0,0,1-.577.906c-.709.25-1.377.615-2.064.927-.258.117-.513.246-.78.337a.744.744,0,0,1-1.022-.428A8.749,8.749,0,0,1,2261.892,1887.411Z" transform="translate(-1504.346 -627.248)"/><path class="a" d="M2141.673,1966a3.868,3.868,0,0,1-.022-3.383,10.657,10.657,0,0,1,4.245-4.934,2.716,2.716,0,0,1,.3-.16c.954-.45,1.229-.276,1.23.78,0,.609-.043,1.221.012,1.825a1.177,1.177,0,0,1-.756,1.262c-.542.272-1.092.532-1.627.818A6.878,6.878,0,0,0,2141.673,1966Z" transform="translate(-1397.526 -690.897)"/><path class="a" d="M2600.089,1966.229a7.281,7.281,0,0,0-4.359-4.268c-1.039-.444-1.6-1.047-1.406-2.241a15.2,15.2,0,0,0,.023-1.595c.031-.551.266-.693.8-.534a2.029,2.029,0,0,1,.477.184,10.174,10.174,0,0,1,4.72,5.774A3.4,3.4,0,0,1,2600.089,1966.229Z" transform="translate(-1798.709 -691.11)"/><path class="a" d="M2286.708,1928.379a9.555,9.555,0,0,1,3.249,1.107c.312.187.468.423.022.662-1.3.7-2.594,1.428-3.913,2.1a2.854,2.854,0,0,1-2.972-.992.971.971,0,0,1,.132-1.211A5.411,5.411,0,0,1,2286.708,1928.379Z" transform="translate(-1522.988 -665.294)"/><path class="a" d="M2450.41,1931.648a3.929,3.929,0,0,1-.233.63,2.837,2.837,0,0,1-3.031.936c-1.3-.662-2.575-1.385-3.86-2.082-.343-.186-.3-.372-.026-.6a5.217,5.217,0,0,1,6.6.281A4.941,4.941,0,0,1,2450.41,1931.648Z" transform="translate(-1664.772 -666.275)"/></g></svg>