<svg xmlns="http://www.w3.org/2000/svg" width="48" height="41.81" viewBox="0 0 48 41.81"><defs><style>.a{fill:#f8f8f8;}</style></defs><g transform="translate(-395 -1246.001)"><path class="a" d="M3420.711,1650.387a21.832,21.832,0,0,1-.643,2.233,15.151,15.151,0,0,1-4.262,5.672c-.416.366-.844.719-1.306,1.112.734.06,1.415.085,2.085.182a6.42,6.42,0,0,1,1.441.368c.875.346,1.1.971.507,1.687a13.032,13.032,0,0,1-2.126,2.083,10.317,10.317,0,0,1-4.455,2.061,4.99,4.99,0,0,1-3.083-.717c-.389-.188-.757-.419-1.134-.63-.21,1.158-.389,2.294-.625,3.418a15.377,15.377,0,0,1-1.821,4.877,6.491,6.491,0,0,1-1.989,2.14c.037.042.051.076.073.083.883.272,1.279.5,1.119,1.863a3.732,3.732,0,0,1-.657,1.955c-.662-.531-1.4-.375-2.018.4-.562.7-.5,1.156.268,1.759a6.027,6.027,0,0,1-5.243,2.428,6.16,6.16,0,0,1-5.488-2.42c.785-.638.837-1.081.248-1.794-.621-.751-1.359-.9-1.983-.369a3.6,3.6,0,0,1-.665-1.8,2.745,2.745,0,0,1-.046-.652c.025-.767.231-1.03.975-1.289.085-.03.165-.075.251-.115-2.343-1.784-3.177-4.368-3.8-7.051-.26-1.119-.418-2.262-.625-3.408-.54.279-1.085.571-1.639.846a4.585,4.585,0,0,1-3.971.114,12.972,12.972,0,0,1-4.49-2.891,5.966,5.966,0,0,1-.825-1.069c-.358-.6-.237-1.144.412-1.382a14.45,14.45,0,0,1,2.436-.578c.4-.072.829-.012,1.267-.122-.433-.368-.874-.727-1.3-1.105a14.837,14.837,0,0,1-4.431-6.161,7.572,7.572,0,0,1,1.246-7.368,16.4,16.4,0,0,1,1.665-1.834c.474-.468,1.016-.868,1.6-1.36-.142.773-.283,1.434-.382,2.1a16.719,16.719,0,0,0-.165,1.72.514.514,0,0,1-.347.529,3.586,3.586,0,0,0-1.817,1.481,7.522,7.522,0,0,0-.371.938l2.5-1.9c.133.845.24,1.532.354,2.259a3.276,3.276,0,0,0-1.955,2.392l2.139-1.727.895,1.739a3.172,3.172,0,0,0-1.188,2.375l1.567-1.78c.472.442.911.83,1.314,1.254.063.066-.009.308-.075.44a3.112,3.112,0,0,0-.4,2.155c.028.118.074.232.1.329l1.022-2.386c.724.354,1.373.65,1.993,1,.1.056.14.346.105.506a2.983,2.983,0,0,0,.542,2.831,7.972,7.972,0,0,1,.286-3c.283.072.539.131.79.2a3.805,3.805,0,0,0,2.531-.083,27.817,27.817,0,0,1,12.474-1.516,28.57,28.57,0,0,1,7.438,1.737,4.021,4.021,0,0,0,1.725-.116,6.676,6.676,0,0,0,.872-.227,7.915,7.915,0,0,1,.279,3.022,2.855,2.855,0,0,0,.633-2.4c-.148-.888-.158-.876.662-1.265.42-.2.821-.438,1.332-.714l1.024,2.347a1.809,1.809,0,0,0,.075-1.521c-.11-.338-.287-.654-.405-.99a.473.473,0,0,1,.016-.391c.389-.4.807-.776,1.271-1.214l1.515,1.727c.107-.734-.159-1.324-1.123-2.33l.878-1.725,2.113,1.689a1.986,1.986,0,0,0-.657-1.409,11.641,11.641,0,0,0-1.026-.8c-.1-.077-.232-.208-.22-.3.088-.646.208-1.287.326-1.973a7.459,7.459,0,0,1,2.428,1.828,1.715,1.715,0,0,0-.551-1.361c-.48-.431-1.055-.755-1.573-1.147a.8.8,0,0,1-.309-.441c-.192-1.181-.354-2.368-.526-3.552-.011-.074-.027-.148-.055-.3a14.329,14.329,0,0,1,3.464,3.4,7.87,7.87,0,0,1,1.431,3.513c0,.039.05.074.076.11Zm-33.233,13.922a1.781,1.781,0,0,0-.987,1.782,5.684,5.684,0,0,0,1.146,3.25,2.591,2.591,0,0,0,.828.73.61.61,0,0,0,.958-.54,2.522,2.522,0,0,0-.019-.7,12.281,12.281,0,0,0-1.677-4.227A2.773,2.773,0,0,0,3387.478,1664.308Zm18.517.018a.578.578,0,0,0-.135.085,1.374,1.374,0,0,0-.219.3c-.486,1.124-1,2.239-1.426,3.385a4.266,4.266,0,0,0-.191,1.466.591.591,0,0,0,.853.559,1.258,1.258,0,0,0,.472-.29,5.555,5.555,0,0,0,1.6-3.867A1.813,1.813,0,0,0,3406,1664.327Z" transform="translate(-2977.711 -395.543)"/></g></svg>