<svg xmlns="http://www.w3.org/2000/svg" width="47.256" height="40.848" viewBox="0 0 47.256 40.848"><defs><style>.a{fill:#FF9C05;}</style></defs><g transform="translate(-532.372 -2988)"><path class="a" d="M-359.889-54.94a2.56,2.56,0,0,0,.166-.233q3.4-6.077,6.8-12.155c.061-.108.126-.214.222-.376l5,12.887c-.113.012-.188.027-.263.027q-5.852-.039-11.7-.082c-.071,0-.143-.009-.214-.014Z" transform="translate(892.261 3056.55)"/><path class="a" d="M305.285-54.919c-1.377.016-2.755.035-4.132.046q-3.784.029-7.569.049h-.489l5-12.915c.1.176.178.3.249.427q3.393,6.065,6.786,12.129a2.067,2.067,0,0,0,.153.209Z" transform="translate(274.343 3056.583)"/><path class="a" d="M-354.972,193.894c.282,0,.485,0,.687,0q5.69.031,11.38.056a.385.385,0,0,1,.429.316q4.1,11.606,8.2,23.208c.276.781.55,1.563.78,2.375Z" transform="translate(887.608 2809)"/><path class="a" d="M114.342,219.832q.51-1.45,1.021-2.9,2.037-5.764,4.075-11.527,1.753-4.955,3.51-9.909c.152-.43.31-.858.452-1.291a.289.289,0,0,1,.32-.24q5.932-.023,11.864-.059c.068,0,.136.008.271.016l-21.461,25.933Z" transform="translate(443.496 2808.989)"/><path class="a" d="M92.457,221.347V196.1h9.013L92.535,221.36Z" transform="translate(464.206 2806.916)"/><path class="a" d="M-91.067,196.094v25.252l-.077.011-8.935-25.263Z" transform="translate(646.403 2806.918)"/><path class="a" d="M111.2-70.257,102-83.4H116.3Z" transform="translate(455.173 3071.408)"/><path class="a" d="M-207.973-83.461h14.3l-9.2,13.152Z" transform="translate(748.503 3071.461)"/><path class="a" d="M91.567-58.961l8.709,12.456H91.567Z" transform="translate(465.048 3048.276)"/><path class="a" d="M-93.624-46.439-84.911-58.9v12.461Z" transform="translate(640.294 3048.219)"/></g></svg>