<svg xmlns="http://www.w3.org/2000/svg" width="38" height="38" viewBox="0 0 38 38"><defs><style>.a{fill:#FF9C05;}.b{fill:#f8f8f8;fill-rule:evenodd;}</style></defs><g transform="translate(-589 -450)"><circle class="a" cx="19" cy="19" r="19" transform="translate(589 450)"/><path class="b" d="M36.992,73.971a1.573,1.573,0,0,0,1.574,1.574h2.361v2.428a.787.787,0,0,0,1.349.551l2.979-2.979h8.656a1.573,1.573,0,0,0,1.574-1.574V64.135a1.573,1.573,0,0,0-1.574-1.574H38.566a1.573,1.573,0,0,0-1.574,1.574v9.837Zm4.722-4.525a.984.984,0,1,1,.984.984A.984.984,0,0,1,41.714,69.447Zm3.541,0a.984.984,0,1,1,.984.984A.984.984,0,0,1,45.255,69.447Zm3.541,0a.984.984,0,1,1,.984.984A.984.984,0,0,1,48.8,69.447Z" transform="translate(561.593 399.29)"/></g></svg>