<svg xmlns="http://www.w3.org/2000/svg" width="56.731" height="69.307" viewBox="0 0 56.731 69.307"><defs><style>.a{fill:#fff;}</style></defs><g transform="translate(-920.636 -1415.999)"><path class="a" d="M1553.717,1372.893c1.86.471,3.522,1.221,4.188,3.219a17.676,17.676,0,0,1,.408,2.1c-.679-.093-1.115-.114-1.53-.218-.938-.234-1.79-.407-2.434.651-.172.282-.813.267-1.229.415-.3.106-.576.257-.864.388l.249.524a26.8,26.8,0,0,1,2.532-1.255,9.3,9.3,0,0,1,1.882-.325l.659,4.094a1.686,1.686,0,0,0-1.4,1.977c.018.224-.4.624-.682.69a1.262,1.262,0,0,1-.956-.3c-.793-.683-1.527-1.434-2.415-2.283.064-.334.169-.886.317-1.665-1.322,1.655-1.033,1.959.16,3.177a7.36,7.36,0,0,0,4.561,2.143,3.208,3.208,0,0,1,2.414,2.113,1.512,1.512,0,0,0,.993.813,9.106,9.106,0,0,1,6.073,3.052,21.045,21.045,0,0,0,2.9,2.136c.253,2.3-.952,3.332-3.467,2.7a17.99,17.99,0,0,0-2.865-.424,10.134,10.134,0,0,1-6.209-2.84c-1.909,3.361-3.6,3.611-6.176.758a28.312,28.312,0,0,1-2.671-4.187.994.994,0,0,0-.635-.572c.083.357.172.714.25,1.072a13.277,13.277,0,0,1,.584,2.981c-.018.832-.4,2.274-.83,2.356a5.168,5.168,0,0,1-3.224-.519c-.709-.386-1.046-1.464-1.533-2.244-.213-.342-.386-.71-.577-1.066l-.374.169c.42.921.78,1.876,1.277,2.753.48.846.378,1.324-.543,1.739a2.314,2.314,0,0,0-1.03,1.085,2.424,2.424,0,0,1-2.491,1.623,2.814,2.814,0,0,1-2.434-2.488,2.271,2.271,0,0,1,.925-2.8,2.622,2.622,0,0,0,.822-1.09c.522-1.066,1-2.155,1.463-3.25a5.222,5.222,0,0,0,.476-1.539c.239-2.894,2.01-4.624,4.931-4.533a2.086,2.086,0,0,0,2.192-1.3,2.544,2.544,0,0,0,.131-2.716,3.885,3.885,0,0,1-.286-2.713,6.16,6.16,0,0,1,4.231-4.412Z" transform="translate(-609.61 43.106)"/><path class="a" d="M1616.084,1500.214a27.037,27.037,0,0,1-3.165-.269,1.91,1.91,0,0,1-1.266-.922c-.644-1.63-1.13-3.323-1.613-4.8-.559-.092-1.013-.028-1.23-.225-1.816-1.647-3.6-3.333-5.363-5.033a1.845,1.845,0,0,1-.55-.954c-.155-1.011-.577-2.195-.218-3.016.463-1.059,1.756-.724,2.773-.5a1.707,1.707,0,0,0,.413-.014c-1.476-1.692-2.532-1.559-3.99.611a8.741,8.741,0,0,1-1.035-1.646c-.759-2.177-2.478-3.524-4.041-5.057-1.668-1.636-3.144-3.467-4.966-5.506,2.461-.431,4.146-1.21,5.187-3.283,2.656,3.326,5.273,6.471,5.367,11.067.164-.56.569-1.176.453-1.67a21.64,21.64,0,0,0-6.037-10.609c-.051-.051-.173-.031.088.008a15.462,15.462,0,0,1-2.529,2.964,5.217,5.217,0,0,1-3.025.738c-2.406-.1-4.073-2.288-3.852-5.041a10.3,10.3,0,0,1,.943-3.305,1.78,1.78,0,0,0-.069-1.907q-2.043-3.319-3.98-6.7a8.033,8.033,0,0,1-.521-1.676,32.573,32.573,0,0,0,4.283,2.118c1.7.556,2.707-.12,3.518-1.787l6.653,1.893c-.38,1.414-1.221,1.923-2.809,1.6-1.544-.314-2.056.189-1.595,1.752.312,1.059.858,2.047,1.272,3.078.325.81,1.421,1.543.292,2.555a1.379,1.379,0,0,0,.493.832c4.2,1.948,5.774,5.812,7.24,9.775a2.678,2.678,0,0,0,.832,1.339c1.746,1.077,2.251,2.729,2.431,4.607a4.608,4.608,0,0,0,.451,1.706c1.642,3.065,3.506,6.023,4.96,9.172a12.548,12.548,0,0,0,5.959,5.8c1.053.563,2.181.985,3.274,1.472-.014.462.183.946-.7.871C1618.979,1500.125,1617.528,1500.214,1616.084,1500.214Z" transform="translate(-643.756 -14.948)"/><path class="a" d="M1514.2,1537.128c.542-.249,1.074-.522,1.627-.74a6.664,6.664,0,0,0,4.365-4.634,21,21,0,0,1,6.086-10.284,4.845,4.845,0,0,0,1.028-2.191c.82-2.693,1.534-5.417,2.379-8.1a12.227,12.227,0,0,1,1.3-2.218c.68,1.681,1.257,3.285,2.964,3.623a35.915,35.915,0,0,0,4.837.286c-1.415,2.108-2.77,4.232-4.253,6.263a3.75,3.75,0,0,1-1.761,1.045,2.232,2.232,0,0,1-3.185-2.154,26.2,26.2,0,0,1,.369-3.581c.046-.386.137-.767.208-1.151l-.535-.1a46.334,46.334,0,0,0-.833,5.367c-.077,1.719.735,2.291,3.6,2.977l-2.454,3c-1.593-2.072-2.114-2.139-4.161-.836-3.033,1.931-3.3,4.874-2.809,8a3.452,3.452,0,0,1-.587,2.731c-.267.379-.5.785-.757,1.168-2.024,2.978-2.027,3.012-5.679,2.871a5.328,5.328,0,0,1-1.754-.786Z" transform="translate(-593.566 -54.935)"/><path class="a" d="M1630.226,1444.313a6.118,6.118,0,0,1,.51-1.584,19.343,19.343,0,0,0,3.541-9.115,10.341,10.341,0,0,0-1.8-7.15c-2.656-3.637-2.727-7.552-1.634-11.69a16.24,16.24,0,0,0,.166-8.253,42.972,42.972,0,0,1-.88,5.289c-1.662,5.515-.71,10.738,1.463,15.877,2.141,5.064.655,9.5-2.672,13.672,0-.411-.173-.956.026-1.213,2.881-3.714,3.015-7.865,1.986-12.19a18.128,18.128,0,0,0-1.262-3.968c-1.764-3.5-1.506-7.1-.809-10.757.612-3.209,1.121-6.429.407-9.678a11.385,11.385,0,0,0-1.329-3.135c.814,3.546-.145,6.837-1.141,10.128-1.161,3.834-.308,7.531,1.263,10.973,1.937,4.245-.12,11.457-2.533,14.438a9.356,9.356,0,0,1,.149-1.616,59.254,59.254,0,0,0,1.921-7.222,11.792,11.792,0,0,0-.533-5.727,18.974,18.974,0,0,1-.384-12.549,13.421,13.421,0,0,0-.445-9.529,1.555,1.555,0,0,0-.718-.727c1.037,3.4.189,6.645-.432,9.911a29.974,29.974,0,0,0-.758,5.494,37.432,37.432,0,0,0,.69,6.074,19.9,19.9,0,0,1-.21,8.84c-.161.565-.414,1.1-.784,2.074-.289-.7-.611-1.089-.531-1.351,1.312-4.3.564-8.572-.108-12.842-.55-3.5.436-6.824.971-10.21a46.113,46.113,0,0,0,.462-5.26,2.513,2.513,0,0,0-2.044-2.768,3.143,3.143,0,0,0-3.762,1.335c-.4.668-.717,1.383-.99,1.918-1.538-.477-3.031-.933-4.518-1.41-.242-.078-.585-.195-.66-.382a5.294,5.294,0,0,0-3.66-3.02c.235-.858.008-1.871,1.288-2.042.145-.019.336-.6.292-.9a6.615,6.615,0,0,0-.491-1.3,2.39,2.39,0,0,1,2.567-3.358,7.93,7.93,0,0,1,5.378,3.406c.34.431.661.877.975,1.295,1.3-.334,1.662-1.106,1.777-2.339.08-.853.657-2.127,1.3-2.339a3.483,3.483,0,0,1,2.745.751c1.885,1.519,2.061,3.832,2.352,6.058a2.829,2.829,0,0,0,.668,1.57c3.743,3.683,4.854,8.255,4.46,13.282a36.819,36.819,0,0,1-1.044,6.167,10.451,10.451,0,0,0,.5,6.675c.641,1.59,1.366,3.151,2.135,4.684a10.144,10.144,0,0,1,.454,8.883c-1.037,2.41-2.37,4.693-3.571,7.033Zm-3.555-47.591c-.643-1.671-1.133-3.145-1.8-4.536a1.73,1.73,0,0,0-1.357-.644c-.3,0-.812.558-.857.912a5.436,5.436,0,0,0,.9,4.268Zm-10.457-3.473c-1.535-2.073-2.666-2.784-3.235-1.037l2.187,1.989Z" transform="translate(-662.004 31.251)"/><path class="a" d="M1574.311,1474.7c-2.944,1.846-6.242.2-6.51-3.018a7.657,7.657,0,0,1,1.09-5.071c.844-1.251.518-2.065-.533-2.937a13.931,13.931,0,0,1-2.319-2.37,30.155,30.155,0,0,1-1.831-3.256,14.861,14.861,0,0,0,2.566.623,12.723,12.723,0,0,0,2.339-.309c1.127,1.917,2.36,3.826,3.377,5.843a4.868,4.868,0,0,1,.222,2.531c-.123,1.234-.553,2.441-.649,3.675A4.415,4.415,0,0,0,1574.311,1474.7Z" transform="translate(-629.597 -18.251)"/><path class="a" d="M1545.013,1567.831a26.343,26.343,0,0,1,1.863-4.841,6.474,6.474,0,0,1,2.893-1.9c.255-.116,1.177.52,1.305.953.865,2.926-1.542,6.97-4.524,7.655C1544.875,1570.083,1545.475,1568.717,1545.013,1567.831Z" transform="translate(-615.766 -92.486)"/><path class="a" d="M1646.356,1430.305a11.765,11.765,0,0,1-2.619-2.055,2.733,2.733,0,0,1,.208-2.254,10.009,10.009,0,0,1,1.752-2c.376.346,1.049.671,1.077,1.042.119,1.633.051,3.279.051,4.921Z" transform="translate(-686.777 6.288)"/><path class="a" d="M1643.725,1576.043a5.687,5.687,0,0,1,.334,1.917,22.087,22.087,0,0,0,.4,8.926,3.3,3.3,0,0,1-.177,1.145c-.271-.26-.7-.474-.791-.787a18.249,18.249,0,0,1-.173-11.155Z" transform="translate(-686.026 -103.271)"/><path class="a" d="M1655.19,1596.2a9.169,9.169,0,0,1-1.086-8.649c.184.451.576.93.517,1.348a11.533,11.533,0,0,0,.694,6.017C1655.457,1595.274,1655.241,1595.772,1655.19,1596.2Z" transform="translate(-693.929 -111.565)"/><path class="a" d="M1677.248,1534.032c.892,2.621-.215,6.956-2.466,9.34,0-.625-.156-1.117.024-1.361A14.249,14.249,0,0,0,1677.248,1534.032Z" transform="translate(-709.224 -73)"/><path class="a" d="M1663.126,1594.421c.357.182.687.247.717.38q.651,2.914,1.209,5.848c.026.139-.266.338-.467.579C1662.98,1599.211,1662.769,1596.99,1663.126,1594.421Z" transform="translate(-700.764 -116.513)"/><path class="a" d="M1674.942,1607c-1.651-1.329-1.994-2.644-1.321-4.084Z" transform="translate(-708.199 -122.636)"/></g></svg>