<svg xmlns="http://www.w3.org/2000/svg" width="23.874" height="23.874" viewBox="0 0 23.874 23.874"><defs><style>.a{fill:#fff;}</style></defs><g transform="translate(5.609 6.388)"><path class="a" d="M121.152,137h-.3l-.559,2.8h1.418Z" transform="translate(-120.293 -137)"/></g><g transform="translate(17.783 11.984)"><path class="a" d="M381.374,257a7.31,7.31,0,0,0,1.148,2.027A7.386,7.386,0,0,0,383.717,257Z" transform="translate(-381.374 -257)"/></g><g transform="translate(11.315 4.243)"><path class="a" d="M253.124,91h-8.686l1.811,14.533a2.171,2.171,0,0,1-.518,1.592l-3.067,3.505h10.461a2.1,2.1,0,0,0,2.1-2.1V93.145A2.141,2.141,0,0,0,253.124,91Zm0,7.74h-.187a8.874,8.874,0,0,1-1.685,3.064c.514.47,1.063.855,1.609,1.287a.7.7,0,0,1-.874,1.091c-.594-.468-1.151-.861-1.708-1.372-.557.511-1.068.9-1.661,1.372a.7.7,0,0,1-.874-1.091c.546-.432,1.049-.817,1.563-1.287a8.827,8.827,0,0,1-1.638-3.064h-.187a.7.7,0,0,1,0-1.4h2.1v-.7a.7.7,0,1,1,1.4,0v.7h2.145a.7.7,0,0,1,0,1.4Z" transform="translate(-242.663 -91)"/></g><path class="a" d="M11.385,1.838A2.1,2.1,0,0,0,9.3,0H2.1A2.1,2.1,0,0,0,0,2.1V17.579a2.1,2.1,0,0,0,2.1,2.1h11.03c.2-.233.375-.379.382-.684C13.512,18.917,11.395,1.914,11.385,1.838ZM8.577,13.369a.7.7,0,0,1-.823-.548l-.447-2.236H5.329L4.882,12.82a.7.7,0,1,1-1.372-.275l1.4-6.994A.7.7,0,0,1,5.6,4.989H7.041a.7.7,0,0,1,.686.562l1.4,6.994A.7.7,0,0,1,8.577,13.369Z"/><g transform="translate(8.172 21.076)"><path class="a" d="M175.261,452l.12.96a2.115,2.115,0,0,0,1.209,1.625L178.939,452Z" transform="translate(-175.261 -452)"/></g></svg>