<svg xmlns="http://www.w3.org/2000/svg" width="49.885" height="60.931" viewBox="0 0 49.885 60.931"><defs><style>.a{fill:#FF9C05;}.b{fill:#333;}</style></defs><g transform="translate(-578 -232)"><path class="a" d="M829.908,626.594a1.829,1.829,0,0,0-.5-.163,1.019,1.019,0,0,0-.14-.01.9.9,0,0,0-.572.208.969.969,0,0,0-.354.705c0,.052-.005.1-.007.157A2.075,2.075,0,0,0,829.908,626.594Zm-.774.585a.427.427,0,0,1-.561-.169c-.06-.177.094-.39.344-.474a.427.427,0,0,1,.561.169C829.537,626.882,829.383,627.094,829.134,627.179Z" transform="translate(-219.53 -370.421)"/><path class="a" d="M791.166,616.624a.717.717,0,0,1-.3.067.726.726,0,0,1-.305-1.386,5.4,5.4,0,0,1,1.729-.493,22.248,22.248,0,0,1,.54-4.247,4.436,4.436,0,0,0-4.029,2.4,4.943,4.943,0,0,0-.616,4.331,5.077,5.077,0,0,0,4.556,3.439,27.688,27.688,0,0,1-.459-4.457A4.173,4.173,0,0,0,791.166,616.624Z" transform="translate(-208.475 -366.083)"/><path class="a" d="M810.841,626.631a.865.865,0,0,0-.659-.21,1.762,1.762,0,0,0-.572.172,2.078,2.078,0,0,0,1.579.9c0-.054-.005-.107-.008-.16A.983.983,0,0,0,810.841,626.631Zm.153.377a.427.427,0,0,1-.561.169c-.249-.084-.4-.3-.344-.474a.427.427,0,0,1,.561-.169C810.9,626.618,811.053,626.831,810.994,627.008Z" transform="translate(-214.408 -370.42)"/><path class="a" d="M818.861,653.054a1.585,1.585,0,1,0-3.105,0,6.017,6.017,0,0,1-2.412.464,10.634,10.634,0,0,1-3.331-.6,7.979,7.979,0,0,0,14.658-.023,10.7,10.7,0,0,1-3.4.625A6.018,6.018,0,0,1,818.861,653.054Z" transform="translate(-214.519 -377.189)"/><path class="a" d="M808.071,640.6c.935.4,3.6,1.395,5.591.527.561-.245,1.252-2.054,1.4-3.274l-.354-.889a2.314,2.314,0,0,0-2.354-1.4.727.727,0,0,1-.417-1.37l.827-.416a1.96,1.96,0,0,1,1.575-.086,1.775,1.775,0,0,1,1.034,1.009l.394.992.394-.992A1.773,1.773,0,0,1,817.2,633.7a1.952,1.952,0,0,1,1.574.086l.827.416a.727.727,0,0,1-.417,1.37,2.3,2.3,0,0,0-2.338,1.355l-.31.781c0,.039-.007.082-.012.124.142,1.22.839,3.054,1.4,3.3,2.045.891,4.8-.177,5.658-.557.017-.14.038-.277.047-.418l.155-2.539c-2.28-.916-3.472-6.607-3.472-12.25,0-.334,0-.667.012-.993s.018-.626.033-.933a2.427,2.427,0,0,1,.885-1.761,2.356,2.356,0,0,1,1.852-.508,3.673,3.673,0,0,1,1.651.744l.389.3-.126.471a3.5,3.5,0,0,1-3.244,2.446c0,.08,0,.16,0,.24,0,7.078,1.763,10.94,2.669,10.94.954-.107,2.672-3.954,2.672-10.94,0-4.446-.739-8.467-1.884-10.242l.634-.4-.019.006-.62.39-.058-.105c-.012-.023-.023-.044-.032-.064-.635-1.191-4.129-2.508-9.3-2.508-4.891,0-8.546,1.216-9.255,2.391l-.046.068c-1.017,1.323-2.043,5.073-2.043,10.468,0,7.094,1.729,10.891,2.656,10.937l.035,0c.917-.068,2.65-3.923,2.65-10.939,0-.08,0-.16,0-.24a3.5,3.5,0,0,1-3.245-2.446l-.126-.471.389-.295a3.619,3.619,0,0,1,1.783-.762,2.3,2.3,0,0,1,1.76.551,2.441,2.441,0,0,1,.845,1.733q.022.462.033.936c.007.327.012.66.012.994,0,5.592-1.172,11.23-3.413,12.223l.155,2.566C808.027,640.3,808.052,640.452,808.071,640.6Z" transform="translate(-213.005 -366.596)"/><path class="a" d="M798.131,600.85c-5.1,6.338-2.688,16.163-2.664,16.262l-.013,0a.69.69,0,0,1,.032.107.712.712,0,0,1-.1.418l.012.007c-3.813,6.8-6.275,16.65,3.654,24.994l.118.1.067.14c.052.106,5.2,10.528,13.159,10.528h.3c7.969,0,13.108-10.422,13.16-10.527l.067-.139.119-.1c9.928-8.343,7.467-18.2,3.654-24.994l.634-.356-.707-.166c.022-.1,2.235-9.9-2.966-16.239-2.96-3.609-7.763-5.452-14.295-5.5C805.815,595.425,801.031,597.247,798.131,600.85Zm3.819,8.526c1.321-2.112,6.2-3.058,10.476-3.058,5.287,0,9.551,1.337,10.61,3.326.009.016.025.044.044.081,1.283,2.037,2.083,6.232,2.083,10.974,0,5.292-1.045,11.059-3.315,12.183l-.163,2.693a9.33,9.33,0,0,1-18.4.977,8.571,8.571,0,0,1-.116-.978l-.161-2.669c-2.218-1.041-3.377-6.675-3.377-12.206C799.63,615.683,800.54,611.248,801.95,609.377Z" transform="translate(-209.606 -361.93)"/><path class="a" d="M850.428,617.292a4.945,4.945,0,0,0-.616-4.331,4.439,4.439,0,0,0-4.238-2.395,22.526,22.526,0,0,1,.62,4.235,5.225,5.225,0,0,1,1.858.5.726.726,0,0,1-.305,1.385.715.715,0,0,1-.305-.068,4.014,4.014,0,0,0-1.211-.363,27.458,27.458,0,0,1-.374,4.471A5.075,5.075,0,0,0,850.428,617.292Z" transform="translate(-224.249 -366.082)"/><path class="b" d="M825.162,647.217a1.727,1.727,0,0,1-.649-.143l-.155,2.539c-.008.141-.03.279-.046.418.166-.073.269-.123.275-.126l.66,1.294a11.424,11.424,0,0,1-1.363.561,7.979,7.979,0,0,1-14.658.023,11.586,11.586,0,0,1-1.431-.584l.66-1.294c.006,0,.131.065.342.156-.019-.15-.044-.3-.054-.448l-.155-2.565a1.737,1.737,0,0,1-.71.17l-.116-.007a1.766,1.766,0,0,1-.63-.18l.161,2.669a8.562,8.562,0,0,0,.116.978,9.33,9.33,0,0,0,18.4-.977l.163-2.693a1.845,1.845,0,0,1-.614.2A1.266,1.266,0,0,1,825.162,647.217Z" transform="translate(-213.729 -376.055)"/><path class="b" d="M820.723,645.435h.025v.028h.049c0,.061-.006.13-.012.2l.31-.781a2.3,2.3,0,0,1,2.337-1.355.727.727,0,0,0,.417-1.37l-.827-.416a1.952,1.952,0,0,0-1.574-.086,1.773,1.773,0,0,0-1.034,1.009l-.394.992.251.634A5.226,5.226,0,0,1,820.723,645.435Z" transform="translate(-217.257 -374.556)"/><path class="b" d="M817.725,645.79c-.012-.121-.022-.234-.023-.328h.049l0-.028.7.014.675-.013a5.225,5.225,0,0,0-.45-1.142l-.251-.634-.394-.992A1.776,1.776,0,0,0,817,641.658a1.96,1.96,0,0,0-1.575.086l-.827.416a.727.727,0,0,0,.417,1.37,2.314,2.314,0,0,1,2.354,1.4l.354.889Z" transform="translate(-215.663 -374.557)"/><path class="b" d="M815.217,652.026a3.543,3.543,0,0,0,1.553-1.9,9.891,9.891,0,0,1-.729-2.729l0,.026c-.15,1.22-.841,3.029-1.4,3.274-1.991.867-4.656-.124-5.591-.527-.211-.091-.336-.153-.342-.156l-.66,1.294a11.6,11.6,0,0,0,1.431.584,10.636,10.636,0,0,0,3.331.6A6.015,6.015,0,0,0,815.217,652.026Z" transform="translate(-213.979 -376.161)"/><path class="b" d="M821.024,646.942c0,.1.012.214.026.328,0-.042.009-.085.012-.124.006-.073.01-.142.012-.2Z" transform="translate(-217.531 -376.038)"/><path class="b" d="M819.089,646.932l.7-.014-.7-.014Z" transform="translate(-217.002 -376.027)"/><path class="b" d="M821.906,650.56c-.565-.246-1.262-2.08-1.4-3.3-.014-.115-.023-.226-.026-.328l0-.028h-.025l-.676.013-.7.014h-.049c0,.094.011.207.023.328a9.892,9.892,0,0,0,.728,2.729,3.537,3.537,0,0,0,1.552,1.9,6.02,6.02,0,0,0,2.411.464,10.7,10.7,0,0,0,3.4-.625,11.435,11.435,0,0,0,1.363-.561l-.66-1.294c-.006,0-.109.053-.275.126C826.7,650.383,823.952,651.451,821.906,650.56Z" transform="translate(-216.983 -376.027)"/><path class="b" d="M829.735,626.267l.069-.723h0l-.769.166c3.813,6.8,6.408,16.841-3.52,25.184l-.119.1-.067.139c-.052.105-5.191,10.527-13.16,10.527h-.3c-7.955,0-13.107-10.422-13.159-10.528l-.068-.14-.118-.1c-9.929-8.344-7.467-18.2-3.654-24.994l-.012-.007a.713.713,0,0,1-.553.374c-.219.021-.438.031-.654.031s-.411-.029-.616-.048c-3.156,6.155-6.041,16.754,4.438,25.657.691,1.366,5.963,11.206,14.4,11.206h.3c8.434,0,13.706-9.84,14.4-11.206,10.479-8.9,7.594-19.5,4.439-25.657-.2.019-.407.048-.616.048S829.954,626.288,829.735,626.267Z" transform="translate(-209.075 -370.181)"/><path class="b" d="M849.561,612.421a4.945,4.945,0,0,1,.616,4.331,5.076,5.076,0,0,1-4.571,3.438c-.086.5-.156.811-.172.879l-.707-.166-.069.723c.219.021.438.031.654.031s.411-.029.616-.048a6.5,6.5,0,0,0,5.627-4.4,6.4,6.4,0,0,0-.753-5.545,5.915,5.915,0,0,0-5.89-3.051q.235.7.411,1.41A4.439,4.439,0,0,1,849.561,612.421Z" transform="translate(-223.998 -365.542)"/><path class="b" d="M847.98,618.287a.726.726,0,0,0,.3-1.385,5.227,5.227,0,0,0-1.858-.5c.027.5.038.99.037,1.459a4.018,4.018,0,0,1,1.211.363A.716.716,0,0,0,847.98,618.287Z" transform="translate(-224.482 -367.679)"/><path class="b" d="M793.154,621.626a.762.762,0,0,0,.654-.792.691.691,0,0,0-.032-.107l-1.4.355c-.017-.068-.1-.384-.192-.893a5.077,5.077,0,0,1-4.556-3.439,4.942,4.942,0,0,1,.616-4.331,4.436,4.436,0,0,1,4.029-2.4q.165-.712.389-1.427a5.912,5.912,0,0,0-5.661,3.071,6.4,6.4,0,0,0-.752,5.544,6.5,6.5,0,0,0,5.628,4.4c.2.019.408.048.616.048S792.935,621.647,793.154,621.626Z" transform="translate(-207.928 -365.541)"/><path class="b" d="M791.034,617.869a.727.727,0,0,0,.66.422.716.716,0,0,0,.3-.067,4.169,4.169,0,0,1,1.111-.35c-.01-.47-.009-.958.009-1.462a5.4,5.4,0,0,0-1.729.493A.726.726,0,0,0,791.034,617.869Z" transform="translate(-209.307 -367.683)"/><path class="b" d="M805.859,637.024a1.77,1.77,0,0,0,.631.18l.116.007a1.737,1.737,0,0,0,.71-.17c2.241-.993,3.413-6.631,3.413-12.223,0-.334-.005-.667-.012-.994s-.019-.628-.034-.936a2.44,2.44,0,0,0-.846-1.733,2.3,2.3,0,0,0-1.76-.551,3.619,3.619,0,0,0-1.783.762l-.389.295.126.471a3.5,3.5,0,0,0,3.245,2.446c0,.08,0,.16,0,.24,0,7.016-1.732,10.872-2.65,10.939l-.035,0c-.927-.046-2.656-3.842-2.656-10.937,0-5.4,1.026-9.146,2.043-10.468l.046-.068c.708-1.175,4.364-2.391,9.255-2.391,5.175,0,8.669,1.317,9.3,2.508.009.02.02.041.032.064l.058.105.62-.39.019-.006.59-.378c.01.016.02.034.03.05-.018-.036-.034-.065-.044-.081-1.059-1.99-5.323-3.326-10.61-3.326-4.273,0-9.155.946-10.476,3.058-1.41,1.872-2.319,6.306-2.319,11.323C802.482,630.348,803.641,635.983,805.859,637.024Zm1.8-14.8a1.758,1.758,0,0,1,.572-.172.865.865,0,0,1,.659.21.984.984,0,0,1,.34.7c0,.053.005.106.008.16A2.079,2.079,0,0,1,807.66,622.221Z" transform="translate(-212.458 -366.048)"/><path class="b" d="M831.823,615.436l-.634.4c1.145,1.775,1.884,5.8,1.884,10.242,0,6.986-1.718,10.832-2.672,10.94-.906,0-2.669-3.862-2.669-10.94,0-.08,0-.16,0-.24a3.5,3.5,0,0,0,3.244-2.446l.126-.471-.389-.3a3.673,3.673,0,0,0-1.651-.744,2.356,2.356,0,0,0-1.852.508,2.427,2.427,0,0,0-.885,1.761c-.015.307-.026.618-.033.933s-.012.659-.012.993c0,5.642,1.192,11.334,3.472,12.249a1.726,1.726,0,0,0,.649.143,1.255,1.255,0,0,0,.2-.012,1.842,1.842,0,0,0,.615-.2c2.27-1.124,3.314-6.892,3.314-12.183,0-4.742-.8-8.937-2.083-10.974-.01-.016-.02-.034-.03-.05Zm-4.047,8.789a.969.969,0,0,1,.354-.705.9.9,0,0,1,.572-.208,1.029,1.029,0,0,1,.14.01,1.831,1.831,0,0,1,.5.163,2.075,2.075,0,0,1-1.578.9C827.771,624.329,827.773,624.276,827.776,624.225Z" transform="translate(-218.97 -367.313)"/><path class="b" d="M793.922,610.125c-.017.5-.019.992-.009,1.462a27.7,27.7,0,0,0,.459,4.457c.1.509.174.825.192.893l1.4-.355.013,0c-.025-.1-2.436-9.924,2.664-16.262,2.9-3.6,7.684-5.425,14.235-5.465-.481,0-.968,0-1.468.016l-.046-1.433c-6.249.294-10.905,2.3-13.859,5.977a15.381,15.381,0,0,0-2.648,5.038q-.225.714-.389,1.427A22.252,22.252,0,0,0,793.922,610.125Z" transform="translate(-210.111 -361.396)"/><path class="b" d="M819.382,593.382c-.476,0-.959,0-1.451.02v.018l.046,1.433c.5-.016.987-.02,1.468-.016,6.532.048,11.335,1.891,14.295,5.5,5.2,6.343,2.927,16.473,2.9,16.571l.768-.166h0l.707.166c.016-.068.086-.378.172-.879a27.456,27.456,0,0,0,.374-4.471c0-.469-.01-.955-.037-1.458a22.537,22.537,0,0,0-.62-4.235q-.177-.7-.411-1.41a15.763,15.763,0,0,0-2.73-5.032c-3.024-3.691-7.732-5.7-14-6C820.38,593.4,819.887,593.384,819.382,593.382Z" transform="translate(-216.686 -361.381)"/><path class="b" d="M829,626.565c-.25.084-.4.3-.344.474a.427.427,0,0,0,.561.169c.249-.084.4-.3.344-.474A.427.427,0,0,0,829,626.565Z" transform="translate(-219.617 -370.452)"/><path class="b" d="M810.826,626.565a.427.427,0,0,0-.561.169c-.06.177.094.39.344.474a.427.427,0,0,0,.561-.169C811.229,626.862,811.075,626.649,810.826,626.565Z" transform="translate(-214.584 -370.452)"/></g></svg>