<svg xmlns="http://www.w3.org/2000/svg" width="58.766" height="53.72" viewBox="0 0 58.766 53.72"><defs><style>.a{fill:#FF9C05;}.b{fill:#fff;}.c{fill:#333;}</style></defs><g transform="translate(-207 -356)"><path class="a" d="M863.583,932.717a6.235,6.235,0,0,0,6.211-5.785H857.372A6.234,6.234,0,0,0,863.583,932.717Z" transform="translate(-649.026 -525.877)"/><path class="b" d="M863.281,915.908l-.363-.907a2.417,2.417,0,0,0-2.464-1.447.666.666,0,0,1-.386-1.254l.837-.425a1.918,1.918,0,0,1,1.537-.091,1.73,1.73,0,0,1,1.013.979l.5,1.249.5-1.248a1.727,1.727,0,0,1,1.013-.979,1.911,1.911,0,0,1,1.538.09l.836.425a.665.665,0,0,1-.385,1.254,2.394,2.394,0,0,0-2.448,1.407l-.38.947h4.792l-5.485-17.975-5.449,17.975Z" transform="translate(-649.398 -516.184)"/><path class="a" d="M894.43,884.689l.295.2v24.366a8.4,8.4,0,0,1,3.612,0V884.889l.295-.2c2.218-1.489,3.708-5.176,3.708-9.174,0-.172,0-.665-.007-1.071a10.906,10.906,0,0,0-5.391,1.661.73.73,0,0,1-.347.088l-.1,0a.676.676,0,0,1-.314-.088,10.856,10.856,0,0,0-5.448-1.658c-.005.406-.009.9-.009,1.071C890.722,879.515,892.212,883.2,894.43,884.689Z" transform="translate(-660.172 -508.334)"/><path class="a" d="M898.205,928.792a7.007,7.007,0,0,0-9.23,5.969h13.946A7,7,0,0,0,898.205,928.792Z" transform="translate(-659.589 -526.373)"/><path class="b" d="M928.483,915a2.417,2.417,0,0,0-2.464-1.447.666.666,0,0,1-.386-1.254l.837-.425a1.922,1.922,0,0,1,1.538-.091,1.731,1.731,0,0,1,1.012.979l.5,1.249.5-1.248a1.732,1.732,0,0,1,1.013-.979,1.922,1.922,0,0,1,1.538.091l.837.425a.666.666,0,0,1-.386,1.254,2.392,2.392,0,0,0-2.449,1.408l-.379.946h4.793l-5.449-17.975-5.485,17.975h4.792Z" transform="translate(-671.313 -516.184)"/><path class="a" d="M929.147,932.717a6.235,6.235,0,0,0,6.211-5.785H922.936A6.235,6.235,0,0,0,929.147,932.717Z" transform="translate(-670.939 -525.877)"/><path class="a" d="M897.346,861.257c-1.491,0-3.026,1.249-4.189,3.353a18.5,18.5,0,0,1,4.214,3.5,18.491,18.491,0,0,1,4.174-3.479C900.381,862.513,898.841,861.257,897.346,861.257Z" transform="translate(-660.986 -503.926)"/><path class="a" d="M911.337,884.061c-1.783-.83-4.646-3.495-8.138-11.488-1.689-3.866-3.794-5.99-6.255-6.312-4.452-.593-8.815,4.833-8.859,4.888a.662.662,0,0,1-.536.252l-.093,0a.668.668,0,0,1-.507-.251c-.044-.055-4.42-5.468-8.883-4.889-2.464.324-4.569,2.447-6.257,6.312-3.488,7.987-6.35,10.654-8.133,11.486a3.561,3.561,0,0,0,1.73.322,5.041,5.041,0,0,0,3.5-2.386c.582-.793,1.175-1.725,1.8-2.711,3.285-5.161,7.771-12.211,16.815-7.238a12.008,12.008,0,0,1,5.765-1.692c5.343,0,8.519,5,11,8.915.631.993,1.226,1.931,1.813,2.73a5.029,5.029,0,0,0,3.51,2.387A3.644,3.644,0,0,0,911.337,884.061Z" transform="translate(-651.133 -505.583)"/><path class="c" d="M896.746,860.588c1.495,0,3.035,1.256,4.2,3.371a12.08,12.08,0,0,1,1.194-.614c-1.42-2.607-3.362-4.088-5.392-4.088s-3.965,1.477-5.385,4.075a11.94,11.94,0,0,1,1.2.609C893.72,861.837,895.255,860.588,896.746,860.588Z" transform="translate(-660.386 -503.257)"/><path class="c" d="M906.163,875.518c0,4-1.49,7.685-3.708,9.174l-.295.2v24.362a7.773,7.773,0,0,1,.883.242c.153.051.3.112.448.172V885.587c2.442-1.851,4-5.748,4-10.069,0-.155,0-.56-.005-.94a7,7,0,0,0-1.333-.131C906.161,874.853,906.163,875.347,906.163,875.518Z" transform="translate(-663.996 -508.334)"/><path class="c" d="M894.056,909.253V884.887l-.295-.2c-2.218-1.489-3.708-5.174-3.708-9.171,0-.172,0-.665.009-1.071a7,7,0,0,0-1.334.139c0,.377-.007.778-.007.932,0,4.319,1.56,8.215,4,10.066v24.083c.149-.06.3-.121.452-.173A7.987,7.987,0,0,1,894.056,909.253Z" transform="translate(-659.504 -508.334)"/><path class="c" d="M877.166,925.593l.529-.019-.022-.642H877l.146.475A.675.675,0,0,1,877.166,925.593Z" transform="translate(-655.587 -525.208)"/><path class="c" d="M869.468,926.238a.641.641,0,0,1-.2.029.666.666,0,0,1-.636-.471l-.264-.864h-4.792l-.037.093a.666.666,0,0,1-.618.418l-.019,0-.019,0a.666.666,0,0,1-.618-.418l-.037-.093h-4.794l-.262.863a.666.666,0,0,1-.637.473.656.656,0,0,1-.194-.029.666.666,0,0,1-.444-.83l.145-.477h-.027l-.645.06-.027.831a7.557,7.557,0,1,0,15.115,0c0-.071,0-.141,0-.211l-.53-.011A.657.657,0,0,1,869.468,926.238Zm-6.561,5.811a6.234,6.234,0,0,1-6.211-5.785h12.422A6.235,6.235,0,0,1,862.907,932.049Z" transform="translate(-648.35 -525.208)"/><path class="c" d="M866.672,897.017l5.485,17.975.264.864a.666.666,0,0,0,.636.471.637.637,0,0,0,.2-.029.657.657,0,0,0,.461-.638v-.007a.674.674,0,0,0-.018-.186l-.146-.475-6.042-19.8c-.1.031-.205.062-.309.086Z" transform="translate(-652.134 -515.269)"/><path class="c" d="M856.61,916.343a.656.656,0,0,0,.194.029.666.666,0,0,0,.637-.473l.262-.863,5.449-17.975.527-1.737a4.165,4.165,0,0,1-1.423.1l-5.944,19.609-.145.477A.666.666,0,0,0,856.61,916.343Z" transform="translate(-648.613 -515.312)"/><path class="c" d="M870.2,920.449a.665.665,0,0,0,.385-1.254l-.836-.425a1.912,1.912,0,0,0-1.538-.091,1.728,1.728,0,0,0-1.013.979l-.5,1.248.161.4a5.219,5.219,0,0,1,.465,1.178.664.664,0,0,1-.44.795.648.648,0,0,1-.186.03l.019,0a.666.666,0,0,0,.618-.418l.037-.093.38-.947A2.394,2.394,0,0,1,870.2,920.449Z" transform="translate(-652.144 -523.078)"/><path class="c" d="M865.192,922.485a5.2,5.2,0,0,0-.465-1.178l-.161-.4-.5-1.249a1.73,1.73,0,0,0-1.013-.979,1.918,1.918,0,0,0-1.537.091l-.837.425a.666.666,0,0,0,.386,1.254,2.417,2.417,0,0,1,2.464,1.447l.363.907.037.092a.667.667,0,0,0,.619.418l.019,0a.648.648,0,0,0,.186-.03A.664.664,0,0,0,865.192,922.485Z" transform="translate(-650.009 -523.078)"/><path class="c" d="M935.031,926.239a.653.653,0,0,1-.194.029.666.666,0,0,1-.637-.473l-.262-.863h-4.794l-.038.093a.664.664,0,0,1-.618.418l-.019,0-.019,0a.666.666,0,0,1-.618-.418l-.037-.093H923l-.264.864a.666.666,0,0,1-.637.471.639.639,0,0,1-.194-.029.666.666,0,0,1-.443-.831l.145-.475h-.027l-.646.053-.026.838a7.558,7.558,0,0,0,15.116,0l-.026-.891h-.672l.144.477A.665.665,0,0,1,935.031,926.239Zm-6.56,5.81a6.235,6.235,0,0,1-6.211-5.785h12.422A6.235,6.235,0,0,1,928.471,932.049Z" transform="translate(-670.263 -525.208)"/><path class="c" d="M921.73,915.472a.666.666,0,0,0,.443.831.637.637,0,0,0,.194.029.666.666,0,0,0,.637-.471l.264-.864,5.485-17.975-.523-1.727c-.106-.024-.21-.057-.315-.088L921.876,915Z" transform="translate(-670.527 -515.273)"/><path class="c" d="M932.19,895.445a4.641,4.641,0,0,1-.682-.106l.523,1.727,5.449,17.975.262.863a.666.666,0,0,0,.636.473.649.649,0,0,0,.194-.029.665.665,0,0,0,.444-.83l-.144-.477-5.947-19.617c-.133.012-.262.033-.4.033C932.412,895.457,932.3,895.454,932.19,895.445Z" transform="translate(-673.804 -515.317)"/><path class="c" d="M929.5,922.486a5.178,5.178,0,0,1,.465-1.178l.161-.4-.5-1.249a1.73,1.73,0,0,0-1.012-.979,1.922,1.922,0,0,0-1.538.091l-.837.425a.666.666,0,0,0,.386,1.254,2.416,2.416,0,0,1,2.464,1.447l.364.907.037.092a.667.667,0,0,0,.618.418l.019,0a.643.643,0,0,1-.186-.03A.664.664,0,0,1,929.5,922.486Z" transform="translate(-671.922 -523.079)"/><path class="c" d="M935.442,920.449a.666.666,0,0,0,.386-1.254l-.837-.425a1.922,1.922,0,0,0-1.538-.091,1.732,1.732,0,0,0-1.013.979l-.5,1.248-.161.4a5.179,5.179,0,0,0-.465,1.178.664.664,0,0,0,.44.795.64.64,0,0,0,.186.03l.019,0a.664.664,0,0,0,.618-.418l.038-.092.379-.946A2.392,2.392,0,0,1,935.442,920.449Z" transform="translate(-673.732 -523.078)"/><path class="c" d="M908.311,885.042c.112.009.223.012.333.012.139,0,.268-.021.4-.033a5.814,5.814,0,0,0,3.293-1.521.675.675,0,0,0,.1-.833.646.646,0,0,0-.774-.27c-.034.006-3.339.688-8.454-11.024-1.89-4.326-4.348-6.715-7.307-7.1a7.859,7.859,0,0,0-4.228.731,12.081,12.081,0,0,0-1.194.615,18.489,18.489,0,0,0-4.174,3.479,18.493,18.493,0,0,0-4.214-3.5,11.9,11.9,0,0,0-1.2-.609,7.884,7.884,0,0,0-4.21-.72c-2.961.387-5.419,2.775-7.308,7.1-5.108,11.7-8.411,11.037-8.422,11.034a.666.666,0,0,0-.7,1.093,5.8,5.8,0,0,0,3.311,1.533,4.163,4.163,0,0,0,1.423-.1c.1-.025.206-.055.309-.086a6.965,6.965,0,0,0,3.471-2.728c.609-.83,1.214-1.779,1.853-2.784,2.254-3.541,4.711-7.392,8.526-8.162a7,7,0,0,1,1.333-.139,10.854,10.854,0,0,1,5.448,1.658.674.674,0,0,0,.314.088l.1,0a.73.73,0,0,0,.347-.088,10.9,10.9,0,0,1,5.391-1.661,6.991,6.991,0,0,1,1.333.131c3.832.746,6.289,4.606,8.542,8.153.643,1.013,1.25,1.97,1.863,2.8a6.951,6.951,0,0,0,3.489,2.734c.1.031.209.064.315.088A4.637,4.637,0,0,0,908.311,885.042Zm-3.413-3.715c-.587-.8-1.182-1.737-1.813-2.73-2.485-3.914-5.66-8.915-11-8.915a12.007,12.007,0,0,0-5.765,1.692c-9.044-4.973-13.53,2.077-16.815,7.238-.628.986-1.22,1.918-1.8,2.711a5.041,5.041,0,0,1-3.5,2.386,3.563,3.563,0,0,1-1.73-.322c1.783-.833,4.645-3.5,8.133-11.487,1.688-3.864,3.793-5.988,6.257-6.311,4.463-.579,8.839,4.835,8.883,4.889a.668.668,0,0,0,.507.251l.093,0a.662.662,0,0,0,.536-.252c.043-.055,4.407-5.481,8.859-4.888,2.462.322,4.566,2.446,6.255,6.312,3.491,7.994,6.355,10.658,8.138,11.489a3.644,3.644,0,0,1-1.722.322A5.029,5.029,0,0,1,904.9,881.327Z" transform="translate(-649.926 -504.914)"/><path class="c" d="M897.067,926.626a8.4,8.4,0,0,0-3.612,0,7.983,7.983,0,0,0-.88.242c-.154.052-.3.113-.452.173a8.325,8.325,0,0,0-5.2,7.72.666.666,0,0,1,.666-.666h.7a7,7,0,0,1,13.946,0h.7a.666.666,0,0,1,.666.666,8.326,8.326,0,0,0-5.2-7.722c-.148-.061-.3-.121-.448-.172A7.788,7.788,0,0,0,897.067,926.626Z" transform="translate(-658.902 -525.709)"/><path class="c" d="M902.936,937.946H887.589a.666.666,0,0,0,0,1.332h15.347a.666.666,0,1,0,0-1.332Z" transform="translate(-658.902 -529.558)"/></g></svg>