<svg xmlns="http://www.w3.org/2000/svg" width="15.5" height="20.667" viewBox="0 0 15.5 20.667"><defs><style>.a{fill:#fff;opacity:0.9;}</style></defs><path class="a" d="M77.563,7.75h-.646V5.167a5.167,5.167,0,0,0-10.333,0V7.75h-.646A1.94,1.94,0,0,0,64,9.688v9.042a1.94,1.94,0,0,0,1.938,1.938H77.563A1.94,1.94,0,0,0,79.5,18.729V9.688A1.94,1.94,0,0,0,77.563,7.75ZM68.306,5.167a3.444,3.444,0,0,1,6.889,0V7.75H68.306ZM72.611,14.4v1.962a.861.861,0,1,1-1.722,0V14.4a1.722,1.722,0,1,1,1.722,0Z" transform="translate(-64)"/></svg>