<svg xmlns="http://www.w3.org/2000/svg" width="15.566" height="16.987" viewBox="0 0 15.566 16.987"><defs><style>.a{fill:#FF9C05;}.b{fill:#414853;}</style></defs><g transform="translate(-614.302 119.871)"><path class="a" d="M827.629-119.871a.814.814,0,0,1,.555.875c-.009,1.791-.005,3.582,0,5.373a.77.77,0,0,1-.356.735.706.706,0,0,1-1.062-.5,1.791,1.791,0,0,1-.018-.264c0-1.78.006-3.56,0-5.34a.813.813,0,0,1,.555-.874Z" transform="translate(-205.378)"/><path class="b" d="M619.963-67.859v.232c0,1.471,0,2.942,0,4.413a2.122,2.122,0,0,0,1.924,2.111,2.119,2.119,0,0,0,2.266-1.653,2.453,2.453,0,0,0,.052-.526c0-1.465,0-2.931,0-4.4v-.181a7.737,7.737,0,0,1,5.63,8.137,7.759,7.759,0,0,1-7.888,7.12,7.762,7.762,0,0,1-7.62-7.123A7.736,7.736,0,0,1,619.963-67.859Z" transform="translate(0 -50.283)"/></g></svg>