<svg xmlns="http://www.w3.org/2000/svg" width="18.281" height="18.281" viewBox="0 0 18.281 18.281"><defs><style>.a{fill:#414853;}.b{fill:#FF9C05;}</style></defs><g transform="translate(4.295 4.892)"><path class="a" d="M120.951,137h-.229l-.428,2.142h1.086Z" transform="translate(-120.293 -137)"/></g><g transform="translate(13.617 9.176)"><path class="b" d="M381.374,257a5.6,5.6,0,0,0,.879,1.552,5.654,5.654,0,0,0,.915-1.552Z" transform="translate(-381.374 -257)"/></g><g transform="translate(8.664 3.249)"><path class="b" d="M250.673,91h-6.651l1.387,11.129a1.663,1.663,0,0,1-.4,1.219l-2.349,2.684h8.01a1.609,1.609,0,0,0,1.607-1.607V92.642A1.639,1.639,0,0,0,250.673,91Zm0,5.927h-.143a6.8,6.8,0,0,1-1.29,2.346c.393.36.814.655,1.232.985a.535.535,0,0,1-.669.836c-.454-.359-.881-.659-1.308-1.05-.427.391-.818.692-1.272,1.05a.535.535,0,0,1-.669-.836c.418-.33.8-.626,1.2-.985a6.759,6.759,0,0,1-1.255-2.346h-.143a.536.536,0,0,1,0-1.071h1.607V95.32a.536.536,0,1,1,1.071,0v.536h1.642a.536.536,0,0,1,0,1.071Z" transform="translate(-242.663 -91)"/></g><path class="a" d="M8.718,1.407A1.609,1.609,0,0,0,7.124,0H1.607A1.609,1.609,0,0,0,0,1.607V13.461a1.609,1.609,0,0,0,1.607,1.607h8.446c.156-.179.287-.29.293-.524C10.347,14.486,8.725,1.465,8.718,1.407Zm-2.15,8.83a.535.535,0,0,1-.63-.42L5.6,8.105H4.081L3.739,9.817a.536.536,0,1,1-1.05-.21L3.76,4.251a.536.536,0,0,1,.525-.43H5.392a.536.536,0,0,1,.525.43L6.988,9.607A.536.536,0,0,1,6.568,10.237Z"/><g transform="translate(6.258 16.139)"><path class="a" d="M175.261,452l.092.735a1.62,1.62,0,0,0,.926,1.245l1.8-1.979Z" transform="translate(-175.261 -452)"/></g></svg>