<svg xmlns="http://www.w3.org/2000/svg" width="112.872" height="106.335" viewBox="0 0 112.872 106.335"><defs><style>.a{fill:#FF9C05;}.b{fill:#263357;}</style></defs><path class="a" d="M556.775,349.708H535.159l.461-15.435s-2.276-9.583-1.307-17.617c.842-6.978,4.743-12.5,7.086-13.161l12.284,2.622c1.8,1.9,4.94,10.539,4.94,10.539l6.753,5.4,17.557-2.7,1.351,6.753s-18.908,6.753-24.311,4.052C559.974,330.162,557.372,347.382,556.775,349.708Z" transform="translate(-524.294 -248.476)"/><path class="a" d="M603.334,295.689a4.239,4.239,0,1,1-5.191-3A4.239,4.239,0,0,1,603.334,295.689Z" transform="translate(-527.821 -247.842)"/><path class="a" d="M630.306,277.28l-3.963-14.79-23.489,6.294.8,3-22.42,6.007.325,1.214-14.736,4.19,1.547,5.773,14.736-4.19.575,2.147,22.419-6.007.712,2.656Z" transform="translate(-526.19 -246.102)"/><g transform="translate(24.901 54.869)"><path class="b" d="M558.876,318.424a1.414,1.414,0,0,1-1.4-1.237c-.347-2.738-2.15-10.063-6.274-11.064a1.414,1.414,0,0,1,.668-2.747c6.859,1.668,8.35,12.979,8.409,13.459a1.412,1.412,0,0,1-1.226,1.577A1.263,1.263,0,0,1,558.876,318.424Z" transform="translate(-550.123 -303.336)"/></g><g transform="translate(30.922 84.687)"><path class="b" d="M557.931,351.388a1.394,1.394,0,0,1-.139-.006,1.414,1.414,0,0,1-1.27-1.544l1.32-13.575a1.413,1.413,0,1,1,2.813.274l-1.319,13.575A1.414,1.414,0,0,1,557.931,351.388Z" transform="translate(-556.515 -334.986)"/></g><g transform="translate(26.955 42.818)"><path class="b" d="M563.891,332.516a1.375,1.375,0,0,1-.277-.027c-5.71-1.142-16.316-8.109-19.34-13.669a5.181,5.181,0,0,1-.606-4.444,1.414,1.414,0,0,1,2.628,1.041,2.706,2.706,0,0,0,.461,2.053c2.559,4.706,12.251,11.134,17.276,12.219,6.518-.075,21.625-5.256,21.778-5.308a1.386,1.386,0,0,1,.6-.07c2.7.268,5.642.117,6.393-.314a17.176,17.176,0,0,0-.793-5.086l-3.574-.371-3.275,1.689a1.372,1.372,0,0,1-.453.144l-19.274,2.675a1.413,1.413,0,0,1-.388-2.8l19.034-2.642,3.434-1.772a1.469,1.469,0,0,1,.794-.15l4.939.513a1.416,1.416,0,0,1,1.2.987c.281.9,1.648,5.523,1.042,7.722-.677,2.466-5.226,2.592-9.056,2.244C584.188,327.918,570.364,332.516,563.891,332.516Z" transform="translate(-543.397 -313.482)"/></g><g transform="translate(25.214 34.592)"><path class="b" d="M551.871,304.069a1.345,1.345,0,0,1-.273-.026,1.412,1.412,0,0,1-1.115-1.658l1.037-5.292a1.413,1.413,0,0,1,1.831-1.07,3.623,3.623,0,0,0,3.293-.14c1.358-.917,1.837-3.088,1.9-4.109a30.7,30.7,0,0,0-.6-8.257,1.413,1.413,0,0,1,2.766-.583,33.557,33.557,0,0,1,.659,9.016c-.125,2-1.022,4.845-3.138,6.274a5.832,5.832,0,0,1-4.216.855l-.754,3.849A1.413,1.413,0,0,1,551.871,304.069Z" transform="translate(-550.456 -281.813)"/></g><g transform="translate(15.051 26.988)"><path class="b" d="M542.566,302.165a1.412,1.412,0,0,1-1.315-1.928,17.806,17.806,0,0,0,1.379-5.2A17.6,17.6,0,0,0,541,289.474c-.18-.426-.376-.886-.585-1.4a9.4,9.4,0,0,1,.444-8.271,12.269,12.269,0,0,1,8.688-5.912c3.63-.621,6.869.819,9.239,1.87a16.477,16.477,0,0,0,2.084.829,2.2,2.2,0,0,1,1.693,1.746c.34,1.849-1.693,3.995-2.432,4.526-.036.025-.073.05-.11.072-.165.1-.425.292-.758.535-1.522,1.112-4.264,3.114-6.827,3.362l-1.16,1a1.413,1.413,0,0,1-1.844-2.141l1.527-1.314a1.417,1.417,0,0,1,.922-.342c1.818,0,4.447-1.919,5.713-2.843.388-.284.7-.51.921-.645a5.3,5.3,0,0,0,1.107-1.379c-.606-.207-1.256-.495-1.982-.818-2.155-.955-4.836-2.144-7.615-1.668a9.552,9.552,0,0,0-6.695,4.5,6.537,6.537,0,0,0-.3,5.83c.206.5.4.952.574,1.369a20.333,20.333,0,0,1,1.828,6.3c.236,1.836-1.128,5.509-1.552,6.591A1.413,1.413,0,0,1,542.566,302.165Z" transform="translate(-539.668 -273.742)"/></g><g transform="translate(8.956 53.121)"><path class="b" d="M534.66,349.34a1.477,1.477,0,0,1-.255-.023,1.414,1.414,0,0,1-1.137-1.643c1.051-5.779.633-13.745.265-20.775-.154-2.927-.3-5.69-.332-8.12-.116-8.778,7.331-16.545,7.648-16.871a1.413,1.413,0,0,1,2.029,1.968c-.071.073-6.951,7.268-6.851,14.867.031,2.374.175,5.111.327,8.009.377,7.184.8,15.324-.305,21.428A1.413,1.413,0,0,1,534.66,349.34Z" transform="translate(-533.2 -301.481)"/></g><g transform="translate(39.038 31.681)"><path class="b" d="M568.174,291.834a1.415,1.415,0,0,1-1.365-1.049l-1.631-6.089a1.414,1.414,0,0,1,.979-1.725l9.167-2.606a1.413,1.413,0,1,1,.773,2.718l-7.828,2.226.9,3.359,12.04-3.424-1.272-4.744a1.413,1.413,0,0,1,2.73-.732l1.633,6.09a1.414,1.414,0,0,1-.98,1.725l-14.759,4.2A1.381,1.381,0,0,1,568.174,291.834Z" transform="translate(-565.13 -278.723)"/></g><g transform="translate(53.331 23.88)"><path class="b" d="M584.277,288.9a1.414,1.414,0,0,1-1.364-1.047l-2.563-9.569a1.414,1.414,0,0,1,1-1.732l22.619-6.062a1.414,1.414,0,1,1,.732,2.731l-21.254,5.694,1.832,6.84,21.254-5.7a1.414,1.414,0,0,1,.732,2.731l-22.619,6.06A1.415,1.415,0,0,1,584.277,288.9Z" transform="translate(-580.301 -270.443)"/></g><g transform="translate(77.545 14.975)"><path class="b" d="M609.084,284.9a1.413,1.413,0,0,1-1.365-1.048l-1.667-6.226a1.413,1.413,0,1,1,2.73-.731l1.3,4.861,20.759-5.562-3.6-13.424a1.413,1.413,0,1,1,2.73-.732l3.963,14.789a1.415,1.415,0,0,1-1,1.732l-23.49,6.293A1.428,1.428,0,0,1,609.084,284.9Z" transform="translate(-606.003 -260.991)"/></g><g transform="translate(75.25 17.144)"><path class="b" d="M605.688,272.889a1.414,1.414,0,0,1-1.364-1.049l-.709-2.645a1.414,1.414,0,0,1,1-1.731l15.4-4.126a1.413,1.413,0,0,1,.733,2.73l-14.038,3.76.344,1.281a1.415,1.415,0,0,1-1,1.731A1.445,1.445,0,0,1,605.688,272.889Z" transform="translate(-603.567 -263.292)"/></g><g transform="translate(64.191 39.152)"><path class="b" d="M594.872,295.568a1.414,1.414,0,0,1-1.365-1.048l-1.631-6.09a1.413,1.413,0,1,1,2.73-.73l1.632,6.09a1.414,1.414,0,0,1-1.366,1.778Z" transform="translate(-591.828 -286.653)"/></g><g transform="translate(71.151 37.287)"><path class="b" d="M602.259,293.589a1.414,1.414,0,0,1-1.364-1.049l-1.631-6.09a1.413,1.413,0,0,1,2.73-.73l1.631,6.09a1.413,1.413,0,0,1-1,1.731A1.446,1.446,0,0,1,602.259,293.589Z" transform="translate(-599.216 -284.674)"/></g><g transform="translate(65.296 42.819)"><path class="b" d="M599.113,302.8a6.13,6.13,0,1,1,1.6-.211A6.17,6.17,0,0,1,599.113,302.8Zm.009-9.422a3.3,3.3,0,1,0,3.185,2.445A3.281,3.281,0,0,0,599.122,293.373Z" transform="translate(-593 -290.545)"/></g><g transform="translate(66.237 52.242)"><path class="b" d="M595.413,311.852A1.414,1.414,0,0,1,594,310.439V301.96a1.413,1.413,0,0,1,2.826,0v8.479A1.414,1.414,0,0,1,595.413,311.852Z" transform="translate(-594 -300.547)"/></g><g transform="translate(73.774 52.242)"><path class="b" d="M603.413,311.852A1.414,1.414,0,0,1,602,310.439V301.96a1.413,1.413,0,1,1,2.826,0v8.479A1.414,1.414,0,0,1,603.413,311.852Z" transform="translate(-602 -300.547)"/></g><g transform="translate(59.643 60.721)"><path class="b" d="M609.14,318.026h-8.479a1.413,1.413,0,0,1,0-2.826h7.066v-2.826H588.413a1.413,1.413,0,1,1,0-2.826H609.14a1.414,1.414,0,0,1,1.413,1.413v5.653A1.414,1.414,0,0,1,609.14,318.026Z" transform="translate(-587 -309.547)"/></g><g transform="translate(60.704 75.91)"><path class="b" d="M589.542,348.6a1.458,1.458,0,0,1-.322-.037,1.413,1.413,0,0,1-1.055-1.7l4.689-20.1a1.413,1.413,0,0,1,2.753.643l-4.689,20.1A1.415,1.415,0,0,1,589.542,348.6Z" transform="translate(-588.127 -325.67)"/></g><g transform="translate(74.987 67.711)"><path class="b" d="M612.118,351.588a1.414,1.414,0,0,1-1.375-1.092L603.325,318.7a1.413,1.413,0,1,1,2.753-.642l7.418,31.793a1.414,1.414,0,0,1-1.055,1.7A1.453,1.453,0,0,1,612.118,351.588Z" transform="translate(-603.288 -316.967)"/></g><g transform="translate(97.611 9.038)"><path class="b" d="M634.71,281.615a1.414,1.414,0,0,1-1.364-1.048l-6-22.375a1.416,1.416,0,0,1,1-1.732l6.439-1.725a1.418,1.418,0,0,1,1.731,1l5.995,22.375a1.415,1.415,0,0,1-1,1.732l-6.438,1.725A1.457,1.457,0,0,1,634.71,281.615Zm-4.264-22.79,5.265,19.646,3.708-.994-5.264-19.646Z" transform="translate(-627.302 -254.689)"/></g><g transform="translate(86.844 38.862)"><path class="b" d="M617.286,340.2a1.413,1.413,0,0,1-.957-2.453q.742-.681,1.455-1.392a1.413,1.413,0,0,1,2,2q-.753.749-1.536,1.47A1.407,1.407,0,0,1,617.286,340.2Zm6.044-6.61a1.413,1.413,0,0,1-1.12-2.272q.612-.8,1.194-1.622a1.413,1.413,0,1,1,2.309,1.63q-.613.868-1.261,1.711A1.407,1.407,0,0,1,623.33,333.585Zm4.82-7.548a1.414,1.414,0,0,1-1.25-2.07q.466-.89.9-1.8a1.413,1.413,0,1,1,2.556,1.207q-.455.965-.95,1.907A1.41,1.41,0,0,1,628.15,326.037Zm3.445-8.272a1.412,1.412,0,0,1-1.346-1.84q.3-.958.571-1.933a1.413,1.413,0,0,1,2.726.749q-.281,1.027-.6,2.038A1.413,1.413,0,0,1,631.595,317.765Zm1.96-8.743a1.318,1.318,0,0,1-.191-.013,1.412,1.412,0,0,1-1.212-1.588q.134-.995.228-2a1.413,1.413,0,1,1,2.814.263q-.1,1.064-.241,2.116A1.414,1.414,0,0,1,633.555,309.023Zm.422-8.949a1.413,1.413,0,0,1-1.411-1.357q-.041-1.012-.117-2.012a1.413,1.413,0,0,1,2.817-.22c.056.7.1,1.408.124,2.119a1.414,1.414,0,0,1-1.357,1.469Zm-1.112-8.887a1.414,1.414,0,0,1-1.38-1.116q-.211-.988-.462-1.96a1.413,1.413,0,0,1,2.738-.7q.264,1.026.488,2.07a1.412,1.412,0,0,1-1.384,1.709Z" transform="translate(-615.873 -286.345)"/></g><path class="b" d="M529.224,319.974a1.412,1.412,0,0,1-1.3-.859q-.415-.975-.794-1.971a1.413,1.413,0,1,1,2.642-1q.359.943.752,1.867a1.413,1.413,0,0,1-1.3,1.967Zm-2.781-8.513a1.413,1.413,0,0,1-1.375-1.094q-.24-1.032-.44-2.076a1.413,1.413,0,0,1,2.776-.534q.192.993.417,1.972a1.411,1.411,0,0,1-1.057,1.7A1.429,1.429,0,0,1,526.443,311.461Zm-1.264-8.867a1.413,1.413,0,0,1-1.41-1.336q-.058-1.054-.075-2.123a1.413,1.413,0,0,1,2.826-.044q.015,1.01.072,2.012a1.414,1.414,0,0,1-1.334,1.489Zm.273-8.949a1.413,1.413,0,0,1-1.406-1.577q.125-1.058.289-2.106a1.413,1.413,0,1,1,2.791.438q-.155.992-.272,2A1.414,1.414,0,0,1,525.452,293.645Zm1.8-8.771a1.4,1.4,0,0,1-.405-.058,1.413,1.413,0,0,1-.951-1.758q.305-1.022.649-2.025a1.413,1.413,0,0,1,2.674.915q-.325.951-.614,1.917A1.413,1.413,0,0,1,527.253,284.874Zm3.3-8.329a1.414,1.414,0,0,1-1.263-2.045q.476-.952.991-1.884a1.413,1.413,0,0,1,2.475,1.363q-.486.882-.938,1.785A1.413,1.413,0,0,1,530.549,276.545Zm4.689-7.635a1.413,1.413,0,0,1-1.134-2.254q.633-.855,1.3-1.684a1.413,1.413,0,0,1,2.2,1.77q-.63.786-1.231,1.6A1.412,1.412,0,0,1,535.238,268.91Zm5.93-6.714a1.413,1.413,0,0,1-.975-2.435q.767-.732,1.567-1.436a1.413,1.413,0,0,1,1.868,2.122q-.756.664-1.485,1.358A1.408,1.408,0,0,1,541.167,262.2Zm67.619-3.3a1.4,1.4,0,0,1-.871-.3q-.793-.62-1.609-1.209a1.413,1.413,0,1,1,1.652-2.293q.864.623,1.7,1.279a1.413,1.413,0,0,1-.872,2.524Zm-60.631-2.29a1.413,1.413,0,0,1-.787-2.588q.882-.589,1.789-1.145a1.413,1.413,0,1,1,1.475,2.41q-.858.524-1.693,1.084A1.409,1.409,0,0,1,548.156,256.6Zm53.127-2.6a1.394,1.394,0,0,1-.665-.168q-.886-.473-1.794-.912a1.414,1.414,0,0,1,1.231-2.546q.959.464,1.895.967a1.413,1.413,0,0,1-.667,2.659ZM556,252.29a1.413,1.413,0,0,1-.57-2.707q.967-.425,1.954-.816a1.413,1.413,0,0,1,1.038,2.629q-.934.369-1.853.773A1.415,1.415,0,0,1,556,252.29Zm37.051-1.815a1.4,1.4,0,0,1-.439-.071q-.955-.312-1.926-.589a1.413,1.413,0,1,1,.771-2.719c.684.194,1.36.4,2.034.622a1.413,1.413,0,0,1-.44,2.757ZM564.467,249.4a1.413,1.413,0,0,1-.338-2.785c.688-.17,1.378-.326,2.076-.467a1.413,1.413,0,1,1,.563,2.769q-.989.2-1.962.442A1.4,1.4,0,0,1,564.467,249.4Zm19.862-.969a1.369,1.369,0,0,1-.2-.015c-.661-.1-1.327-.177-2-.247a1.413,1.413,0,0,1-1.261-1.55,1.432,1.432,0,0,1,1.55-1.261q1.063.109,2.114.261a1.413,1.413,0,0,1-.2,2.812Zm-11.015-.41a1.413,1.413,0,0,1-.094-2.823q1.056-.073,2.123-.1a1.394,1.394,0,0,1,1.454,1.371,1.413,1.413,0,0,1-1.372,1.454q-1.01.03-2.011.1C573.379,248.023,573.346,248.024,573.313,248.024Z" transform="translate(-523.693 -245.095)"/><g transform="translate(36.406 98.831)"><path class="b" d="M581.452,357.5a1.413,1.413,0,0,1-.063-2.824q1.009-.047,2.01-.13a1.413,1.413,0,1,1,.236,2.817q-1.054.088-2.118.136Zm-6.891-.148c-.042,0-.083,0-.125-.006q-1.063-.095-2.114-.228a1.413,1.413,0,0,1,.361-2.8q.992.127,2,.216a1.413,1.413,0,0,1-.122,2.821Zm15.769-1.016a1.413,1.413,0,0,1-.305-2.792q.986-.22,1.959-.475a1.413,1.413,0,1,1,.717,2.734q-1.023.27-2.063.5A1.375,1.375,0,0,1,590.331,356.339Zm-24.591-.533a1.453,1.453,0,0,1-.366-.048q-1.027-.274-2.041-.589a1.413,1.413,0,1,1,.835-2.7q.961.3,1.937.559a1.413,1.413,0,0,1-.365,2.778Zm33.138-2.151a1.413,1.413,0,0,1-.543-2.719q.933-.386,1.847-.806a1.413,1.413,0,1,1,1.181,2.566q-.962.444-1.945.852A1.409,1.409,0,0,1,598.878,353.655Z" transform="translate(-562.336 -349.999)"/></g></svg>