<svg xmlns="http://www.w3.org/2000/svg" width="17.85" height="17.597" viewBox="0 0 17.85 17.597"><defs><style>.a{fill:#414853;}.b{fill:#FF9C05;}</style></defs><g transform="translate(-1376.394 597.924)"><path class="a" d="M1376.394-580.55v-.209c.08-.1.156-.2.242-.294a5.506,5.506,0,0,0,1.528-3.786c.016-4.211.006-8.423.007-12.635,0-.339.107-.448.448-.448h12.231c.34,0,.45.11.45.449q0,3.52,0,7.041c0,.356-.157.483-.506.425a5.338,5.338,0,0,0-3.906.824.655.655,0,0,1-.335.1c-1.853.006-3.705,0-5.558,0-.31,0-.474.115-.479.334s.167.348.482.348h4.954c-.053.063-.085.094-.11.131-.269.4-.55.788-.8,1.2a.5.5,0,0,1-.47.284c-1.2-.006-2.393,0-3.589,0a.983.983,0,0,0-.191.01.34.34,0,0,0-.277.334.335.335,0,0,0,.286.325,1.1,1.1,0,0,0,.191.011h2.834c0,.022.006.029,0,.034-.008.028-.016.055-.026.082a1.314,1.314,0,0,0,.294,1.463,3.179,3.179,0,0,1,.278.288.828.828,0,0,1,.164.333,4.89,4.89,0,0,0,.63,1.814,13.045,13.045,0,0,0,.856,1.159c.173.221.145.489-.09.575a.764.764,0,0,1-.257.029q-4.408,0-8.816,0A.493.493,0,0,1,1376.394-580.55Zm8.352-10.816h-2.108c-.581,0-1.162,0-1.742,0a.337.337,0,0,0-.375.287c-.035.218.136.382.4.383h5.628c.674,0,1.347,0,2.021,0a.339.339,0,0,0,.364-.429c-.042-.159-.174-.242-.394-.242Zm.013-2.295h-3.816c-.263,0-.422.125-.427.331s.155.34.431.343h7.527a1.416,1.416,0,0,0,.191-.007.322.322,0,0,0,.283-.323c0-.212-.142-.343-.391-.343Z" transform="translate(0 0)"/><path class="b" d="M1616.357-341.141a1.04,1.04,0,0,1,.186-.1.321.321,0,0,1,.381.134.32.32,0,0,1-.047.429q-.376.388-.763.764a.332.332,0,0,1-.5,0q-.388-.376-.764-.764a.332.332,0,0,1,0-.483.33.33,0,0,1,.47,0c.084.079.151.174.254.294.049-.19.081-.323.117-.455a4.358,4.358,0,0,1,4.5-3.184,4.37,4.37,0,0,1,4.036,3.74,4.362,4.362,0,0,1-3.787,4.953,4.243,4.243,0,0,1-3.6-1.209.336.336,0,0,1,.118-.593.358.358,0,0,1,.361.119,3.756,3.756,0,0,0,1.615.921,3.694,3.694,0,0,0,4.608-2.989,3.693,3.693,0,0,0-3.828-4.268,3.712,3.712,0,0,0-3.345,2.6C1616.366-341.214,1616.365-341.191,1616.357-341.141Z" transform="translate(-230.033 -244.559)"/><path class="b" d="M1752.641-301.552q0-.635,0-1.271a.324.324,0,0,1,.246-.339.3.3,0,0,1,.373.147.585.585,0,0,1,.051.267c0,.731,0,1.463.007,2.194a.434.434,0,0,0,.11.269c.32.336.654.659.98.989a.353.353,0,0,1,.067.471.323.323,0,0,1-.489.053q-.638-.617-1.254-1.256a.432.432,0,0,1-.086-.271c-.009-.418,0-.836,0-1.253Z" transform="translate(-363.11 -284.455)"/></g></svg>