<svg xmlns="http://www.w3.org/2000/svg" width="14.655" height="12.837" viewBox="0 0 14.655 12.837"><defs><style>.a{fill:#f8f8f8;fill-rule:evenodd;}</style></defs><path class="a" d="M36.992,71.6a1.247,1.247,0,0,0,1.247,1.247H40.11v1.924a.624.624,0,0,0,1.069.437l2.36-2.361H50.4A1.247,1.247,0,0,0,51.647,71.6v-7.8A1.247,1.247,0,0,0,50.4,62.561H38.239a1.247,1.247,0,0,0-1.247,1.247v7.8Zm3.742-3.586a.779.779,0,1,1,.779.779A.78.78,0,0,1,40.734,68.018Zm2.806,0a.78.78,0,1,1,.779.779A.78.78,0,0,1,43.54,68.018Zm2.806,0a.779.779,0,1,1,.78.779A.78.78,0,0,1,46.346,68.018Z" transform="translate(-36.992 -62.561)"/></svg>