<svg xmlns="http://www.w3.org/2000/svg" width="11.165" height="13.236" viewBox="0 0 11.165 13.236"><defs><style>.a{fill:#fff;}</style></defs><path class="a" d="M302.786,148.651a8.891,8.891,0,0,0,3.2,4.533c.525.391.335.372.855,0,.227-.163.44-.345.671-.5a.924.924,0,0,1,1.34.188c.552.7,1.086,1.419,1.61,2.142a.9.9,0,0,1-.123,1.245,3.029,3.029,0,0,1-2.981.838,8.105,8.105,0,0,1-3.533-2.029,15.617,15.617,0,0,1-3.934-5.638,5.04,5.04,0,0,1-.166-3.474,3.177,3.177,0,0,1,1.486-1.828.906.906,0,0,1,1.256.216q.824,1.056,1.606,2.145a.932.932,0,0,1-.19,1.341c-.169.145-.352.275-.53.409S302.99,148.5,302.786,148.651Z" transform="translate(-299.489 -143.966)"/></svg>