<svg xmlns="http://www.w3.org/2000/svg" width="46" height="55.416" viewBox="0 0 46 55.416"><defs><style>.a{fill:#f8f8f8;}</style></defs><path class="a" d="M3111.218,1653.219h2.265a8.047,8.047,0,0,0,1.068.281,10.987,10.987,0,0,1,9.98,8.823c.191.777.341,1.564.479,2.352.845,4.815-.534,8.753-4.593,11.633-.61.432-1.191.9-1.779,1.352a5.758,5.758,0,0,1,.063,6.345,39.111,39.111,0,0,1-3.826,5.589c-2.374,2.925-4.409,5.941-4.874,9.826a3.877,3.877,0,0,1-1.375,2.332,17.865,17.865,0,0,1-3.591,1.94,1.924,1.924,0,0,1-1.455.106,4.742,4.742,0,0,1-1.737-6.275c.313-.526.589-1.08.945-1.575a1.342,1.342,0,0,0-.253-2.068,13.816,13.816,0,0,1-4.341-9.393c-.061-.705-.092-1.414-.11-2.121s0-1.4,0-2.1a13.182,13.182,0,0,0-.6,8.707,26.406,26.406,0,0,1,.832,4.564c.2,5.012-.685,9.772-3.851,13.866a16.689,16.689,0,0,1-1.155,1.228c1.085-6.448-1.627-11.358-5.591-15.832a28.661,28.661,0,0,1-2.785-3.2,12.111,12.111,0,0,1-2.195-4.487,69.368,69.368,0,0,1-.388-9.185c-.02-2.905-.076-3.083-2.843-4.009-.066-.022-.114-.1-.256-.238,1.769-1.383,3.515-2.65,5.834-2.967,2.457-.335,4.888-.855,7.33-1.3,1.23-.223,2.1-.793,2-2.3a18.9,18.9,0,0,0,2.578.527c.985.064,1.2.486,1.223,1.423.2,7.433,5.112,10.995,12.118,9.939,3.478-.525,6.354-3.335,6.713-6.291-.5.847-.953,1.734-1.525,2.532-2.254,3.146-5.5,3.776-9.048,3.326a7.833,7.833,0,0,1-7.049-6.053,12.765,12.765,0,0,1,3.122-12.708A14.4,14.4,0,0,1,3111.218,1653.219ZM3109,1669.4a5.226,5.226,0,0,0,5.01-3.444,1.5,1.5,0,0,0-.061-.828c-.746-2.968-4.741-2.911-6.714-1.468a3.555,3.555,0,0,0-1.652,3.761C3105.925,1668.607,3107.287,1669.4,3109,1669.4Zm4.9,16.452c-.982.719-1.766,1.214-2.446,1.828a1.963,1.963,0,0,0-.446,1.1,4.373,4.373,0,0,0,1.625.643c.151.021.459-.618.583-.991C3113.447,1687.728,3113.6,1687,3113.9,1685.853Z" transform="translate(-3079.248 -1653.219)"/></svg>