<svg xmlns="http://www.w3.org/2000/svg" width="35.997" height="36" viewBox="0 0 35.997 36"><defs><style>.a{fill:#FF9C05;}</style></defs><path class="a" d="M-696.407-20h.7a3.664,3.664,0,0,1,2.032,1.569,2.957,2.957,0,0,0,3.765.992,6.526,6.526,0,0,1,.882-.339,2.291,2.291,0,0,1,3.031,1.7,7.567,7.567,0,0,1,.188,1.139,2.968,2.968,0,0,0,2.623,2.609,8.468,8.468,0,0,1,.937.133,2.333,2.333,0,0,1,2,2.024,3.718,3.718,0,0,1-.433,1.927,2.947,2.947,0,0,0,1.045,3.831,3.649,3.649,0,0,1,1.577,1.986v.7a3.774,3.774,0,0,1-.444.9A8.175,8.175,0,0,1-679.734.314a3,3,0,0,0-.992,3.691,7.371,7.371,0,0,1,.378.98,2.287,2.287,0,0,1-1.68,2.99,7.961,7.961,0,0,1-1.174.2,2.96,2.96,0,0,0-2.606,2.628c-.036.314-.07.629-.133.938a2.34,2.34,0,0,1-2.034,1.992,3.5,3.5,0,0,1-1.83-.4,2.984,2.984,0,0,0-3.973,1.074,5.969,5.969,0,0,1-.934,1.042,1.909,1.909,0,0,1-2.678.007,6.117,6.117,0,0,1-.957-1.067,3,3,0,0,0-3.921-1.078,5.684,5.684,0,0,1-1.127.375,2.2,2.2,0,0,1-2.635-1.5,7.081,7.081,0,0,1-.274-1.407,2.972,2.972,0,0,0-2.6-2.6c-.314-.037-.629-.07-.938-.131a2.277,2.277,0,0,1-2.015-2.528,5.332,5.332,0,0,1,.452-1.464,3.016,3.016,0,0,0-1.024-3.77,7.012,7.012,0,0,1-.915-.763,2.137,2.137,0,0,1-.007-3.189,7.366,7.366,0,0,1,.941-.787,2.99,2.99,0,0,0,1-3.743,6.839,6.839,0,0,1-.366-.947,2.28,2.28,0,0,1,1.687-2.982,7.228,7.228,0,0,1,1.139-.2,2.96,2.96,0,0,0,2.637-2.637c.035-.3.067-.606.129-.9a2.265,2.265,0,0,1,2.531-2.007,5.876,5.876,0,0,1,1.53.476,2.967,2.967,0,0,0,3.652-1.009A3.7,3.7,0,0,1-696.407-20Zm5.836,8.853L-703.223,5.726l1.684,1.264,12.65-16.871Zm-9.7-.418a3.169,3.169,0,0,0-3.164,3.14,3.176,3.176,0,0,0,3.159,3.184,3.182,3.182,0,0,0,3.165-3.145A3.167,3.167,0,0,0-700.273-11.565ZM-695,4.2a3.175,3.175,0,0,0,3.129,3.214,3.176,3.176,0,0,0,3.2-3.112,3.169,3.169,0,0,0-3.092-3.212A3.175,3.175,0,0,0-695,4.2Z" transform="translate(714.057 20)"/></svg>