<svg xmlns="http://www.w3.org/2000/svg" width="63.287" height="54.247" viewBox="0 0 63.287 54.247"><defs><style>.a{fill:#FF9C05;}.b{fill:#333;}</style></defs><g transform="translate(-205.357 -477.268)"><path class="a" d="M363.3,926.609c5.911-7.2,7.283-14.758,4.092-21.458a10.58,10.58,0,0,0-7-.852,25.725,25.725,0,0,1-5.913,12.058,1.074,1.074,0,0,1-.851.383c-.031,0-.062,0-.094,0a1.63,1.63,0,0,1-.316-.062C355.363,919.613,361.82,926.45,363.3,926.609Zm-2.236-10.9a2.16,2.16,0,0,1,1.414-.542h.013a1.8,1.8,0,0,1,1.8,2.066,2.2,2.2,0,0,1-2.143,1.881,1.832,1.832,0,0,1-1.394-.615A1.992,1.992,0,0,1,361.061,915.7Z" transform="translate(-101.737 -397.573)"/><path class="a" d="M367.411,924.548a.87.87,0,0,0,.3-.54.52.52,0,0,0-.54-.619h-.005a.873.873,0,0,0-.571.226.636.636,0,1,0,.814.933Zm-.407-.974a.508.508,0,1,1-.508.508A.508.508,0,0,1,367,923.574Z" transform="translate(-106.43 -404.517)"/><path class="a" d="M319.991,919.134a22.927,22.927,0,0,0-2.1,1.543,7.1,7.1,0,0,1,1.991.813C319.88,920.662,319.932,919.81,319.991,919.134Z" transform="translate(-89.057 -402.989)"/><path class="a" d="M305.544,920a37.418,37.418,0,0,1,5.878-7.1,24.184,24.184,0,0,1,4.515-3.327c4.816-2.708,9.306-2.786,12.94-1.386a49.8,49.8,0,0,1-3.974-4.781,12.458,12.458,0,0,0-10.086-5.94c-.174.145-.348.29-.519.441C307.666,903.754,304.391,912.1,305.544,920Z" transform="translate(-84.541 -395.213)"/><path class="a" d="M370.265,899.34a22.144,22.144,0,0,0-2.476-3.292,18.79,18.79,0,0,0-3.885-3.271,17.762,17.762,0,0,1,.5,6.128A11.808,11.808,0,0,1,370.265,899.34Z" transform="translate(-105.572 -393.528)"/><path class="a" d="M360.122,879.669a10.584,10.584,0,0,1-1.128,1.832,20.494,20.494,0,0,1,2.567,4.742c.506.273,1,.565,1.481.879Z" transform="translate(-103.811 -388.822)"/><path class="a" d="M304.8,901.744a23,23,0,0,0-2.1,1.542,7.12,7.12,0,0,1,1.994.808C304.691,903.268,304.744,902.419,304.8,901.744Z" transform="translate(-83.604 -396.747)"/><path class="a" d="M308.8,886.442h.038a13.669,13.669,0,0,1,10.361,4.739,10.861,10.861,0,0,1,3.626-8.9,11.483,11.483,0,0,1,11.225-2.156,22.144,22.144,0,0,0-2.467-3.278c-7.892-8.715-22.454-8.635-32.461.18-6.533,5.755-9.864,14.273-8.749,22.086C295.712,890.948,302.218,886.46,308.8,886.442Zm18.1-10.32a.641.641,0,1,1-.945.866,2.708,2.708,0,0,0-3.992,3.661.641.641,0,0,1-.04.906.626.626,0,0,1-.212.128.506.506,0,0,1-.076.014.637.637,0,0,1-.145.027l-.014,0a.659.659,0,0,1-.16-.033.652.652,0,0,1-.086-.021.642.642,0,0,1-.213-.151,2.694,2.694,0,0,0-1.879-.876,2.734,2.734,0,0,0-1.947.71,2.707,2.707,0,0,0-.165,3.826.641.641,0,0,1-.946.866,3.99,3.99,0,0,1,3.114-6.683,4.019,4.019,0,0,1,.831.126,4.016,4.016,0,0,1-.053-.839,3.99,3.99,0,0,1,6.927-2.524Zm-11.858-1.8a3.656,3.656,0,0,1,5.156.224.641.641,0,1,1-.945.867,2.368,2.368,0,1,0-3.49,3.2.641.641,0,0,1-.945.867A3.654,3.654,0,0,1,315.042,874.324Z" transform="translate(-79.1 -385.482)"/><path class="a" d="M338.877,866.725a21.512,21.512,0,0,1,7.21,3l-2.93-7.477A9.6,9.6,0,0,1,338.877,866.725Z" transform="translate(-96.589 -382.568)"/><path class="a" d="M351.409,906.212h0a.866.866,0,0,0-.3.538.562.562,0,0,0,.119.443.542.542,0,0,0,.426.177.92.92,0,0,0,.872-.765.561.561,0,0,0-.119-.442.5.5,0,0,0-.428-.178A.875.875,0,0,0,351.409,906.212Zm.915.467a.508.508,0,1,1-.508-.508A.508.508,0,0,1,352.325,906.678Z" transform="translate(-100.978 -398.267)"/><path class="a" d="M340.636,889.088a9.982,9.982,0,0,0-2.85,10.152c1.867,2.635,8.581,9.807,10.109,9.965,5.911-7.2,7.283-14.759,4.09-21.46A10.288,10.288,0,0,0,340.636,889.088Zm8.254,10.737a2.2,2.2,0,0,1-2.144,1.883h-.013a1.8,1.8,0,0,1-1.8-2.065,2.2,2.2,0,0,1,2.144-1.884h.014a1.8,1.8,0,0,1,1.8,2.067Z" transform="translate(-96.07 -391.322)"/><path class="b" d="M282.141,919.094a.641.641,0,0,0-.659,1.078l.833.729a2.126,2.126,0,0,0,1.4.529,2.04,2.04,0,0,0,.224-.012,1.9,1.9,0,0,0,1.342-.765l1.151-1.573-.021-.153a6.214,6.214,0,0,1-.171-1.056.585.585,0,0,1-.037-.1c-.032-.146-.051-.294-.08-.441l-.6.822A2.977,2.977,0,0,1,282.141,919.094Z" transform="translate(-75.907 -402.342)"/><path class="b" d="M290.175,918.237a.965.965,0,0,0-.092.085.645.645,0,0,1-.638.184.638.638,0,0,1-.421-.381,6.213,6.213,0,0,0,.171,1.056l.021.153.256,1.932a1.9,1.9,0,0,0,.812,1.315,2.1,2.1,0,0,0,1.2.375,2.154,2.154,0,0,0,.468-.052l1.081-.241a.641.641,0,0,0-.061-1.262,2.994,2.994,0,0,1-2.52-2.487l-.117-.879c-.012.018-.024.035-.035.054A.622.622,0,0,1,290.175,918.237Z" transform="translate(-78.692 -402.594)"/><path class="b" d="M351.261,903.989a2.2,2.2,0,0,0-2.144,1.884,1.8,1.8,0,0,0,1.8,2.065h.013a2.2,2.2,0,0,0,2.144-1.883,1.8,1.8,0,0,0-1.8-2.067Zm.428,1.46a.561.561,0,0,1,.119.442.92.92,0,0,1-.872.765.542.542,0,0,1-.426-.177.562.562,0,0,1-.119-.443.866.866,0,0,1,.3-.538h0a.875.875,0,0,1,.571-.226A.5.5,0,0,1,351.689,905.449Z" transform="translate(-100.26 -397.553)"/><path class="b" d="M288.709,900.3a.638.638,0,0,0,.421.381.645.645,0,0,0,.638-.184.969.969,0,0,1,.092-.085.621.621,0,0,0,.126-.149c.011-.019.023-.035.035-.054a37.806,37.806,0,0,1,6.2-7.786c-.081,0-.16-.005-.242,0l-.038-1.282a6.365,6.365,0,0,1,1.54.17,23,23,0,0,1,2.1-1.542c.059-.681.124-1.186.141-1.31l1.271.171c0,.022-.018.136-.039.316a15.505,15.505,0,0,1,5.705-1.844c.211-.2.413-.4.631-.591.244-.215.492-.426.742-.629l.81.994c-.062.05-.122.105-.183.156a12.459,12.459,0,0,1,10.086,5.94,49.8,49.8,0,0,0,3.974,4.781,14.071,14.071,0,0,1,6.353,4.956l.526-.074c.054.389.134.789.231,1.189l.037.05a1.634,1.634,0,0,0,.316.062c.031,0,.062,0,.094,0a1.074,1.074,0,0,0,.851-.383,25.724,25.724,0,0,0,5.913-12.058c-.142.032-.285.056-.426.094l-.335-1.237c.308-.083.62-.149.932-.206a17.763,17.763,0,0,0-.5-6.128c-.459-.292-.927-.57-1.411-.822a.643.643,0,0,1-.236-.213l.534-.358.3-.566c.079.042.156.088.236.131a20.5,20.5,0,0,0-2.567-4.742c-.1.133-.2.266-.314.4a.734.734,0,0,1-.088.085l-.4-.5-.485-.412c.178-.208.338-.417.484-.626-.3-.374-.613-.747-.946-1.113a20.245,20.245,0,0,0-1.988-1.907l.054.138-1.194.468-.8-2.051a21.513,21.513,0,0,0-7.21-3,9.137,9.137,0,0,1-2.649.838l-.2-1.266c.021,0,.039-.009.06-.013a27.137,27.137,0,0,0-20.326,6.869c-7.294,6.424-10.692,15.736-8.957,24.4.03.147.048.295.08.441A.583.583,0,0,0,288.709,900.3Zm9.688-23.983c10.008-8.815,24.57-8.9,32.461-.18a22.142,22.142,0,0,1,2.467,3.278,12.189,12.189,0,0,1,1.57.644l-.569,1.149-.033-.014c3.192,6.7,1.821,14.263-4.09,21.46-1.528-.158-8.242-7.331-10.109-9.965.008.033.013.065.022.1l-1.242.315a13.425,13.425,0,0,1-.4-2.633,13.668,13.668,0,0,0-10.361-4.738h-.038c-6.579.018-13.086,4.505-18.427,12.672C288.532,890.587,291.863,882.069,298.4,876.314Z" transform="translate(-78.378 -384.767)"/><path class="b" d="M339.075,887.405a10.861,10.861,0,0,0-3.626,8.9,13.422,13.422,0,0,0,.4,2.633l1.242-.315c-.008-.033-.013-.066-.022-.1a9.982,9.982,0,0,1,2.85-10.152,10.288,10.288,0,0,1,11.349-1.342l.033.014.569-1.149a12.168,12.168,0,0,0-1.57-.644A11.482,11.482,0,0,0,339.075,887.405Z" transform="translate(-95.353 -390.604)"/><path class="b" d="M304.081,899.7c-.017.124-.082.628-.141,1.31s-.111,1.524-.1,2.35a7.118,7.118,0,0,0-1.994-.808,6.36,6.36,0,0,0-1.54-.17l.038,1.282c.082,0,.161,0,.242,0a5.833,5.833,0,0,1,3.53,1.474.641.641,0,0,0,1.08-.545,21.4,21.4,0,0,1,.12-4.409c.021-.18.036-.294.039-.316Z" transform="translate(-82.741 -396.013)"/><path class="b" d="M334.631,866.213a9.139,9.139,0,0,0,2.649-.838,9.6,9.6,0,0,0,4.281-4.478l2.929,7.477.8,2.051,1.194-.468-.054-.138-4.281-10.926a.641.641,0,0,0-1.221.086,8.189,8.189,0,0,1-6.443,5.955c-.021,0-.039.01-.06.013Z" transform="translate(-94.992 -381.218)"/><path class="b" d="M301.426,935.28a.705.705,0,0,1-.037-.1l-.019-.09h0a.534.534,0,0,1-.017-.063c-.021-.1-.032-.194-.051-.291l-.6.817a2.967,2.967,0,0,1-3.379.941.641.641,0,0,0-.658,1.078l.833.73a2.124,2.124,0,0,0,1.4.529,2.009,2.009,0,0,0,.224-.013,1.9,1.9,0,0,0,1.343-.765l1.15-1.573-.02-.152A6.3,6.3,0,0,1,301.426,935.28Z" transform="translate(-81.358 -408.591)"/><path class="b" d="M305.367,935.632a.91.91,0,0,1-.07.065.408.408,0,0,1-.038.036.628.628,0,0,1-1.046-.2,6.3,6.3,0,0,0,.171,1.051l.02.152.256,1.931a1.9,1.9,0,0,0,.811,1.315,2.1,2.1,0,0,0,1.2.376,2.149,2.149,0,0,0,.468-.052l1.081-.242a.641.641,0,0,0-.062-1.262,2.994,2.994,0,0,1-2.52-2.486l-.117-.881-.035.055A.653.653,0,0,1,305.367,935.632Z" transform="translate(-84.145 -408.84)"/><path class="b" d="M366.125,925.337a2.2,2.2,0,0,0,2.143-1.881,1.8,1.8,0,0,0-1.8-2.066h-.013a2.16,2.16,0,0,0-1.414.542,1.992,1.992,0,0,0-.305,2.791A1.832,1.832,0,0,0,366.125,925.337Zm-.245-2.44a.873.873,0,0,1,.571-.226h.005a.521.521,0,0,1,.54.619.87.87,0,0,1-.3.54.636.636,0,1,1-.814-.933Z" transform="translate(-105.712 -403.799)"/><path class="b" d="M343.867,892.792l-.807-2.06c-.479-.314-.975-.606-1.481-.88-.079-.043-.156-.089-.236-.131l-.3.566-.534.358a.643.643,0,0,0,.236.213c.484.253.952.53,1.411.822a18.789,18.789,0,0,1,3.885,3.271,22.149,22.149,0,0,1,2.476,3.292,12.239,12.239,0,0,1,1.56.631l-.569,1.149-.031-.014c3.191,6.7,1.819,14.262-4.092,21.458-1.478-.16-7.934-7-10.078-9.934l-.037-.05c.009.038.015.076.025.114l-.558.14-.513.472a.656.656,0,0,1-.172-.3,14.091,14.091,0,0,1-.282-1.435l.744-.105a14.071,14.071,0,0,0-6.353-4.956c-3.633-1.4-8.124-1.322-12.94,1.386a24.186,24.186,0,0,0-4.515,3.327,37.42,37.42,0,0,0-5.878,7.1c-1.154-7.9,2.121-16.249,8.753-22.089.171-.151.345-.3.519-.441.062-.051.122-.106.183-.156l-.81-.994c-.249.2-.5.414-.742.629-.217.192-.42.394-.631.591-6.841,6.388-10.012,15.408-8.33,23.817.019.1.031.194.051.291a.534.534,0,0,0,.017.063h0l.019.09a.712.712,0,0,0,.036.1.628.628,0,0,0,1.046.2.406.406,0,0,0,.038-.036.881.881,0,0,0,.071-.065.653.653,0,0,0,.122-.144l.035-.055a37.741,37.741,0,0,1,6.195-7.788c-.079,0-.158,0-.239,0l-.039-1.282a6.176,6.176,0,0,1,1.544.165,22.919,22.919,0,0,1,2.1-1.543c.059-.678.124-1.179.14-1.3l1.271.17c0,.022-.019.138-.04.323,7.859-4.251,14.716-.93,17.8,4.026q.088.138.221.328l.014.019c1.29,1.8,8.733,10.52,11.242,10.612h.049a1.074,1.074,0,0,0,.85-.383c7.974-9.647,8.226-19.954.689-28.279a20.065,20.065,0,0,0-1.991-1.91l.056.144Z" transform="translate(-83.829 -392.43)"/><path class="b" d="M370.98,904.433l.031.014.569-1.149a12.268,12.268,0,0,0-1.56-.631,11.808,11.808,0,0,0-5.865-.435c-.312.057-.624.122-.932.206l.335,1.237c.14-.038.284-.062.426-.094A10.58,10.58,0,0,1,370.98,904.433Z" transform="translate(-105.329 -396.854)"/><path class="b" d="M351.1,923.43a.656.656,0,0,0,.172.3l.513-.472.558-.14c-.01-.039-.016-.076-.025-.114-.1-.4-.176-.8-.231-1.189l-.526.074-.744.105A14.1,14.1,0,0,0,351.1,923.43Z" transform="translate(-100.876 -403.951)"/><path class="b" d="M319.268,917.1c-.017.124-.081.625-.14,1.3s-.112,1.528-.1,2.356a7.106,7.106,0,0,0-1.991-.813,6.171,6.171,0,0,0-1.544-.165l.039,1.282c.081,0,.16,0,.239,0a5.766,5.766,0,0,1,3.533,1.478.644.644,0,0,0,.445.18.641.641,0,0,0,.635-.725,21.353,21.353,0,0,1,.119-4.4c.022-.185.037-.3.04-.323Z" transform="translate(-88.192 -402.26)"/><path class="b" d="M357.465,880.122l.4.5a.732.732,0,0,0,.088-.085c.113-.133.213-.266.314-.4a10.579,10.579,0,0,0,1.128-1.832l2.92,7.454.807,2.06,1.194-.467-.056-.144-4.278-10.922a.641.641,0,0,0-1.221.086,8.81,8.81,0,0,1-1.3,2.706c-.146.208-.306.418-.484.626Z" transform="translate(-103.088 -387.464)"/><path class="b" d="M338.718,888.018a.806.806,0,0,1-.086-.021A.655.655,0,0,0,338.718,888.018Z" transform="translate(-96.501 -391.812)"/><path class="b" d="M339.594,887.822a.623.623,0,0,1-.212.128A.623.623,0,0,0,339.594,887.822Z" transform="translate(-96.77 -391.749)"/><path class="b" d="M339.03,888.07a.634.634,0,0,0,.145-.027.676.676,0,0,1-.159.024Z" transform="translate(-96.639 -391.828)"/><path class="b" d="M336.72,881.986a3.963,3.963,0,0,1,1.938,1.164,2.708,2.708,0,1,1,3.992-3.661.641.641,0,1,0,.945-.866,3.99,3.99,0,0,0-6.875,3.363Z" transform="translate(-95.795 -387.983)"/><path class="b" d="M333.124,884.394a3.99,3.99,0,0,0-3.114,6.683.641.641,0,0,0,.946-.866,2.707,2.707,0,0,1,.165-3.826,2.734,2.734,0,0,1,1.947-.71,2.693,2.693,0,0,1,1.879.876.641.641,0,0,0,.213.151.759.759,0,0,0,.086.021.66.66,0,0,0,.16.033.669.669,0,0,0,.159-.024.513.513,0,0,0,.076-.014.626.626,0,0,0,.212-.128.641.641,0,0,0,.04-.906,3.963,3.963,0,0,0-1.938-1.164A4.018,4.018,0,0,0,333.124,884.394Z" transform="translate(-93.029 -390.517)"/><path class="b" d="M328.566,881.37a.641.641,0,0,0,.472-1.074,2.368,2.368,0,1,1,3.49-3.2.641.641,0,1,0,.945-.867,3.65,3.65,0,1,0-5.38,4.933A.639.639,0,0,0,328.566,881.37Z" transform="translate(-92.374 -387.163)"/><path class="b" d="M351.424,906.785a.508.508,0,1,0,.508-.508A.508.508,0,0,0,351.424,906.785Z" transform="translate(-101.093 -398.374)"/><path class="b" d="M367.12,924.693a.508.508,0,1,0-.508-.508A.508.508,0,0,0,367.12,924.693Z" transform="translate(-106.545 -404.62)"/></g></svg>