<svg xmlns="http://www.w3.org/2000/svg" xmlns:xlink="http://www.w3.org/1999/xlink" width="60.657" height="60.683" viewBox="0 0 60.657 60.683">
  <defs>
    <radialGradient id="radial-gradient" cx="0.5" cy="0.5" r="0.5" gradientUnits="objectBoundingBox">
      <stop offset="0" stop-color="#ff5d00"/>
      <stop offset="0.232" stop-color="#ffa700"/>
      <stop offset="0.723" stop-color="#ff5400"/>
      <stop offset="1" stop-color="#ff5d00"/>
    </radialGradient>
  </defs>
  <g id="Group_17" data-name="Group 17" transform="translate(1 1.013)">
    <path id="Stroke_1" data-name="Stroke 1" d="M56.15,25.421A4.01,4.01,0,0,1,55.138,21l.552-1.412a3.913,3.913,0,0,0-2.484-5.273l-1.472-.377a3.916,3.916,0,0,1-2.76-3.578l-.092-1.507a3.832,3.832,0,0,0-4.417-3.672l-1.38.282a3.619,3.619,0,0,1-3.956-1.977l-.736-1.318A3.746,3.746,0,0,0,32.871.845l-1.2.847a3.806,3.806,0,0,1-4.417,0l-1.2-.942A3.78,3.78,0,0,0,20.45,2.069l-.736,1.318a3.8,3.8,0,0,1-4.049,1.977l-1.472-.282A3.911,3.911,0,0,0,9.684,8.754l-.092,1.507a3.916,3.916,0,0,1-2.76,3.578l-1.472.377a3.913,3.913,0,0,0-2.484,5.273L3.427,20.9a4.01,4.01,0,0,1-1.012,4.426l-1.1,1.036a3.9,3.9,0,0,0,0,5.838l1.1,1.036a4.01,4.01,0,0,1,1.012,4.426l-.552,1.412A3.913,3.913,0,0,0,5.36,44.347l1.472.377A3.916,3.916,0,0,1,9.592,48.3l.092,1.507A3.832,3.832,0,0,0,14.1,53.481l1.472-.282a3.619,3.619,0,0,1,3.956,1.977l.736,1.318a3.747,3.747,0,0,0,5.521,1.318l1.2-.847a3.806,3.806,0,0,1,4.417,0l1.2.942a3.78,3.78,0,0,0,5.613-1.318l.736-1.318a3.8,3.8,0,0,1,4.049-1.977l1.472.282A3.911,3.911,0,0,0,48.973,49.9l.092-1.507a3.916,3.916,0,0,1,2.76-3.578l1.472-.377a3.913,3.913,0,0,0,2.484-5.273l-.552-1.412a4.01,4.01,0,0,1,1.012-4.426l1.1-1.036a3.9,3.9,0,0,0,0-5.838Z" transform="translate(0 0)" fill="none" stroke="#fe5102" stroke-width="2"/>
    <circle id="Oval" cx="19" cy="19" r="19" transform="translate(10.329 10.329)" fill="url(#radial-gradient)"/>
    <g id="Group_3" data-name="Group 3" transform="translate(19.902 20.949)">
      <path id="Fill_1" data-name="Fill 1" d="M18.454,7.48,14.32,10.6l1.21,4.829a1.082,1.082,0,0,1-1.008,1.326,1.5,1.5,0,0,1-.605-.189L9.379,13.919,4.942,16.57a1.5,1.5,0,0,1-.605.189,1,1,0,0,1-1.008-1.326L4.539,10.6.4,7.48a1,1,0,0,1,.605-1.8L6.454,5.3,8.471.663a1.1,1.1,0,0,1,2.017,0L12.5,5.3l5.244.379a1.007,1.007,0,0,1,.706,1.8" transform="translate(0)" fill="#fff"/>
    </g>
  </g>
</svg>
