<svg xmlns="http://www.w3.org/2000/svg" width="34.945" height="34.643" viewBox="0 0 34.945 34.643"><defs><style>.a{fill:#418f21;}.b{mix-blend-mode:multiply;isolation:isolate;}.c{fill:#fefefe;}.d{fill:#fafafa;}.e{fill:#f2f2f2;}.f{fill:#e9e9e9;}.g{fill:#e2e2e2;}.h{fill:#e4e4e4;}.i{fill:#dadada;}.j{fill:#dbdbdb;}.k{fill:#d5d5d5;}.l{fill:#d0d0d0;}.m{fill:#fff;}</style></defs><g transform="translate(0 0)"><path class="a" d="M2361.541,362.146c.088,1.24-2.468,2.356-2.65,3.535-.188,1.218,1.906,3.052,1.461,4.17-.453,1.137-3.238,1.033-3.924,2.03s.4,3.566-.494,4.391-3.355-.475-4.416.133c-1.045.6-1.171,3.384-2.349,3.741-1.143.346-2.795-1.891-4.037-1.8s-2.56,2.537-3.739,2.355c-1.218-.187-1.737-2.927-2.855-3.372-1.136-.452-3.393,1.179-4.391.492s-.285-3.382-1.109-4.277-3.564-.394-4.172-1.455c-.6-1.044,1.214-3.155.855-4.334-.345-1.142-3.033-1.885-3.122-3.125s2.468-2.356,2.649-3.535c.188-1.218-1.906-3.052-1.46-4.17.452-1.137,3.238-1.033,3.924-2.03s-.4-3.566.495-4.391,3.354.475,4.416-.133c1.044-.6,1.171-3.384,2.35-3.741,1.142-.346,2.795,1.891,4.035,1.8s2.561-2.537,3.74-2.355c1.218.187,1.737,2.927,2.855,3.372,1.137.452,3.393-1.179,4.392-.492s.284,3.382,1.108,4.277,3.565.394,4.173,1.455c.6,1.044-1.214,3.155-.857,4.334C2358.765,360.163,2361.452,360.906,2361.541,362.146Z" transform="translate(-2326.598 -346.066)"/><g class="b" transform="translate(9.07 10.129)"><path class="c" d="M2651.7,722.924q-4.349,0-8.7,0c-.085,0-.1-.017-.1-.1q0-6.91,0-13.82c0-.084.016-.1.1-.1q8.7,0,17.393,0c.083,0,.1.017.1.1q0,6.91,0,13.82c0,.084-.017.1-.1.1Q2656.05,722.923,2651.7,722.924Z" transform="translate(-2642.906 -708.905)"/><path class="d" d="M2658.459,731.982a.354.354,0,0,1-.275-.129l-2.385-2.386-3.021-3.022a.352.352,0,0,1,0-.575l1.784-1.785a.381.381,0,0,1,.64,0l3.039,3.039c.2.2.226.2.424,0l8.465-8.464.061-.061a.371.371,0,0,1,.6,0q.536.534,1.071,1.071l.723.723a.373.373,0,0,1,0,.614l-10.849,10.85A.341.341,0,0,1,2658.459,731.982Z" transform="translate(-2652.386 -718.209)"/><path class="e" d="M2673.832,724.388c.035.163-.115.221-.181.327a.392.392,0,0,1-.059.061q-5.274,5.273-10.547,10.545a2.354,2.354,0,0,1-.212.185.283.283,0,0,1-.364,0,1.845,1.845,0,0,1-.206-.175q-2.551-2.55-5.1-5.1a2.057,2.057,0,0,1-.176-.2.284.284,0,0,1,0-.364,1.648,1.648,0,0,1,.158-.187c.522-.523,1.042-1.047,1.569-1.566.113-.112.219-.246.42-.21a.5.5,0,0,1,.261.187q1.458,1.442,2.9,2.9c.049.049.086.11.136.158a.261.261,0,0,0,.415,0c.067-.065.122-.144.188-.21q4.13-4.133,8.262-8.266c.065-.066.144-.119.208-.188a.327.327,0,0,1,.362.009c.332.328.665.655,1,.985.307.307.61.618.916.927A.271.271,0,0,1,2673.832,724.388Z" transform="translate(-2656.573 -721.899)"/><path class="f" d="M2665.447,738.4c-.136.007-.211-.1-.292-.177-.447-.441-.891-.887-1.334-1.331q-1.921-1.92-3.84-3.842a.539.539,0,0,1-.184-.265c-.03-.15.078-.237.163-.323q.822-.832,1.653-1.656a.3.3,0,0,1,.5,0c.334.33.663.662.993.993.679.679,1.364,1.355,2.036,2.04.223.227.3.291.588,0q4.228-4.244,8.469-8.476c.211-.209.339-.212.541-.011l1.681,1.681c.192.193.192.327,0,.522q-5.332,5.334-10.669,10.666C2665.669,738.3,2665.591,738.41,2665.447,738.4Z" transform="translate(-2659.376 -724.799)"/><path class="g" d="M2678.589,795.53c.065.061.133.118.193.184a.241.241,0,0,1-.014.334c-.078.067-.14.146-.212.218l-10.418,10.416a2.346,2.346,0,0,1-.23.2.186.186,0,0,1-.248,0,2.691,2.691,0,0,1-.211-.186l-5.025-5.025a2.383,2.383,0,0,1-.194-.221.183.183,0,0,1,0-.238,2.093,2.093,0,0,1,.187-.212c.467-.471.939-.941,1.408-1.412.067-.066.139-.125.2-.2a.243.243,0,0,1,.377.028.539.539,0,0,0,.142.15.038.038,0,0,1,.006.048c-.082.015-.123-.05-.169-.1-.158-.156-.216-.157-.364.007-.517.475-1,.987-1.5,1.479-.061.06-.111.13-.177.187a.176.176,0,0,0,0,.272c.457.471.924.932,1.387,1.4q1.68,1.681,3.36,3.361c.187.185.372.37.561.552a.181.181,0,0,0,.273,0q3.939-3.912,7.855-7.848,1.286-1.283,2.569-2.567c.121-.119.228-.248.344-.371a.156.156,0,0,0-.008-.236c-.06-.067-.154-.116-.145-.228A.039.039,0,0,1,2678.589,795.53Z" transform="translate(-2661.712 -793.385)"/><path class="h" d="M2757.948,734.064v-.049c.036.033.075.063.109.1l2.917,2.916c.159.16.241.16.4,0q4.3-4.3,8.6-8.6a.307.307,0,0,1,.483,0c.474.49.96.966,1.442,1.449.031.032.06.067.089.1h-.05c-.064.014-.092-.041-.128-.076-.193-.19-.384-.385-.577-.575-.28-.283-.563-.564-.844-.845-.133-.133-.213-.133-.345,0s-.243.244-.365.365l-8.131,8.132a2.306,2.306,0,0,1-.222.195.233.233,0,0,1-.3,0,1.91,1.91,0,0,1-.188-.16q-1.394-1.4-2.792-2.8C2758,734.169,2757.936,734.14,2757.948,734.064Z" transform="translate(-2755.112 -727.829)"/><path class="i" d="M2680.247,735.746c.191.186.38.373.572.559.038.037.078.071.118.106a.947.947,0,0,0,.162.2.179.179,0,0,1,0,.288c-3.5,3.554-7.047,7.056-10.565,10.591a2.008,2.008,0,0,0-.2.194.2.2,0,0,1-.293.006,2.852,2.852,0,0,0-.238-.228q-2.431-2.435-4.867-4.867a2.66,2.66,0,0,0-.229-.237.208.208,0,0,1,0-.3q.773-.774,1.548-1.547a1.405,1.405,0,0,1,.145-.111c.016-.018.028-.042.056-.022.023.077-.042.11-.083.151q-.751.755-1.507,1.507c-.155.155-.155.194,0,.351l5.139,5.139c.155.154.194.154.351,0l10.451-10.451.184-.181a.161.161,0,0,0,0-.273c-.525-.514-1.04-1.038-1.56-1.557-.041-.041-.105-.073-.083-.151.059-.02.078.034.106.062.23.227.458.457.687.685A.373.373,0,0,0,2680.247,735.746Z" transform="translate(-2664.109 -734.265)"/><path class="j" d="M2749.843,730.711c-.056.023-.067-.033-.091-.057-.267-.259-.531-.52-.8-.781-.006.006-.014.014-.021.012-.159-.066-.245.034-.345.134q-4.2,4.2-8.4,8.4c-.074.073-.156.134-.234.2a.285.285,0,0,1-.382,0c-.1-.089-.207-.175-.3-.271q-1.359-1.365-2.724-2.726c-.093-.093-.187-.185-.271-.285a.112.112,0,0,0-.166-.008c-.02.011-.039.025-.062.011l-.05.024a.2.2,0,0,1,.372-.051,1.72,1.72,0,0,0,.171.15c.032.036.064.075.1.11l2.751,2.751c.081.081.167.157.256.23a.184.184,0,0,0,.237.005,1.7,1.7,0,0,0,.212-.185l8.5-8.5c.178-.179.25-.179.427,0Q2749.433,730.294,2749.843,730.711Z" transform="translate(-2733.705 -729.23)"/><path class="k" d="M2669.631,738.8q1.555,1.561,3.109,3.121a2.409,2.409,0,0,0,.2.177.267.267,0,0,0,.321,0,2.928,2.928,0,0,0,.238-.212l8.4-8.4a.234.234,0,0,0,.035-.035.243.243,0,0,1,.355-.1c0,.062.055.09.091.126.528.527,1.06,1.053,1.59,1.579a.189.189,0,0,1-.01.291c-.064.062-.132.123-.2.187q-5.234,5.234-10.465,10.469c-.136.136-.232.141-.376,0q-2.576-2.587-5.162-5.166c-.15-.151-.151-.206,0-.354l1.541-1.542c.033-.034.081-.06.082-.118l.049-.025A.148.148,0,0,1,2669.631,738.8Z" transform="translate(-2667.043 -732.709)"/><path class="i" d="M2740.2,953.819a.255.255,0,0,0-.2,0A.115.115,0,0,1,2740.2,953.819Z" transform="translate(-2737.608 -947.732)"/><path class="l" d="M2676.389,748.935a.077.077,0,0,1-.093-.026q-2.592-2.6-5.186-5.194c-.135-.135-.135-.166,0-.3q.777-.774,1.551-1.55c.131-.132.155-.132.287,0q1.52,1.519,3.04,3.038a1.581,1.581,0,0,0,.2.167c.155.112.3.084.506-.09.031-.027.059-.058.087-.087l8.472-8.472c.165-.166.17-.166.339,0l1.542,1.541c.138.138.138.157,0,.3q-5.283,5.281-10.566,10.561C2676.519,748.865,2676.5,748.97,2676.389,748.935Z" transform="translate(-2670.317 -735.618)"/></g><path class="m" d="M2662.565,729.736l-5.675-5.674,2.1-2.1,3.574,3.574,9.041-9.041,2.1,2.1Z" transform="translate(-2647.485 -706.204)"/></g></svg>