<svg xmlns="http://www.w3.org/2000/svg" width="63.42" height="59.946" viewBox="0 0 63.42 59.946"><defs><style>.a{fill:#FF9C05;}.b{fill:#333;}</style></defs><g transform="translate(-449.456 -357)"><path class="a" d="M703.929,1095.8c.777,1.1,1.51,2.146,2.235,3.03a8.484,8.484,0,0,0,2,1.821.705.705,0,0,1,.282.163,4.683,4.683,0,0,0,4.164.293c-2.125-.9-5.555-3.782-9.782-12.446-2.027-4.155-4.556-6.463-7.516-6.862-5.3-.715-10.464,4.832-10.865,5.274v.739a15.215,15.215,0,0,1,6.374-1.574C697.2,1086.237,700.976,1091.6,703.929,1095.8Z" transform="translate(-202.539 -715.568)"/><path class="a" d="M660.727,1081.793c-2.958.4-5.485,2.709-7.511,6.861-4.227,8.665-7.658,11.548-9.783,12.446a4.916,4.916,0,0,0,2.162.34,6.3,6.3,0,0,0,4.281-2.617c.75-.913,1.5-1.995,2.3-3.139,3.764-5.421,8.9-12.8,19.45-7.769v-.824C671.406,1086.852,666.138,1081.049,660.727,1081.793Z" transform="translate(-191.16 -715.566)"/><path class="b" d="M695.308,1081.242c2.96.4,5.489,2.708,7.516,6.863,4.227,8.664,7.657,11.547,9.782,12.446a4.683,4.683,0,0,1-4.164-.293.7.7,0,0,1,.09.079.722.722,0,0,1-.122,1l-.427.311a6.23,6.23,0,0,0,2.371.683c.15.011.3.016.442.016a7.067,7.067,0,0,0,4.389-1.66.715.715,0,0,0,.139-.871.733.733,0,0,0-.824-.358c-.043,0-4.118.843-10.378-11.988-2.251-4.615-5.152-7.193-8.621-7.66-4.706-.639-9.074,2.794-11.063,4.66l0,2.046C684.844,1086.075,690,1080.527,695.308,1081.242Z" transform="translate(-202.537 -715.013)"/><path class="b" d="M702.748,1098.36c.792,1.125,1.54,2.189,2.3,3.115a10.7,10.7,0,0,0,1.636,1.619l.85-.618a.714.714,0,0,1,.629-.1,8.482,8.482,0,0,1-2-1.821c-.725-.884-1.459-1.927-2.236-3.03-2.953-4.2-6.727-9.561-13.11-9.561a15.215,15.215,0,0,0-6.374,1.574l0,1.6C694.223,1086.251,698.751,1092.68,702.748,1098.36Z" transform="translate(-202.54 -717.298)"/><path class="b" d="M647,1101.369a.723.723,0,0,1,.849-1.17l.619.449a10.984,10.984,0,0,0,1.442-1.463c.787-.958,1.553-2.063,2.365-3.232,3.921-5.647,8.365-12.051,18.2-7.019.021.01.046.008.067.016l0-1.59c-10.552-5.03-15.685,2.348-19.45,7.769-.795,1.145-1.545,2.226-2.3,3.14a6.3,6.3,0,0,1-4.281,2.617,4.915,4.915,0,0,1-2.162-.34c2.125-.9,5.556-3.781,9.783-12.446,2.025-4.152,4.553-6.461,7.511-6.861,5.411-.744,10.679,5.059,10.893,5.3l0-2.056c-1.984-1.86-6.37-5.307-11.077-4.674-3.469.468-6.369,3.045-8.621,7.66-6.261,12.836-10.337,12-10.352,12a.723.723,0,0,0-.711,1.222,6.983,6.983,0,0,0,4.832,1.644,6.278,6.278,0,0,0,2.608-.806Z" transform="translate(-190.078 -715.012)"/><path class="b" d="M651.222,1108.456l-.619-.449a.723.723,0,0,0-.849,1.17l.21.153L673.35,1126.3l0-1.787Z" transform="translate(-192.831 -722.82)"/><path class="b" d="M708.555,1108.143a.713.713,0,0,0-.09-.079.706.706,0,0,0-.282-.163.714.714,0,0,0-.629.1l-.85.618-22.182,16.146,0,1.785,23.48-17.091.427-.311A.722.722,0,0,0,708.555,1108.143Z" transform="translate(-202.561 -722.82)"/><path class="b" d="M683.172,1142.208l-.625,1.558v.246a.71.71,0,0,1,.647-.371.718.718,0,0,1,.7.444l.1.259v-.157a2.048,2.048,0,0,1-.111-.21Z" transform="translate(-202.013 -732.348)"/><path class="b" d="M682.441,1087.687l0,1.59.052,27.752,0,1.787.008,4.136a.7.7,0,0,1,.432-.323h0a.7.7,0,0,1,.2-.024.715.715,0,0,1,.694.442l.12.3-.008-4.281,0-1.785-.053-28.1,0-1.6,0-.739,0-2.046-.007-3.888-1.445.009.007,3.889,0,2.056Z" transform="translate(-201.979 -715.34)"/><path class="b" d="M684.737,1077.61l-2.034-8.562-2.018,8.586,1.259-.007,1.445-.008Z" transform="translate(-201.496 -712.048)"/><path class="b" d="M681.36,1146.515a6.3,6.3,0,0,1-.569-1.437.721.721,0,0,1,.478-.863.7.7,0,0,1,.2-.025.711.711,0,0,0-.647.371.681.681,0,0,0-.046.072l-.515,1.284a3.057,3.057,0,0,1-3.122,1.794.723.723,0,0,0-.419,1.361l1.033.524a2.287,2.287,0,0,0,1.035.248,2.221,2.221,0,0,0,.782-.142,2.035,2.035,0,0,0,1.191-1.151l.709-1.767Z" transform="translate(-200.286 -732.898)"/><path class="b" d="M683.175,1144.19a.7.7,0,0,0-.2.025.721.721,0,0,0-.478.863,6.3,6.3,0,0,0,.569,1.437l.108.27.71,1.767a2.031,2.031,0,0,0,1.191,1.151,2.218,2.218,0,0,0,.782.142,2.287,2.287,0,0,0,1.034-.248l1.033-.524a.723.723,0,0,0-.419-1.361,3.074,3.074,0,0,1-3.139-1.837l-.394-.982-.1-.259A.718.718,0,0,0,683.175,1144.19Z" transform="translate(-201.993 -732.898)"/><path class="b" d="M683.137,1138.642a.678.678,0,0,1,.2-.024A.7.7,0,0,0,683.137,1138.642Z" transform="translate(-202.177 -731.352)"/><path class="b" d="M681.328,1140.952a6.356,6.356,0,0,1-.57-1.437.722.722,0,0,1,.478-.863.7.7,0,0,0-.432.323.7.7,0,0,0-.061.095l-.514,1.283a3.048,3.048,0,0,1-3.123,1.795.734.734,0,0,0-.783.5.724.724,0,0,0,.363.857l1.033.524a2.288,2.288,0,0,0,1.035.248,2.228,2.228,0,0,0,.782-.141,2.033,2.033,0,0,0,1.192-1.152l.084-.209.625-1.558Z" transform="translate(-200.277 -731.361)"/><path class="b" d="M683.143,1138.618a.683.683,0,0,0-.2.024h0a.722.722,0,0,0-.478.863,6.357,6.357,0,0,0,.57,1.437l.108.27.71,1.767a2.084,2.084,0,0,0,.111.21,2.033,2.033,0,0,0,1.08.94,2.212,2.212,0,0,0,.782.142,2.292,2.292,0,0,0,1.035-.248l1.032-.524a.722.722,0,0,0,.363-.857.731.731,0,0,0-.782-.5,3.072,3.072,0,0,1-3.139-1.837l-.379-.942-.12-.3A.715.715,0,0,0,683.143,1138.618Z" transform="translate(-201.984 -731.352)"/></g></svg>