<svg xmlns="http://www.w3.org/2000/svg" width="42.875" height="58.005" viewBox="0 0 42.875 58.005"><defs><style>.a{fill:#FF9C05;}.b{fill:#333;}</style></defs><g transform="translate(5078.553 4582.872)"><path class="a" d="M814.952,1025.716a13.984,13.984,0,0,0-.964-2.362l-.089-.161a8.236,8.236,0,0,0-1.3-1.8l-.2-.2v-.284c0-.131.006-.234.006-.338a7.683,7.683,0,0,0-.266-2.032l-1.48.968a1.121,1.121,0,0,1-1.242-.008l-1.611-1.079a7.6,7.6,0,0,0-.3,2.151c0,.106,0,.209.005.313l.012.3-.208.213a8.348,8.348,0,0,0-1.343,1.885,13.75,13.75,0,0,0-1.028,2.511,20.511,20.511,0,0,0-.832,5.9c0,6.279,2.677,11.584,5.845,11.584s5.842-5.305,5.842-11.584A20.482,20.482,0,0,0,814.952,1025.716Zm-.815,1.076-.913.459a2.073,2.073,0,0,1-.931.221,2.006,2.006,0,0,1-.716-.13,1.852,1.852,0,0,1-1.079-1.051l-.538-1.355-.538,1.355a1.849,1.849,0,0,1-1.078,1.051,2.006,2.006,0,0,1-.716.13,2.073,2.073,0,0,1-.931-.221l-.913-.459a.691.691,0,0,1,.4-1.3,2.5,2.5,0,0,0,.723-.019c.352-.142.694-.283,1.012-.425l.037-.016a3.442,3.442,0,0,0,.923-1.1l.434-1.09a.67.67,0,0,1,.341-.4.433.433,0,0,1,.038-.021c.019-.008.034-.024.055-.031a.613.613,0,0,1,.111-.014.606.606,0,0,1,.1-.012.6.6,0,0,1,.123.014.714.714,0,0,1,.1.012c.019.006.033.02.051.028s.033.018.05.028a.674.674,0,0,1,.334.392l.417,1.05a3.444,3.444,0,0,0,1.016,1.194q.432.19.891.375a2.492,2.492,0,0,0,.8.033.691.691,0,0,1,.4,1.3Z" transform="translate(-5867.055 -5587)"/><path class="a" d="M811.259,1061.308a.909.909,0,0,0,1.017-.04,3.452,3.452,0,0,0,1.14-2.848,4.212,4.212,0,0,0-.6-2.25,3.875,3.875,0,0,1-2.153-.031,4.284,4.284,0,0,0-.606,2.281A3.436,3.436,0,0,0,811.259,1061.308Z" transform="translate(-5868.891 -5598.664)"/><path class="a" d="M811.681,1070.547l.008,0h.009a.61.61,0,0,0,.177.027,1.231,1.231,0,0,0,.978-.694h0a3.855,3.855,0,0,0,.533-1.966,3.467,3.467,0,0,0-.716-2.329,2.161,2.161,0,0,1-1.493.05,3.565,3.565,0,0,0-.723,2.218C810.428,1069.307,811.058,1070.364,811.681,1070.547Z" transform="translate(-5869.014 -5601.585)"/><path class="a" d="M823.038,1075.934a7.356,7.356,0,0,0,.622-.819l-1.965.243.07-2.189a7.106,7.106,0,0,0-.724.721,6.957,6.957,0,0,0-.865,1.252,3.413,3.413,0,0,1,.067,2.533c.011,0,.018,0,.03,0A4.6,4.6,0,0,0,823.038,1075.934Z" transform="translate(-5872.02 -5603.928)"/><path class="a" d="M834.479,1011.705c1.093-1.351,1.222-4.582.316-7.857a16.351,16.351,0,0,0-1.27-3.246l-1.271,3.1a.907.907,0,0,1-1.382.383l-2.9-2.164a16.2,16.2,0,0,0,.589,3.657,12.363,12.363,0,0,0,3.333,5.976l.248.207v.323h0l-.005.089c-.218,1.711-.924,5.9-2.77,7.827a1.106,1.106,0,0,1-.8.339l-.075,0c-.919-.066-3.874-.3-6.886-.764.025.077.052.151.077.229.142.458.265.933.374,1.418a40.072,40.072,0,0,0,6.506,1.3c.787-.668,3.849-3.625,5.768-10.472v-.146Z" transform="translate(-5872.46 -5581.495)"/><path class="a" d="M790.356,1020.336a1.111,1.111,0,0,1-.808-.34c-1.844-1.926-2.55-6.115-2.77-7.825l-.005-.087h0v-.323l.247-.21a12.36,12.36,0,0,0,3.333-5.977,16.221,16.221,0,0,0,.589-3.657l-2.9,2.164a.907.907,0,0,1-1.382-.382l-1.272-3.1a16.359,16.359,0,0,0-1.27,3.246c-.906,3.275-.777,6.506.316,7.857l.153.19v.144c1.919,6.848,4.98,9.8,5.768,10.473a40.076,40.076,0,0,0,6.557-1.31c.1-.453.215-.9.346-1.328.032-.108.076-.207.111-.314-3.032.472-6.018.707-6.939.772C790.407,1020.336,790.381,1020.336,790.356,1020.336Z" transform="translate(-5860.687 -5581.495)"/><path class="a" d="M812.733,1074.4a3.386,3.386,0,0,0,.974,2.278,3.086,3.086,0,0,0,2.007,1.1.978.978,0,0,0,.74-.237l.033-.029a1.907,1.907,0,0,0,0-2.032,4.039,4.039,0,0,0-.687-1.027,3.571,3.571,0,0,0-1.379-.968A2.46,2.46,0,0,1,812.733,1074.4Z" transform="translate(-5869.718 -5604.025)"/><path class="b" d="M813.354,1024.6l.018.044a.674.674,0,0,0-.334-.392A.682.682,0,0,1,813.354,1024.6Z" transform="translate(-5869.812 -5588.805)"/><path class="b" d="M812.422,1024.144a.723.723,0,0,1,.1-.013A.6.6,0,0,0,812.422,1024.144Z" transform="translate(-5869.622 -5588.769)"/><path class="b" d="M812.847,1024.164a.686.686,0,0,0-.1-.012.674.674,0,0,1,.15.039C812.88,1024.184,812.866,1024.17,812.847,1024.164Z" transform="translate(-5869.723 -5588.775)"/><path class="b" d="M812.126,1024.234a.334.334,0,0,1,.038-.021C812.15,1024.219,812.138,1024.227,812.126,1024.234Z" transform="translate(-5869.531 -5588.793)"/><path class="b" d="M823.987,1048.942a10.628,10.628,0,0,0,2.162-.238.691.691,0,0,0-.28-1.353,7.086,7.086,0,0,1-4.425-.316c-.143.451-.3.88-.473,1.294A7.625,7.625,0,0,0,823.987,1048.942Z" transform="translate(-5872.265 -5595.849)"/><path class="b" d="M823,1037.939a6.677,6.677,0,0,0,2.231.381,8.889,8.889,0,0,0,1.974-.235.691.691,0,0,0-.306-1.348,5.832,5.832,0,0,1-3.908-.285c.009.268.028.534.028.8C823.022,1037.487,823.01,1037.711,823,1037.939Z" transform="translate(-5872.891 -5592.578)"/><path class="b" d="M825.075,1043.6a8.92,8.92,0,0,0,1.974-.235.691.691,0,0,0-.306-1.348,5.784,5.784,0,0,1-4.046-.352c-.057.485-.132.956-.218,1.418A6.65,6.65,0,0,0,825.075,1043.6Z" transform="translate(-5872.731 -5594.19)"/><path class="b" d="M796.712,1047.349a.691.691,0,0,0-.28,1.354,10.63,10.63,0,0,0,2.161.238,7.619,7.619,0,0,0,3.023-.615c-.171-.413-.331-.844-.474-1.294A7.082,7.082,0,0,1,796.712,1047.349Z" transform="translate(-5864.508 -5595.848)"/><path class="b" d="M800.029,1036.448a5.848,5.848,0,0,1-3.913.287.691.691,0,1,0-.306,1.348,8.879,8.879,0,0,0,1.974.235,6.669,6.669,0,0,0,2.236-.383c-.006-.227-.019-.45-.019-.681C800,1036.984,800.02,1036.717,800.029,1036.448Z" transform="translate(-5864.32 -5592.576)"/><path class="b" d="M796.116,1042.021a.691.691,0,1,0-.306,1.348,8.915,8.915,0,0,0,1.974.235,6.636,6.636,0,0,0,2.6-.52c-.086-.461-.16-.933-.218-1.418A5.8,5.8,0,0,1,796.116,1042.021Z" transform="translate(-5864.32 -5594.189)"/><path class="b" d="M828.232,1025.471l.075,0a1.106,1.106,0,0,0,.8-.339c1.846-1.928,2.552-6.116,2.77-7.827l.006-.089H831.2l-.442.529c-.1-.082-.194-.182-.291-.273-.211,1.489-.844,5.011-2.263,6.608-1.116-.081-4.336-.346-7.423-.868q.312.708.568,1.491C824.358,1025.173,827.314,1025.405,828.232,1025.471Z" transform="translate(-5872.205 -5586.631)"/><path class="b" d="M835.755,1017.693l-.535-.433h-.692v-.1c-1.919,6.847-4.981,9.8-5.768,10.472a40.1,40.1,0,0,1-6.506-1.3c.111.492.2,1,.28,1.508a41.629,41.629,0,0,0,6.182,1.174,1.208,1.208,0,0,0,.122.007,1.134,1.134,0,0,0,.713-.253c.685-.559,4.19-3.716,6.3-11.208C835.816,1017.606,835.788,1017.653,835.755,1017.693Z" transform="translate(-5872.661 -5586.613)"/><path class="b" d="M833.68,1011.2h.692v-.323l-.248-.207a12.362,12.362,0,0,1-3.333-5.976,16.207,16.207,0,0,1-.589-3.657l2.9,2.164a.907.907,0,0,0,1.382-.383l1.271-3.1a16.355,16.355,0,0,1,1.27,3.246c.906,3.275.777,6.506-.316,7.857l-.153.19v.247h.692l.536.433c.033-.041.061-.087.093-.13,1.312-1.771,1.506-5.258.48-8.965a16.937,16.937,0,0,0-1.9-4.431.916.916,0,0,0-.847-.424.9.9,0,0,0-.763.559l-1.406,3.424-3.166-2.363a.908.908,0,0,0-1.45.694,16.776,16.776,0,0,0,.638,5,14.252,14.252,0,0,0,3.489,6.4c.1.091.192.191.291.273Z" transform="translate(-5874.689 -5580.608)"/><path class="b" d="M788.92,1017.22h-.691l.006.087c.219,1.711.926,5.9,2.77,7.825a1.11,1.11,0,0,0,.808.34c.026,0,.051,0,.077,0,.921-.066,3.907-.3,6.939-.772a15.589,15.589,0,0,1,.571-1.492c-3.109.529-6.368.8-7.483.877-1.418-1.594-2.051-5.117-2.263-6.608-.1.091-.192.191-.29.273Z" transform="translate(-5862.143 -5586.632)"/><path class="b" d="M815.064,1027.741a.691.691,0,0,0-.747-.484,2.5,2.5,0,0,1-.8-.033q-.459-.186-.891-.375a3.445,3.445,0,0,1-1.016-1.194l-.417-1.05-.018-.044a.682.682,0,0,0-.316-.347c-.017-.01-.033-.019-.05-.028a.688.688,0,0,0-.15-.039.6.6,0,0,0-.123-.014.722.722,0,0,0-.1.013.607.607,0,0,0-.111.014c-.021.007-.036.022-.055.031a.325.325,0,0,0-.038.021.67.67,0,0,0-.341.4l-.434,1.09a3.44,3.44,0,0,1-.923,1.1l-.037.016c-.318.142-.66.283-1.012.425a2.5,2.5,0,0,1-.723.019.691.691,0,0,0-.4,1.3l.913.459a2.079,2.079,0,0,0,.931.221,2.012,2.012,0,0,0,.716-.13,1.849,1.849,0,0,0,1.078-1.051l.538-1.355.538,1.355a1.852,1.852,0,0,0,1.079,1.051,2.011,2.011,0,0,0,.716.13,2.078,2.078,0,0,0,.931-.221l.913-.459A.692.692,0,0,0,815.064,1027.741Z" transform="translate(-5867.63 -5588.769)"/><path class="b" d="M790.245,1027.631c-.788-.669-3.849-3.626-5.768-10.473v.1h-.692l-.536.433c-.032-.04-.061-.086-.091-.128,2.107,7.492,5.612,10.648,6.3,11.206a1.131,1.131,0,0,0,.713.253,1.172,1.172,0,0,0,.122-.007,41.619,41.619,0,0,0,6.229-1.187q.116-.77.283-1.509A40.1,40.1,0,0,1,790.245,1027.631Z" transform="translate(-5860.575 -5586.612)"/><path class="b" d="M783.277,1011.255h.692v-.245l-.153-.19c-1.093-1.351-1.222-4.582-.316-7.857a16.352,16.352,0,0,1,1.27-3.246l1.272,3.1a.907.907,0,0,0,1.382.382l2.9-2.164a16.226,16.226,0,0,1-.589,3.657,12.361,12.361,0,0,1-3.333,5.977l-.247.21v.323h.691l.442.529c.1-.082.193-.182.29-.273a14.253,14.253,0,0,0,3.489-6.4,16.773,16.773,0,0,0,.638-5,.909.909,0,0,0-1.451-.693l-3.165,2.363-1.406-3.423a.9.9,0,0,0-.761-.56.914.914,0,0,0-.848.423,16.9,16.9,0,0,0-1.9,4.432c-1.027,3.708-.832,7.2.481,8.967.03.041.06.088.091.128Z" transform="translate(-5860.067 -5580.608)"/><path class="b" d="M819.735,1074.033a6.971,6.971,0,0,1,.865-1.252,7.155,7.155,0,0,1,.724-.721l-.071,2.189,1.965-.243a7.334,7.334,0,0,1-.622.819,4.6,4.6,0,0,1-2.765,1.745c-.012,0-.019,0-.03,0a2.31,2.31,0,0,1-.474.711l-.066.061a2.172,2.172,0,0,1-.513.349,2.05,2.05,0,0,0,1.032.265l.108,0a5.8,5.8,0,0,0,3.749-2.216,7.94,7.94,0,0,0,1.437-2.325l.414-1.075-2.8.345.1-3.1-1.042.532a7.484,7.484,0,0,0-2.185,1.76,8.651,8.651,0,0,0-.608.79,5.324,5.324,0,0,1,.647,1.031C819.652,1073.806,819.692,1073.92,819.735,1074.033Z" transform="translate(-5871.578 -5602.819)"/><path class="b" d="M812.8,1058.168a3.453,3.453,0,0,1-1.14,2.849.909.909,0,0,1-1.017.04,3.437,3.437,0,0,1-1.2-2.889,4.283,4.283,0,0,1,.606-2.28,4.891,4.891,0,0,1-1.279-.562,5.771,5.771,0,0,0-.709,2.842,5.233,5.233,0,0,0,1.221,3.529,3.026,3.026,0,0,1,.607-.6.691.691,0,1,1,.815,1.116,1.6,1.6,0,0,0-.263.255,2.254,2.254,0,0,0,.681.109,2.28,2.28,0,0,0,.813-.16,1.4,1.4,0,0,0-.269-.246.691.691,0,0,1,.757-1.157,2.835,2.835,0,0,1,.629.583,5.353,5.353,0,0,0,1.132-3.428,5.732,5.732,0,0,0-.674-2.785,4.779,4.779,0,0,1-1.307.535A4.212,4.212,0,0,1,812.8,1058.168Z" transform="translate(-5868.273 -5598.413)"/><path class="b" d="M811.071,1069.9l-.008,0c-.623-.184-1.252-1.24-1.226-2.69a3.565,3.565,0,0,1,.723-2.218,1.582,1.582,0,0,1,.263-.255.691.691,0,1,0-.815-1.116,3.015,3.015,0,0,0-.607.6,5.045,5.045,0,0,0-.946,2.962,4.337,4.337,0,0,0,1.613,3.746,2.68,2.68,0,0,1,.16-.63A.69.69,0,0,1,811.071,1069.9Z" transform="translate(-5868.396 -5600.935)"/><path class="b" d="M813.891,1063.509a.691.691,0,0,0-.757,1.156,1.409,1.409,0,0,1,.269.246,3.467,3.467,0,0,1,.716,2.33,3.857,3.857,0,0,1-.533,1.966h0a.691.691,0,0,1,.7-.311,3.835,3.835,0,0,1,.845.267,5.617,5.617,0,0,0,.369-1.9,4.948,4.948,0,0,0-.98-3.174A2.84,2.84,0,0,0,813.891,1063.509Z" transform="translate(-5869.746 -5600.908)"/><path class="b" d="M812.943,1071.663h0a1.231,1.231,0,0,1-.978.694.6.6,0,0,1-.177-.027h-.009a.689.689,0,0,0-.843.4,2.675,2.675,0,0,0-.16.63,4.582,4.582,0,0,0,1.3,3.588,4.412,4.412,0,0,0,2.975,1.549l.114,0a2.428,2.428,0,0,0,1.113-.265,2.183,2.183,0,0,0,.513-.349l.066-.061a2.306,2.306,0,0,0,.474-.711,3.412,3.412,0,0,0-.067-2.533c-.043-.113-.083-.227-.136-.342a5.313,5.313,0,0,0-.647-1.031c-.09-.116-.172-.237-.273-.348a4.965,4.965,0,0,0-1.714-1.239,3.835,3.835,0,0,0-.845-.267A.69.69,0,0,0,812.943,1071.663Zm2.926,3.152a1.907,1.907,0,0,1,0,2.032l-.033.029a.977.977,0,0,1-.741.237,3.084,3.084,0,0,1-2.007-1.1,3.385,3.385,0,0,1-.974-2.278,2.461,2.461,0,0,0,1.684-.915,3.572,3.572,0,0,1,1.379.968A4.041,4.041,0,0,1,815.869,1074.816Z" transform="translate(-5869.104 -5603.363)"/><path class="b" d="M815.654,1024.622c-.024-.078-.052-.152-.077-.229q-.256-.782-.568-1.492c-.162-.368-.331-.723-.514-1.056l-.2-.358h-.007a9.505,9.505,0,0,0-1.115-1.531c0-.025,0-.05,0-.074a8.859,8.859,0,0,0-.439-2.8,1.105,1.105,0,0,0-.693-.7,1.12,1.12,0,0,0-.986.122l-1.624,1.063-1.752-1.174a1.126,1.126,0,0,0-1.686.558,8.782,8.782,0,0,0-.484,2.93v.073a10.017,10.017,0,0,0-1.369,1.98c-.162.3-.305.63-.45.957a15.628,15.628,0,0,0-.571,1.492c-.035.107-.079.205-.111.314-.131.429-.243.875-.346,1.328q-.167.738-.283,1.509a23.026,23.026,0,0,0-.235,2.654c-.009.269-.028.536-.028.806,0,.231.012.454.019.681.021.724.066,1.433.148,2.117.057.486.132.957.218,1.418a19.05,19.05,0,0,0,.569,2.288c.143.45.3.881.474,1.294a9.251,9.251,0,0,0,3.386,4.437,4.887,4.887,0,0,0,1.279.562,3.873,3.873,0,0,0,2.153.031,4.779,4.779,0,0,0,1.307-.535,9.158,9.158,0,0,0,3.473-4.491c.171-.414.33-.844.473-1.294a18.992,18.992,0,0,0,.569-2.288c.086-.462.16-.933.218-1.418.082-.685.128-1.394.148-2.118.006-.228.019-.452.019-.683,0-.269-.019-.535-.028-.8a23.18,23.18,0,0,0-.232-2.644c-.077-.513-.169-1.016-.28-1.508S815.8,1025.08,815.654,1024.622Zm-6.31,17.957c-3.168,0-5.845-5.305-5.845-11.584a20.506,20.506,0,0,1,.832-5.9,13.736,13.736,0,0,1,1.028-2.511,8.346,8.346,0,0,1,1.343-1.885l.208-.213-.012-.3c0-.1-.005-.207-.005-.313a7.593,7.593,0,0,1,.3-2.151l1.611,1.079a1.121,1.121,0,0,0,1.242.008l1.48-.968a7.684,7.684,0,0,1,.266,2.032c0,.1,0,.207-.006.338v.284l.2.2a8.236,8.236,0,0,1,1.3,1.8l.089.161a13.985,13.985,0,0,1,.964,2.362,20.482,20.482,0,0,1,.852,5.963C815.186,1037.275,812.511,1042.58,809.344,1042.58Z" transform="translate(-5866.437 -5586.317)"/></g></svg>