<svg xmlns="http://www.w3.org/2000/svg" width="7.075" height="6.999" viewBox="0 0 7.075 6.999"><defs><style>.a{fill:#fff;}</style></defs><path class="a" d="M135.66,76.348a3.908,3.908,0,0,1-.38.572q-1.042,1.07-2.112,2.113c-.19.185-.182.291,0,.472.728.708,1.45,1.424,2.151,2.159a.855.855,0,0,1,.243.588.767.767,0,0,1-.378.465.537.537,0,0,1-.664-.171l-1.841-1.841c-.126-.125-.262-.242-.375-.378-.15-.18-.263-.176-.43-.005-.71.726-1.431,1.441-2.151,2.157a1.177,1.177,0,0,1-.275.22.582.582,0,0,1-.741-.171.589.589,0,0,1,.077-.805c.483-.493.976-.977,1.464-1.465.244-.244.478-.5.735-.729.206-.183.228-.307.011-.515-.711-.683-1.4-1.387-2.094-2.089a1.122,1.122,0,0,1-.254-.355.585.585,0,0,1,.236-.7.625.625,0,0,1,.762.107c.612.6,1.213,1.214,1.825,1.816.2.2.414.507.634.518.193.009.408-.322.6-.514.611-.6,1.216-1.211,1.823-1.817a.559.559,0,0,1,.7-.128A.778.778,0,0,1,135.66,76.348Z" transform="translate(-128.585 -75.778)"/></svg>