<svg id="Group_22396" data-name="Group 22396" xmlns="http://www.w3.org/2000/svg" xmlns:xlink="http://www.w3.org/1999/xlink" width="36.656" height="31.651" viewBox="0 0 36.656 31.651">
  <defs>
    <linearGradient id="linear-gradient" x1="0.5" x2="0.5" y2="1" gradientUnits="objectBoundingBox">
      <stop offset="0" stop-color="red"/>
      <stop offset="1" stop-color="#fe5b03"/>
    </linearGradient>
    <clipPath id="clip-path">
      <rect id="Rectangle_3377" data-name="Rectangle 3377" width="36.656" height="31.651" fill="url(#linear-gradient)"/>
    </clipPath>
  </defs>
  <g id="Group_22395" data-name="Group 22395" transform="translate(0)" clip-path="url(#clip-path)">
    <path id="Path_34939" data-name="Path 34939" d="M8.991,30.153A20.316,20.316,0,0,0,17.5,38.439c.048-.063.1-.121.141-.184.351-.536.7-1.071,1.049-1.609a1.021,1.021,0,0,1,.631-.454,5.323,5.323,0,0,1,5.292,1.544c.848.817.843.829.832,2a8.7,8.7,0,0,1-3.175,6.779.922.922,0,0,1-.4.183,8.192,8.192,0,0,1-5.377-.844,21.732,21.732,0,0,1-4.854-3.451A59.543,59.543,0,0,1,6.627,37.5a34.921,34.921,0,0,1-4.943-7A16.448,16.448,0,0,1,.013,25.74a.772.772,0,0,1,.342-.78,12.141,12.141,0,0,1,3.3-1.984c1.065-.419,2.162-.757,3.245-1.131a.9.9,0,0,1,.7.044A6.031,6.031,0,0,1,10.431,24.1a4.395,4.395,0,0,1-.659,5.5,9.186,9.186,0,0,1-.781.551" transform="translate(0 -15.203)" fill="url(#linear-gradient)"/>
    <path id="Path_34940" data-name="Path 34940" d="M70.79,9.926a4.387,4.387,0,0,1-.771,2.418.675.675,0,0,0-.122.543c.229,1.322.449,2.646.674,3.969a.789.789,0,0,1-.311.869.754.754,0,0,1-.931-.123q-1.675-1.345-3.347-2.694a.52.52,0,0,0-.431-.134,7.627,7.627,0,0,1-4.22-.6A6.677,6.677,0,0,1,59.06,12.44a.364.364,0,0,0-.388-.142,9.872,9.872,0,0,1-3.16.049.577.577,0,0,0-.488.13q-2.248,1.825-4.507,3.635a.709.709,0,0,1-.878.13c-.3-.184-.381-.4-.309-.826.3-1.814.609-3.627.9-5.443a.618.618,0,0,0-.113-.43A5.183,5.183,0,0,1,48.974,5.6a5.259,5.259,0,0,1,1.465-3.02A8.143,8.143,0,0,1,55.144.163,9.484,9.484,0,0,1,62.39,1.674a5.678,5.678,0,0,1,2.18,2.762.494.494,0,0,0,.533.37,6.606,6.606,0,0,1,4.058,1.556A4.666,4.666,0,0,1,70.79,9.926M51.03,13.888c.13-.1.2-.149.268-.2,1.06-.853,2.123-1.7,3.176-2.565a1.022,1.022,0,0,1,.843-.214,9.709,9.709,0,0,0,1.535.133,17.525,17.525,0,0,0,2.012-.209,5.435,5.435,0,0,0,4.092-2.848,3.447,3.447,0,0,0-.069-3.834,5.619,5.619,0,0,0-2.3-1.931,9.085,9.085,0,0,0-3.933-.827,6.808,6.808,0,0,0-5.207,2.171,3.707,3.707,0,0,0-.971,3.67,3.905,3.905,0,0,0,.98,1.691.9.9,0,0,1,.279.8q-.146.841-.288,1.682c-.135.805-.269,1.611-.416,2.487m13.919-7.7c-.306,2.878-2.086,4.554-4.594,5.7a10.411,10.411,0,0,0,.937.652,6.925,6.925,0,0,0,4.434.774.924.924,0,0,1,.771.194c.254.209.512.413.769.619l1.608,1.294c-.005-.107,0-.166-.012-.224-.141-.832-.269-1.667-.433-2.5a1.046,1.046,0,0,1,.267-.951,2.817,2.817,0,0,0,.537-2.919,3.63,3.63,0,0,0-2-2.076,6.163,6.163,0,0,0-2.285-.574" transform="translate(-34.134 0)" fill="url(#linear-gradient)"/>
  </g>
</svg>
