<svg xmlns="http://www.w3.org/2000/svg" width="14.165" height="14.165" viewBox="0 0 14.165 14.165"><defs><style>.a{fill:#414853;}.b{fill:#FF9C05;}</style></defs><path class="a" d="M13.89,11.264l-1.57-1.047-1.4-.931a.618.618,0,0,0-.83.135l-.864,1.11a.615.615,0,0,1-.785.163A10.058,10.058,0,0,1,5.636,8.53,10.13,10.13,0,0,1,3.471,5.721a.615.615,0,0,1,.163-.785l1.11-.864a.618.618,0,0,0,.135-.83l-.9-1.353L2.9.275A.618.618,0,0,0,2.07.088L.829.832a1.516,1.516,0,0,0-.688.891C-.2,2.96-.267,5.688,4.106,10.06s7.1,4.3,8.337,3.965a1.515,1.515,0,0,0,.891-.688l.744-1.24A.618.618,0,0,0,13.89,11.264Z" transform="translate(0 0)"/><path class="b" d="M282.726,62.28a4.156,4.156,0,0,1,4.152,4.152.244.244,0,1,0,.488,0,4.645,4.645,0,0,0-4.64-4.64.244.244,0,1,0,0,.488Z" transform="translate(-274.667 -60.082)"/><path class="b" d="M282.725,115.244a2.69,2.69,0,0,1,2.686,2.687.244.244,0,0,0,.488,0,3.179,3.179,0,0,0-3.175-3.175.244.244,0,1,0,0,.488Z" transform="translate(-274.666 -111.581)"/><path class="b" d="M282.726,168.211a1.223,1.223,0,0,1,1.221,1.221.244.244,0,1,0,.488,0,1.712,1.712,0,0,0-1.71-1.71.244.244,0,1,0,0,.488Z" transform="translate(-274.667 -163.083)"/></svg>