<svg xmlns="http://www.w3.org/2000/svg" width="60.955" height="58.892" viewBox="0 0 60.955 58.892"><defs><style>.a{fill:#FF9C05;}.b{fill:#333;}</style></defs><g transform="translate(-310.521 -238.724)"><g transform="translate(14195.137 5226.963)"><path class="a" d="M4232.666,322.436l-.1,1.791c.071.1.145.2.218.3a8.347,8.347,0,0,0,5.668,3.294,8.813,8.813,0,0,0,6.577-1.827c.662-.478,2.334-1.965,2.43-3.321a1.73,1.73,0,0,0-.617-1.41,6.674,6.674,0,0,0-2.746-1.567A14.3,14.3,0,0,0,4232.666,322.436Z" transform="translate(-18072.51 -5291.92)"/><path class="a" d="M4212.62,337.111c-3.67,6.684-2.685,14.6,2.191,18.961,0-.042.008-.083.011-.125l.755-13.086a3.68,3.68,0,0,1-1.125.186,2.558,2.558,0,0,1-2.06-.925,2.6,2.6,0,0,1-.4-2.319,4.127,4.127,0,0,1,1.452-2.113,4.061,4.061,0,0,1,2.483-.918l.244-4.218A18.008,18.008,0,0,0,4212.62,337.111Z" transform="translate(-18057.479 -5300.828)"/><path class="a" d="M4219.4,351.99a1.253,1.253,0,0,0,.148,1.093,1.77,1.77,0,0,0,2.183.051l.021-.37c-.012,0-.021.01-.034.014a1.392,1.392,0,0,1-1.828-.551c-.2-.578.307-1.272,1.119-1.546a2.019,2.019,0,0,1,.868-.1l.034-.6a2.944,2.944,0,0,0-2.512,2.005Z" transform="translate(-18063.537 -5312.651)"/><path class="a" d="M4167.716,297.287a19.243,19.243,0,0,1,4.882-5.811l.675-11.687.01-.175.035-.593a1.206,1.206,0,0,0-.069-.218c-.788-1.958-6.088-3.979-13.594-3.979s-12.807,2.021-13.593,3.975a1.3,1.3,0,0,0-.07.224l.034.607.01.021v.157l.674,11.668a19.227,19.227,0,0,1,4.883,5.809c4.152,7.56,2.766,16.6-3.183,21.251a11.455,11.455,0,0,0,2.443,4.983,8.8,8.8,0,0,1,17.6,0,11.455,11.455,0,0,0,2.443-4.983C4164.95,313.888,4163.565,304.846,4167.716,297.287Z" transform="translate(-18013.791 -5261.673)"/><path class="a" d="M4247.473,276.911a.282.282,0,0,0,.041-.147.316.316,0,0,0-.066-.192.3.3,0,0,0-.386-.077c-6.057,3.383-10.32,4.064-12.655,4.106l-.018.306h0l-.015.2-.329,5.7A22.126,22.126,0,0,0,4247.473,276.911Z" transform="translate(-18073.516 -5262.779)"/><path class="a" d="M4152.128,337.111a18,18,0,0,0-3.553-4.557l.244,4.216a4.048,4.048,0,0,1,2.582.921,4.118,4.118,0,0,1,1.45,2.112,2.6,2.6,0,0,1-.4,2.319,2.56,2.56,0,0,1-2.06.925,3.7,3.7,0,0,1-1.223-.217l.758,13.117c0,.042.007.083.011.125C4154.814,351.706,4155.8,343.794,4152.128,337.111Z" transform="translate(-18015.545 -5300.828)"/><path class="a" d="M4152.042,353.068a1.248,1.248,0,0,0,.147-1.093,2.763,2.763,0,0,0-.97-1.386,2.7,2.7,0,0,0-1.639-.626l.024.418a2.017,2.017,0,0,1,.822.1c.813.275,1.315.968,1.12,1.546a1.386,1.386,0,0,1-1.814.554l.027.473C4150.623,353.577,4151.621,353.6,4152.042,353.068Z" transform="translate(-18016.227 -5312.636)"/><path class="a" d="M4114.14,281.064v-.157l-.018-.306c-2.334-.041-6.6-.722-12.653-4.106a.3.3,0,0,0-.387.077.314.314,0,0,0-.066.192.278.278,0,0,0,.038.142,22.129,22.129,0,0,0,13.428,9.9l-.332-5.725Z" transform="translate(-17983.285 -5262.779)"/><path class="a" d="M4137.939,318.576a17.429,17.429,0,0,1,1.858,1.044l-.1-1.768A4.894,4.894,0,0,1,4137.939,318.576Z" transform="translate(-18008.33 -5290.857)"/><path class="a" d="M4233.3,317.855l-.1,1.766a17.439,17.439,0,0,1,1.856-1.043A4.889,4.889,0,0,1,4233.3,317.855Z" transform="translate(-18072.941 -5290.859)"/><path class="a" d="M4180.091,412.088a7.428,7.428,0,0,0,.157-1.517,7.353,7.353,0,0,0-1.063-3.8l.194,2.153a2.192,2.192,0,0,1-.582,1.69,2.453,2.453,0,0,1-1.808.792l-1.321,0h0a.7.7,0,0,1-.235-1.35,3.614,3.614,0,0,0,2.331-3.576l-.14-1.557a7.379,7.379,0,0,0-9.569,0l-.136,1.512a3.637,3.637,0,0,0,2.326,3.621.7.7,0,0,1-.235,1.35h0l-1.321,0a2.457,2.457,0,0,1-1.809-.792,2.2,2.2,0,0,1-.581-1.69l.194-2.153a7.355,7.355,0,0,0-1.062,3.8,7.431,7.431,0,0,0,.157,1.517,11.471,11.471,0,0,0,14.5,0Z" transform="translate(-18026.975 -5348.718)"/><path class="a" d="M4175.1,439.74a12.822,12.822,0,0,1-6.336-1.67,7.389,7.389,0,0,0,12.672,0A12.826,12.826,0,0,1,4175.1,439.74Z" transform="translate(-18029.24 -5372.396)"/><path class="a" d="M4101.433,319.695l-.014,0-.062.029h-.031a6.66,6.66,0,0,0-2.651,1.537,1.732,1.732,0,0,0-.616,1.412c.1,1.363,1.767,2.844,2.4,3.3a8.844,8.844,0,0,0,6.6,1.848,8.344,8.344,0,0,0,5.668-3.3c.073-.1.146-.2.217-.3l-.1-1.792A14.31,14.31,0,0,0,4101.433,319.695Z" transform="translate(-17981.277 -5291.918)"/><path class="b" d="M4142.426,275.167l.059,1.39c-.217.009-.467.011-.737.006l.018.306v.157l.01.022.332,5.725q.41.108.835.2l-.225,1.007.809.31a3.41,3.41,0,0,1-1.248,1.444l.1,1.768q.746.481,1.453,1.041l-.674-11.668v-.157l-.01-.021-.034-.607a1.252,1.252,0,0,1,.07-.224c.787-1.955,6.086-3.975,13.593-3.975s12.806,2.021,13.595,3.979a1.243,1.243,0,0,1,.068.218l-.036.593-.01.175-.675,11.687q.705-.56,1.453-1.041l.1-1.766a3.4,3.4,0,0,1-1.247-1.445l.649-.249.159-.064-.225-1q.425-.1.834-.2l.329-5.7.015-.2h0l.018-.306c-.269,0-.519,0-.736-.006l.059-1.39c.138.006.292.008.453.008-1.323-2.76-7.345-4.673-14.8-4.673s-13.488,1.916-14.8,4.673C4142.135,275.175,4142.288,275.173,4142.426,275.167Z" transform="translate(-18010.912 -5258.741)"/><path class="b" d="M4149.525,360.126a11.46,11.46,0,0,1-2.443-4.983c-.117.092-.233.185-.354.273l-.821-1.124c.331-.242.646-.5.948-.769,0-.042-.008-.083-.011-.125l-.758-13.117a4.4,4.4,0,0,1-1.183-.637l.835-1.112a3.045,3.045,0,0,0,.256.166l-.028-.473-.013,0c-.812-.274-1.315-.968-1.12-1.546a1.094,1.094,0,0,1,1.005-.652l-.024-.418a1.526,1.526,0,0,0-.5.083l-.462-1.312a2.9,2.9,0,0,1,.879-.157l-.244-4.216a17.058,17.058,0,0,0-1.462-1.209l.1,1.792.01-.014,1.146.788c-.084.123-.171.242-.257.359a9.988,9.988,0,0,1-.781.911l1.2,20.846a12.858,12.858,0,0,0,4.382,8.949,8.751,8.751,0,0,1-.314-2.3Z" transform="translate(-18012.463 -5298.279)"/><path class="b" d="M4179.506,433.211a7.36,7.36,0,0,0,.917-2.305,11.47,11.47,0,0,1-14.5,0,7.335,7.335,0,0,0,.917,2.3,12.857,12.857,0,0,0,12.671,0Z" transform="translate(-18027.309 -5367.536)"/><path class="b" d="M4219.642,331.723c-.087-.118-.174-.238-.259-.361l1.146-.788.009.013.1-1.791A17.058,17.058,0,0,0,4219.18,330l-.244,4.218a2.926,2.926,0,0,1,.976.155l-.462,1.312a1.585,1.585,0,0,0-.594-.076l-.035.6a1.077,1.077,0,0,1,.96.65c.193.57-.293,1.25-1.085,1.532l-.021.37a3.185,3.185,0,0,0,.355-.23l.835,1.112a4.366,4.366,0,0,1-1.28.668l-.756,13.086c0,.042-.007.083-.01.125.3.27.617.527.948.769l-.82,1.124c-.121-.088-.237-.181-.354-.273a11.456,11.456,0,0,1-2.444,4.983v.006a8.753,8.753,0,0,1-.314,2.3,12.864,12.864,0,0,0,4.383-8.949l1.2-20.847A9.78,9.78,0,0,1,4219.642,331.723Z" transform="translate(-18060.484 -5298.279)"/><path class="b" d="M4178.707,407.633a8.8,8.8,0,0,0-17.6,0v.006a8.8,8.8,0,0,0,17.6,0Zm-8.8,7.416a7.395,7.395,0,0,1-6.348-11.213l.031-.348a7.178,7.178,0,0,1,.163-1.733.7.7,0,0,1,1.371.217l0,.019a7.379,7.379,0,0,1,9.569,0l0-.019a.7.7,0,0,1,1.37-.217,7.094,7.094,0,0,1,.163,1.735l.031.346a7.41,7.41,0,0,1-6.347,11.213Z" transform="translate(-18024.045 -5345.787)"/><path class="b" d="M4168.69,412.687a2.454,2.454,0,0,0,1.809.792l1.321,0h0a.7.7,0,0,0,.234-1.35,3.638,3.638,0,0,1-2.326-3.621l.136-1.512,0-.019a.7.7,0,0,0-1.371-.218,7.154,7.154,0,0,0-.163,1.733l-.031.348-.194,2.153A2.2,2.2,0,0,0,4168.69,412.687Z" transform="translate(-18028.787 -5350.795)"/><path class="b" d="M4195.551,412.132a.7.7,0,0,0,.235,1.35h0l1.322,0a2.455,2.455,0,0,0,1.808-.792,2.193,2.193,0,0,0,.581-1.69l-.194-2.153-.031-.346a7.093,7.093,0,0,0-.163-1.735.695.695,0,0,0-1.37.217l0,.019.14,1.557A3.613,3.613,0,0,1,4195.551,412.132Z" transform="translate(-18047.094 -5350.795)"/><path class="b" d="M4231.971,276.269l-.059,1.39c.218.009.468.011.737.006,2.334-.042,6.6-.722,12.655-4.106a.3.3,0,0,1,.385.077.307.307,0,0,1,.066.192.285.285,0,0,1-.04.147,22.126,22.126,0,0,1-13.427,9.9q-.41.107-.834.2l.225,1,.486-.2a1.616,1.616,0,0,0,.263.386,23.568,23.568,0,0,0,14.485-10.592,1.675,1.675,0,0,0,.233-.853,1.715,1.715,0,0,0-.359-1.046,1.684,1.684,0,0,0-2.163-.436c-6,3.351-10.083,3.932-12.2,3.932C4232.263,276.277,4232.11,276.275,4231.971,276.269Z" transform="translate(-18071.758 -5259.843)"/><path class="b" d="M4111.669,284.9l.49.188.225-1.007c-.283-.063-.562-.131-.836-.2a22.126,22.126,0,0,1-13.428-9.9.278.278,0,0,1-.038-.142.314.314,0,0,1,.066-.192.3.3,0,0,1,.387-.077c6.056,3.383,10.319,4.064,12.653,4.106.269,0,.519,0,.737-.006l-.059-1.39c-.138.006-.291.008-.452.008-2.117,0-6.2-.581-12.2-3.931a1.685,1.685,0,0,0-2.164.436,1.714,1.714,0,0,0-.359,1.046,1.662,1.662,0,0,0,.23.847,23.566,23.566,0,0,0,14.485,10.6A1.664,1.664,0,0,0,4111.669,284.9Z" transform="translate(-17980.355 -5259.844)"/><path class="b" d="M4151.113,351.006a2.6,2.6,0,0,0,.4-2.319,4.124,4.124,0,0,0-1.45-2.112,4.048,4.048,0,0,0-2.582-.921,2.9,2.9,0,0,0-.879.157l.462,1.312a1.527,1.527,0,0,1,.5-.083,2.7,2.7,0,0,1,1.639.626,2.761,2.761,0,0,1,.971,1.386,1.248,1.248,0,0,1-.147,1.093c-.421.533-1.419.509-2.283-.013-.086-.052-.173-.1-.256-.166l-.835,1.112a4.4,4.4,0,0,0,1.183.637,3.7,3.7,0,0,0,1.223.216A2.56,2.56,0,0,0,4151.113,351.006Z" transform="translate(-18014.207 -5309.712)"/><path class="b" d="M4215.124,348.693a2.6,2.6,0,0,0,.4,2.319,2.557,2.557,0,0,0,2.06.925,3.681,3.681,0,0,0,1.125-.186,4.367,4.367,0,0,0,1.28-.668l-.835-1.112a3.061,3.061,0,0,1-.356.23,1.768,1.768,0,0,1-2.182-.051,1.248,1.248,0,0,1-.148-1.093,2.941,2.941,0,0,1,2.512-2.005,1.588,1.588,0,0,1,.594.076l.461-1.312a2.929,2.929,0,0,0-.976-.155,4.059,4.059,0,0,0-2.482.918A4.124,4.124,0,0,0,4215.124,348.693Z" transform="translate(-18060.607 -5309.719)"/><path class="b" d="M4117.3,314.483a4.894,4.894,0,0,0,1.756-.724,3.409,3.409,0,0,0,1.249-1.444l-.809-.31-.49-.188a1.644,1.644,0,0,1-.263.375c-.472.53-1.686,1.385-4.436.916-.637-.109-1.215-.19-1.766-.249a13.02,13.02,0,0,0-5.031.332A15.109,15.109,0,0,1,4117.3,314.483Z" transform="translate(-17987.697 -5286.763)"/><path class="b" d="M4108.519,320.28l-.007,0,.014,0Z" transform="translate(-17988.371 -5292.502)"/><path class="b" d="M4110.918,323.205c.086-.117.173-.236.257-.359l-1.146-.788-.01.014c-.071.1-.145.205-.217.3a8.346,8.346,0,0,1-5.669,3.295,8.845,8.845,0,0,1-6.6-1.848c-.635-.455-2.3-1.936-2.4-3.3a1.732,1.732,0,0,1,.616-1.412,6.658,6.658,0,0,1,2.651-1.537l-.143,0v-.7l-.271-.637.019-.006a8.03,8.03,0,0,0-3.219,1.867,3.119,3.119,0,0,0-1.04,2.515c.163,2.286,2.864,4.247,2.951,4.309a10.218,10.218,0,0,0,6.33,2.2,10.053,10.053,0,0,0,1.292-.084,9.736,9.736,0,0,0,5.824-2.932A10.069,10.069,0,0,0,4110.918,323.205Z" transform="translate(-17978.348 -5289.763)"/><path class="b" d="M4107.207,316.11v.7l.143,0h.031l.063-.029.006,0h.008a14.309,14.309,0,0,1,11.414,2.74,17.135,17.135,0,0,1,1.462,1.209,18,18,0,0,1,3.552,4.557c3.671,6.684,2.687,14.595-2.191,18.961-.3.27-.616.527-.947.769l.82,1.124c.122-.088.236-.181.354-.273,5.949-4.649,7.334-13.691,3.183-21.251a19.218,19.218,0,0,0-4.882-5.809q-.705-.56-1.453-1.041a17.471,17.471,0,0,0-1.857-1.044,15.11,15.11,0,0,0-9.789-1.293l-.044.009-.125.041-.018.006Z" transform="translate(-17987.303 -5288.99)"/><path class="b" d="M4242.115,316.206l.051.017-.271.587v.745l-.167-.037,0,.015-.067-.013a6.68,6.68,0,0,1,2.746,1.567,1.73,1.73,0,0,1,.616,1.41c-.1,1.357-1.768,2.843-2.429,3.321a8.814,8.814,0,0,1-6.578,1.827,8.349,8.349,0,0,1-5.668-3.294c-.073-.1-.146-.2-.218-.3l-.009-.013-1.146.788c.084.124.171.244.258.361a9.858,9.858,0,0,0,.779.908,9.733,9.733,0,0,0,5.824,2.933,9.985,9.985,0,0,0,1.294.084,10.177,10.177,0,0,0,6.3-2.181c.115-.082,2.815-2.043,2.979-4.33a3.12,3.12,0,0,0-1.04-2.515A8.04,8.04,0,0,0,4242.115,316.206Z" transform="translate(-18070.076 -5289.74)"/><path class="b" d="M4230.935,311.784l-.486.2-.159.064-.649.249a3.393,3.393,0,0,0,1.247,1.445,4.891,4.891,0,0,0,1.755.723,15.109,15.109,0,0,1,9.8-1.29,12.991,12.991,0,0,0-5.044-.334c-.552.059-1.129.141-1.766.249-2.77.47-3.971-.379-4.439-.915A1.633,1.633,0,0,1,4230.935,311.784Z" transform="translate(-18070.525 -5286.741)"/><path class="b" d="M4216.667,316.708a17.445,17.445,0,0,0-1.856,1.043q-.746.481-1.452,1.041a19.244,19.244,0,0,0-4.883,5.811c-4.15,7.559-2.765,16.6,3.184,21.25.117.092.233.185.354.273l.821-1.124c-.332-.242-.646-.5-.948-.769-4.877-4.365-5.862-12.277-2.191-18.961a18.005,18.005,0,0,1,3.552-4.557,17.129,17.129,0,0,1,1.462-1.209,14.3,14.3,0,0,1,11.427-2.736l.068.013,0-.015.167.037v-.745l.271-.587-.051-.017-.091-.031-.032-.006A15.11,15.11,0,0,0,4216.667,316.708Z" transform="translate(-18054.553 -5288.989)"/><path class="b" d="M4225.168,354.95c-.105.036-.171.126-.146.2s.132.108.238.072.171-.126.146-.2A.181.181,0,0,0,4225.168,354.95Z" transform="translate(-18067.393 -5316.009)"/><path class="b" d="M4222.081,351.914c-.813.275-1.314.968-1.119,1.546a1.391,1.391,0,0,0,1.827.551c.013,0,.022-.01.034-.014.792-.283,1.278-.963,1.086-1.533a1.079,1.079,0,0,0-.96-.65A2.017,2.017,0,0,0,4222.081,351.914Zm.4,1.185a.181.181,0,0,1-.239-.072c-.025-.075.041-.166.146-.2a.182.182,0,0,1,.239.072C4222.653,352.973,4222.588,353.063,4222.482,353.1Z" transform="translate(-18064.611 -5313.884)"/><path class="b" d="M4150.887,354.58c.025-.075-.04-.166-.146-.2s-.213,0-.238.072.04.166.146.2A.182.182,0,0,0,4150.887,354.58Z" transform="translate(-18016.848 -5315.621)"/><path class="b" d="M4149.39,352.893c.2-.578-.307-1.272-1.12-1.546a2.015,2.015,0,0,0-.822-.1,1.093,1.093,0,0,0-1,.652c-.2.578.306,1.272,1.119,1.546l.013,0A1.388,1.388,0,0,0,4149.39,352.893Zm-1.52-.361c-.105-.036-.171-.126-.146-.2a.182.182,0,0,1,.239-.072c.106.036.171.126.146.2A.182.182,0,0,1,4147.87,352.532Z" transform="translate(-18014.07 -5313.5)"/></g></g></svg>