<svg xmlns="http://www.w3.org/2000/svg" width="12" height="11.896" viewBox="0 0 12 11.896"><defs><style>.a{fill:#418f21;}.b{mix-blend-mode:multiply;isolation:isolate;}.c{fill:#fefefe;}.d{fill:#fafafa;}.e{fill:#f2f2f2;}.f{fill:#e9e9e9;}.g{fill:#e2e2e2;}.h{fill:#e4e4e4;}.i{fill:#dadada;}.j{fill:#dbdbdb;}.k{fill:#d5d5d5;}.l{fill:#d0d0d0;}.m{fill:#fff;}</style></defs><g transform="translate(-2326.598 -346.066)"><path class="a" d="M2338.6,351.588c.03.426-.847.809-.91,1.214s.654,1.048.5,1.432-1.112.355-1.348.7.138,1.225-.169,1.508-1.152-.163-1.516.046-.4,1.162-.807,1.285-.96-.649-1.386-.619-.879.871-1.284.809-.6-1.005-.98-1.158-1.165.4-1.508.169-.1-1.161-.381-1.469-1.224-.135-1.433-.5.417-1.084.294-1.488-1.042-.647-1.072-1.073.847-.809.91-1.214-.655-1.048-.5-1.432,1.112-.355,1.347-.7-.137-1.225.17-1.508,1.152.163,1.517-.046.4-1.162.807-1.285.96.649,1.386.619.879-.871,1.284-.809.6,1.005.98,1.158,1.165-.4,1.508-.169.1,1.161.381,1.469,1.224.135,1.433.5-.417,1.084-.294,1.488S2338.567,351.162,2338.6,351.588Z" transform="translate(0 0)"/><g class="b" transform="translate(2329.713 349.544)"><path class="c" d="M2645.927,713.719h-2.986c-.029,0-.035-.006-.035-.035q0-2.373,0-4.746c0-.029.006-.035.035-.035h5.972c.029,0,.034.006.034.035q0,2.373,0,4.746c0,.029-.006.035-.034.035Z" transform="translate(-2642.906 -708.905)"/><path class="d" d="M2654.629,723.093a.121.121,0,0,1-.094-.044l-.819-.819-1.038-1.038a.121.121,0,0,1,0-.2l.613-.613a.131.131,0,0,1,.22,0l1.044,1.044c.068.068.077.068.146,0l2.907-2.907.021-.021a.127.127,0,0,1,.208,0l.368.368.248.248a.128.128,0,0,1,0,.211l-3.726,3.726A.117.117,0,0,1,2654.629,723.093Z" transform="translate(-2652.543 -718.363)"/><path class="e" d="M2662.726,722.969c.012.056-.04.076-.062.112a.152.152,0,0,1-.021.021l-3.622,3.621a.748.748,0,0,1-.073.064.1.1,0,0,1-.125,0,.632.632,0,0,1-.071-.06L2657,724.976a.72.72,0,0,1-.061-.07.1.1,0,0,1,0-.125.6.6,0,0,1,.054-.064c.179-.18.358-.36.539-.538.039-.038.076-.084.145-.072a.171.171,0,0,1,.09.064q.5.5,1,.995c.017.017.03.038.047.054a.09.09,0,0,0,.142,0c.023-.022.042-.049.064-.072l2.837-2.838c.023-.023.05-.041.072-.065a.113.113,0,0,1,.125,0c.114.113.229.225.342.338s.209.212.314.318A.093.093,0,0,1,2662.726,722.969Z" transform="translate(-2656.799 -722.114)"/><path class="f" d="M2661.734,729.733c-.047,0-.073-.034-.1-.061-.153-.151-.306-.3-.458-.457l-1.318-1.319a.186.186,0,0,1-.063-.091c-.01-.052.027-.081.056-.111q.282-.286.568-.569a.1.1,0,0,1,.173,0l.341.341c.233.233.468.465.7.7.077.078.1.1.2,0q1.452-1.457,2.908-2.911c.072-.072.116-.073.185,0l.577.577c.066.066.066.112,0,.179l-3.664,3.663C2661.81,729.7,2661.783,729.736,2661.734,729.733Z" transform="translate(-2659.649 -725.062)"/><path class="g" d="M2667.82,795.522c.022.021.046.041.066.063a.083.083,0,0,1,0,.115c-.027.023-.048.05-.073.075l-3.577,3.577a.792.792,0,0,1-.079.07.064.064,0,0,1-.085,0c-.025-.02-.05-.041-.073-.064l-1.726-1.726a.8.8,0,0,1-.066-.076.062.062,0,0,1,0-.082.716.716,0,0,1,.064-.073l.484-.485c.023-.023.048-.043.069-.067a.083.083,0,0,1,.129.01.186.186,0,0,0,.049.052.013.013,0,0,1,0,.016c-.028.005-.042-.017-.058-.033-.054-.054-.074-.054-.125,0-.177.163-.342.339-.514.508-.021.021-.038.045-.061.064a.06.06,0,0,0,0,.093c.157.162.317.32.477.479l1.154,1.154c.064.064.128.127.193.19a.062.062,0,0,0,.094,0c.9-.9,1.8-1.8,2.7-2.7l.882-.882c.041-.041.078-.085.118-.127a.054.054,0,0,0,0-.081c-.021-.023-.053-.04-.05-.078A.013.013,0,0,1,2667.82,795.522Z" transform="translate(-2662.024 -794.786)"/><path class="h" d="M2757.947,730.284v-.017c.012.011.025.022.037.034l1,1c.055.055.083.055.138,0q1.477-1.477,2.953-2.955a.106.106,0,0,1,.166,0c.163.168.33.332.5.5.011.011.021.023.031.035h-.017c-.022,0-.032-.014-.044-.026l-.2-.2q-.144-.146-.29-.29c-.046-.046-.073-.046-.118,0l-.125.125-2.792,2.792a.755.755,0,0,1-.076.067.08.08,0,0,1-.1,0,.652.652,0,0,1-.064-.055l-.959-.96C2757.965,730.32,2757.943,730.31,2757.947,730.284Z" transform="translate(-2756.974 -728.143)"/><path class="i" d="M2670,735.194l.2.192c.013.013.027.024.041.037a.327.327,0,0,0,.056.068.062.062,0,0,1,0,.1c-1.2,1.221-2.42,2.423-3.628,3.637a.679.679,0,0,0-.069.067.067.067,0,0,1-.1,0,1.007,1.007,0,0,0-.082-.078l-1.671-1.671a.915.915,0,0,0-.079-.081.071.071,0,0,1,0-.1l.531-.531a.466.466,0,0,1,.05-.038c.005-.006.009-.015.019-.008.008.027-.015.038-.029.052l-.517.518c-.053.053-.053.067,0,.12l1.765,1.765c.053.053.066.053.12,0l3.589-3.589.063-.062a.055.055,0,0,0,0-.094c-.18-.176-.357-.357-.536-.535-.014-.014-.036-.025-.029-.052.02-.007.027.012.036.021.079.078.157.157.236.235A.129.129,0,0,0,2670,735.194Z" transform="translate(-2664.461 -734.686)"/><path class="j" d="M2740.752,730.076c-.019.008-.023-.011-.031-.019-.092-.089-.182-.179-.273-.268,0,0,0,0-.007,0-.054-.023-.084.012-.118.046l-2.885,2.886c-.025.025-.053.046-.08.069a.1.1,0,0,1-.131,0c-.035-.031-.071-.06-.1-.093l-.936-.936c-.032-.032-.064-.064-.093-.1a.038.038,0,0,0-.057,0c-.007,0-.013.009-.021,0l-.017.008a.07.07,0,0,1,.127-.018.592.592,0,0,0,.059.051c.011.013.022.026.034.038l.945.945c.028.028.058.054.088.079a.063.063,0,0,0,.081,0,.587.587,0,0,0,.073-.064l2.919-2.918c.061-.061.086-.061.147,0Z" transform="translate(-2735.21 -729.568)"/><path class="k" d="M2668.332,735.194l1.068,1.072a.809.809,0,0,0,.07.061.092.092,0,0,0,.11,0,1.025,1.025,0,0,0,.082-.073l2.885-2.884a.075.075,0,0,0,.012-.012.084.084,0,0,1,.122-.033c0,.021.019.031.031.043l.546.542a.065.065,0,0,1,0,.1l-.067.064q-1.8,1.8-3.594,3.6c-.047.047-.08.048-.129,0q-.885-.888-1.772-1.774c-.052-.052-.052-.071,0-.122l.529-.529c.011-.012.028-.021.028-.04l.017-.008A.051.051,0,0,1,2668.332,735.194Z" transform="translate(-2667.443 -733.104)"/><path class="i" d="M2740.068,953.783a.088.088,0,0,0-.068,0A.04.04,0,0,1,2740.068,953.783Z" transform="translate(-2739.179 -951.693)"/><path class="l" d="M2672.857,740.634a.027.027,0,0,1-.032-.009l-1.781-1.784c-.046-.046-.046-.057,0-.1l.532-.532c.045-.045.053-.045.1,0l1.044,1.043a.557.557,0,0,0,.067.057c.053.039.1.029.174-.031.01-.009.02-.02.03-.03l2.909-2.909c.057-.057.059-.057.116,0l.529.529c.048.047.048.054,0,.1q-1.814,1.814-3.628,3.626C2672.9,740.61,2672.894,740.646,2672.857,740.634Z" transform="translate(-2670.772 -736.061)"/></g><path class="m" d="M2658.839,721.042l-1.948-1.949.721-.721,1.227,1.227,3.1-3.1.721.721Z" transform="translate(-327.063 -366.895)"/></g></svg>