<svg xmlns="http://www.w3.org/2000/svg" width="39" height="39" viewBox="0 0 39 39"><defs><style>.a{fill:#e0e0e0;}.b{fill:#9e9e9e;}</style></defs><g transform="translate(-285 -285)"><g transform="translate(285 285)"><path class="a" d="M324,304.5a19.356,19.356,0,0,1-4.008,11.837c-.087-.094-.173-.188-.267-.282-1.56-1.56-11.556-2.643-11.556-5.1v-2.534a1.064,1.064,0,0,1,.094-.087c1.054-1.062,2.8-4.073,2.8-5.28a2.907,2.907,0,0,0,1.487-2.8c0-1.755-1.487-1.531-1.487-1.531,0-3.337,1.307-7.944-6.442-7.944H304.5c-7.75,0-6.442,4.608-6.442,7.944,0,0-1.488-.224-1.488,1.531a2.906,2.906,0,0,0,1.488,2.8c0,1.206,1.741,4.218,2.8,5.28l.087.087v2.534c0,2.456-10,3.539-11.556,5.1-.116.116-.224.231-.325.354A19.5,19.5,0,1,1,324,304.5Z" transform="translate(-285 -285)"/><path class="b" d="M365.7,381.389c.094.094.18.188.267.282a19.489,19.489,0,0,1-30.926.072c.1-.123.209-.238.325-.354,1.56-1.56,11.556-2.643,11.556-5.1v-2.534l-.087-.087c-1.062-1.062-2.8-4.073-2.8-5.28a2.906,2.906,0,0,1-1.488-2.8c0-1.755,1.488-1.531,1.488-1.531,0-3.337-1.307-7.944,6.442-7.944h.116c7.749,0,6.442,4.608,6.442,7.944,0,0,1.487-.224,1.487,1.531a2.907,2.907,0,0,1-1.487,2.8c0,1.206-1.741,4.218-2.8,5.28a1.063,1.063,0,0,0-.094.087v2.534C354.146,378.745,364.141,379.829,365.7,381.389Z" transform="translate(-330.977 -350.333)"/></g></g></svg>