<svg xmlns="http://www.w3.org/2000/svg" width="13.815" height="16.559" viewBox="0 0 13.815 16.559"><defs><style>.a{fill:#9a9a9a;}</style></defs><path class="a" d="M91.02,7.976a3.859,3.859,0,0,0,2.82-1.168,3.859,3.859,0,0,0,1.168-2.82,3.86,3.86,0,0,0-1.168-2.82,3.987,3.987,0,0,0-5.64,0,3.859,3.859,0,0,0-1.168,2.82A3.859,3.859,0,0,0,88.2,6.808,3.86,3.86,0,0,0,91.02,7.976Zm0,0" transform="translate(-84.217 0)"/><path class="a" d="M13.781,252.051A9.852,9.852,0,0,0,13.647,251a8.245,8.245,0,0,0-.257-1.052,5.2,5.2,0,0,0-.432-.981,3.7,3.7,0,0,0-.652-.85,2.875,2.875,0,0,0-.937-.589,3.237,3.237,0,0,0-1.2-.216,1.214,1.214,0,0,0-.648.275c-.194.127-.422.273-.675.435a3.869,3.869,0,0,1-.874.385,3.393,3.393,0,0,1-2.137,0,3.859,3.859,0,0,1-.873-.385c-.251-.161-.479-.307-.676-.436a1.212,1.212,0,0,0-.648-.275,3.233,3.233,0,0,0-1.2.217,2.873,2.873,0,0,0-.937.589,3.7,3.7,0,0,0-.652.85,5.206,5.206,0,0,0-.432.981A8.263,8.263,0,0,0,.167,251a9.816,9.816,0,0,0-.134,1.047c-.022.317-.033.646-.033.978a2.75,2.75,0,0,0,.817,2.08,2.94,2.94,0,0,0,2.1.768h7.973a2.939,2.939,0,0,0,2.1-.768,2.748,2.748,0,0,0,.817-2.08C13.815,252.7,13.8,252.366,13.781,252.051Zm0,0" transform="translate(0 -239.318)"/></svg>