<svg xmlns="http://www.w3.org/2000/svg" width="47.426" height="58.891" viewBox="0 0 47.426 58.891"><defs><style>.a{fill:#FF9C05;}.b{fill:#333;}</style></defs><g transform="translate(7775 5228)"><path class="a" d="M894.309,755.318a.7.7,0,0,1,.226-1.385,11.79,11.79,0,0,0,10.685-4.663,18.85,18.85,0,0,0,1.249-4.2,15.207,15.207,0,0,1-10.437,4.194c-.365,0-.591-.016-.64-.02a.7.7,0,0,1,.114-1.4,13.885,13.885,0,0,0,11.343-5.333,33.543,33.543,0,0,0,.273-4.368A13.863,13.863,0,0,1,897,742.53a9.458,9.458,0,0,1-1.144-.06.7.7,0,0,1,.185-1.391,12.436,12.436,0,0,0,10.963-4.969c-.482-4.338-2.327-5.505-3.3-6.115l-.093-.059c-1.134-.717-3.318-1-4.3.367a1.877,1.877,0,0,0,.154,2.065c.729.982,2.283,1.153,4.26.471a.7.7,0,0,1,.457,1.326c-3.686,1.269-5.314-.249-5.843-.96a3.406,3.406,0,0,1-.491-3.074c-3.555-2.266-11.542-3.535-11.626-3.548-6.578-1.049-11.113-.278-13.481,2.293-2.132,2.314-1.868,5.53-1.692,6.665l10,2.2a1.751,1.751,0,0,1,1.377,1.784l-.309,7.731a.353.353,0,0,0,.105.265l6.268,6.152a.7.7,0,0,1-.983,1l-6.268-6.152a1.76,1.76,0,0,1-.524-1.323l.309-7.732a.35.35,0,0,0-.276-.357l-9.976-2.191-3.418,5.433a6.762,6.762,0,0,0-.834,5.211l.351,1.406a.7.7,0,0,1-.146.624l-4.231,4.979a2.336,2.336,0,0,0,1.57,2.056.7.7,0,0,1,.351.315,2.3,2.3,0,0,1,.146,1.918,1.635,1.635,0,0,1-.919.814,7.8,7.8,0,0,0,2.362,1.107c.246.06.9.217.787.875s-.747.593-1.166.55a15.635,15.635,0,0,0-2.171-.113,3.657,3.657,0,0,1,1.334,1.517,1.656,1.656,0,0,1-.467,1.518c-.55.767-.708,1.109-.187,1.667a2.324,2.324,0,0,0,1.487.7l5.518.541a5.693,5.693,0,0,1,4.4,2.873c1.225,2.178,2.551,8.395,2.5,11.308h16.466a23.721,23.721,0,0,1-2.642-21.079,1.752,1.752,0,0,1,1.062-.961,21.848,21.848,0,0,0,9.784-6.76,13.328,13.328,0,0,1-6.993,1.993A9.447,9.447,0,0,1,894.309,755.318Zm-21.643-3.686-3.268.451a.636.636,0,0,1-.1.006.7.7,0,0,1-.095-1.4l.584-.081c-1.917-.91-2.4-1.657-2.5-1.836a.7.7,0,0,1,1.226-.68c.046.064.81,1.065,4.268,2.174a.7.7,0,0,1-.119,1.362Zm.527-3.572a.69.69,0,0,1-.278.058.7.7,0,0,1-.587-.318,2.813,2.813,0,0,0-3.142-1.091l-1.171.393a.7.7,0,0,1-.536-1.293,5.905,5.905,0,0,1,1.359-.464l1.923-.647a1.911,1.911,0,0,1,1.552.149,2.131,2.131,0,0,1,1.032,1.365l.251,1.04A.7.7,0,0,1,873.192,748.06Zm12.895,9.01a.7.7,0,1,1-.7.7A.7.7,0,0,1,886.087,757.07Zm1.432,3.258a2.944,2.944,0,0,1-1.864.894,1.548,1.548,0,0,1-.539-.1,2.317,2.317,0,0,1-1.25-1.8.7.7,0,0,1,1.389-.2c.043.276.2.635.346.687.1.039.426-.034.987-.531,2.013-1.785,3.3-4.614,3-6.58a.7.7,0,0,1,1.387-.213C891.351,754.921,889.9,758.22,887.519,760.328Z" transform="translate(-8636.098 -5952.729)"/><path class="b" d="M875.3,754.076a2.131,2.131,0,0,0-1.032-1.365,1.911,1.911,0,0,0-1.552-.149l-1.923.647a5.91,5.91,0,0,0-1.359.464.7.7,0,0,0,.536,1.293l1.171-.393a2.813,2.813,0,0,1,3.142,1.091.7.7,0,0,0,.587.318.692.692,0,0,0,.278-.058.7.7,0,0,0,.4-.808Z" transform="translate(-8638.049 -5960.593)"/><path class="b" d="M876.706,786.417h.75c.048-2.913-1.279-9.13-2.5-11.308a5.694,5.694,0,0,0-4.4-2.873l-5.518-.541a2.325,2.325,0,0,1-1.487-.7c-.522-.558-.363-.9.187-1.667a1.656,1.656,0,0,0,.467-1.519,3.658,3.658,0,0,0-1.334-1.517,15.625,15.625,0,0,1,2.171.113c.419.043,1.054.11,1.166-.55s-.541-.815-.787-.875a7.8,7.8,0,0,1-2.362-1.107,1.635,1.635,0,0,0,.919-.814,2.3,2.3,0,0,0-.146-1.918.7.7,0,0,0-.351-.315,2.335,2.335,0,0,1-1.57-2.056l4.231-4.979a.7.7,0,0,0,.146-.624l-.351-1.406a6.762,6.762,0,0,1,.834-5.211l3.418-5.433-.481-.106c-.013,0-.022-.011-.034-.015a.71.71,0,0,1-.167-.074c-.021-.013-.045-.02-.064-.034a.691.691,0,0,1-.172-.18c-.009-.014-.012-.031-.02-.046a.713.713,0,0,1-.073-.167c-.006-.027-.032-.134-.064-.3l-3.53,5.61a8.171,8.171,0,0,0-1.007,6.3l.264,1.057-4.163,4.9a.705.705,0,0,0-.164.395A3.742,3.742,0,0,0,862.672,762a.74.74,0,0,1,.037.449c-.034.071-.175.135-.375.171-.927.167-1.044.756-1.051,1a1.822,1.822,0,0,0,.9,1.345,1.416,1.416,0,0,0-1.051.64,1.145,1.145,0,0,0,.212,1.325.679.679,0,0,0,.21.18,4.165,4.165,0,0,1,1.272,1.057c-.057.1-.158.237-.231.339a2.454,2.454,0,0,0-.072,3.443,3.723,3.723,0,0,0,2.376,1.14l5.518.541a4.291,4.291,0,0,1,3.318,2.165c1.291,2.294,2.6,9.31,2.283,11.2,0,.022,0,.041,0,.062A.7.7,0,0,1,876.706,786.417Z" transform="translate(-8635.498 -5956.928)"/><path class="b" d="M884.339,743.47l-.309,7.732a1.761,1.761,0,0,0,.524,1.323l6.268,6.152a.7.7,0,0,0,.983-1l-6.268-6.152a.353.353,0,0,1-.105-.265l.309-7.731a1.75,1.75,0,0,0-1.377-1.784l-10-2.2c.04.257.075.409.077.417a.7.7,0,0,1-.513.849.673.673,0,0,1-.169.021.7.7,0,0,1-.184-.031c.013,0,.022.012.034.015l.481.106,9.976,2.191A.35.35,0,0,1,884.339,743.47Z" transform="translate(-8639.401 -5956.735)"/><path class="b" d="M873.306,741.216c-.021-.013-.044-.02-.064-.034C873.261,741.2,873.285,741.2,873.306,741.216Z" transform="translate(-8639.304 -5957.225)"/><path class="b" d="M872.988,740.906c-.009-.014-.012-.031-.02-.046C872.977,740.875,872.979,740.892,872.988,740.906Z" transform="translate(-8639.222 -5957.128)"/><path class="b" d="M874.788,759.475c-3.458-1.108-4.222-2.11-4.268-2.174a.7.7,0,0,0-1.226.68c.095.18.582.927,2.5,1.836l-.584.081a.7.7,0,0,0,.095,1.4.637.637,0,0,0,.1-.006l3.268-.451a.7.7,0,0,0,.119-1.362Z" transform="translate(-8638.101 -5961.935)"/><path class="b" d="M899.269,762.867a.7.7,0,0,0-.587.8c.3,1.966-.989,4.8-3,6.58-.56.5-.883.57-.987.531-.143-.051-.3-.411-.346-.687a.7.7,0,0,0-1.389.2,2.318,2.318,0,0,0,1.25,1.8,1.55,1.55,0,0,0,.539.1,2.945,2.945,0,0,0,1.864-.894c2.378-2.108,3.832-5.407,3.458-7.843A.7.7,0,0,0,899.269,762.867Z" transform="translate(-8645.188 -5963.697)"/><path class="b" d="M872.833,735.865c.008.014.011.032.02.046a.69.69,0,0,0,.172.18c.02.014.043.022.064.034a.71.71,0,0,0,.167.074.7.7,0,0,0,.184.031.674.674,0,0,0,.169-.021.7.7,0,0,0,.513-.849c0-.008-.037-.159-.077-.417-.176-1.134-.44-4.351,1.692-6.665,2.367-2.571,6.9-3.342,13.481-2.293.084.013,8.072,1.283,11.626,3.548a2.533,2.533,0,0,1,.324-.647,3.374,3.374,0,0,1,.462-.513c-3.815-2.442-11.839-3.718-12.194-3.773-7.079-1.131-12.038-.208-14.741,2.738s-2.209,6.934-2,8.056c.031.169.057.276.064.3A.712.712,0,0,0,872.833,735.865Z" transform="translate(-8639.088 -5952.133)"/><path class="b" d="M905.309,771.661c1.759-.574,9.543-3.522,13.074-11.545a13.83,13.83,0,0,1-3.726,3.451,21.847,21.847,0,0,1-9.784,6.76,1.752,1.752,0,0,0-1.062.961,23.721,23.721,0,0,0,2.642,21.079h1.319a.691.691,0,0,1,.6.358c-.012-.02-.014-.043-.028-.062-7.567-10.655-3.292-20.71-3.249-20.809A.35.35,0,0,1,905.309,771.661Z" transform="translate(-8648.029 -5962.879)"/><path class="b" d="M913.154,730.254a2.534,2.534,0,0,0-.324.647,3.405,3.405,0,0,0,.491,3.074c.529.71,2.157,2.229,5.842.96a.7.7,0,0,0-.457-1.326c-1.977.682-3.531.511-4.26-.471a1.876,1.876,0,0,1-.154-2.065c.983-1.367,3.167-1.084,4.3-.367l.093.059c.97.61,2.815,1.777,3.3,6.115.046-.061.1-.112.142-.175a.7.7,0,1,1,1.131.831,14.949,14.949,0,0,1-1.157,1.38,33.521,33.521,0,0,1-.273,4.368c.036-.048.074-.093.109-.142a.7.7,0,1,1,1.131.831,15.023,15.023,0,0,1-1.62,1.869,18.856,18.856,0,0,1-1.249,4.2c.076-.1.154-.2.229-.3a.7.7,0,0,1,.98-.151.691.691,0,0,1,.275.539,20.382,20.382,0,0,0,1.172-4.178c2.186-12.849-1.742-15.32-3.419-16.375l-.09-.057a4.919,4.919,0,0,0-5.728.22A3.371,3.371,0,0,0,913.154,730.254Z" transform="translate(-8651.073 -5953.5)"/><path class="b" d="M909.986,745.132a.7.7,0,0,0-.185,1.391,9.457,9.457,0,0,0,1.144.06,13.863,13.863,0,0,0,10.12-4.384,14.966,14.966,0,0,0,1.157-1.38.7.7,0,1,0-1.131-.831c-.046.062-.1.114-.142.175A12.436,12.436,0,0,1,909.986,745.132Z" transform="translate(-8650.039 -5956.782)"/><path class="b" d="M909.234,754.64a.7.7,0,0,0-.114,1.4c.05,0,.276.02.64.02a15.207,15.207,0,0,0,10.437-4.194,15.043,15.043,0,0,0,1.62-1.869.7.7,0,1,0-1.131-.83c-.036.049-.073.094-.109.142A13.884,13.884,0,0,1,909.234,754.64Z" transform="translate(-8649.825 -5959.522)"/><path class="b" d="M919.72,758.424a.7.7,0,0,0-.981.151c-.075.1-.153.2-.229.3a11.79,11.79,0,0,1-10.685,4.663.7.7,0,0,0-.226,1.385,9.445,9.445,0,0,0,1.422.093,13.328,13.328,0,0,0,6.993-1.993,13.827,13.827,0,0,0,3.726-3.451c.043-.057.088-.107.13-.165a.732.732,0,0,0-.151-.981Z" transform="translate(-8649.388 -5962.333)"/><path class="b" d="M895.829,771.647a.7.7,0,1,0-.7-.7A.7.7,0,0,0,895.829,771.647Z" transform="translate(-8645.839 -5965.902)"/><path class="b" d="M901.843,806.1H883.308a.7.7,0,0,0-.691.647c0,.019-.01.035-.01.055a.661.661,0,0,0,.015.075.755.755,0,0,0,.029.146.83.83,0,0,0,.13.23.67.67,0,0,0,.089.084.746.746,0,0,0,.118.079.655.655,0,0,0,.121.046.67.67,0,0,0,.2.041h18.535a.706.706,0,0,0,.247-.05.722.722,0,0,0,.07-.036.666.666,0,0,0,.128-.086.855.855,0,0,0,.17-.21.649.649,0,0,0,.047-.126.73.73,0,0,0,.027-.135c0-.021.012-.039.012-.059a.618.618,0,0,0-.015-.075.724.724,0,0,0-.026-.132.665.665,0,0,0-.061-.137A.691.691,0,0,0,901.843,806.1Z" transform="translate(-8642.101 -5976.609)"/></g></svg>