<svg xmlns="http://www.w3.org/2000/svg" width="26.057" height="26.058" viewBox="0 0 26.057 26.058"><defs><style>.a{fill:#3c3c46;}.b{fill:#fff;}</style></defs><g transform="translate(714.057 20)"><path class="a" d="M-701.281-20h.509a2.652,2.652,0,0,1,1.471,1.136,2.14,2.14,0,0,0,2.725.718,4.725,4.725,0,0,1,.638-.245,1.658,1.658,0,0,1,2.194,1.233,5.476,5.476,0,0,1,.136.825,2.148,2.148,0,0,0,1.9,1.889,6.13,6.13,0,0,1,.678.1,1.689,1.689,0,0,1,1.446,1.465,2.691,2.691,0,0,1-.314,1.395,2.133,2.133,0,0,0,.756,2.773A2.641,2.641,0,0,1-688-7.278v.509a2.732,2.732,0,0,1-.321.652,5.917,5.917,0,0,1-.891.822,2.174,2.174,0,0,0-.718,2.672,5.332,5.332,0,0,1,.274.709A1.656,1.656,0,0,1-690.872.25a5.763,5.763,0,0,1-.85.143,2.142,2.142,0,0,0-1.886,1.9c-.026.227-.051.455-.1.679a1.694,1.694,0,0,1-1.472,1.442,2.537,2.537,0,0,1-1.324-.288,2.16,2.16,0,0,0-2.876.777,4.322,4.322,0,0,1-.676.754,1.382,1.382,0,0,1-1.938,0,4.428,4.428,0,0,1-.693-.773,2.172,2.172,0,0,0-2.838-.781,4.115,4.115,0,0,1-.816.271A1.591,1.591,0,0,1-708.246,3.3a5.126,5.126,0,0,1-.2-1.018A2.151,2.151,0,0,0-710.323.395C-710.55.368-710.778.344-711,.3a1.648,1.648,0,0,1-1.459-1.83,3.859,3.859,0,0,1,.327-1.06,2.183,2.183,0,0,0-.741-2.729,5.073,5.073,0,0,1-.662-.552,1.547,1.547,0,0,1,0-2.308,5.331,5.331,0,0,1,.681-.569,2.164,2.164,0,0,0,.726-2.71,4.952,4.952,0,0,1-.265-.686,1.65,1.65,0,0,1,1.221-2.159,5.231,5.231,0,0,1,.824-.141,2.143,2.143,0,0,0,1.909-1.908c.025-.219.049-.439.093-.654a1.639,1.639,0,0,1,1.832-1.453,4.254,4.254,0,0,1,1.107.345,2.147,2.147,0,0,0,2.644-.73A2.678,2.678,0,0,1-701.281-20Zm4.224,6.408-9.158,12.213L-705-.463l9.156-12.212Zm-7.022-.3a2.294,2.294,0,0,0-2.29,2.273,2.3,2.3,0,0,0,2.287,2.3,2.3,2.3,0,0,0,2.291-2.277A2.292,2.292,0,0,0-704.079-13.894Zm3.817,11.411A2.3,2.3,0,0,0-698-.157a2.3,2.3,0,0,0,2.313-2.252,2.294,2.294,0,0,0-2.238-2.325A2.3,2.3,0,0,0-700.262-2.483Z"/><path class="b" d="M-551.094,105.686l1.218.916-9.157,12.212-1.219-.915Z" transform="translate(-145.963 -119.278)"/><path class="b" d="M-560.992,99.757a2.292,2.292,0,0,1,2.288,2.3,2.3,2.3,0,0,1-2.291,2.277,2.3,2.3,0,0,1-2.287-2.3A2.294,2.294,0,0,1-560.992,99.757Zm.761,2.292a.767.767,0,0,0-.752-.765.763.763,0,0,0-.773.743.774.774,0,0,0,.764.781A.773.773,0,0,0-560.23,102.049Z" transform="translate(-143.088 -113.651)"/><path class="b" d="M-443.512,281.659a2.3,2.3,0,0,1,2.339-2.251,2.294,2.294,0,0,1,2.238,2.325,2.3,2.3,0,0,1-2.313,2.252A2.3,2.3,0,0,1-443.512,281.659Zm3.051.042a.767.767,0,0,0-.75-.767.768.768,0,0,0-.774.743.774.774,0,0,0,.763.782A.773.773,0,0,0-440.461,281.7Z" transform="translate(-256.751 -284.143)"/><path d="M-531.819,130.462a.773.773,0,0,1-.761.759.774.774,0,0,1-.764-.781.763.763,0,0,1,.773-.743A.767.767,0,0,1-531.819,130.462Z" transform="translate(-171.498 -142.064)"/><path d="M-412.052,310.112a.773.773,0,0,1-.762.758.774.774,0,0,1-.763-.782.768.768,0,0,1,.774-.743A.767.767,0,0,1-412.052,310.112Z" transform="translate(-285.159 -312.553)"/></g></svg>