<svg xmlns="http://www.w3.org/2000/svg" width="16.877" height="16.877" viewBox="0 0 16.877 16.877"><defs><style>.a{fill:#414853;}.b{fill:#FF9C05;}</style></defs><g transform="translate(-1357.019 55.768)"><path class="a" d="M1357.019,100.7V90.88a.424.424,0,0,0,.026-.06,1.3,1.3,0,0,1,1.352-1.066q6.32,0,12.64,0a1.308,1.308,0,0,1,1.374,1.379c0,.676,0,1.351,0,2.027v.165h-.189c-.709,0-1.417,0-2.126,0a2.47,2.47,0,0,0-.043,4.939c.719.011,1.439,0,2.159,0h.195c0,.8,0,1.573,0,2.348a.489.489,0,0,1-.011.081,1.315,1.315,0,0,1-1.37,1.125h-11.5c-.4,0-.8,0-1.2,0a1.317,1.317,0,0,1-1.266-1.012C1357.045,100.772,1357.031,100.737,1357.019,100.7Z" transform="translate(0 -140.715)"/><path class="b" d="M1420.958-55.768c.464.125.536.528.66.919-.213,0-.41,0-.607,0a1.639,1.639,0,0,0-1.6,1.621c-.007.417,0,.834,0,1.277h-.166c-1.439,0-2.878,0-4.317,0a.2.2,0,0,1-.232-.167c-.067-.214-.154-.422-.229-.634a.661.661,0,0,1,.423-.9l5.75-2.091a.41.41,0,0,0,.056-.031Z" transform="translate(-55.501 0)"/><path class="b" d="M1711.424,230.652c-.533,0-1.066.009-1.6,0a1.478,1.478,0,0,1-.043-2.955c1.114-.024,2.23-.011,3.345-.006a.489.489,0,0,1,.5.506q.006.972,0,1.944a.489.489,0,0,1-.521.514c-.56,0-1.12,0-1.681,0Zm-1.6-.989a.491.491,0,0,0,.5-.479.494.494,0,1,0-.988-.016A.492.492,0,0,0,1709.827,229.662Z" transform="translate(-339.731 -274.088)"/><path class="b" d="M1601.39,3.846h-5.755c0-.462-.023-.917.008-1.369a.6.6,0,0,1,.617-.533q2.249-.006,4.5,0a.627.627,0,0,1,.629.6C1601.4,2.972,1601.39,3.4,1601.39,3.846Z" transform="translate(-230.728 -55.804)"/></g></svg>