<svg id="Group_22394" data-name="Group 22394" xmlns="http://www.w3.org/2000/svg" xmlns:xlink="http://www.w3.org/1999/xlink" width="49.212" height="49.202" viewBox="0 0 49.212 49.202">
  <defs>
    <clipPath id="clip-path">
      <rect id="Rectangle_3376" data-name="Rectangle 3376" width="49.212" height="49.202" fill="#f29f3a"/>
    </clipPath>
  </defs>
  <g id="Group_22393" data-name="Group 22393" clip-path="url(#clip-path)">
    <path id="Path_34935" data-name="Path 34935" d="M43.666,42.78c0,.108,0,.226,0,.344,0,1.511.007,3.022,0,4.533A1.487,1.487,0,0,1,42.3,49.188a1.6,1.6,0,0,1-1.2-.37q-1.941-1.463-3.886-2.92c-1.328-1-2.653-2-3.988-2.984a.927.927,0,0,0-.513-.172c-3.132-.011-6.264.007-9.4-.017A4.884,4.884,0,0,1,18.67,39.1a6.7,6.7,0,0,1-.213-1.568c-.03-1.31-.01-2.621-.01-3.932v-.383c-.165.12-.283.2-.4.291q-4.071,3.049-8.143,6.1a1.5,1.5,0,0,1-2.342-.482A1.853,1.853,0,0,1,7.4,38.32c-.013-2.181-.007-4.362-.007-6.544v-.41c-.166,0-.32,0-.475,0a7.241,7.241,0,0,1-2.835-.383A6.225,6.225,0,0,1,.008,25.06C0,18.806-.011,12.553.013,6.3A6.007,6.007,0,0,1,3.668.546,6.041,6.041,0,0,1,6.321,0c9.115,0,18.23-.013,27.346.008a6.025,6.025,0,0,1,5.777,3.673,6.105,6.105,0,0,1,.539,2.684q0,5.838,0,11.677v.411h.359c1.261,0,2.522-.01,3.782,0a4.964,4.964,0,0,1,4.952,3.954,5.8,5.8,0,0,1,.128,1.279q.013,6.9,0,13.808a5.016,5.016,0,0,1-3.978,5.126,12.822,12.822,0,0,1-1.565.155M10.454,35.355c.135-.1.217-.152.3-.211,2.808-2.107,5.621-4.206,8.417-6.328a2.558,2.558,0,0,1,1.635-.541q6.423.016,12.846,0a3.058,3.058,0,0,0,3.244-3.206q.011-9.395,0-18.789a3.129,3.129,0,0,0-.425-1.665,3.081,3.081,0,0,0-2.834-1.532Q20,3.1,6.355,3.09a1.931,1.931,0,0,0-.419.012A5.094,5.094,0,0,0,4.844,3.4,3.025,3.025,0,0,0,3.081,6.356q0,9.32,0,18.639c0,.11,0,.22.007.33a3.025,3.025,0,0,0,2.954,2.938c.9.042,1.8.012,2.7.017A1.563,1.563,0,0,1,10.454,30q0,2.326,0,4.652Zm11.1-3.988c-.008.113-.016.172-.016.232q0,3.016,0,6.032a2.177,2.177,0,0,0,.067.592,1.9,1.9,0,0,0,1.97,1.435q4.877,0,9.753,0a2,2,0,0,1,1.253.417Q37.13,42,39.691,43.908c.284.213.571.422.9.665v-.353c0-.98,0-1.961,0-2.941a1.545,1.545,0,0,1,1.626-1.62c.64,0,1.281.019,1.92-.01a2.347,2.347,0,0,0,.9-.2,1.928,1.928,0,0,0,1.092-1.91q-.007-6.947,0-13.895c0-.12,0-.24-.014-.36a1.9,1.9,0,0,0-1.821-1.749c-1.41-.025-2.821-.006-4.231,0-.017,0-.033.018-.074.042v.31c0,1.06.014,2.121,0,3.181a6.21,6.21,0,0,1-6.353,6.295H21.55" transform="translate(0 0.001)" fill="#f29f3a"/>
    <path id="Path_34936" data-name="Path 34936" d="M76.4,64.021q5.238,0,10.475,0a1.669,1.669,0,0,1,1.479.627,1.534,1.534,0,0,1-.931,2.416,2.734,2.734,0,0,1-.507.043q-10.565,0-21.13,0a1.566,1.566,0,0,1-1.672-1.171,1.513,1.513,0,0,1,1.3-1.891,4.69,4.69,0,0,1,.479-.023q5.252,0,10.505,0" transform="translate(-56.371 -56.333)" fill="#f29f3a"/>
    <path id="Path_34937" data-name="Path 34937" d="M76.386,118.354q-5.326,0-10.651,0a1.533,1.533,0,0,1-.267-3.054c.089-.009.18-.009.27-.009H87.01a1.56,1.56,0,0,1,1.337.605,1.436,1.436,0,0,1,.2,1.525,1.478,1.478,0,0,1-1.269.924,4.037,4.037,0,0,1-.42.011H76.386" transform="translate(-56.382 -101.446)" fill="#f29f3a"/>
    <path id="Path_34938" data-name="Path 34938" d="M70.99,169.455c-1.741,0-3.481,0-5.221,0a1.552,1.552,0,0,1-1.581-.961,1.529,1.529,0,0,1,1.241-2.1,2.109,2.109,0,0,1,.3-.024q5.266,0,10.533,0a1.531,1.531,0,0,1,1.577,1.1,1.515,1.515,0,0,1-1.3,1.965,4.656,4.656,0,0,1-.479.023q-2.536,0-5.071,0" transform="translate(-56.383 -146.391)" fill="#f29f3a"/>
  </g>
</svg>
