<svg xmlns="http://www.w3.org/2000/svg" width="62.986" height="62.988" viewBox="0 0 62.986 62.988">
  <g id="Group_22448" data-name="Group 22448" transform="translate(-339.525 -1606.524)">
    <path id="Path_34576" data-name="Path 34576" d="M150.633,262.746H118.191V259.63h7.264v-3.445H109.48V240.046h-3.445v7.427h-3.116V215.031h3.116V222.3h3.445V206.319h15.976v-3.445h-7.264v-3.117h32.442v3.117h-7.427v3.445h16.138V222.3h3.445v-7.264H165.9v32.441h-3.115v-7.427h-3.445v16.139H143.206v3.445h7.427v3.116Z" transform="translate(236.606 1406.767)" fill="#f29f3a"/>
    <path id="Path_34577" data-name="Path 34577" d="M158.849,231.544A24.145,24.145,0,1,1,134.7,207.4,24.146,24.146,0,0,1,158.849,231.544Z" transform="translate(236.314 1406.475)" fill="#fff"/>
  </g>
</svg>
