<svg xmlns="http://www.w3.org/2000/svg" width="96.6" height="49" viewBox="0 0 96.6 49">
  <g id="Group_24" data-name="Group 24" transform="translate(1 1)" opacity="0.85">
    <path id="Fill_1" data-name="Fill 1" d="M30.342,0A30.341,30.341,0,0,0,0,30.342H60.684A30.341,30.341,0,0,0,30.342,0" transform="translate(17.659 16.056)" fill="none" stroke="#333" stroke-linejoin="round" stroke-width="2"/>
    <path id="Fill_5" data-name="Fill 5" d="M13.44,0A13.44,13.44,0,0,0,0,13.44H26.879A13.44,13.44,0,0,0,13.44,0" transform="translate(34.561 34.56)" fill="#ff5d00" opacity="0"/>
    <path id="Stroke_7" data-name="Stroke 7" d="M.474,9.482V0" transform="translate(46.826)" fill="none" stroke="#333" stroke-linecap="round" stroke-width="2"/>
    <path id="Stroke_9" data-name="Stroke 9" d="M0,6.7,6.7,0" transform="translate(74.575 14.355)" fill="none" stroke="#333" stroke-linecap="round" stroke-width="2"/>
    <path id="Stroke_11" data-name="Stroke 11" d="M0,.474H9.482" transform="translate(85.118 44.735)" fill="none" stroke="#333" stroke-linecap="round" stroke-width="2"/>
    <path id="Stroke_13" data-name="Stroke 13" d="M6.7,6.7,0,0" transform="translate(13.321 14.355)" fill="none" stroke="#333" stroke-linecap="round" stroke-width="2"/>
    <path id="Stroke_15" data-name="Stroke 15" d="M9.482.474H0" transform="translate(0 44.735)" fill="none" stroke="#333" stroke-linecap="round" stroke-width="2"/>
  </g>
</svg>
