<svg xmlns="http://www.w3.org/2000/svg" width="52.222" height="49" viewBox="0 0 52.222 49">
  <g id="Group_16" data-name="Group 16" transform="translate(1)" opacity="0.85">
    <path id="Stroke_1" data-name="Stroke 1" d="M16.3,32.6A16.288,16.288,0,0,1,4.821,4.748,16.111,16.111,0,0,1,16.228.009,16.467,16.467,0,0,1,20.3.526L24.238,3.2a16.749,16.749,0,0,0-6.359,10.281A15.989,15.989,0,0,0,20.756,25.85L30.053,7.6l0,0c-.185-.29-.382-.578-.585-.857L24.238,3.2A16.023,16.023,0,0,1,33.926,0,16.282,16.282,0,0,1,45.4,27.852,16.112,16.112,0,0,1,34,32.584a16.449,16.449,0,0,1-4.071-.517l1.109-8.886A16.19,16.19,0,0,1,16.3,32.6Zm13.756-25a16.11,16.11,0,0,1,2.239,5.5L31.034,23.181A16.054,16.054,0,0,0,32.292,13.1L33.926,0,30.054,7.6l0,0Z" transform="translate(0 15.397)" fill="none" stroke="#333" stroke-linecap="round" stroke-width="2"/>
    <path id="Fill_1" data-name="Fill 1" d="M3.4,0,0,5.1,9.348,15.3,18.7,5.1,15.3,0Z" transform="translate(15.095)" fill="#333"/>
  </g>
</svg>
