<svg id="Group_22396" data-name="Group 22396" xmlns="http://www.w3.org/2000/svg" xmlns:xlink="http://www.w3.org/1999/xlink" width="60.423" height="52.173" viewBox="0 0 60.423 52.173">
  <defs>
    <clipPath id="clip-path">
      <rect id="Rectangle_3377" data-name="Rectangle 3377" width="60.423" height="52.173" fill="#f29f3a"/>
    </clipPath>
  </defs>
  <g id="Group_22395" data-name="Group 22395" clip-path="url(#clip-path)">
    <path id="Path_34939" data-name="Path 34939" d="M14.821,35.573a33.489,33.489,0,0,0,14.03,13.658c.079-.1.163-.2.232-.3.578-.883,1.158-1.765,1.729-2.653a1.683,1.683,0,0,1,1.041-.748,8.774,8.774,0,0,1,8.723,2.545c1.4,1.346,1.39,1.366,1.371,3.3A14.334,14.334,0,0,1,36.712,62.55a1.52,1.52,0,0,1-.662.3,13.5,13.5,0,0,1-8.863-1.391,35.823,35.823,0,0,1-8-5.689,98.148,98.148,0,0,1-8.261-8.089A57.563,57.563,0,0,1,2.776,36.147,27.112,27.112,0,0,1,.022,28.3a1.272,1.272,0,0,1,.563-1.285,20.014,20.014,0,0,1,5.442-3.271c1.756-.69,3.564-1.248,5.348-1.865a1.481,1.481,0,0,1,1.149.072,9.941,9.941,0,0,1,4.67,3.653c1.557,2.51,1.688,6.641-1.086,9.063a15.143,15.143,0,0,1-1.288.908" transform="translate(0 -10.93)" fill="#f29f3a"/>
    <path id="Path_34940" data-name="Path 34940" d="M84.962,16.362a7.231,7.231,0,0,1-1.271,3.987,1.112,1.112,0,0,0-.2.894c.377,2.179.741,4.361,1.111,6.542a1.3,1.3,0,0,1-.512,1.432,1.243,1.243,0,0,1-1.535-.2q-2.761-2.217-5.517-4.44a.858.858,0,0,0-.71-.22,12.572,12.572,0,0,1-6.957-.987,11.006,11.006,0,0,1-3.743-2.86.6.6,0,0,0-.64-.234,16.273,16.273,0,0,1-5.208.081.951.951,0,0,0-.8.214q-3.706,3.008-7.43,5.992a1.169,1.169,0,0,1-1.448.214c-.5-.3-.628-.655-.509-1.361.5-2.99,1-5.979,1.484-8.972a1.019,1.019,0,0,0-.186-.709A8.544,8.544,0,0,1,49,9.236a8.668,8.668,0,0,1,2.415-4.979A13.424,13.424,0,0,1,59.171.269a15.633,15.633,0,0,1,11.945,2.49,9.359,9.359,0,0,1,3.593,4.553.815.815,0,0,0,.879.611,10.889,10.889,0,0,1,6.689,2.565,7.691,7.691,0,0,1,2.685,5.874M52.39,22.892c.214-.162.33-.246.442-.336,1.747-1.407,3.5-2.807,5.235-4.228a1.684,1.684,0,0,1,1.39-.353,16,16,0,0,0,2.531.219,28.887,28.887,0,0,0,3.316-.344,8.959,8.959,0,0,0,6.745-4.695,5.683,5.683,0,0,0-.114-6.32,9.262,9.262,0,0,0-3.795-3.182,14.976,14.976,0,0,0-6.483-1.363A11.221,11.221,0,0,0,53.075,5.87a6.11,6.11,0,0,0-1.6,6.049,6.437,6.437,0,0,0,1.615,2.788,1.482,1.482,0,0,1,.46,1.315q-.24,1.386-.474,2.773c-.223,1.327-.444,2.655-.685,4.1M75.334,10.2c-.5,4.743-3.439,7.507-7.573,9.4A17.159,17.159,0,0,0,69.3,20.678a11.415,11.415,0,0,0,7.31,1.276,1.524,1.524,0,0,1,1.272.32c.419.344.844.681,1.267,1.021L81.8,25.429c-.009-.176,0-.274-.02-.369-.232-1.372-.443-2.748-.713-4.113a1.724,1.724,0,0,1,.44-1.567,4.644,4.644,0,0,0,.885-4.812,5.984,5.984,0,0,0-3.3-3.421,10.16,10.16,0,0,0-3.767-.946" transform="translate(-24.54 0)" fill="#f29f3a"/>
  </g>
</svg>
