<svg xmlns="http://www.w3.org/2000/svg" width="27.111" height="25.5" viewBox="0 0 27.111 25.5">
  <g id="Group_22460" data-name="Group 22460" transform="translate(-301.444 -124.5)">
    <path id="Stroke_1" data-name="Stroke 1" d="M8.149,16.3A8.144,8.144,0,0,1,2.411,2.374,8.055,8.055,0,0,1,8.114,0a8.234,8.234,0,0,1,2.035.258L12.119,1.6A8.374,8.374,0,0,0,8.94,6.739a7.994,7.994,0,0,0,1.438,6.186L15.026,3.8h0c-.093-.145-.191-.289-.292-.429L12.119,1.6A8.011,8.011,0,0,1,16.963,0,8.141,8.141,0,0,1,22.7,13.926,8.056,8.056,0,0,1,17,16.292a8.224,8.224,0,0,1-2.035-.259l.554-4.443A8.1,8.1,0,0,1,8.149,16.3ZM15.026,3.8a8.055,8.055,0,0,1,1.12,2.748l-.629,5.041a8.027,8.027,0,0,0,.629-5.041L16.963,0,15.027,3.8v0Z" transform="translate(302.444 132.698)" fill="none" stroke="#e7a14f" stroke-linecap="round" stroke-width="2"/>
    <path id="Fill_1" data-name="Fill 1" d="M1.7,0,0,2.549l4.674,5.1,4.674-5.1L7.648,0Z" transform="translate(309.992 125)" fill="none" stroke="#e7a14f" stroke-width="1"/>
  </g>
</svg>
