<svg xmlns="http://www.w3.org/2000/svg" width="26.151" height="25.993" viewBox="0 0 26.151 25.993">
  <g id="Group_22546" data-name="Group 22546" transform="translate(-121.849 -121)">
    <g id="Group_22453" data-name="Group 22453">
      <path id="Stroke_1" data-name="Stroke 1" d="M23.494,10.871,20.733,8.384l.2-3.71a1.52,1.52,0,0,0-1.432-1.6c-.057,0-.114,0-.171,0l-3.709.2L13.121.5a1.519,1.519,0,0,0-2.146-.1,1.337,1.337,0,0,0-.1.1L8.384,3.259l-3.71-.195A1.519,1.519,0,0,0,3.072,4.5q0,.085,0,.17l.2,3.71L.5,10.871a1.519,1.519,0,0,0-.1,2.146c.033.036.068.071.1.1L3.26,15.608l-.2,3.71A1.52,1.52,0,0,0,4.5,20.92a1.415,1.415,0,0,0,.171,0l3.709-.195,2.5,2.768a1.518,1.518,0,0,0,2.146.105,1.348,1.348,0,0,0,.1-.105l2.487-2.761,3.709.2a1.519,1.519,0,0,0,1.6-1.432q0-.085,0-.17l-.2-3.71,2.769-2.494a1.5,1.5,0,0,0,0-2.251Z" transform="translate(123 122)" fill="none" stroke="#e7a14f" stroke-width="2"/>
      <path id="Line" d="M0,6.855,6.855,0" transform="translate(128.142 127.142)" fill="none" stroke="#e7a14f" stroke-linecap="round" stroke-width="2"/>
      <path id="Line_Copy_4" data-name="Line Copy 4" d="M0,6.855,6.855,0" transform="translate(131.568 130.568)" fill="none" stroke="#e7a14f" stroke-linecap="round" stroke-width="2"/>
      <path id="Line-2" data-name="Line" d="M0,6.855-6.855,0" transform="translate(141.851 127.142)" fill="none" stroke="#e7a14f" stroke-linecap="round" stroke-width="2"/>
      <path id="Line_Copy_3" data-name="Line Copy 3" d="M0,6.855-6.855,0" transform="translate(138.424 130.568)" fill="none" stroke="#e7a14f" stroke-linecap="round" stroke-width="2"/>
      <path id="Line_Copy_2" data-name="Line Copy 2" d="M0,6.855-6.855,0" transform="translate(134.996 133.996)" fill="none" stroke="#e7a14f" stroke-linecap="round" stroke-width="2"/>
      <path id="Line_Copy" data-name="Line Copy" d="M0,6.855,6.855,0" transform="translate(134.996 133.996)" fill="none" stroke="#e7a14f" stroke-linecap="round" stroke-width="2"/>
    </g>
  </g>
</svg>
