<svg xmlns="http://www.w3.org/2000/svg" width="50.242" height="49.987" viewBox="0 0 50.242 49.987">
  <g id="Group_30" data-name="Group 30" transform="translate(1.242 1.001)" opacity="0.85">
    <path id="Stroke_1" data-name="Stroke 1" d="M46.987,21.742l-5.522-4.973.391-7.42a3.041,3.041,0,0,0-2.864-3.2c-.115-.005-.228-.005-.341,0l-7.419.391L26.242,1A3.038,3.038,0,0,0,21.951.788,2.674,2.674,0,0,0,21.742,1L16.767,6.519,9.347,6.13a3.038,3.038,0,0,0-3.2,2.864q-.008.17,0,.339l.391,7.42L1,21.742a3.038,3.038,0,0,0-.209,4.293c.065.072.135.142.209.209l5.522,4.973-.391,7.42a3.04,3.04,0,0,0,2.864,3.2,2.83,2.83,0,0,0,.341,0l7.419-.389,4.99,5.535a3.036,3.036,0,0,0,4.291.211,2.7,2.7,0,0,0,.209-.211l4.975-5.522,7.419.391a3.039,3.039,0,0,0,3.2-2.864q.008-.17,0-.339l-.391-7.42,5.537-4.989a3.008,3.008,0,0,0,0-4.5Z" transform="translate(0 0)" fill="none" stroke="#333" stroke-width="2"/>
    <path id="Line" d="M0,13.71,13.71,0" transform="translate(10.282 10.282)" fill="none" stroke="#333" stroke-linecap="round" stroke-width="2"/>
    <path id="Line_Copy_4" data-name="Line Copy 4" d="M0,13.71,13.71,0" transform="translate(17.137 17.137)" fill="none" stroke="#333" stroke-linecap="round" stroke-width="2"/>
    <path id="Line-2" data-name="Line" d="M6.855,13.71-6.855,0" transform="translate(30.847 10.282)" fill="none" stroke="#333" stroke-linecap="round" stroke-width="2"/>
    <path id="Line_Copy_3" data-name="Line Copy 3" d="M6.855,13.71-6.855,0" transform="translate(23.992 17.137)" fill="none" stroke="#333" stroke-linecap="round" stroke-width="2"/>
    <path id="Line_Copy_2" data-name="Line Copy 2" d="M6.855,13.71-6.855,0" transform="translate(17.137 23.992)" fill="none" stroke="#333" stroke-linecap="round" stroke-width="2"/>
    <path id="Line_Copy" data-name="Line Copy" d="M0,13.71,13.71,0" transform="translate(23.992 23.992)" fill="none" stroke="#333" stroke-linecap="round" stroke-width="2"/>
  </g>
</svg>
