<svg xmlns="http://www.w3.org/2000/svg" width="49.3" height="25.5" viewBox="0 0 49.3 25.5">
  <g id="Group_22454" data-name="Group 22454" transform="translate(-200 -121)">
    <path id="Fill_1" data-name="Fill 1" d="M15.171,0A15.17,15.17,0,0,0,0,15.171H30.342A15.17,15.17,0,0,0,15.171,0" transform="translate(209.829 130.027)" fill="none" stroke="#e7a14f" stroke-linejoin="round" stroke-width="2"/>
    <path id="Fill_5" data-name="Fill 5" d="M6.72,0A6.72,6.72,0,0,0,0,6.72H13.44A6.72,6.72,0,0,0,6.72,0" transform="translate(218.28 139.28)" fill="none" stroke="#f48020" stroke-width="1" opacity="0"/>
    <path id="Stroke_7" data-name="Stroke 7" d="M.474,4.741V0" transform="translate(224.176 122)" fill="none" stroke="#e7a14f" stroke-linecap="round" stroke-width="2"/>
    <path id="Stroke_9" data-name="Stroke 9" d="M0,3.352,3.352,0" transform="translate(238.287 129.178)" fill="none" stroke="#e7a14f" stroke-linecap="round" stroke-width="2"/>
    <path id="Stroke_11" data-name="Stroke 11" d="M0,.474H4.741" transform="translate(243.56 144.131)" fill="none" stroke="#e7a14f" stroke-linecap="round" stroke-width="2"/>
    <path id="Stroke_13" data-name="Stroke 13" d="M3.352,3.352,0,0" transform="translate(207.66 129.178)" fill="none" stroke="#e7a14f" stroke-linecap="round" stroke-width="2"/>
    <path id="Stroke_15" data-name="Stroke 15" d="M4.741.474H0" transform="translate(201 144.131)" fill="none" stroke="#e7a14f" stroke-linecap="round" stroke-width="2"/>
  </g>
</svg>
