<svg xmlns="http://www.w3.org/2000/svg" id="group_5" width="295.794" height="295.794" viewBox="0 0 295.794 295.794">
    <defs>
        <style>
            .cls-3{fill-rule:evenodd;fill:#fff}
        </style>
    </defs>
    <path id="Path_10383" fill="#090909" fill-rule="evenodd" d="M295.794 147.9A147.9 147.9 0 1 1 147.9 0a147.9 147.9 0 0 1 147.9 147.9" opacity="0.064"/>
    <path id="Path_10384" fill="none" fill-rule="evenodd" stroke="#fff" stroke-width="0.55px" d="M193.023 123.512A69.512 69.512 0 1 1 123.512 54a69.512 69.512 0 0 1 69.512 69.512" opacity="0.5" transform="translate(25.864 25.864)"/>
    <g id="Group_15891" transform="translate(27.804 29.676)">
        <path id="Path_10385" d="M47.278 200.731a6.4 6.4 0 1 1-6.4-6.4 6.411 6.411 0 0 1 6.4 6.4m9.776-12.956h-8.235a4.669 4.669 0 0 0-4.268 2.779l-.771 1.741a8.92 8.92 0 0 0-5.795-.006l-.769-1.735a4.671 4.671 0 0 0-4.268-2.78h-8.237a1.26 1.26 0 0 0 0 2.52h8.238a2.152 2.152 0 0 1 1.966 1.279l.825 1.866a8.923 8.923 0 1 0 10.285.009l.83-1.875a2.154 2.154 0 0 1 1.967-1.279h8.235a1.259 1.259 0 1 0 0-2.519m33.926 32.262a15.8 15.8 0 0 0 5.712 0v11.888a15.8 15.8 0 0 0-5.712 0v-11.886zM82.8 236.24a1.311 1.311 0 0 0 1.855 1.853 13.007 13.007 0 0 1 18.373 0 1.311 1.311 0 1 0 1.855-1.853 15.563 15.563 0 0 0-5.562-3.589v-13.338a15.545 15.545 0 0 0 5.561-3.589 1.311 1.311 0 0 0-1.853-1.855 13.007 13.007 0 0 1-18.373 0 1.311 1.311 0 0 0-1.855 1.855 15.558 15.558 0 0 0 5.561 3.589v13.337a15.557 15.557 0 0 0-5.562 3.59zM25.117 79.774a1.383 1.383 0 0 0-1.96 0 16.364 16.364 0 0 0-4.773 10.277H13.7a16.372 16.372 0 0 0-4.776-10.278 1.386 1.386 0 0 0-1.96 1.96 13.654 13.654 0 0 1 3.943 8.319H8.361a1.386 1.386 0 1 0 0 2.772h2.548a13.654 13.654 0 0 1-3.943 8.319 1.385 1.385 0 1 0 1.96 1.958 16.372 16.372 0 0 0 4.774-10.28h4.687a16.372 16.372 0 0 0 4.771 10.279 1.385 1.385 0 0 0 1.96-1.958 13.664 13.664 0 0 1-3.944-8.319h2.551a1.386 1.386 0 1 0 0-2.772h-2.55a13.664 13.664 0 0 1 3.944-8.319 1.385 1.385 0 0 0 0-1.96m.683 63.918a11.067 11.067 0 0 0-1.436-4.329 4.68 4.68 0 0 0-6.991-1.4c-2.133 1.548-2.921 4.35-3.41 6.888-.237 1.228-.457 2.47-.66 3.72q-.3-1.875-.66-3.72c-.49-2.538-1.278-5.339-3.41-6.886a4.845 4.845 0 0 0-3.805-.917 4.877 4.877 0 0 0-3.186 2.319 11.018 11.018 0 0 0-1.435 4.329 1.126 1.126 0 1 0 2.233.291 8.792 8.792 0 0 1 1.121-3.44 2.621 2.621 0 0 1 1.705-1.29 2.593 2.593 0 0 1 2.044.531c1.5 1.086 2.115 3.384 2.52 5.49.766 3.968 1.355 8.072 1.751 12.2l.01.068.006.04.015.059.012.049.016.046.021.056.018.038a.44.44 0 0 0 .03.059.373.373 0 0 0 .018.034l.035.058.022.033.04.052.028.033.04.044.034.034.041.037.04.034.041.03.044.033.044.025a.464.464 0 0 0 .046.027l.05.024.044.021.062.022.038.013c.028.009.056.015.084.021h.019a1.077 1.077 0 0 0 .219.022 1.052 1.052 0 0 0 .217-.022h.022l.083-.021.04-.015.059-.021.047-.021.047-.024.049-.027.041-.025.047-.033.04-.03.041-.034.038-.035.035-.035.04-.044.03-.033.037-.052.024-.033.034-.058.021-.034.028-.059.018-.038.021-.056.015-.046.013-.049.015-.059.006-.04.01-.068c.4-4.125.985-8.229 1.751-12.2.405-2.106 1.022-4.4 2.52-5.49a2.593 2.593 0 0 1 2.044-.532 2.628 2.628 0 0 1 1.705 1.291 8.792 8.792 0 0 1 1.121 3.44 1.127 1.127 0 0 0 2.235-.291m111.542-120.27a1.67 1.67 0 0 0 2.362 0l6.219-6.219 4.329 4.327a1.67 1.67 0 1 0 2.362-2.362l-4.329-4.327 7.291-7.291v4.363a1.671 1.671 0 0 0 3.341 0V3.518a1.671 1.671 0 0 0-1.671-1.671h-8.395a1.671 1.671 0 0 0 0 3.342h4.361l-7.291 7.291-4.329-4.329a1.67 1.67 0 0 0-2.362 2.362l4.329 4.329-6.219 6.219a1.67 1.67 0 0 0 0 2.362m-80.21 9.738a1.287 1.287 0 0 0-1.661-.331l-6.488 3.731-2.609-3.4a1.289 1.289 0 0 0-1.666-.331l-6.485 3.731-2.61-3.4a1.287 1.287 0 0 0-1.661-.331l-7.463 4.292a1.286 1.286 0 1 0 1.282 2.23l6.487-3.731 2.61 3.4a1.286 1.286 0 0 0 1.661.333l6.488-3.731 2.609 3.4a1.288 1.288 0 0 0 1.662.333l6.487-3.731 2.61 3.4a1.286 1.286 0 0 0 2.041-1.566l-3.3-4.292zm0 9.538a1.287 1.287 0 0 0-1.661-.331L48.975 46.1l-2.609-3.4a1.289 1.289 0 0 0-1.662-.331L38.218 46.1l-2.61-3.4a1.287 1.287 0 0 0-1.661-.331l-7.463 4.291a1.286 1.286 0 1 0 1.282 2.23l6.487-3.731 2.61 3.4a1.286 1.286 0 0 0 1.661.333l6.488-3.731 2.609 3.4a1.288 1.288 0 0 0 1.662.333l6.487-3.731 2.61 3.4a1.286 1.286 0 0 0 2.041-1.566l-3.3-4.292zm160.166 58.032h24.326a1.127 1.127 0 0 0 0-2.254h-24.324a1.126 1.126 0 1 0 0 2.252m0-5.042h6.941a1.127 1.127 0 0 0 .858-1.858 5.727 5.727 0 1 1 8.729 0 1.127 1.127 0 0 0 .858 1.856h6.941a1.126 1.126 0 1 0 0-2.252h-4.9a7.979 7.979 0 1 0-14.521 0h-4.9a1.126 1.126 0 1 0 0 2.252M95.225 6.614A2.278 2.278 0 1 1 97.5 8.891a2.279 2.279 0 0 1-2.278-2.278m6.158 3.229a5.048 5.048 0 1 0-3.88 1.823 5.629 5.629 0 1 1-5.629 5.629V5.117a5.051 5.051 0 1 0-10.1 0v3.121a1.387 1.387 0 1 0 2.775 0V5.116a2.278 2.278 0 1 1 4.555 0v12.176a8.4 8.4 0 1 0 12.283-7.451M146.2 220.714a2.216 2.216 0 1 1-3.156.339q.235-.233.479-.453a2.221 2.221 0 0 1 2.677.114m-4.548 5.493a4.915 4.915 0 1 0 6.269-7.572 4.82 4.82 0 0 0-.6-.426A13.39 13.39 0 0 1 161.9 221.1a1.349 1.349 0 1 0 1.908-1.908 16.065 16.065 0 0 0-21.983-.7 4.943 4.943 0 0 0-.827.788l-.01.013a4.919 4.919 0 0 0 .666 6.9" class="cls-3" transform="translate(-.799 -.065)"/>
        <path id="Path_10386" d="M112.836 217.759a2.216 2.216 0 0 1 1.205-3.913c.071-.006.142-.01.211-.01a2.2 2.2 0 0 1 1.409.51 2.218 2.218 0 0 1 .33 3.076q-.235.231-.479.451a2.22 2.22 0 0 1-2.677-.114m4.369 2.221a5 5 0 0 0 .831-.793v-.006l.009-.012a4.915 4.915 0 1 0-6.935.67 5.16 5.16 0 0 0 .6.424 13.392 13.392 0 0 1-14.583-2.891 1.349 1.349 0 1 0-1.908 1.908 16.067 16.067 0 0 0 21.979.7M160 189.628a2.3 2.3 0 1 1-1.424 4.107q-.244-.244-.472-.5a2.285 2.285 0 0 1-.4-1.091c-.006-.064-.009-.126-.01-.189v-.074a2.3 2.3 0 0 1 2.3-2.252m-11.79-1.952a3.98 3.98 0 0 0 1.98.532 4.094 4.094 0 0 0 1.522-.3 3.687 3.687 0 0 0 .466-.222 16.487 16.487 0 0 0 2.347 5.491 2.42 2.42 0 0 1-.157.216 2.3 2.3 0 0 1-3.239.3 1.4 1.4 0 1 0-1.787 2.158 5.061 5.061 0 0 0 3.243 1.173c.163 0 .325-.009.488-.024a5.062 5.062 0 0 0 3.223-1.569 5.033 5.033 0 0 0 .448.42l.012.009a5.1 5.1 0 1 0-1.143-6.559 13.757 13.757 0 0 1-1.066-5.675c.04-.322.068-.666.077-1.035v-.092a13.875 13.875 0 0 1 1.519-4.977 1.4 1.4 0 1 0-2.482-1.3 16.708 16.708 0 0 0-1.816 6.093 1.519 1.519 0 0 0-.021.2v.043c-.018.2-.033.4-.041.6-.1.911-.386 1.844-1.115 2.134a1.2 1.2 0 0 1-1.083-.068 1.874 1.874 0 0 1-.873-1.347 12.029 12.029 0 0 1 1.571-7.158 1.4 1.4 0 0 0-2.48-1.3 14.763 14.763 0 0 0-1.858 8.9 4.7 4.7 0 0 0 2.26 3.339m19.7-150.7a1.46 1.46 0 0 0-2.066 2.065l.864.864h.003a2.8 2.8 0 0 1-2.8-2.8V27.9a5.508 5.508 0 0 0-9.584-3.726 5.52 5.52 0 0 0-8.151-.015 5.518 5.518 0 0 0-4.069-1.79 1.46 1.46 0 0 0 0 2.921 2.611 2.611 0 0 1 2.604 2.61v12.939a1.46 1.46 0 1 0 2.921 0V27.9a2.608 2.608 0 1 1 5.216 0v12.939a1.46 1.46 0 1 0 2.921 0V27.96a2.649 2.649 0 0 1 2.573-2.67 2.611 2.611 0 0 1 2.643 2.609v9.2a5.726 5.726 0 0 0 5.588 5.718l-.722.72a1.461 1.461 0 1 0 2.066 2.066l4.243-4.317-4.243-4.316zM191 139.242c.112.707-.044 2.1-1.727 4.481v-5.917c1.531.207 1.667 1.054 1.727 1.436m-19.117-4.955v11.723a1.323 1.323 0 0 0 2.646 0v-11.722a2.363 2.363 0 1 1 4.725 0v11.722a1.324 1.324 0 0 0 2.647 0v-11.654a2.476 2.476 0 0 1 .769-1.787 2.31 2.31 0 0 1 1.727-.64 2.363 2.363 0 0 1 2.229 2.359v12.589a52.291 52.291 0 0 1-5.178 4.7 1.323 1.323 0 1 0 1.614 2.1 53.34 53.34 0 0 0 4.326-3.8 4.557 4.557 0 0 0 3.8 2.038 1.323 1.323 0 1 0 0-2.646 1.914 1.914 0 0 1-1.846-1.417 24.956 24.956 0 0 0 2.887-3.813 7.962 7.962 0 0 0 1.389-5.206c-.342-2.14-1.915-3.464-4.341-3.68v-.858a5.01 5.01 0 0 0-4.727-5 4.935 4.935 0 0 0-3.694 1.361c-.09.086-.177.176-.26.268a5 5 0 0 0-7.386-.015 5 5 0 0 0-3.686-1.621 1.323 1.323 0 1 0 0 2.646 2.366 2.366 0 0 1 2.363 2.363" class="cls-3" transform="translate(44.239 10.619)"/>
    </g>
    <path id="Path_10387" d="M112.016 122.807a10.791 10.791 0 1 1 10.791-10.791 10.79 10.79 0 0 1-10.791 10.791zm13.453-9.019l20.564-1.772-20.564-1.772 19.4-7.033-20.321 3.612 16.925-11.815-18.694 8.748 13.291-15.792-15.792 13.287 8.748-18.694-11.817 16.924 3.613-20.321-7.034 19.4L112.016 78l-1.77 20.564-7.034-19.4 3.612 20.321-11.816-16.93 8.748 18.694-15.792-13.287 13.287 15.792-18.694-8.747 16.924 11.815-20.321-3.612 19.4 7.033L78 112.016l20.564 1.772-19.4 7.032 20.321-3.612-16.93 11.816 18.694-8.748-13.287 15.793 15.792-13.287-8.748 18.694 11.817-16.924-3.613 20.321 7.034-19.4 1.772 20.564 1.77-20.564 7.034 19.4-3.612-20.321 11.815 16.924-8.748-18.694 15.792 13.287-13.287-15.792 18.694 8.748-16.924-11.815 20.321 3.612-19.4-7.032z" class="cls-3" transform="translate(37.36 37.36)"/>
</svg>
