<svg xmlns="http://www.w3.org/2000/svg" width="81.151" height="79.402" viewBox="0 0 81.151 79.402">
  <path id="Path_34578" data-name="Path 34578" d="M478.445,530.215a23.856,23.856,0,0,0,30.576-14.258c.182-.5.344-1,.49-1.5a126.742,126.742,0,0,0-44.734-16.282c-.211.48-.409.968-.591,1.468a23.856,23.856,0,0,0,14.258,30.576Zm-16.87-4.289,2.019,5.581,5.923-.375-5.581,2.019.375,5.923-2.019-5.581-5.924.375,5.581-2.019-.376-5.923Zm67.147-28.156-5.876,3.205,1.432,6.538-3.205-5.876-6.538,1.432,5.876-3.205-1.432-6.539,3.206,5.876,6.538-1.432ZM478.008,471.8l-2.027,6.039,5.23,3.637-6.039-2.027-3.637,5.23,2.028-6.039L468.332,475l6.039,2.027,3.637-5.23Zm25.425,59.19-3.181,9.478,8.208,5.708-9.478-3.181-5.708,8.208,3.182-9.478-8.208-5.708,9.478,3.182,5.708-8.208Zm-10.175-41.765-4.61,3.089,1.675,5.291-3.089-4.61-5.291,1.675,4.61-3.089-1.675-5.291,3.09,4.61,5.291-1.675Zm-6.7,22.18-3.617,7.074,5.778,5.454-7.074-3.618-5.454,5.778,3.618-7.074-5.778-5.454,7.074,3.618,5.453-5.778ZM506.626,523.5c6.321.758,10.609.188,11.365-1.89,1.512-4.155-11.658-12.763-29.415-19.226s-33.379-8.335-34.891-4.18c-.757,2.079,2.162,5.272,7.491,8.754-9.285-5.475-14.674-10.873-13.425-14.3,1.349-3.706,10.113-4.191,22.107-1.851a23.864,23.864,0,0,1,40.5,14.741c10.693,5.917,17.095,11.922,15.746,15.628C524.856,524.6,517.258,525.272,506.626,523.5Z" transform="translate(-447.572 -471.799)" fill="#f29f3a" fill-rule="evenodd"/>
</svg>
