<svg xmlns="http://www.w3.org/2000/svg" width="61.84" height="35.337" viewBox="0 0 61.84 35.337">
  <path id="Path_34573" data-name="Path 34573" d="M361.781,898.534a2.357,2.357,0,0,0-1.284.373l-11.94,7.537a1.181,1.181,0,0,0-.552.994v10.49a1.182,1.182,0,0,0,.552.994l11.94,7.537a2.483,2.483,0,0,0,1.284.373h2.871a1.176,1.176,0,0,0,1.187-1.173V899.707a1.184,1.184,0,0,0-1.187-1.173Zm-24.446,31.8H311.109A7.131,7.131,0,0,1,304,923.242V902.1A7.119,7.119,0,0,1,311.1,895h26.227a7.119,7.119,0,0,1,7.1,7.095v21.133A7.1,7.1,0,0,1,337.335,930.337Z" transform="translate(-304 -895)" fill="#f29f3a"/>
</svg>
