<svg width="65" height="68" viewBox="0 0 65 68" fill="none" xmlns="http://www.w3.org/2000/svg">
<g clip-path="url(#clip0_228_3170)">
<path d="M0 37.6708C0.159066 37.1169 0.302064 36.5582 0.477197 36.0106C1.92646 31.4514 6.31924 28.5524 11.1973 28.9308C15.7395 29.2836 19.6213 32.8881 20.37 37.4489C21.2698 42.9181 17.5968 48.1812 12.2272 49.1215C6.50884 50.1224 1.20344 46.537 0.160672 40.9705C0.133358 40.822 0.0546286 40.6816 0 40.5379C0 39.5817 0 38.6271 0 37.6708ZM8.46261 40.142C7.7428 39.3917 7.05512 38.6175 6.30639 37.9071C5.59622 37.2334 4.58077 37.2701 3.93165 37.9199C3.30342 38.5472 3.23594 39.5466 3.87863 40.2186C5.03708 41.4287 6.22766 42.61 7.45359 43.7514C8.14287 44.3931 9.01693 44.3819 9.69176 43.7242C12.0344 41.4398 14.3705 39.1459 16.6489 36.7976C17.5792 35.8382 16.9799 34.1908 15.6543 34.0774C15.1112 34.0311 14.3979 34.36 13.9801 34.7495C12.1308 36.4672 10.3618 38.2695 8.46261 40.1404V40.142Z" fill="black"/>
<path d="M17.0909 59.493C17.4845 59.493 17.7978 59.493 18.1111 59.493C26.1769 59.493 34.2426 59.493 42.3084 59.493C43.658 59.493 44.4341 58.8433 44.4132 57.7513C44.3971 56.9085 43.785 56.2284 42.9446 56.1406C42.6538 56.1103 42.3582 56.1247 42.0642 56.1247C34.1044 56.1247 26.1464 56.1247 18.1866 56.1247H17.0828C17.0828 55.2387 17.1567 54.3974 17.0668 53.5721C16.8772 51.8337 17.3736 50.6891 18.8984 49.4982C26.0869 43.879 25.4265 32.7668 17.7528 27.7893C17.2804 27.4828 17.0668 27.1779 17.0684 26.5937C17.0925 20.7015 17.0684 14.811 17.0876 8.9188C17.1037 4.41867 19.7339 1.09985 23.9869 0.202696C24.6842 0.0558308 25.4185 0.0286927 26.1351 0.0286927C36.0711 0.0143255 46.0071 0.0606198 55.943 -4.17015e-05C60.9673 -0.0303725 64.1679 3.35231 64.8202 6.95209C64.9471 7.65129 64.9744 8.37764 64.9744 9.09121C64.9825 25.7045 64.9455 42.3178 65.0017 58.9327C65.0194 64.1304 61.4927 67.2305 58.0061 67.8387C57.3264 67.9569 56.6243 67.992 55.9334 67.992C45.9974 68.0016 36.063 68.0047 26.1271 67.9952C21.527 67.9904 18.1208 65.3293 17.2403 61.0702C17.1407 60.5865 17.1439 60.082 17.0909 59.4946V59.493ZM26.8646 16.9884C27.3209 19.956 27.7611 22.8087 28.1949 25.663C29.0079 31.006 29.7936 36.3522 30.6388 41.6888C30.899 43.3283 31.847 44.5495 33.3477 45.3205C33.5533 45.4259 33.7606 45.5296 33.9727 45.6366C32.0495 48.3217 32.043 50.8567 33.9245 52.817C35.6196 54.5826 38.388 54.8891 40.4414 53.521C41.4504 52.8489 42.1509 51.9326 42.4915 50.7641C43.0009 49.0161 42.604 47.4309 41.4825 45.9415H47.3374C45.6455 49.1183 45.9283 51.5942 48.1424 53.3151C50.1042 54.838 52.8131 54.755 54.6946 53.1123C56.7384 51.3292 56.8974 48.7447 55.1284 45.8505C55.2907 45.7611 55.4642 45.6877 55.6137 45.5823C56.2081 45.1641 56.5263 44.6006 56.356 43.8726C56.184 43.1399 55.7261 42.6498 54.9356 42.5604C54.5918 42.5221 54.2431 42.5157 53.8961 42.5157C48.0733 42.5125 42.2505 42.5157 36.4278 42.5125C36.0807 42.5125 35.7321 42.5077 35.3898 42.463C34.6443 42.3673 34.1703 41.9187 34.0032 41.2147C33.8458 40.5506 33.7783 39.8642 33.6578 39.1059C34.0048 39.1059 34.294 39.1059 34.5833 39.1059C39.7119 39.1059 44.8406 39.1139 49.9692 39.1027C52.6541 39.0963 54.6207 37.567 55.1927 34.9602C55.8113 32.1426 56.3608 29.3075 56.9039 26.4739C57.1015 25.4395 57.3939 24.3651 57.2975 23.3419C57.0308 20.5179 54.873 18.7204 51.9487 18.7156C45.1635 18.7061 38.3799 18.7124 31.5948 18.7124C31.2766 18.7124 30.9585 18.7124 30.5825 18.7124C30.3849 17.5008 30.2065 16.3275 29.9977 15.159C29.8209 14.174 29.2409 13.6456 28.2592 13.6265C26.8437 13.5977 25.4281 13.5945 24.0126 13.6265C22.9313 13.6504 22.2243 14.3975 22.2597 15.3872C22.2934 16.3466 22.9907 16.9692 24.0769 16.982C24.9799 16.9932 25.8845 16.9852 26.8597 16.9852L26.8646 16.9884ZM41.0632 5.15938C39.9449 5.15938 38.825 5.14821 37.7067 5.16257C36.6816 5.17535 35.9297 5.87455 35.9088 6.79565C35.8895 7.71036 36.6254 8.49736 37.6425 8.51333C39.9063 8.54685 42.1702 8.54845 44.4341 8.51333C45.4479 8.49736 46.1822 7.69599 46.1517 6.78288C46.1211 5.86018 45.3692 5.17694 44.3377 5.16417C43.2451 5.1498 42.1541 5.16098 41.0616 5.16098L41.0632 5.15938Z" fill="black"/>
<path d="M26.8644 16.9884C25.8875 16.9884 24.9845 16.998 24.0815 16.9852C22.9954 16.9709 22.2965 16.3499 22.2643 15.3905C22.2306 14.4007 22.9376 13.6536 24.0173 13.6297C25.4328 13.5978 26.8483 13.601 28.2638 13.6297C29.2439 13.6505 29.8256 14.1772 30.0023 15.1622C30.2112 16.3307 30.3895 17.5041 30.5872 18.7157C30.9631 18.7157 31.2813 18.7157 31.5994 18.7157C38.3846 18.7157 45.1682 18.7093 51.9534 18.7189C54.8776 18.7221 57.0354 20.5212 57.3022 23.3451C57.3986 24.3684 57.1061 25.4427 56.9085 26.4772C56.3654 29.3107 55.8175 32.1442 55.1974 34.9634C54.6238 37.5703 52.6587 39.0996 49.9739 39.106C44.8452 39.1171 39.7166 39.1091 34.5879 39.1091C34.2987 39.1091 34.0095 39.1091 33.6624 39.1091C33.7829 39.8674 33.8504 40.5538 34.0079 41.2179C34.175 41.9219 34.6506 42.3705 35.3945 42.4663C35.7367 42.511 36.087 42.5158 36.4324 42.5158C42.2552 42.519 48.078 42.5158 53.9007 42.519C54.2478 42.519 54.5964 42.5253 54.9403 42.5637C55.7308 42.6531 56.1887 43.1431 56.3606 43.8759C56.5309 44.6038 56.2128 45.1673 55.6183 45.5856C55.4689 45.6909 55.2954 45.7644 55.1331 45.8537C56.9021 48.7479 56.743 51.3324 54.6993 53.1156C52.8178 54.7566 50.1089 54.8412 48.147 53.3183C45.9314 51.5974 45.6486 49.1231 47.3421 45.9447H41.4872C42.6071 47.4341 43.0055 49.0193 42.4962 50.7673C42.1556 51.9359 41.455 52.8522 40.446 53.5242C38.3926 54.8923 35.6242 54.5858 33.9292 52.8203C32.0477 50.8615 32.0541 48.3249 33.9774 45.6398C33.7653 45.5329 33.558 45.4291 33.3523 45.3238C31.8517 44.5543 30.9037 43.3331 30.6434 41.6921C29.7983 36.3538 29.011 31.0076 28.1996 25.6662C27.7658 22.8119 27.3239 19.9593 26.8692 16.9916L26.8644 16.9884ZM40.9875 27.2259V22.1303H31.0933C31.3279 23.7219 31.5351 25.2639 31.8099 26.7949C31.842 26.9736 32.2549 27.2019 32.496 27.2051C34.3614 27.2386 36.2268 27.2243 38.0938 27.2243C39.045 27.2243 39.9961 27.2243 40.9875 27.2243V27.2259ZM44.4709 22.0856V27.2259C44.8083 27.2259 45.0959 27.2259 45.3835 27.2259C47.5734 27.2259 49.7634 27.2259 51.9534 27.2259C52.8446 27.2259 53.386 26.7794 53.5778 25.8865C53.6822 25.3948 53.777 24.9 53.8702 24.4067C54.1417 22.9684 53.4316 22.1 51.9486 22.0888C50.2663 22.076 48.5825 22.0856 46.9002 22.0856C46.1065 22.0856 45.3112 22.0856 44.4693 22.0856H44.4709ZM32.3722 30.6405C32.6454 32.3949 32.9041 34.0551 33.1595 35.6961H40.9859V30.6405H32.3722ZM44.4484 35.7121C46.4841 35.7121 48.4539 35.7696 50.4174 35.669C50.8704 35.6466 51.5517 35.1661 51.6867 34.7543C52.1157 33.4421 52.3374 32.0628 52.6475 30.674H44.45V35.7121H44.4484ZM51.2834 47.5762C50.3691 47.581 49.5417 48.4175 49.5578 49.3226C49.5738 50.2038 50.3675 50.9956 51.2545 51.018C52.1623 51.0403 53.0106 50.2214 53.0202 49.3099C53.0299 48.4047 52.196 47.5714 51.2834 47.5762ZM39.3117 49.2939C39.3117 48.3536 38.5115 47.5571 37.5861 47.5746C36.6783 47.5906 35.9231 48.3489 35.907 49.2588C35.891 50.207 36.6542 51.0052 37.5909 51.0196C38.5163 51.0323 39.3117 50.2342 39.3117 49.2939Z" fill="url(#paint0_linear_228_3170)"/>
<path d="M40.9875 27.2258C39.9961 27.2258 39.0449 27.2258 38.0938 27.2258C36.2283 27.2258 34.3613 27.2402 32.4959 27.2067C32.2549 27.2019 31.842 26.9736 31.8099 26.7964C31.5335 25.2655 31.3278 23.7234 31.0933 22.1318H40.9875V27.2274V27.2258Z" fill="black"/>
<path d="M44.4707 22.0855C45.3126 22.0855 46.108 22.0855 46.9017 22.0855C48.5839 22.0855 50.2678 22.0759 51.95 22.0887C53.433 22.0998 54.1432 22.9683 53.8716 24.4066C53.7785 24.9015 53.6837 25.3947 53.5792 25.8864C53.3886 26.7793 52.8471 27.2257 51.9548 27.2257C49.7649 27.2257 47.5749 27.2257 45.3849 27.2257C45.0973 27.2257 44.8097 27.2257 44.4723 27.2257V22.0855H44.4707Z" fill="black"/>
<path d="M32.3721 30.6404H40.9857V35.696H33.1594C32.9039 34.055 32.6452 32.3948 32.3721 30.6404Z" fill="black"/>
<path d="M44.4484 35.7122V30.6741H52.6459C52.3358 32.0629 52.1141 33.4422 51.6851 34.7544C51.5501 35.1662 50.8689 35.6451 50.4158 35.6691C48.4539 35.7696 46.4825 35.7122 44.4468 35.7122H44.4484Z" fill="black"/>
<path d="M51.2816 47.5762C52.1942 47.5714 53.0297 48.4047 53.0184 49.3098C53.0088 50.2214 52.162 51.0403 51.2526 51.0179C50.3657 50.9956 49.572 50.2038 49.5559 49.3226C49.5383 48.4191 50.3657 47.581 51.2816 47.5762Z" fill="black"/>
<path d="M39.3117 49.2938C39.3117 50.234 38.5164 51.0322 37.5909 51.0194C36.6542 51.0067 35.8894 50.2069 35.907 49.2587C35.9231 48.3471 36.6783 47.5905 37.5861 47.5745C38.5115 47.5569 39.3101 48.3535 39.3117 49.2938Z" fill="black"/>
</g>
<defs>
<linearGradient id="paint0_linear_228_3170" x1="19.0171" y1="54.4059" x2="67.5464" y2="54.4059" gradientUnits="userSpaceOnUse">
<stop offset="0.0509554" stop-color="#C8A54A"/>
<stop offset="0.393312" stop-color="#F4E49E"/>
<stop offset="0.479299" stop-color="#F4E49E"/>
<stop offset="0.683254" stop-color="#E1C46A"/>
<stop offset="1" stop-color="#D4B156"/>
</linearGradient>
<clipPath id="clip0_228_3170">
<rect width="65" height="68" fill="white"/>
</clipPath>
</defs>
</svg>
