<svg width="51" height="71" viewBox="0 0 51 71" fill="none" xmlns="http://www.w3.org/2000/svg">
<g clip-path="url(#clip0_228_3185)">
<path d="M12.6089 71.0001C11.9312 70.1346 11.2488 69.2723 10.5775 68.402C9.33705 66.7936 8.10295 65.1787 6.77637 63.4478H44.1231C43.7516 63.976 43.4311 64.4771 43.0644 64.9433C41.6278 66.7729 40.1769 68.5913 38.7371 70.4178C38.5968 70.596 38.4931 70.806 38.3735 71.0001H12.6089Z" fill="black"/>
<path d="M25.4856 41.7884C33.3015 41.7884 41.1159 41.7995 48.9319 41.7693C49.6111 41.7661 49.8934 42 50.1182 42.5966C51.4607 46.1747 51.1992 49.7241 49.8232 53.1909C49.0467 55.1461 47.9944 56.9901 47.0903 58.8961C46.8416 59.4211 46.5036 59.5802 45.9216 59.5786C36.2258 59.5579 26.5299 59.5643 16.8325 59.5643C12.8846 59.5643 8.93837 59.5531 4.99052 59.577C4.47073 59.5802 4.19489 59.4211 3.93659 58.9692C2.20343 55.9575 0.64884 52.879 0.151372 49.3837C-0.186651 47.0115 0.0317887 44.7015 0.923085 42.4582C1.12877 41.9396 1.39982 41.7709 1.96107 41.7725C9.80256 41.7932 17.6441 41.7868 25.4856 41.7868V41.7884ZM15.3098 50.7058C15.3305 48.6582 13.6069 46.9018 11.5437 46.8668C9.49643 46.8318 7.72659 48.5452 7.67876 50.6055C7.63093 52.6722 9.40236 54.4779 11.4831 54.4843C13.5384 54.4923 15.2875 52.7629 15.3082 50.7042L15.3098 50.7058ZM29.3043 50.6676C29.2979 48.6136 27.5567 46.8747 25.4999 46.8684C23.4463 46.8604 21.6955 48.5898 21.6732 50.6469C21.6509 52.7247 23.4367 54.5082 25.5174 54.4875C27.5791 54.4668 29.3106 52.7215 29.3043 50.6692V50.6676ZM43.2987 50.6676C43.2923 48.6136 41.5512 46.8747 39.4944 46.8684C37.4407 46.8604 35.69 48.5898 35.6677 50.6469C35.6454 52.7247 37.4312 54.5082 39.5119 54.4875C41.5735 54.4668 43.3051 52.7215 43.2987 50.6692V50.6676Z" fill="black"/>
<path d="M46.3141 37.9524H4.4248C4.89517 37.6183 5.2013 37.4051 5.50425 37.1839C6.40192 36.5316 7.34264 35.9271 8.18611 35.2111C9.64981 33.9686 10.1983 32.3092 10.1999 30.3507C9.3357 30.3507 8.52094 30.3587 7.70458 30.3491C6.22334 30.33 5.13274 29.2418 5.13752 27.7988C5.14231 26.3574 6.23291 25.2787 7.73009 25.2787C19.5752 25.274 31.4204 25.274 43.2655 25.2787C44.7468 25.2787 45.8454 26.3813 45.8438 27.8163C45.8438 29.2514 44.7452 30.3316 43.2592 30.3491C42.4444 30.3587 41.6281 30.3507 40.7878 30.3507C40.7463 32.7594 41.7189 34.5572 43.5956 35.8889C44.5156 36.5412 45.4515 37.1728 46.3811 37.8139C46.3588 37.8601 46.3365 37.9078 46.3141 37.9539V37.9524Z" fill="black"/>
<path d="M34.976 10.7215C29.8785 14.8946 29.6266 15.1841 25.4699 21.5909C23.1436 17.2126 19.9993 13.6059 15.9829 10.7406C16.7769 8.12342 18.1609 5.87379 20.0966 4.03782C21.6017 2.60913 23.3349 1.41909 24.9947 0.157457C25.1924 0.0079061 25.6325 -0.0557325 25.8302 0.0604079C29.9327 2.47867 33.1519 5.69083 34.8484 10.2394C34.9026 10.3858 34.9297 10.5433 34.9776 10.7231L34.976 10.7215Z" fill="black"/>
<path d="M2.61328 10.0867C9.18241 9.80188 16.9378 14.7434 20.9415 21.3889C20.7485 21.4143 20.5843 21.4541 20.4185 21.4541C16.5551 21.4573 12.6902 21.4652 8.82684 21.4414C8.52868 21.4398 8.13485 21.303 7.95149 21.0866C5.31109 17.9763 3.44558 14.4698 2.64039 10.443C2.61966 10.3412 2.62285 10.2346 2.61328 10.0851V10.0867Z" fill="black"/>
<path d="M30.0249 21.4588C33.8484 14.9041 41.886 9.69684 48.5827 10.12C47.9385 11.9321 47.4889 13.7729 46.6486 15.4148C45.6441 17.3732 44.3159 19.1679 43.0962 21.0118C42.9511 21.2313 42.5971 21.4382 42.3388 21.4398C38.265 21.4668 34.1912 21.4588 30.0249 21.4588Z" fill="black"/>
<path d="M15.3101 50.7056C15.2894 52.7643 13.5387 54.4921 11.485 54.4857C9.4027 54.4778 7.63127 52.672 7.6807 50.607C7.72853 48.5451 9.49837 46.8332 11.5456 46.8682C13.6089 46.9032 15.3325 48.6596 15.3117 50.7072L15.3101 50.7056Z" fill="url(#paint0_linear_228_3185)"/>
<path d="M29.306 50.6675C29.3124 52.7199 27.5808 54.4652 25.5192 54.4859C23.4384 54.5065 21.6543 52.7231 21.675 50.6453C21.6957 48.5897 23.448 46.8604 25.5017 46.8667C27.5585 46.8747 29.2996 48.6136 29.306 50.6659V50.6675Z" fill="url(#paint1_linear_228_3185)"/>
<path d="M43.3006 50.6675C43.307 52.7199 41.5754 54.4652 39.5138 54.4859C37.4331 54.5065 35.6489 52.7231 35.6696 50.6453C35.6903 48.5897 37.4426 46.8604 39.4963 46.8667C41.5531 46.8747 43.2943 48.6136 43.3006 50.6659V50.6675Z" fill="url(#paint2_linear_228_3185)"/>
</g>
<defs>
<linearGradient id="paint0_linear_228_3185" x1="6.973" y1="54.4858" x2="17.538" y2="54.4858" gradientUnits="userSpaceOnUse">
<stop offset="0.0509554" stop-color="#C8A54A"/>
<stop offset="0.393312" stop-color="#F4E49E"/>
<stop offset="0.479299" stop-color="#F4E49E"/>
<stop offset="0.683254" stop-color="#E1C46A"/>
<stop offset="1" stop-color="#D4B156"/>
</linearGradient>
<linearGradient id="paint1_linear_228_3185" x1="20.9682" y1="54.486" x2="31.5318" y2="54.486" gradientUnits="userSpaceOnUse">
<stop offset="0.0509554" stop-color="#C8A54A"/>
<stop offset="0.393312" stop-color="#F4E49E"/>
<stop offset="0.479299" stop-color="#F4E49E"/>
<stop offset="0.683254" stop-color="#E1C46A"/>
<stop offset="1" stop-color="#D4B156"/>
</linearGradient>
<linearGradient id="paint2_linear_228_3185" x1="34.9628" y1="54.486" x2="45.5264" y2="54.486" gradientUnits="userSpaceOnUse">
<stop offset="0.0509554" stop-color="#C8A54A"/>
<stop offset="0.393312" stop-color="#F4E49E"/>
<stop offset="0.479299" stop-color="#F4E49E"/>
<stop offset="0.683254" stop-color="#E1C46A"/>
<stop offset="1" stop-color="#D4B156"/>
</linearGradient>
<clipPath id="clip0_228_3185">
<rect width="51" height="71" fill="white"/>
</clipPath>
</defs>
</svg>
