<svg width="73" height="86" viewBox="0 0 73 86" fill="none" xmlns="http://www.w3.org/2000/svg">
<g clip-path="url(#clip0_228_3180)">
<path d="M0 74.7432C0 74.4638 0 74.1826 0 73.9032C0.250739 73.442 0.494791 72.9773 0.755559 72.5228C4.17563 66.5704 7.59905 60.6197 11.0191 54.669C11.5122 53.8088 11.4671 53.7129 10.531 53.3947C9.90083 53.1809 9.26562 52.9772 8.65716 52.7113C6.69806 51.8544 5.93916 50.4673 6.27849 48.3429C6.46738 47.1578 6.66463 45.9694 6.95716 44.8078C7.46866 42.771 7.0608 41.0051 5.67672 39.4295C4.86767 38.5087 4.07868 37.5609 3.36324 36.5661C1.99755 34.6672 1.96245 33.2801 3.27297 31.324C4.04859 30.1676 4.91447 29.0666 5.80376 27.9943C7.10593 26.4238 7.58902 24.7034 7.05912 22.6934C6.79668 21.6969 6.63621 20.6717 6.44231 19.6566C5.92913 16.9767 6.64457 15.5795 9.13357 14.5476C10.1566 14.1234 11.2097 13.7547 12.2778 13.4685C14.4024 12.9012 15.7113 11.568 16.3782 9.47727C16.7761 8.23158 17.2525 7.00104 17.8108 5.82099C18.6533 4.04167 19.9939 3.39862 21.9112 3.76055C23.19 4.00295 24.4687 4.26556 25.7274 4.59887C27.3422 5.02644 28.7229 4.84296 30.0418 3.65618C31.2136 2.60239 32.5693 1.74387 33.8932 0.875253C35.7453 -0.336773 37.5874 -0.333407 39.3492 1.11934C40.2953 1.89874 41.2649 2.64952 42.2043 3.43566C43.6051 4.60897 45.173 4.99278 46.9466 4.54668C48.0749 4.26219 49.2099 3.9979 50.3483 3.75381C53.0396 3.17979 54.3517 3.84303 55.4483 6.38492C55.9113 7.45891 56.3058 8.56657 56.6786 9.67591C57.3071 11.5428 58.5474 12.711 60.423 13.2716C61.7235 13.6604 63.0173 14.0897 64.2676 14.6183C66.1448 15.4111 66.8686 16.7578 66.5778 18.7695C66.4056 19.9562 66.2284 21.1498 65.9275 22.3062C65.3775 24.4239 65.8021 26.2638 67.1544 27.9607C68.0738 29.1155 68.9447 30.3174 69.7521 31.5547C70.9991 33.4636 70.9623 34.7278 69.6301 36.5593C68.8762 37.5963 68.0454 38.5794 67.2163 39.5574C65.9726 41.0236 65.5447 42.6632 66.0027 44.5486C66.2451 45.5519 66.424 46.5703 66.6296 47.582C67.2213 50.4926 66.424 51.9689 63.6859 53.0042C62.9922 53.2668 62.2851 53.4923 61.5463 53.7482C61.7619 54.1303 61.9374 54.4468 62.118 54.7599C65.5247 60.6551 68.933 66.5502 72.3347 72.4471C72.5437 72.8073 72.7493 73.1794 72.8897 73.5699C73.2374 74.5429 72.756 75.3879 71.7413 75.5563C71.1128 75.6606 70.4709 75.6893 69.8323 75.7179C68.0287 75.797 66.2234 75.8525 64.4181 75.9283C62.1163 76.0242 60.3394 77.0191 59.1225 79.0257C57.9507 80.9582 56.7488 82.8739 55.5319 84.7778C54.5607 86.2995 53.3856 86.2675 52.4394 84.7256C52.3375 84.5589 52.2472 84.3855 52.1503 84.2172C48.6617 78.1756 45.173 72.134 41.6811 66.094C41.4922 65.7675 41.2716 65.4594 41.0342 65.0958C40.4943 65.5099 40.0262 65.8533 39.5749 66.2186C37.7529 67.6949 35.8807 67.6815 33.9634 66.4206C33.6157 66.1917 33.2646 65.9644 32.9303 65.7153C32.026 65.0403 32.016 65.0369 31.4577 66.0065C27.9222 72.1508 24.3985 78.3002 20.8414 84.4293C20.5021 85.0134 19.9621 85.4764 19.5141 85.9965H18.68C18.2437 85.542 17.7239 85.1414 17.3845 84.6212C16.1325 82.7072 14.9641 80.7394 13.7204 78.822C12.5787 77.0646 10.9222 76.1707 8.84271 76.0764C6.56768 75.9737 4.29431 75.8509 2.01928 75.7886C1.14671 75.765 0.478075 75.4721 0.00167159 74.7398L0 74.7432ZM36.4407 58.8202C49.9906 58.9431 61.7235 47.6191 61.4176 33.0461C61.1367 19.7391 50.5288 8.56489 36.6613 8.53795C22.5798 8.51102 11.7362 19.7576 11.5507 33.2549C11.3501 47.7723 22.8038 58.8825 36.4423 58.8202H36.4407Z" fill="black"/>
<path d="M36.4406 58.8204C22.8038 58.8827 11.3484 47.7724 11.549 33.2551C11.7345 19.7578 22.5781 8.5112 36.6596 8.53813C50.5271 8.56507 61.135 19.7393 61.4159 33.0463C61.7234 47.6192 49.9905 58.9433 36.439 58.8204H36.4406ZM36.4824 54.9217C48.3624 54.952 57.5211 45.3534 57.6197 34.0277C57.73 21.2812 47.2909 11.9133 35.451 12.4267C24.4152 12.9065 15.1228 22.1852 15.3452 34.2954C15.5524 45.5083 25.3513 55.1052 36.4824 54.9217Z" fill="url(#paint0_linear_228_3180)"/>
<path d="M36.4825 54.9216C25.3514 55.1068 15.5525 45.5082 15.3452 34.2953C15.1229 22.1851 24.4153 12.9047 35.4511 12.4266C47.291 11.9132 57.7284 21.2811 57.6197 34.0276C57.5228 45.3533 48.3641 54.9519 36.4825 54.9216ZM27.8487 45.0655C27.8069 46.4728 28.4756 46.9862 29.5838 46.4711C30.891 45.8634 32.1698 45.1816 33.4268 44.4712C35.5698 43.2575 37.6793 43.2441 39.8256 44.4544C41.0108 45.1227 42.2194 45.7523 43.4396 46.3549C44.8337 47.0451 45.5692 46.5519 45.3854 45.015C45.2065 43.5185 44.9424 42.032 44.6766 40.549C44.2821 38.3606 44.9223 36.5274 46.4752 34.9888C47.4865 33.9889 48.5079 32.9991 49.5175 31.9975C49.9605 31.5581 50.4937 31.0077 50.1377 30.4101C49.887 29.9892 49.2451 29.6845 48.7252 29.5751C47.4799 29.3108 46.2061 29.1728 44.9407 29.0179C42.45 28.7149 40.6631 27.4759 39.6267 25.1394C39.0952 23.9409 38.5268 22.7541 37.8716 21.6212C37.6058 21.1599 37.0659 20.5724 36.648 20.5691C36.2301 20.5657 35.6701 21.1431 35.411 21.6043C34.6872 22.8904 34.1021 24.254 33.4368 25.5754C32.4957 27.4456 31.003 28.5769 28.9319 28.895C27.4793 29.1189 26.0116 29.2721 24.5774 29.5785C24.0425 29.6929 23.3371 30.0498 23.1582 30.4824C23.0111 30.8376 23.419 31.5733 23.7717 31.9638C24.7446 33.0361 25.8194 34.0158 26.8524 35.0326C28.4505 36.6032 28.9837 38.5054 28.5959 40.6988C28.3285 42.2105 28.0794 43.7255 27.8504 45.0672L27.8487 45.0655Z" fill="black"/>
<path d="M27.8486 45.0655C28.0776 43.7238 28.3267 42.2088 28.5941 40.6971C28.9819 38.5037 28.447 36.6015 26.8506 35.0309C25.8176 34.0141 24.7428 33.0344 23.7699 31.9621C23.4155 31.5716 23.0093 30.8359 23.1564 30.4808C23.3353 30.0464 24.0407 29.6913 24.5756 29.5768C26.0115 29.2704 27.4775 29.1172 28.9301 28.8933C31.0012 28.5752 32.4939 27.444 33.435 25.5737C34.1003 24.254 34.6854 22.8904 35.4092 21.6027C35.6683 21.1431 36.2266 20.5657 36.6462 20.5674C37.064 20.5708 37.604 21.1582 37.8698 21.6195C38.525 22.7507 39.0934 23.9392 39.6249 25.1377C40.6613 27.4743 42.4482 28.7132 44.9389 29.0162C46.2043 29.1694 47.4781 29.3091 48.7234 29.5734C49.2433 29.6828 49.8851 29.9892 50.1359 30.4084C50.4919 31.006 49.9604 31.5564 49.5157 31.9958C48.5061 32.9974 47.4847 33.9872 46.4734 34.9871C44.9205 36.5257 44.2803 38.3589 44.6748 40.5473C44.9423 42.0304 45.2047 43.5184 45.3836 45.0133C45.5674 46.5502 44.8319 47.0434 43.4378 46.3532C42.2176 45.7506 41.009 45.121 39.8238 44.4527C37.6775 43.2424 35.568 43.2558 33.425 44.4696C32.168 45.1816 30.8909 45.8617 29.582 46.4694C28.4738 46.9845 27.8051 46.4694 27.8469 45.0638L27.8486 45.0655Z" fill="url(#paint1_linear_228_3180)"/>
</g>
<defs>
<linearGradient id="paint0_linear_228_3180" x1="6.9283" y1="58.8214" x2="75.9688" y2="58.8214" gradientUnits="userSpaceOnUse">
<stop offset="0.0509554" stop-color="#C8A54A"/>
<stop offset="0.393312" stop-color="#F4E49E"/>
<stop offset="0.479299" stop-color="#F4E49E"/>
<stop offset="0.683254" stop-color="#E1C46A"/>
<stop offset="1" stop-color="#D4B156"/>
</linearGradient>
<linearGradient id="paint1_linear_228_3180" x1="20.6137" y1="46.6648" x2="58.1646" y2="46.6648" gradientUnits="userSpaceOnUse">
<stop offset="0.0509554" stop-color="#C8A54A"/>
<stop offset="0.393312" stop-color="#F4E49E"/>
<stop offset="0.479299" stop-color="#F4E49E"/>
<stop offset="0.683254" stop-color="#E1C46A"/>
<stop offset="1" stop-color="#D4B156"/>
</linearGradient>
<clipPath id="clip0_228_3180">
<rect width="73" height="86" fill="white"/>
</clipPath>
</defs>
</svg>
