<svg width="50" height="70" viewBox="0 0 50 70" fill="none" xmlns="http://www.w3.org/2000/svg">
<g clip-path="url(#clip0_228_3163)">
<path d="M0.000205498 68.1573V1.8244C0.374362 0.980322 0.992388 0.380498 1.83257 0H48.1495C49.5325 0.613117 50.0035 1.66655 50.0002 3.16694C49.9685 24.4466 49.9785 45.7262 49.9785 67.0059C49.9785 69.0745 49.0715 69.9767 46.9953 69.9767C32.3915 69.9767 17.786 69.9618 3.18221 70C1.67222 70.0033 0.618232 69.5281 -0.00146484 68.1573H0.000205498ZM24.9351 27.5321C27.4873 27.5321 30.0413 27.5321 32.5936 27.5321C35.0072 27.5321 37.4225 27.552 39.8362 27.5255C41.7805 27.5039 43.0148 25.7243 42.2515 24.0561C41.7454 22.9495 40.8033 22.5458 39.6157 22.5474C29.8759 22.5557 20.1362 22.5524 10.3981 22.5524C10.2043 22.5524 10.0072 22.5441 9.8168 22.5657C8.00615 22.7767 6.97889 24.6144 7.81072 26.1713C8.35191 27.1848 9.25724 27.5371 10.3697 27.5354C15.2254 27.5271 20.081 27.5321 24.9367 27.5321H24.9351ZM24.9751 32.5002C22.9223 32.5002 20.8678 32.5002 18.8149 32.5002C15.9286 32.5002 13.0439 32.4836 10.1576 32.5068C8.24501 32.5218 7.029 34.2182 7.68712 35.8914C8.07798 36.885 9.02005 37.4782 10.2728 37.4782C20.0961 37.4815 29.9177 37.4799 39.741 37.4782C39.8796 37.4782 40.0199 37.4815 40.1569 37.4666C42.0394 37.2489 43.0733 35.275 42.1045 33.7198C41.5399 32.8125 40.6713 32.4919 39.6257 32.4952C34.7416 32.5052 29.8592 32.5002 24.9751 32.5002ZM25.057 42.4496C22.0604 42.4496 19.0638 42.4496 16.0672 42.4496C14.0695 42.4496 12.0718 42.4214 10.074 42.4596C8.2233 42.4945 7.04403 44.2042 7.68879 45.8425C8.06962 46.8096 9.00836 47.426 10.191 47.426C20.0694 47.4326 29.9478 47.4293 39.8245 47.4293C39.9347 47.4293 40.0466 47.4293 40.1569 47.4177C41.4798 47.2648 42.492 46.1748 42.4803 44.922C42.4686 43.6659 41.4414 42.5892 40.1218 42.4613C39.8746 42.438 39.6224 42.4496 39.3735 42.4496C34.6013 42.4496 29.8292 42.4496 25.0553 42.4496H25.057ZM17.4904 12.5996C15.1051 12.5996 12.7199 12.5946 10.3346 12.6013C8.67429 12.6063 7.49503 13.6481 7.49837 15.092C7.50171 16.5392 8.67596 17.576 10.3413 17.5777C15.1118 17.5827 19.8823 17.5827 24.6528 17.5777C26.3148 17.576 27.4907 16.5309 27.4873 15.0853C27.4857 13.6398 26.3098 12.6046 24.6461 12.6013C22.2608 12.5946 19.8756 12.6013 17.4904 12.6013V12.5996ZM34.9304 57.3804C36.5105 57.3804 38.0907 57.3871 39.6708 57.3788C41.3211 57.3705 42.502 56.3071 42.482 54.8632C42.462 53.4409 41.3077 52.4057 39.7025 52.4024C36.569 52.3941 33.4371 52.3941 30.3035 52.4024C28.6549 52.4057 27.4706 53.4741 27.4924 54.9163C27.5124 56.3353 28.6699 57.3688 30.2718 57.3804C31.8235 57.3904 33.377 57.3821 34.9304 57.3821V57.3804Z" fill="black"/>
<path d="M24.9347 27.5303C20.079 27.5303 15.2233 27.5254 10.3676 27.5337C9.25684 27.5353 8.35151 27.1831 7.80865 26.1695C6.97682 24.6126 8.00408 22.7733 9.81473 22.5639C10.0068 22.5423 10.2023 22.5506 10.396 22.5506C20.1358 22.5506 29.8755 22.554 39.6136 22.5457C40.7996 22.5457 41.7433 22.9494 42.2494 24.0544C43.0128 25.7226 41.7784 27.5021 39.8341 27.5237C37.4205 27.5503 35.0068 27.5303 32.5915 27.5303C30.0392 27.5303 27.4853 27.5303 24.933 27.5303H24.9347Z" fill="url(#paint0_linear_228_3163)"/>
<path d="M24.9752 32.5001C29.8592 32.5001 34.7416 32.5051 39.6257 32.4952C40.6714 32.4935 41.5399 32.8125 42.1045 33.7197C43.0733 35.2749 42.0394 37.2505 40.1569 37.4665C40.0199 37.4832 39.8796 37.4782 39.741 37.4782C29.9177 37.4782 20.0961 37.4798 10.2728 37.4782C9.02006 37.4782 8.07966 36.885 7.68713 35.8914C7.02902 34.2182 8.24503 32.5217 10.1576 32.5068C13.0439 32.4835 15.9286 32.5001 18.8149 32.5001C20.8678 32.5001 22.9223 32.5001 24.9752 32.5001Z" fill="url(#paint1_linear_228_3163)"/>
<path d="M25.0568 42.4495C29.8289 42.4495 34.6011 42.4495 39.3749 42.4495C39.6238 42.4495 39.876 42.4362 40.1233 42.4611C41.4428 42.5891 42.4701 43.6658 42.4818 44.9219C42.4935 46.1747 41.4796 47.2647 40.1583 47.4176C40.0481 47.4309 39.9362 47.4292 39.8259 47.4292C29.9475 47.4292 20.0691 47.4325 10.1924 47.4259C9.00813 47.4259 8.07107 46.8094 7.69023 45.8424C7.04381 44.2041 8.22474 42.4927 10.0755 42.4595C12.0732 42.4213 14.0709 42.4495 16.0687 42.4495C19.0653 42.4495 22.0619 42.4495 25.0584 42.4495H25.0568Z" fill="url(#paint2_linear_228_3163)"/>
<path d="M17.49 12.5996C19.8753 12.5996 22.2605 12.5947 24.6458 12.5996C26.3111 12.6046 27.4854 13.6381 27.487 15.0837C27.4887 16.5292 26.3128 17.5744 24.6525 17.576C19.882 17.581 15.1115 17.581 10.341 17.576C8.67564 17.5744 7.50139 16.5376 7.49805 15.0903C7.49471 13.6464 8.6723 12.603 10.3343 12.5996C12.7195 12.593 15.1048 12.598 17.49 12.598V12.5996Z" fill="url(#paint3_linear_228_3163)"/>
<path d="M34.93 57.3803C33.3766 57.3803 31.8248 57.3887 30.2714 57.3787C28.6695 57.3687 27.512 56.3336 27.492 54.9146C27.4719 53.474 28.6545 52.4056 30.3031 52.4006C33.4367 52.394 36.5686 52.3923 39.7021 52.4006C41.3073 52.4056 42.4616 53.4408 42.4816 54.8614C42.5016 56.3037 41.3207 57.3687 39.6704 57.377C38.0903 57.3853 36.5101 57.3787 34.93 57.3787V57.3803Z" fill="url(#paint4_linear_228_3163)"/>
</g>
<defs>
<linearGradient id="paint0_linear_228_3163" x1="4.27889" y1="27.5375" x2="52.6754" y2="27.5375" gradientUnits="userSpaceOnUse">
<stop offset="0.0509554" stop-color="#C8A54A"/>
<stop offset="0.393312" stop-color="#F4E49E"/>
<stop offset="0.479299" stop-color="#F4E49E"/>
<stop offset="0.683254" stop-color="#E1C46A"/>
<stop offset="1" stop-color="#D4B156"/>
</linearGradient>
<linearGradient id="paint1_linear_228_3163" x1="4.26911" y1="37.4789" x2="52.6732" y2="37.4789" gradientUnits="userSpaceOnUse">
<stop offset="0.0509554" stop-color="#C8A54A"/>
<stop offset="0.393312" stop-color="#F4E49E"/>
<stop offset="0.479299" stop-color="#F4E49E"/>
<stop offset="0.683254" stop-color="#E1C46A"/>
<stop offset="1" stop-color="#D4B156"/>
</linearGradient>
<linearGradient id="paint2_linear_228_3163" x1="4.27374" y1="47.43" x2="52.6815" y2="47.43" gradientUnits="userSpaceOnUse">
<stop offset="0.0509554" stop-color="#C8A54A"/>
<stop offset="0.393312" stop-color="#F4E49E"/>
<stop offset="0.479299" stop-color="#F4E49E"/>
<stop offset="0.683254" stop-color="#E1C46A"/>
<stop offset="1" stop-color="#D4B156"/>
</linearGradient>
<linearGradient id="paint3_linear_228_3163" x1="5.64722" y1="17.5798" x2="33.3172" y2="17.5798" gradientUnits="userSpaceOnUse">
<stop offset="0.0509554" stop-color="#C8A54A"/>
<stop offset="0.393312" stop-color="#F4E49E"/>
<stop offset="0.479299" stop-color="#F4E49E"/>
<stop offset="0.683254" stop-color="#E1C46A"/>
<stop offset="1" stop-color="#D4B156"/>
</linearGradient>
<linearGradient id="paint4_linear_228_3163" x1="26.1037" y1="57.3836" x2="46.854" y2="57.3836" gradientUnits="userSpaceOnUse">
<stop offset="0.0509554" stop-color="#C8A54A"/>
<stop offset="0.393312" stop-color="#F4E49E"/>
<stop offset="0.479299" stop-color="#F4E49E"/>
<stop offset="0.683254" stop-color="#E1C46A"/>
<stop offset="1" stop-color="#D4B156"/>
</linearGradient>
<clipPath id="clip0_228_3163">
<rect width="50" height="70" fill="white"/>
</clipPath>
</defs>
</svg>
